<svg width="446" height="141" viewBox="0 0 446 141" fill="none" xmlns="http://www.w3.org/2000/svg">
<path d="M297.931 3.00456L250.535 3.01067C248.457 3.01223 246.416 3.34433 244.617 3.97366C242.819 4.603 241.325 5.50743 240.286 6.59624L216.591 31.689C215.551 32.7789 215.004 34.0151 215.004 35.2735C215.004 36.5318 215.552 37.7679 216.592 38.8575L240.293 63.9442C241.332 65.0327 242.826 65.9368 244.626 66.5656C246.425 67.1945 248.465 67.5261 250.543 67.5271L297.939 67.521C300.017 67.5194 302.058 67.1873 303.857 66.558C305.656 65.9287 307.15 65.0242 308.188 63.9354L331.883 38.8426C332.923 37.7528 333.47 36.5165 333.47 35.2582C333.47 33.9999 332.922 32.7638 331.882 31.6742L308.181 6.58748C307.142 5.49895 305.648 4.5949 303.849 3.96603C302.05 3.33716 300.009 3.00558 297.931 3.00456Z" stroke="#4B8E93" stroke-width="2" stroke-linecap="round" stroke-linejoin="round"/>
<path d="M417 20.2C432.464 20.2 445 15.9019 445 10.6C445 5.29807 432.464 1 417 1C401.536 1 389 5.29807 389 10.6C389 15.9019 401.536 20.2 417 20.2Z" stroke="#4B8E93" stroke-width="2" stroke-linecap="round" stroke-linejoin="round"/>
<path d="M445 33C445 38.312 432.556 42.6 417 42.6C401.444 42.6 389 38.312 389 33" stroke="#4B8E93" stroke-width="2" stroke-linecap="round" stroke-linejoin="round"/>
<path d="M389 10.6V55.4C389 60.712 401.444 65 417 65C432.556 65 445 60.712 445 55.4V10.6" stroke="#4B8E93" stroke-width="2" stroke-linecap="round" stroke-linejoin="round"/>
<path d="M43 72H57" stroke="#4B8E93" stroke-width="2" stroke-linecap="round" stroke-linejoin="round"/>
<path d="M417 92.2C432.464 92.2 445 87.9019 445 82.6C445 77.2981 432.464 73 417 73C401.536 73 389 77.2981 389 82.6C389 87.9019 401.536 92.2 417 92.2Z" stroke="#4B8E93" stroke-width="2" stroke-linecap="round" stroke-linejoin="round"/>
<path d="M445 105C445 110.312 432.556 114.6 417 114.6C401.444 114.6 389 110.312 389 105" stroke="#4B8E93" stroke-width="2" stroke-linecap="round" stroke-linejoin="round"/>
<path d="M389 82.6V127.4C389 132.712 401.444 137 417 137C432.556 137 445 132.712 445 127.4V82.6" stroke="#4B8E93" stroke-width="2" stroke-linecap="round" stroke-linejoin="round"/>
<path d="M92.75 92.125L109 108.062L92.75 124" stroke="#4B8E93" stroke-width="2" stroke-linecap="round" stroke-linejoin="round"/>
<path d="M57 73V95.3125C57 98.694 58.3696 101.937 60.8076 104.328C63.2456 106.719 66.5522 108.062 70 108.062H109" stroke="#4B8E93" stroke-width="2" stroke-linecap="round" stroke-linejoin="round"/>
<path d="M92.75 51.875L109 35.9375L92.75 20" stroke="#4B8E93" stroke-width="2" stroke-linecap="round" stroke-linejoin="round"/>
<path d="M57 71V48.6875C57 45.306 58.3696 42.063 60.8076 39.6719C63.2456 37.2808 66.5522 35.9375 70 35.9375H109" stroke="#4B8E93" stroke-width="2" stroke-linecap="round" stroke-linejoin="round"/>
<path d="M335 35H387M387 35L361 23M387 35L361 47" stroke="#4B8E93" stroke-width="2" stroke-linecap="round" stroke-linejoin="round"/>
<path d="M335 107H387M387 107L361 95M387 107L361 119" stroke="#4B8E93" stroke-width="2" stroke-linecap="round" stroke-linejoin="round"/>
<path d="M297.931 75.0046L250.535 75.0107C248.457 75.0123 246.416 75.3444 244.617 75.9737C242.819 76.6031 241.325 77.5075 240.286 78.5963L216.591 103.689C215.551 104.779 215.004 106.015 215.004 107.274C215.004 108.532 215.552 109.768 216.592 110.858L240.293 135.944C241.332 137.033 242.826 137.937 244.626 138.566C246.425 139.195 248.465 139.526 250.543 139.527L297.939 139.521C300.017 139.519 302.058 139.187 303.857 138.558C305.656 137.929 307.15 137.024 308.188 135.935L331.883 110.843C332.923 109.753 333.47 108.517 333.47 107.258C333.47 106 332.922 104.764 331.882 103.674L308.181 78.5875C307.142 77.499 305.648 76.595 303.849 75.9661C302.05 75.3372 300.009 75.0056 297.931 75.0046Z" stroke="#4B8E93" stroke-width="2" stroke-linecap="round" stroke-linejoin="round"/>
<path d="M246.112 106.448C246.112 106.243 246.063 106.07 245.966 105.928C245.873 105.782 245.751 105.665 245.6 105.577C245.448 105.484 245.28 105.418 245.094 105.379C244.909 105.335 244.728 105.313 244.552 105.313C244.357 105.313 244.176 105.335 244.01 105.379C243.849 105.423 243.71 105.486 243.593 105.569C243.476 105.652 243.383 105.755 243.314 105.877C243.251 105.994 243.219 106.126 243.219 106.272C243.219 106.526 243.295 106.729 243.446 106.88C243.603 107.027 243.861 107.164 244.223 107.291L245.68 107.803C246.305 108.013 246.762 108.299 247.05 108.66C247.338 109.021 247.482 109.454 247.482 109.957C247.482 110.293 247.414 110.604 247.277 110.887C247.145 111.165 246.955 111.404 246.706 111.604C246.461 111.8 246.166 111.951 245.819 112.059C245.473 112.171 245.087 112.227 244.662 112.227C244.071 112.227 243.59 112.132 243.219 111.941C242.848 111.751 242.562 111.5 242.362 111.187H241.601V109.927H243.117C243.117 110.137 243.161 110.318 243.249 110.469C243.341 110.616 243.461 110.735 243.607 110.828C243.759 110.921 243.927 110.989 244.113 111.033C244.303 111.077 244.496 111.099 244.691 111.099C244.882 111.099 245.065 111.077 245.241 111.033C245.417 110.984 245.57 110.916 245.702 110.828C245.839 110.735 245.946 110.625 246.024 110.499C246.103 110.372 246.142 110.228 246.142 110.066C246.142 109.822 246.061 109.615 245.9 109.444C245.744 109.273 245.475 109.119 245.094 108.982L243.644 108.44C243.053 108.23 242.614 107.964 242.326 107.642C242.042 107.315 241.901 106.907 241.901 106.419C241.901 106.097 241.959 105.799 242.077 105.525C242.199 105.252 242.372 105.018 242.597 104.822C242.826 104.622 243.104 104.466 243.432 104.354C243.759 104.241 244.132 104.185 244.552 104.185C245.094 104.185 245.548 104.261 245.915 104.412C246.281 104.563 246.61 104.822 246.903 105.188H247.614V106.448H246.112ZM250.302 108.382C250.302 108.597 250.316 108.794 250.346 108.975C250.38 109.151 250.426 109.319 250.485 109.48C250.666 109.969 250.954 110.337 251.349 110.586C251.75 110.831 252.201 110.953 252.704 110.953C253.1 110.953 253.483 110.899 253.854 110.792C254.23 110.679 254.623 110.506 255.033 110.271L255.583 111.202C255.084 111.543 254.584 111.797 254.081 111.963C253.578 112.129 253.056 112.212 252.514 112.212C252.001 112.212 251.525 112.127 251.085 111.956C250.651 111.785 250.275 111.531 249.958 111.194C249.645 110.857 249.398 110.438 249.218 109.935C249.042 109.432 248.954 108.846 248.954 108.177C248.954 107.635 249.03 107.125 249.181 106.646C249.333 106.163 249.557 105.743 249.855 105.386C250.158 105.025 250.531 104.739 250.976 104.529C251.42 104.319 251.938 104.214 252.528 104.214C253.1 104.214 253.576 104.302 253.957 104.478C254.342 104.649 254.655 104.878 254.894 105.167C255.138 105.45 255.321 105.774 255.443 106.141C255.57 106.507 255.658 106.88 255.707 107.261C255.731 107.447 255.746 107.635 255.751 107.825C255.761 108.016 255.766 108.201 255.766 108.382H250.302ZM252.433 105.357C252.116 105.357 251.837 105.403 251.598 105.496C251.364 105.584 251.164 105.713 250.998 105.884C250.832 106.05 250.697 106.255 250.595 106.5C250.497 106.744 250.424 107.017 250.375 107.32H254.308C254.289 107.037 254.242 106.775 254.169 106.536C254.101 106.297 253.993 106.089 253.847 105.914C253.7 105.738 253.512 105.601 253.283 105.503C253.053 105.406 252.77 105.357 252.433 105.357ZM263.083 106.016H261.691V105.547C261.53 105.547 261.364 105.579 261.193 105.643C261.027 105.701 260.871 105.794 260.724 105.921C260.578 106.043 260.448 106.202 260.336 106.397C260.229 106.587 260.15 106.814 260.102 107.078V110.74H261.391V112H257.626V110.74H258.673L258.681 105.672H257.626V104.412H260.05V105.459C260.138 105.303 260.236 105.159 260.343 105.027C260.456 104.891 260.578 104.773 260.709 104.676C260.846 104.573 260.995 104.495 261.156 104.441C261.322 104.383 261.5 104.354 261.691 104.354C261.945 104.354 262.184 104.354 262.409 104.354C262.633 104.354 262.858 104.358 263.083 104.368V106.016ZM264.071 104.412H266.693V105.672H265.983L267.858 110.901L269.689 105.672H269.228V104.412H271.63V105.672H270.978L268.495 112.117H267.147L264.672 105.672H264.071V104.412ZM272.655 104.412H275.131V110.74H276.273V112H272.67V110.74H273.754V105.672H272.655V104.412ZM273.498 101.724C273.498 101.597 273.522 101.478 273.571 101.365C273.625 101.248 273.693 101.148 273.776 101.065C273.864 100.977 273.966 100.909 274.083 100.86C274.201 100.806 274.325 100.779 274.457 100.779C274.584 100.779 274.704 100.806 274.816 100.86C274.933 100.909 275.033 100.977 275.116 101.065C275.204 101.148 275.272 101.248 275.321 101.365C275.375 101.478 275.402 101.597 275.402 101.724C275.402 101.856 275.375 101.98 275.321 102.098C275.272 102.215 275.204 102.32 275.116 102.413C275.033 102.5 274.933 102.571 274.816 102.625C274.704 102.674 274.584 102.698 274.457 102.698C274.325 102.698 274.201 102.674 274.083 102.625C273.966 102.571 273.864 102.5 273.776 102.413C273.693 102.32 273.625 102.215 273.571 102.098C273.522 101.98 273.498 101.856 273.498 101.724ZM283.012 106.434C282.807 106.067 282.545 105.799 282.228 105.628C281.916 105.457 281.552 105.372 281.137 105.372C280.819 105.372 280.521 105.438 280.243 105.569C279.965 105.701 279.721 105.889 279.511 106.133C279.306 106.377 279.142 106.675 279.02 107.027C278.903 107.374 278.844 107.762 278.844 108.191C278.844 108.616 278.903 109 279.02 109.341C279.142 109.683 279.308 109.976 279.518 110.22C279.728 110.459 279.97 110.645 280.243 110.777C280.521 110.904 280.819 110.967 281.137 110.967C281.605 110.967 282.013 110.855 282.36 110.63C282.707 110.401 282.982 110.066 283.188 109.627L284.315 110.184C284.169 110.496 283.988 110.777 283.773 111.026C283.559 111.275 283.314 111.487 283.041 111.663C282.772 111.839 282.475 111.973 282.147 112.066C281.825 112.164 281.483 112.212 281.122 112.212C280.595 112.212 280.106 112.115 279.657 111.919C279.213 111.719 278.827 111.441 278.5 111.084C278.178 110.728 277.926 110.303 277.746 109.81C277.565 109.317 277.475 108.777 277.475 108.191C277.475 107.605 277.57 107.066 277.76 106.573C277.951 106.08 278.212 105.657 278.544 105.306C278.876 104.949 279.264 104.671 279.708 104.471C280.153 104.271 280.629 104.17 281.137 104.17C281.615 104.17 282.067 104.253 282.492 104.419C282.921 104.585 283.297 104.837 283.62 105.174H284.389V106.434H283.012ZM287.011 108.382C287.011 108.597 287.025 108.794 287.055 108.975C287.089 109.151 287.135 109.319 287.194 109.48C287.375 109.969 287.663 110.337 288.058 110.586C288.458 110.831 288.91 110.953 289.413 110.953C289.809 110.953 290.192 110.899 290.563 110.792C290.939 110.679 291.332 110.506 291.742 110.271L292.292 111.202C291.793 111.543 291.293 111.797 290.79 111.963C290.287 112.129 289.765 112.212 289.223 112.212C288.71 112.212 288.234 112.127 287.794 111.956C287.36 111.785 286.984 111.531 286.667 111.194C286.354 110.857 286.107 110.438 285.927 109.935C285.751 109.432 285.663 108.846 285.663 108.177C285.663 107.635 285.739 107.125 285.89 106.646C286.042 106.163 286.266 105.743 286.564 105.386C286.867 105.025 287.24 104.739 287.685 104.529C288.129 104.319 288.646 104.214 289.237 104.214C289.809 104.214 290.285 104.302 290.666 104.478C291.051 104.649 291.364 104.878 291.603 105.167C291.847 105.45 292.03 105.774 292.152 106.141C292.279 106.507 292.367 106.88 292.416 107.261C292.44 107.447 292.455 107.635 292.46 107.825C292.47 108.016 292.475 108.201 292.475 108.382H287.011ZM289.142 105.357C288.825 105.357 288.546 105.403 288.307 105.496C288.073 105.584 287.873 105.713 287.707 105.884C287.541 106.05 287.406 106.255 287.304 106.5C287.206 106.744 287.133 107.017 287.084 107.32H291.017C290.998 107.037 290.951 106.775 290.878 106.536C290.81 106.297 290.702 106.089 290.556 105.914C290.409 105.738 290.221 105.601 289.992 105.503C289.762 105.406 289.479 105.357 289.142 105.357ZM297.931 110.74H298.986V102.164H297.931V100.882L302.926 100.896C303.375 100.896 303.798 100.982 304.193 101.153C304.589 101.319 304.933 101.548 305.226 101.841C305.519 102.129 305.749 102.471 305.915 102.867C306.085 103.262 306.171 103.687 306.171 104.141C306.171 104.615 306.039 105.047 305.775 105.438C305.512 105.828 305.136 106.141 304.647 106.375C304.887 106.502 305.104 106.651 305.299 106.822C305.495 106.988 305.661 107.171 305.797 107.371C305.934 107.571 306.039 107.784 306.112 108.008C306.19 108.233 306.229 108.462 306.229 108.697C306.229 109.161 306.144 109.593 305.973 109.993C305.807 110.394 305.578 110.743 305.285 111.041C304.992 111.338 304.647 111.573 304.252 111.744C303.861 111.915 303.441 112 302.992 112H297.931V110.74ZM300.421 107.063V110.74H303.007C303.241 110.74 303.458 110.682 303.659 110.564C303.859 110.447 304.035 110.296 304.186 110.11C304.337 109.92 304.455 109.705 304.538 109.466C304.625 109.227 304.669 108.982 304.669 108.733C304.669 108.519 304.625 108.311 304.538 108.111C304.45 107.911 304.33 107.732 304.179 107.576C304.032 107.42 303.856 107.295 303.651 107.203C303.451 107.11 303.236 107.063 303.007 107.063H300.421ZM300.421 102.164V105.789H302.941C303.175 105.789 303.393 105.743 303.593 105.65C303.798 105.557 303.974 105.433 304.12 105.276C304.271 105.12 304.391 104.939 304.479 104.734C304.567 104.529 304.611 104.317 304.611 104.097C304.611 103.858 304.567 103.624 304.479 103.394C304.391 103.16 304.271 102.952 304.12 102.771C303.969 102.591 303.791 102.444 303.585 102.332C303.385 102.22 303.17 102.164 302.941 102.164H300.421Z" fill="#4B8E93"/>
<path d="M245.112 34.4482C245.112 34.2432 245.063 34.0698 244.966 33.9282C244.873 33.7817 244.751 33.6646 244.6 33.5767C244.448 33.4839 244.28 33.418 244.094 33.3789C243.909 33.335 243.728 33.313 243.552 33.313C243.357 33.313 243.176 33.335 243.01 33.3789C242.849 33.4229 242.71 33.4863 242.593 33.5693C242.476 33.6523 242.383 33.7549 242.314 33.877C242.251 33.9941 242.219 34.126 242.219 34.2725C242.219 34.5264 242.295 34.729 242.446 34.8804C242.603 35.0269 242.861 35.1636 243.223 35.2905L244.68 35.8032C245.305 36.0132 245.762 36.2988 246.05 36.6602C246.338 37.0215 246.482 37.4536 246.482 37.9565C246.482 38.2935 246.414 38.6035 246.277 38.8867C246.145 39.165 245.955 39.4043 245.706 39.6045C245.461 39.7998 245.166 39.9512 244.819 40.0586C244.473 40.1709 244.087 40.2271 243.662 40.2271C243.071 40.2271 242.59 40.1318 242.219 39.9414C241.848 39.751 241.562 39.4995 241.362 39.187H240.601V37.9272H242.117C242.117 38.1372 242.161 38.3179 242.249 38.4692C242.341 38.6157 242.461 38.7354 242.607 38.8281C242.759 38.9209 242.927 38.9893 243.113 39.0332C243.303 39.0771 243.496 39.0991 243.691 39.0991C243.882 39.0991 244.065 39.0771 244.241 39.0332C244.417 38.9844 244.57 38.916 244.702 38.8281C244.839 38.7354 244.946 38.6255 245.024 38.4985C245.103 38.3716 245.142 38.2275 245.142 38.0664C245.142 37.8223 245.061 37.6147 244.9 37.4438C244.744 37.2729 244.475 37.1191 244.094 36.9824L242.644 36.4404C242.053 36.2305 241.614 35.9644 241.326 35.6421C241.042 35.3149 240.901 34.9072 240.901 34.4189C240.901 34.0967 240.959 33.7988 241.077 33.5254C241.199 33.252 241.372 33.0176 241.597 32.8223C241.826 32.6221 242.104 32.4658 242.432 32.3535C242.759 32.2412 243.132 32.1851 243.552 32.1851C244.094 32.1851 244.548 32.2607 244.915 32.4121C245.281 32.5635 245.61 32.8223 245.903 33.1885H246.614V34.4482H245.112ZM249.302 36.3818C249.302 36.5967 249.316 36.7944 249.346 36.9751C249.38 37.1509 249.426 37.3193 249.485 37.4805C249.666 37.9688 249.954 38.3374 250.349 38.5864C250.75 38.8306 251.201 38.9526 251.704 38.9526C252.1 38.9526 252.483 38.8989 252.854 38.7915C253.23 38.6792 253.623 38.5059 254.033 38.2715L254.583 39.2017C254.084 39.5435 253.584 39.7974 253.081 39.9634C252.578 40.1294 252.056 40.2124 251.514 40.2124C251.001 40.2124 250.525 40.127 250.085 39.9561C249.651 39.7852 249.275 39.5312 248.958 39.1943C248.645 38.8574 248.398 38.4375 248.218 37.9346C248.042 37.4316 247.954 36.8457 247.954 36.1768C247.954 35.6348 248.03 35.1245 248.181 34.646C248.333 34.1626 248.557 33.7427 248.855 33.3862C249.158 33.0249 249.531 32.7393 249.976 32.5293C250.42 32.3193 250.938 32.2144 251.528 32.2144C252.1 32.2144 252.576 32.3022 252.957 32.478C253.342 32.6489 253.655 32.8784 253.894 33.1665C254.138 33.4497 254.321 33.7744 254.443 34.1406C254.57 34.5068 254.658 34.8804 254.707 35.2612C254.731 35.4468 254.746 35.6348 254.751 35.8252C254.761 36.0156 254.766 36.2012 254.766 36.3818H249.302ZM251.433 33.3569C251.116 33.3569 250.837 33.4033 250.598 33.4961C250.364 33.584 250.164 33.7134 249.998 33.8843C249.832 34.0503 249.697 34.2554 249.595 34.4995C249.497 34.7437 249.424 35.0171 249.375 35.3198H253.308C253.289 35.0366 253.242 34.7754 253.169 34.5361C253.101 34.2969 252.993 34.0894 252.847 33.9136C252.7 33.7378 252.512 33.6011 252.283 33.5034C252.053 33.4058 251.77 33.3569 251.433 33.3569ZM262.083 34.0161H260.691V33.5474C260.53 33.5474 260.364 33.5791 260.193 33.6426C260.027 33.7012 259.871 33.7939 259.724 33.9209C259.578 34.043 259.448 34.2017 259.336 34.397C259.229 34.5874 259.15 34.8145 259.102 35.0781V38.7402H260.391V40H256.626V38.7402H257.673L257.681 33.6719H256.626V32.4121H259.05V33.4595C259.138 33.3032 259.236 33.1592 259.343 33.0273C259.456 32.8906 259.578 32.7734 259.709 32.6758C259.846 32.5732 259.995 32.4951 260.156 32.4414C260.322 32.3828 260.5 32.3535 260.691 32.3535C260.945 32.3535 261.184 32.3535 261.409 32.3535C261.633 32.3535 261.858 32.3584 262.083 32.3682V34.0161ZM263.071 32.4121H265.693V33.6719H264.983L266.858 38.9014L268.689 33.6719H268.228V32.4121H270.63V33.6719H269.978L267.495 40.1172H266.147L263.672 33.6719H263.071V32.4121ZM271.655 32.4121H274.131V38.7402H275.273V40H271.67V38.7402H272.754V33.6719H271.655V32.4121ZM272.498 29.7241C272.498 29.5972 272.522 29.4775 272.571 29.3652C272.625 29.248 272.693 29.1479 272.776 29.0649C272.864 28.9771 272.966 28.9087 273.083 28.8599C273.201 28.8062 273.325 28.7793 273.457 28.7793C273.584 28.7793 273.704 28.8062 273.816 28.8599C273.933 28.9087 274.033 28.9771 274.116 29.0649C274.204 29.1479 274.272 29.248 274.321 29.3652C274.375 29.4775 274.402 29.5972 274.402 29.7241C274.402 29.856 274.375 29.9805 274.321 30.0977C274.272 30.2148 274.204 30.3198 274.116 30.4126C274.033 30.5005 273.933 30.5713 273.816 30.625C273.704 30.6738 273.584 30.6982 273.457 30.6982C273.325 30.6982 273.201 30.6738 273.083 30.625C272.966 30.5713 272.864 30.5005 272.776 30.4126C272.693 30.3198 272.625 30.2148 272.571 30.0977C272.522 29.9805 272.498 29.856 272.498 29.7241ZM282.012 34.4336C281.807 34.0674 281.545 33.7988 281.228 33.6279C280.916 33.457 280.552 33.3716 280.137 33.3716C279.819 33.3716 279.521 33.4375 279.243 33.5693C278.965 33.7012 278.721 33.8892 278.511 34.1333C278.306 34.3774 278.142 34.6753 278.02 35.0269C277.903 35.3735 277.844 35.7617 277.844 36.1914C277.844 36.6162 277.903 36.9995 278.02 37.3413C278.142 37.6831 278.308 37.9761 278.518 38.2202C278.728 38.4595 278.97 38.645 279.243 38.7769C279.521 38.9038 279.819 38.9673 280.137 38.9673C280.605 38.9673 281.013 38.855 281.36 38.6304C281.707 38.4009 281.982 38.0664 282.188 37.627L283.315 38.1836C283.169 38.4961 282.988 38.7769 282.773 39.0259C282.559 39.2749 282.314 39.4873 282.041 39.6631C281.772 39.8389 281.475 39.9731 281.147 40.0659C280.825 40.1636 280.483 40.2124 280.122 40.2124C279.595 40.2124 279.106 40.1147 278.657 39.9194C278.213 39.7192 277.827 39.4409 277.5 39.0845C277.178 38.728 276.926 38.3032 276.746 37.8101C276.565 37.3169 276.475 36.7773 276.475 36.1914C276.475 35.6055 276.57 35.0659 276.76 34.5728C276.951 34.0796 277.212 33.6572 277.544 33.3057C277.876 32.9492 278.264 32.6709 278.708 32.4707C279.153 32.2705 279.629 32.1704 280.137 32.1704C280.615 32.1704 281.067 32.2534 281.492 32.4194C281.921 32.5854 282.297 32.8369 282.62 33.1738H283.389V34.4336H282.012ZM286.011 36.3818C286.011 36.5967 286.025 36.7944 286.055 36.9751C286.089 37.1509 286.135 37.3193 286.194 37.4805C286.375 37.9688 286.663 38.3374 287.058 38.5864C287.458 38.8306 287.91 38.9526 288.413 38.9526C288.809 38.9526 289.192 38.8989 289.563 38.7915C289.939 38.6792 290.332 38.5059 290.742 38.2715L291.292 39.2017C290.793 39.5435 290.293 39.7974 289.79 39.9634C289.287 40.1294 288.765 40.2124 288.223 40.2124C287.71 40.2124 287.234 40.127 286.794 39.9561C286.36 39.7852 285.984 39.5312 285.667 39.1943C285.354 38.8574 285.107 38.4375 284.927 37.9346C284.751 37.4316 284.663 36.8457 284.663 36.1768C284.663 35.6348 284.739 35.1245 284.89 34.646C285.042 34.1626 285.266 33.7427 285.564 33.3862C285.867 33.0249 286.24 32.7393 286.685 32.5293C287.129 32.3193 287.646 32.2144 288.237 32.2144C288.809 32.2144 289.285 32.3022 289.666 32.478C290.051 32.6489 290.364 32.8784 290.603 33.1665C290.847 33.4497 291.03 33.7744 291.152 34.1406C291.279 34.5068 291.367 34.8804 291.416 35.2612C291.44 35.4468 291.455 35.6348 291.46 35.8252C291.47 36.0156 291.475 36.2012 291.475 36.3818H286.011ZM288.142 33.3569C287.825 33.3569 287.546 33.4033 287.307 33.4961C287.073 33.584 286.873 33.7134 286.707 33.8843C286.541 34.0503 286.406 34.2554 286.304 34.4995C286.206 34.7437 286.133 35.0171 286.084 35.3198H290.017C289.998 35.0366 289.951 34.7754 289.878 34.5361C289.81 34.2969 289.702 34.0894 289.556 33.9136C289.409 33.7378 289.221 33.6011 288.992 33.5034C288.762 33.4058 288.479 33.3569 288.142 33.3569ZM303.501 38.7402H304.424L303.545 36.2207H299.275L298.418 38.7402H299.561V40H295.957V38.7402H296.924L300.381 28.8965H302.542L305.991 38.7402H307.104V40H303.501V38.7402ZM299.692 35.0049H303.12L301.392 30.0391L299.692 35.0049Z" fill="#4B8E93"/>
<path d="M36.875 46H6.125C3.29454 46 1 48.2945 1 51.125V92.125C1 94.9555 3.29454 97.25 6.125 97.25H36.875C39.7055 97.25 42 94.9555 42 92.125V51.125C42 48.2945 39.7055 46 36.875 46Z" stroke="#4B8E93" stroke-width="2" stroke-linecap="round" stroke-linejoin="round"/>
<path d="M21.5 87H21.5256" stroke="#4B8E93" stroke-width="2" stroke-linecap="round" stroke-linejoin="round"/>
<path d="M168.556 9H116.444C112.333 9 109 11.5868 109 14.7778V55.2222C109 58.4132 112.333 61 116.444 61H168.556C172.667 61 176 58.4132 176 55.2222V14.7778C176 11.5868 172.667 9 168.556 9Z" stroke="#4B8E93" stroke-width="2" stroke-linecap="round" stroke-linejoin="round"/>
<path d="M176 35H215M215 35L195.5 23M215 35L195.5 47" stroke="#4B8E93" stroke-width="2" stroke-linecap="round" stroke-linejoin="round"/>
<path d="M117.635 33.4238H119.729V34.1919H119.742C119.886 34.0692 120.036 33.9549 120.193 33.8491C120.354 33.7391 120.521 33.6439 120.694 33.5635C120.868 33.4831 121.048 33.4196 121.234 33.373C121.424 33.3265 121.621 33.3032 121.824 33.3032C122.298 33.3032 122.707 33.3921 123.049 33.5698C123.392 33.7433 123.657 34.0163 123.843 34.3887C124.004 34.2448 124.173 34.1073 124.351 33.9761C124.528 33.8407 124.712 33.7243 124.903 33.627C125.097 33.5296 125.301 33.4513 125.512 33.3921C125.724 33.3328 125.944 33.3032 126.172 33.3032C126.528 33.3032 126.847 33.3519 127.131 33.4492C127.414 33.5465 127.656 33.6947 127.854 33.8936C128.053 34.0924 128.204 34.3485 128.305 34.6616C128.411 34.9705 128.464 35.3366 128.464 35.7598V38.9082H129.378V40H126.306V38.9082H127.232V35.9058C127.232 35.4022 127.105 35.0213 126.852 34.7632C126.598 34.5008 126.232 34.3696 125.753 34.3696C125.47 34.3696 125.18 34.4373 124.884 34.5728C124.588 34.7082 124.334 34.8796 124.122 35.0869V38.9082H125.03V40H121.964V38.9082H122.891V35.9058C122.891 35.4022 122.762 35.0213 122.503 34.7632C122.25 34.5008 121.883 34.3696 121.405 34.3696C121.13 34.3696 120.853 34.4352 120.574 34.5664C120.294 34.6976 120.03 34.8605 119.78 35.0552V38.9082H120.707V40H117.635V38.9082H118.549V34.5156H117.635V33.4238ZM130.559 36.7119C130.563 36.1914 130.645 35.7174 130.806 35.29C130.971 34.8626 131.2 34.4966 131.492 34.1919C131.784 33.883 132.131 33.646 132.533 33.481C132.935 33.3159 133.377 33.2334 133.859 33.2334C134.346 33.2334 134.79 33.3159 135.192 33.481C135.599 33.646 135.946 33.8809 136.233 34.1855C136.521 34.486 136.745 34.8499 136.906 35.2773C137.067 35.7048 137.147 36.1787 137.147 36.6992C137.147 37.2113 137.067 37.6831 136.906 38.1147C136.745 38.5422 136.521 38.9103 136.233 39.2192C135.946 39.5282 135.599 39.7694 135.192 39.9429C134.79 40.1121 134.346 40.1968 133.859 40.1968C133.364 40.1968 132.916 40.1121 132.514 39.9429C132.112 39.7736 131.767 39.5366 131.479 39.2319C131.191 38.923 130.967 38.5549 130.806 38.1274C130.645 37.7 130.563 37.2282 130.559 36.7119ZM131.809 36.7119C131.809 37.0885 131.862 37.4292 131.968 37.7339C132.078 38.0386 132.226 38.2988 132.412 38.5146C132.603 38.7262 132.82 38.8913 133.066 39.0098C133.316 39.124 133.58 39.1812 133.859 39.1812C134.151 39.1812 134.422 39.124 134.672 39.0098C134.926 38.8955 135.146 38.7326 135.332 38.521C135.518 38.3052 135.664 38.0449 135.77 37.7402C135.876 37.4355 135.929 37.0928 135.929 36.7119C135.929 36.3141 135.876 35.9608 135.77 35.6519C135.664 35.3429 135.518 35.0848 135.332 34.8774C135.15 34.6701 134.932 34.5135 134.678 34.4077C134.424 34.3019 134.151 34.249 133.859 34.249C133.58 34.249 133.316 34.3019 133.066 34.4077C132.82 34.5135 132.603 34.6701 132.412 34.8774C132.226 35.0848 132.078 35.3429 131.968 35.6519C131.862 35.9608 131.809 36.3141 131.809 36.7119ZM142.308 30.123H144.384V38.9082H145.349V40H143.203V39.4604C142.992 39.6763 142.746 39.8455 142.467 39.9683C142.188 40.0868 141.87 40.146 141.515 40.146C141.07 40.146 140.656 40.0698 140.271 39.9175C139.89 39.7609 139.557 39.5345 139.274 39.2383C138.995 38.9378 138.775 38.5718 138.614 38.1401C138.457 37.7043 138.379 37.207 138.379 36.6484C138.379 36.1406 138.455 35.6794 138.607 35.2646C138.76 34.8457 138.976 34.4902 139.255 34.1982C139.534 33.902 139.871 33.6735 140.264 33.5127C140.658 33.3477 141.096 33.2651 141.578 33.2651C141.896 33.2651 142.185 33.3011 142.448 33.373C142.71 33.4408 142.962 33.5614 143.203 33.7349V31.2148H142.308V30.123ZM141.667 39.1177C142.018 39.1177 142.312 39.0669 142.549 38.9653C142.786 38.8595 143.004 38.703 143.203 38.4956V34.814C142.992 34.6362 142.748 34.5072 142.473 34.4268C142.198 34.3464 141.917 34.3062 141.629 34.3062C141.35 34.3062 141.087 34.359 140.842 34.4648C140.596 34.5664 140.381 34.7166 140.194 34.9155C140.012 35.1144 139.868 35.3577 139.763 35.6455C139.657 35.9333 139.604 36.2633 139.604 36.6357C139.604 37.042 139.655 37.3996 139.756 37.7085C139.858 38.0174 140 38.2777 140.182 38.4893C140.364 38.6966 140.582 38.8532 140.835 38.959C141.089 39.0648 141.367 39.1177 141.667 39.1177ZM147.596 36.8643C147.596 37.0505 147.608 37.2218 147.634 37.3784C147.663 37.5308 147.704 37.6768 147.754 37.8164C147.911 38.2396 148.161 38.5591 148.503 38.7749C148.85 38.9865 149.242 39.0923 149.678 39.0923C150.021 39.0923 150.353 39.0457 150.674 38.9526C151 38.8553 151.341 38.7051 151.696 38.502L152.172 39.3081C151.741 39.6043 151.307 39.8244 150.871 39.9683C150.435 40.1121 149.982 40.1841 149.513 40.1841C149.068 40.1841 148.656 40.11 148.275 39.9619C147.898 39.8138 147.572 39.5938 147.297 39.3018C147.027 39.0098 146.813 38.6458 146.656 38.21C146.504 37.7741 146.428 37.2663 146.428 36.6865C146.428 36.2168 146.493 35.7746 146.625 35.3599C146.756 34.9409 146.95 34.577 147.208 34.2681C147.471 33.9549 147.795 33.7074 148.18 33.5254C148.565 33.3434 149.013 33.2524 149.525 33.2524C150.021 33.2524 150.433 33.3286 150.763 33.481C151.097 33.6291 151.368 33.828 151.576 34.0776C151.787 34.3231 151.946 34.6045 152.052 34.9219C152.162 35.2393 152.238 35.563 152.28 35.8931C152.301 36.0539 152.314 36.2168 152.318 36.3818C152.327 36.5469 152.331 36.7077 152.331 36.8643H147.596ZM149.443 34.2427C149.168 34.2427 148.927 34.2829 148.719 34.3633C148.516 34.4395 148.343 34.5516 148.199 34.6997C148.055 34.8436 147.938 35.0213 147.85 35.2329C147.765 35.4445 147.701 35.6815 147.659 35.9438H151.068C151.051 35.6984 151.011 35.472 150.947 35.2646C150.888 35.0573 150.795 34.8774 150.668 34.7251C150.541 34.5728 150.378 34.4543 150.179 34.3696C149.98 34.285 149.735 34.2427 149.443 34.2427ZM153.893 30.123H156.025V38.9082H157.016V40H153.893V38.9082H154.845V31.2148H153.893V30.123ZM166.981 38.9082H167.781L167.02 36.7246H163.319L162.576 38.9082H163.566V40H160.443V38.9082H161.281L164.277 30.377H166.15L169.14 38.9082H170.104V40H166.981V38.9082ZM163.681 35.6709H166.651L165.153 31.3672L163.681 35.6709Z" fill="#4B8E93"/>
<path d="M168.556 81H116.444C112.333 81 109 83.5868 109 86.7778V127.222C109 130.413 112.333 133 116.444 133H168.556C172.667 133 176 130.413 176 127.222V86.7778C176 83.5868 172.667 81 168.556 81Z" stroke="#4B8E93" stroke-width="2" stroke-linecap="round" stroke-linejoin="round"/>
<path d="M176 107H215M215 107L195.5 95M215 107L195.5 119" stroke="#4B8E93" stroke-width="2" stroke-linecap="round" stroke-linejoin="round"/>
<path d="M116.635 105.424H118.729V106.192H118.742C118.886 106.069 119.036 105.955 119.193 105.849C119.354 105.739 119.521 105.644 119.694 105.563C119.868 105.483 120.048 105.42 120.234 105.373C120.424 105.326 120.621 105.303 120.824 105.303C121.298 105.303 121.707 105.392 122.049 105.57C122.392 105.743 122.657 106.016 122.843 106.389C123.004 106.245 123.173 106.107 123.351 105.976C123.528 105.841 123.712 105.724 123.903 105.627C124.097 105.53 124.301 105.451 124.512 105.392C124.724 105.333 124.944 105.303 125.172 105.303C125.528 105.303 125.847 105.352 126.131 105.449C126.414 105.547 126.656 105.695 126.854 105.894C127.053 106.092 127.204 106.348 127.305 106.662C127.411 106.971 127.464 107.337 127.464 107.76V110.908H128.378V112H125.306V110.908H126.232V107.906C126.232 107.402 126.105 107.021 125.852 106.763C125.598 106.501 125.232 106.37 124.753 106.37C124.47 106.37 124.18 106.437 123.884 106.573C123.588 106.708 123.334 106.88 123.122 107.087V110.908H124.03V112H120.964V110.908H121.891V107.906C121.891 107.402 121.762 107.021 121.503 106.763C121.25 106.501 120.883 106.37 120.405 106.37C120.13 106.37 119.853 106.435 119.574 106.566C119.294 106.698 119.03 106.861 118.78 107.055V110.908H119.707V112H116.635V110.908H117.549V106.516H116.635V105.424ZM129.559 108.712C129.563 108.191 129.645 107.717 129.806 107.29C129.971 106.863 130.2 106.497 130.492 106.192C130.784 105.883 131.131 105.646 131.533 105.481C131.935 105.316 132.377 105.233 132.859 105.233C133.346 105.233 133.79 105.316 134.192 105.481C134.599 105.646 134.946 105.881 135.233 106.186C135.521 106.486 135.745 106.85 135.906 107.277C136.067 107.705 136.147 108.179 136.147 108.699C136.147 109.211 136.067 109.683 135.906 110.115C135.745 110.542 135.521 110.91 135.233 111.219C134.946 111.528 134.599 111.769 134.192 111.943C133.79 112.112 133.346 112.197 132.859 112.197C132.364 112.197 131.916 112.112 131.514 111.943C131.112 111.774 130.767 111.537 130.479 111.232C130.191 110.923 129.967 110.555 129.806 110.127C129.645 109.7 129.563 109.228 129.559 108.712ZM130.809 108.712C130.809 109.089 130.862 109.429 130.968 109.734C131.078 110.039 131.226 110.299 131.412 110.515C131.603 110.726 131.82 110.891 132.066 111.01C132.316 111.124 132.58 111.181 132.859 111.181C133.151 111.181 133.422 111.124 133.672 111.01C133.926 110.896 134.146 110.733 134.332 110.521C134.518 110.305 134.664 110.045 134.77 109.74C134.876 109.436 134.929 109.093 134.929 108.712C134.929 108.314 134.876 107.961 134.77 107.652C134.664 107.343 134.518 107.085 134.332 106.877C134.15 106.67 133.932 106.514 133.678 106.408C133.424 106.302 133.151 106.249 132.859 106.249C132.58 106.249 132.316 106.302 132.066 106.408C131.82 106.514 131.603 106.67 131.412 106.877C131.226 107.085 131.078 107.343 130.968 107.652C130.862 107.961 130.809 108.314 130.809 108.712ZM141.308 102.123H143.384V110.908H144.349V112H142.203V111.46C141.992 111.676 141.746 111.846 141.467 111.968C141.188 112.087 140.87 112.146 140.515 112.146C140.07 112.146 139.656 112.07 139.271 111.917C138.89 111.761 138.557 111.535 138.274 111.238C137.995 110.938 137.775 110.572 137.614 110.14C137.457 109.704 137.379 109.207 137.379 108.648C137.379 108.141 137.455 107.679 137.607 107.265C137.76 106.846 137.976 106.49 138.255 106.198C138.534 105.902 138.871 105.674 139.264 105.513C139.658 105.348 140.096 105.265 140.578 105.265C140.896 105.265 141.185 105.301 141.448 105.373C141.71 105.441 141.962 105.561 142.203 105.735V103.215H141.308V102.123ZM140.667 111.118C141.018 111.118 141.312 111.067 141.549 110.965C141.786 110.86 142.004 110.703 142.203 110.496V106.814C141.992 106.636 141.748 106.507 141.473 106.427C141.198 106.346 140.917 106.306 140.629 106.306C140.35 106.306 140.087 106.359 139.842 106.465C139.596 106.566 139.381 106.717 139.194 106.916C139.012 107.114 138.868 107.358 138.763 107.646C138.657 107.933 138.604 108.263 138.604 108.636C138.604 109.042 138.655 109.4 138.756 109.708C138.858 110.017 139 110.278 139.182 110.489C139.364 110.697 139.582 110.853 139.835 110.959C140.089 111.065 140.367 111.118 140.667 111.118ZM146.596 108.864C146.596 109.05 146.608 109.222 146.634 109.378C146.663 109.531 146.704 109.677 146.754 109.816C146.911 110.24 147.161 110.559 147.503 110.775C147.85 110.986 148.242 111.092 148.678 111.092C149.021 111.092 149.353 111.046 149.674 110.953C150 110.855 150.341 110.705 150.696 110.502L151.172 111.308C150.741 111.604 150.307 111.824 149.871 111.968C149.435 112.112 148.982 112.184 148.513 112.184C148.068 112.184 147.656 112.11 147.275 111.962C146.898 111.814 146.572 111.594 146.297 111.302C146.027 111.01 145.813 110.646 145.656 110.21C145.504 109.774 145.428 109.266 145.428 108.687C145.428 108.217 145.493 107.775 145.625 107.36C145.756 106.941 145.95 106.577 146.208 106.268C146.471 105.955 146.795 105.707 147.18 105.525C147.565 105.343 148.013 105.252 148.525 105.252C149.021 105.252 149.433 105.329 149.763 105.481C150.097 105.629 150.368 105.828 150.576 106.078C150.787 106.323 150.946 106.604 151.052 106.922C151.162 107.239 151.238 107.563 151.28 107.893C151.301 108.054 151.314 108.217 151.318 108.382C151.327 108.547 151.331 108.708 151.331 108.864H146.596ZM148.443 106.243C148.168 106.243 147.927 106.283 147.719 106.363C147.516 106.439 147.343 106.552 147.199 106.7C147.055 106.844 146.938 107.021 146.85 107.233C146.765 107.444 146.701 107.681 146.659 107.944H150.068C150.051 107.698 150.011 107.472 149.947 107.265C149.888 107.057 149.795 106.877 149.668 106.725C149.541 106.573 149.378 106.454 149.179 106.37C148.98 106.285 148.735 106.243 148.443 106.243ZM152.893 102.123H155.025V110.908H156.016V112H152.893V110.908H153.845V103.215H152.893V102.123ZM160.288 110.908H161.202V103.475H160.288V102.364L164.617 102.377C165.006 102.377 165.372 102.451 165.715 102.599C166.058 102.743 166.356 102.942 166.61 103.196C166.864 103.445 167.063 103.742 167.207 104.084C167.355 104.427 167.429 104.795 167.429 105.189C167.429 105.599 167.314 105.974 167.086 106.312C166.857 106.651 166.532 106.922 166.108 107.125C166.316 107.235 166.504 107.364 166.673 107.512C166.843 107.656 166.986 107.815 167.105 107.988C167.223 108.162 167.314 108.346 167.378 108.541C167.446 108.735 167.479 108.934 167.479 109.137C167.479 109.539 167.405 109.914 167.257 110.261C167.113 110.608 166.915 110.91 166.661 111.168C166.407 111.427 166.108 111.63 165.766 111.778C165.427 111.926 165.063 112 164.674 112H160.288V110.908ZM162.446 107.722V110.908H164.687C164.89 110.908 165.078 110.857 165.251 110.756C165.425 110.654 165.577 110.523 165.708 110.362C165.84 110.197 165.941 110.011 166.013 109.804C166.089 109.596 166.127 109.385 166.127 109.169C166.127 108.983 166.089 108.803 166.013 108.629C165.937 108.456 165.833 108.301 165.702 108.166C165.575 108.031 165.423 107.923 165.245 107.842C165.072 107.762 164.885 107.722 164.687 107.722H162.446ZM162.446 103.475V106.617H164.629C164.833 106.617 165.021 106.577 165.194 106.497C165.372 106.416 165.524 106.308 165.651 106.173C165.783 106.037 165.886 105.881 165.962 105.703C166.039 105.525 166.077 105.341 166.077 105.151C166.077 104.944 166.039 104.74 165.962 104.542C165.886 104.338 165.783 104.159 165.651 104.002C165.52 103.845 165.366 103.718 165.188 103.621C165.014 103.524 164.828 103.475 164.629 103.475H162.446Z" fill="#4B8E93"/>
</svg>
