<svg width="91" height="188" viewBox="0 0 91 188" fill="none" xmlns="http://www.w3.org/2000/svg">
<path d="M15.0122 88.6542H27.2969C28.1415 88.6542 28.8325 89.2624 28.8325 90.0058V98.1156C28.8325 98.859 28.1415 99.4673 27.2969 99.4673H15.0122C14.1676 99.4673 13.4766 98.859 13.4766 98.1156V90.0058C13.4766 89.2624 14.1676 88.6542 15.0122 88.6542Z" stroke="#4B8E93" stroke-width="1.5" stroke-linecap="round" stroke-linejoin="round"/>
<path d="M28.8325 90.0059L21.1546 94.7366L13.4766 90.0059" stroke="#4B8E93" stroke-width="1.5" stroke-linecap="round" stroke-linejoin="round"/>
<path d="M39.1337 88.6542H51.4184C52.263 88.6542 52.954 89.2624 52.954 90.0058V98.1156C52.954 98.859 52.263 99.4673 51.4184 99.4673H39.1337C38.2892 99.4673 37.5981 98.859 37.5981 98.1156V90.0058C37.5981 89.2624 38.2892 88.6542 39.1337 88.6542Z" stroke="#4B8E93" stroke-width="1.5" stroke-linecap="round" stroke-linejoin="round"/>
<path d="M52.954 90.0059L45.2761 94.7366L37.5981 90.0059" stroke="#4B8E93" stroke-width="1.5" stroke-linecap="round" stroke-linejoin="round"/>
<path d="M63.2552 88.6542H75.5399C76.3845 88.6542 77.0755 89.2624 77.0755 90.0058V98.1156C77.0755 98.859 76.3845 99.4673 75.5399 99.4673H63.2552C62.4106 99.4673 61.7196 98.859 61.7196 98.1156V90.0058C61.7196 89.2624 62.4106 88.6542 63.2552 88.6542Z" stroke="#4B8E93" stroke-width="1.5" stroke-linecap="round" stroke-linejoin="round"/>
<path d="M77.0755 90.0059L69.3976 94.7366L61.7196 90.0059" stroke="#4B8E93" stroke-width="1.5" stroke-linecap="round" stroke-linejoin="round"/>
<path d="M45.5 29.7645C62.7266 29.7645 76.6916 26.7481 76.6916 23.0271C76.6916 19.3062 62.7266 16.2897 45.5 16.2897C28.2734 16.2897 14.3084 19.3062 14.3084 23.0271C14.3084 26.7481 28.2734 29.7645 45.5 29.7645Z" stroke="#4B8E93" stroke-width="2" stroke-linecap="round" stroke-linejoin="round"/>
<path d="M76.6916 38.7477C76.6916 42.4757 62.8287 45.4851 45.5 45.4851C28.1713 45.4851 14.3084 42.4757 14.3084 38.7477" stroke="#4B8E93" stroke-width="2" stroke-linecap="round" stroke-linejoin="round"/>
<path d="M14.3084 23.0272V54.4683C14.3084 58.1963 28.1713 61.2057 45.5 61.2057C62.8287 61.2057 76.6916 58.1963 76.6916 54.4683V23.0272" stroke="#4B8E93" stroke-width="2" stroke-linecap="round" stroke-linejoin="round"/>
<path d="M45.5 140.391C62.7266 140.391 76.6916 137.374 76.6916 133.653C76.6916 129.932 62.7266 126.916 45.5 126.916C28.2734 126.916 14.3084 129.932 14.3084 133.653C14.3084 137.374 28.2734 140.391 45.5 140.391Z" stroke="#4B8E93" stroke-width="2" stroke-linecap="round" stroke-linejoin="round"/>
<path d="M76.6916 149.374C76.6916 153.102 62.8287 156.111 45.5 156.111C28.1713 156.111 14.3084 153.102 14.3084 149.374" stroke="#4B8E93" stroke-width="2" stroke-linecap="round" stroke-linejoin="round"/>
<path d="M14.3084 133.653V165.094C14.3084 168.822 28.1713 171.832 45.5 171.832C62.8287 171.832 76.6916 168.822 76.6916 165.094V133.653" stroke="#4B8E93" stroke-width="2" stroke-linecap="round" stroke-linejoin="round"/>
<path d="M20.9626 103.647L20.9625 128.995M20.9625 128.995L30.9675 117.752M20.9625 128.995L11.0049 117.71" stroke="#4B8E93" stroke-width="2" stroke-linecap="round" stroke-linejoin="round"/>
<path d="M69.2055 103.647L69.2055 128.579M69.2055 128.579L79.2104 117.336M69.2055 128.579L59.2479 117.294" stroke="#4B8E93" stroke-width="2" stroke-linecap="round" stroke-linejoin="round"/>
<path d="M45.1314 103.647L45.0841 126.175M45.0841 126.175L55.089 114.932M45.0841 126.175L35.1264 114.89" stroke="#4B8E93" stroke-width="2" stroke-linecap="round" stroke-linejoin="round"/>
<path d="M1 103.738L90 103.738" stroke="#4B8E93" stroke-width="2" stroke-linecap="round" stroke-linejoin="round"/>
<path d="M20.9626 58.7311L20.9625 84.0795M20.9625 84.0795L30.9675 72.8363M20.9625 84.0795L11.0049 72.7944" stroke="#4B8E93" stroke-width="2" stroke-linecap="round" stroke-linejoin="round"/>
<path d="M69.2055 59.147L69.2055 84.0794M69.2055 84.0794L79.2104 72.8363M69.2055 84.0794L59.2479 72.7944" stroke="#4B8E93" stroke-width="2" stroke-linecap="round" stroke-linejoin="round"/>
<path d="M45.1314 61.5511L45.0841 84.0793M45.0841 84.0793L55.089 72.8362M45.0841 84.0793L35.1264 72.7943" stroke="#4B8E93" stroke-width="2" stroke-linecap="round" stroke-linejoin="round"/>
<path d="M1 83.9882L90 83.9882" stroke="#4B8E93" stroke-width="2" stroke-linecap="round" stroke-linejoin="round"/>
<path d="M24.0068 181.415H22.708V180.978C22.5576 180.978 22.4027 181.007 22.2432 181.066C22.0882 181.121 21.9424 181.208 21.8057 181.326C21.6689 181.44 21.5482 181.588 21.4434 181.771C21.3431 181.948 21.2702 182.16 21.2246 182.406V185.824H22.4277V187H18.9141V185.824H19.8916L19.8984 181.094H18.9141V179.918H21.1768V180.896C21.2588 180.75 21.3499 180.615 21.4502 180.492C21.555 180.365 21.6689 180.255 21.792 180.164C21.9196 180.068 22.0586 179.995 22.209 179.945C22.3639 179.891 22.5303 179.863 22.708 179.863C22.945 179.863 23.1683 179.863 23.3779 179.863C23.5876 179.863 23.7972 179.868 24.0068 179.877V181.415ZM26.6797 183.623C26.6797 183.824 26.6934 184.008 26.7207 184.177C26.7526 184.341 26.7959 184.498 26.8506 184.648C27.0192 185.104 27.2881 185.448 27.6572 185.681C28.0309 185.909 28.4525 186.022 28.9219 186.022C29.291 186.022 29.6488 185.972 29.9951 185.872C30.346 185.767 30.7129 185.605 31.0957 185.387L31.6084 186.255C31.1436 186.574 30.6764 186.811 30.207 186.966C29.7376 187.121 29.25 187.198 28.7441 187.198C28.2656 187.198 27.8213 187.118 27.4111 186.959C27.0055 186.799 26.6546 186.562 26.3584 186.248C26.0667 185.934 25.8366 185.542 25.668 185.072C25.5039 184.603 25.4219 184.056 25.4219 183.432C25.4219 182.926 25.4925 182.45 25.6338 182.003C25.7751 181.552 25.9847 181.16 26.2627 180.827C26.5452 180.49 26.8939 180.223 27.3086 180.027C27.7233 179.831 28.2064 179.733 28.7578 179.733C29.291 179.733 29.7354 179.815 30.0908 179.979C30.4508 180.139 30.7425 180.353 30.9658 180.622C31.1937 180.886 31.3646 181.189 31.4785 181.531C31.597 181.873 31.679 182.222 31.7246 182.577C31.7474 182.75 31.7611 182.926 31.7656 183.104C31.7747 183.281 31.7793 183.454 31.7793 183.623H26.6797ZM28.6689 180.8C28.3727 180.8 28.113 180.843 27.8896 180.93C27.6709 181.012 27.484 181.132 27.3291 181.292C27.1742 181.447 27.0488 181.638 26.9531 181.866C26.862 182.094 26.7936 182.349 26.748 182.632H30.4189C30.4007 182.368 30.3574 182.124 30.2891 181.9C30.2253 181.677 30.125 181.483 29.9883 181.319C29.8516 181.155 29.6761 181.028 29.4619 180.937C29.2477 180.845 28.9834 180.8 28.6689 180.8ZM37.6787 186.344C37.4098 186.594 37.1113 186.799 36.7832 186.959C36.4596 187.118 36.0905 187.198 35.6758 187.198C35.3294 187.198 35.0104 187.144 34.7188 187.034C34.4316 186.925 34.1833 186.777 33.9736 186.59C33.764 186.398 33.5999 186.177 33.4814 185.927C33.3675 185.676 33.3105 185.41 33.3105 185.127C33.3105 184.826 33.3538 184.56 33.4404 184.327C33.5316 184.095 33.6501 183.894 33.7959 183.726C33.9463 183.552 34.1195 183.409 34.3154 183.295C34.516 183.176 34.7233 183.083 34.9375 183.015C35.1562 182.942 35.3773 182.892 35.6006 182.864C35.8285 182.832 36.0449 182.816 36.25 182.816C36.5781 182.816 36.8538 182.828 37.0771 182.851C37.3005 182.869 37.5033 182.896 37.6855 182.933L37.6924 182.352C37.6924 182.101 37.6559 181.884 37.583 181.702C37.5101 181.515 37.4076 181.363 37.2754 181.244C37.1432 181.121 36.9837 181.03 36.7969 180.971C36.6146 180.911 36.4095 180.882 36.1816 180.882C35.9674 180.882 35.7624 180.898 35.5664 180.93C35.3704 180.957 35.1859 180.996 35.0127 181.046C34.8441 181.091 34.6868 181.146 34.541 181.21C34.3997 181.269 34.279 181.333 34.1787 181.401L33.7617 180.52C33.9303 180.41 34.1149 180.31 34.3154 180.219C34.516 180.123 34.7256 180.043 34.9443 179.979C35.1676 179.911 35.3932 179.859 35.6211 179.822C35.8535 179.781 36.0814 179.761 36.3047 179.761C36.7148 179.761 37.084 179.811 37.4121 179.911C37.7402 180.007 38.0182 180.157 38.2461 180.362C38.474 180.567 38.6494 180.829 38.7725 181.148C38.8955 181.463 38.957 181.841 38.957 182.283L38.9502 185.824H39.7363V187H37.6787V186.344ZM35.9561 186.132C36.1247 186.132 36.2933 186.111 36.4619 186.07C36.6305 186.029 36.79 185.975 36.9404 185.906C37.0908 185.833 37.2298 185.751 37.3574 185.66C37.485 185.564 37.5921 185.466 37.6787 185.366L37.6855 183.767H36.209C35.9629 183.767 35.7373 183.794 35.5322 183.849C35.3317 183.903 35.1562 183.983 35.0059 184.088C34.86 184.193 34.7461 184.323 34.6641 184.478C34.582 184.632 34.541 184.81 34.541 185.011C34.541 185.198 34.5752 185.362 34.6436 185.503C34.7119 185.64 34.8076 185.756 34.9307 185.852C35.0583 185.943 35.2087 186.013 35.3818 186.063C35.555 186.109 35.7464 186.132 35.9561 186.132ZM45.3486 176.363H47.584V185.824H48.623V187H46.3125V186.419C46.0846 186.651 45.8203 186.834 45.5195 186.966C45.2188 187.093 44.877 187.157 44.4941 187.157C44.0156 187.157 43.569 187.075 43.1543 186.911C42.7441 186.743 42.3864 186.499 42.0811 186.18C41.7803 185.856 41.5433 185.462 41.3701 184.997C41.2015 184.528 41.1172 183.992 41.1172 183.391C41.1172 182.844 41.1992 182.347 41.3633 181.9C41.5273 181.449 41.7598 181.066 42.0605 180.752C42.3613 180.433 42.7236 180.187 43.1475 180.014C43.5713 179.836 44.043 179.747 44.5625 179.747C44.9043 179.747 45.2165 179.786 45.499 179.863C45.7816 179.936 46.0527 180.066 46.3125 180.253V177.539H45.3486V176.363ZM44.6582 186.05C45.0365 186.05 45.3532 185.995 45.6084 185.886C45.8636 185.772 46.0983 185.603 46.3125 185.38V181.415C46.0846 181.224 45.8226 181.085 45.5264 180.998C45.2301 180.911 44.9271 180.868 44.6172 180.868C44.3164 180.868 44.0339 180.925 43.7695 181.039C43.5052 181.148 43.2728 181.31 43.0723 181.524C42.8763 181.739 42.7214 182.001 42.6074 182.311C42.4935 182.62 42.4365 182.976 42.4365 183.377C42.4365 183.814 42.4912 184.2 42.6006 184.532C42.71 184.865 42.8626 185.145 43.0586 185.373C43.2546 185.596 43.4893 185.765 43.7627 185.879C44.0361 185.993 44.3346 186.05 44.6582 186.05ZM53.1963 176.637H57.0518C57.5257 176.637 57.9769 176.698 58.4053 176.821C58.8337 176.944 59.2324 177.118 59.6016 177.341C59.9707 177.564 60.3057 177.833 60.6064 178.147C60.9072 178.457 61.1624 178.804 61.3721 179.187C61.5863 179.569 61.7503 179.982 61.8643 180.424C61.9782 180.861 62.0352 181.317 62.0352 181.791C62.0352 182.274 61.9782 182.737 61.8643 183.179C61.7503 183.621 61.5863 184.035 61.3721 184.423C61.1624 184.81 60.9072 185.163 60.6064 185.482C60.3057 185.797 59.9707 186.068 59.6016 186.296C59.2324 186.519 58.8337 186.692 58.4053 186.815C57.9769 186.938 57.5257 187 57.0518 187H53.1963V185.824H54.1807V177.819H53.1963V176.637ZM55.5205 177.819V185.824H57.1338C57.6123 185.824 58.0612 185.719 58.4805 185.51C58.9043 185.3 59.2734 185.015 59.5879 184.655C59.9023 184.291 60.1507 183.865 60.333 183.377C60.5153 182.885 60.6064 182.356 60.6064 181.791C60.6064 181.235 60.5153 180.715 60.333 180.232C60.1507 179.749 59.9023 179.33 59.5879 178.975C59.2734 178.615 58.9043 178.332 58.4805 178.127C58.0612 177.922 57.6123 177.819 57.1338 177.819H55.5205ZM63.5049 185.824H64.4893V177.819H63.5049V176.623L68.167 176.637C68.5863 176.637 68.9805 176.716 69.3496 176.876C69.7188 177.031 70.04 177.245 70.3135 177.519C70.5869 177.787 70.8011 178.106 70.9561 178.476C71.1156 178.845 71.1953 179.241 71.1953 179.665C71.1953 180.107 71.0723 180.51 70.8262 180.875C70.5801 181.24 70.2292 181.531 69.7734 181.75C69.9967 181.868 70.1995 182.007 70.3818 182.167C70.5641 182.322 70.7191 182.493 70.8467 182.68C70.9743 182.867 71.0723 183.065 71.1406 183.274C71.2135 183.484 71.25 183.698 71.25 183.917C71.25 184.35 71.1702 184.753 71.0107 185.127C70.8558 185.501 70.6416 185.826 70.3682 186.104C70.0947 186.382 69.7734 186.601 69.4043 186.761C69.0397 186.92 68.6478 187 68.2285 187H63.5049V185.824ZM65.8291 182.393V185.824H68.2422C68.4609 185.824 68.6637 185.77 68.8506 185.66C69.0374 185.551 69.2015 185.41 69.3428 185.236C69.484 185.059 69.5934 184.858 69.6709 184.635C69.7529 184.411 69.7939 184.184 69.7939 183.951C69.7939 183.751 69.7529 183.557 69.6709 183.37C69.5889 183.183 69.4772 183.017 69.3359 182.871C69.1992 182.725 69.0352 182.609 68.8438 182.522C68.6569 182.436 68.4564 182.393 68.2422 182.393H65.8291ZM65.8291 177.819V181.203H68.1807C68.3994 181.203 68.6022 181.16 68.7891 181.073C68.9805 180.987 69.1445 180.87 69.2812 180.725C69.4225 180.579 69.5342 180.41 69.6162 180.219C69.6982 180.027 69.7393 179.829 69.7393 179.624C69.7393 179.401 69.6982 179.182 69.6162 178.968C69.5342 178.749 69.4225 178.555 69.2812 178.387C69.14 178.218 68.9736 178.081 68.7822 177.977C68.5954 177.872 68.3949 177.819 68.1807 177.819H65.8291Z" fill="#4B8E93"/>
<path d="M16.5703 5.91797H18.8125V7.09375H18.4844L19.7217 11.6123L21.417 5.91797H22.4834L24.1035 11.5986L25.3955 7.09375H24.9854V5.91797H27.2275V7.09375H26.6191L24.6777 13.1094H23.502L21.8955 7.45605L20.2959 13.1094H19.1064L17.1787 7.09375H16.5703V5.91797ZM33.4209 7.41504H32.1221V6.97754C31.9717 6.97754 31.8167 7.00716 31.6572 7.06641C31.5023 7.12109 31.3564 7.20768 31.2197 7.32617C31.083 7.4401 30.9622 7.58822 30.8574 7.77051C30.7572 7.94824 30.6842 8.16016 30.6387 8.40625V11.8242H31.8418V13H28.3281V11.8242H29.3057L29.3125 7.09375H28.3281V5.91797H30.5908V6.89551C30.6729 6.74967 30.764 6.61523 30.8643 6.49219C30.9691 6.36458 31.083 6.25521 31.2061 6.16406C31.3337 6.06836 31.4727 5.99544 31.623 5.94531C31.778 5.89062 31.9443 5.86328 32.1221 5.86328C32.359 5.86328 32.5824 5.86328 32.792 5.86328C33.0016 5.86328 33.2113 5.86784 33.4209 5.87695V7.41504ZM34.8359 5.91797H37.1465V11.8242H38.2129V13H34.8496V11.8242H35.8613V7.09375H34.8359V5.91797ZM35.6221 3.40918C35.6221 3.29069 35.6449 3.17904 35.6904 3.07422C35.7406 2.96484 35.8044 2.87142 35.8818 2.79395C35.9639 2.71191 36.0596 2.64811 36.1689 2.60254C36.2783 2.55241 36.3945 2.52734 36.5176 2.52734C36.6361 2.52734 36.7477 2.55241 36.8525 2.60254C36.9619 2.64811 37.0553 2.71191 37.1328 2.79395C37.2148 2.87142 37.2786 2.96484 37.3242 3.07422C37.3743 3.17904 37.3994 3.29069 37.3994 3.40918C37.3994 3.53223 37.3743 3.64844 37.3242 3.75781C37.2786 3.86719 37.2148 3.96517 37.1328 4.05176C37.0553 4.13379 36.9619 4.19987 36.8525 4.25C36.7477 4.29557 36.6361 4.31836 36.5176 4.31836C36.3945 4.31836 36.2783 4.29557 36.1689 4.25C36.0596 4.19987 35.9639 4.13379 35.8818 4.05176C35.8044 3.96517 35.7406 3.86719 35.6904 3.75781C35.6449 3.64844 35.6221 3.53223 35.6221 3.40918ZM41.4395 5.91797H43.1006V6.9502H41.4258L41.4053 11.0381C41.4053 11.3161 41.4372 11.5417 41.501 11.7148C41.5648 11.888 41.6673 12.0088 41.8086 12.0771C41.9499 12.141 42.1094 12.1729 42.2871 12.1729C42.4785 12.1729 42.6471 12.1569 42.793 12.125C42.9388 12.0885 43.0983 12.0293 43.2715 11.9473L43.5654 12.8018C43.3467 12.9157 43.1165 13.0046 42.875 13.0684C42.6335 13.1367 42.3486 13.1709 42.0205 13.1709C41.7106 13.1709 41.4395 13.1322 41.207 13.0547C40.9792 12.9818 40.7855 12.8564 40.626 12.6787C40.471 12.501 40.3548 12.264 40.2773 11.9678C40.1999 11.667 40.1611 11.2933 40.1611 10.8467L40.1816 6.9502H39.0537V5.91797H40.1953V4.22266L41.4395 3.63477V5.91797ZM45.8008 9.62305C45.8008 9.82357 45.8145 10.0081 45.8418 10.1768C45.8737 10.3408 45.917 10.498 45.9717 10.6484C46.1403 11.1042 46.4092 11.4482 46.7783 11.6807C47.152 11.9085 47.5736 12.0225 48.043 12.0225C48.4121 12.0225 48.7699 11.9723 49.1162 11.8721C49.4671 11.7673 49.834 11.6055 50.2168 11.3867L50.7295 12.2549C50.2646 12.5739 49.7975 12.8109 49.3281 12.9658C48.8587 13.1208 48.3711 13.1982 47.8652 13.1982C47.3867 13.1982 46.9424 13.1185 46.5322 12.959C46.1266 12.7995 45.7757 12.5625 45.4795 12.248C45.1878 11.9336 44.9577 11.5417 44.7891 11.0723C44.625 10.6029 44.543 10.056 44.543 9.43164C44.543 8.92578 44.6136 8.44954 44.7549 8.00293C44.8962 7.55176 45.1058 7.15983 45.3838 6.82715C45.6663 6.48991 46.015 6.22331 46.4297 6.02734C46.8444 5.83138 47.3275 5.7334 47.8789 5.7334C48.4121 5.7334 48.8564 5.81543 49.2119 5.97949C49.5719 6.139 49.8636 6.35319 50.0869 6.62207C50.3148 6.88639 50.4857 7.18945 50.5996 7.53125C50.7181 7.87305 50.8001 8.22168 50.8457 8.57715C50.8685 8.75033 50.8822 8.92578 50.8867 9.10352C50.8958 9.28125 50.9004 9.45443 50.9004 9.62305H45.8008ZM47.79 6.7998C47.4938 6.7998 47.234 6.8431 47.0107 6.92969C46.792 7.01172 46.6051 7.13249 46.4502 7.29199C46.2952 7.44694 46.1699 7.63835 46.0742 7.86621C45.9831 8.09408 45.9147 8.34928 45.8691 8.63184H49.54C49.5218 8.36751 49.4785 8.1237 49.4102 7.90039C49.3464 7.67708 49.2461 7.4834 49.1094 7.31934C48.9727 7.15527 48.7972 7.02767 48.583 6.93652C48.3688 6.84538 48.1045 6.7998 47.79 6.7998ZM55.9932 2.63672H59.8486C60.3226 2.63672 60.7738 2.69824 61.2021 2.82129C61.6305 2.94434 62.0293 3.11751 62.3984 3.34082C62.7676 3.56413 63.1025 3.83301 63.4033 4.14746C63.7041 4.45736 63.9593 4.80371 64.1689 5.18652C64.3831 5.56934 64.5472 5.98177 64.6611 6.42383C64.7751 6.86133 64.832 7.31706 64.832 7.79102C64.832 8.27409 64.7751 8.73665 64.6611 9.17871C64.5472 9.62077 64.3831 10.0355 64.1689 10.4229C63.9593 10.8102 63.7041 11.1634 63.4033 11.4824C63.1025 11.7969 62.7676 12.068 62.3984 12.2959C62.0293 12.5192 61.6305 12.6924 61.2021 12.8154C60.7738 12.9385 60.3226 13 59.8486 13H55.9932V11.8242H56.9775V3.81934H55.9932V2.63672ZM58.3174 3.81934V11.8242H59.9307C60.4092 11.8242 60.8581 11.7194 61.2773 11.5098C61.7012 11.3001 62.0703 11.0153 62.3848 10.6553C62.6992 10.2907 62.9476 9.86458 63.1299 9.37695C63.3122 8.88477 63.4033 8.35612 63.4033 7.79102C63.4033 7.23503 63.3122 6.71549 63.1299 6.23242C62.9476 5.74935 62.6992 5.33008 62.3848 4.97461C62.0703 4.61458 61.7012 4.33203 61.2773 4.12695C60.8581 3.92188 60.4092 3.81934 59.9307 3.81934H58.3174ZM66.3018 11.8242H67.2861V3.81934H66.3018V2.62305L70.9639 2.63672C71.3831 2.63672 71.7773 2.71647 72.1465 2.87598C72.5156 3.03092 72.8369 3.24512 73.1104 3.51855C73.3838 3.78743 73.598 4.10645 73.7529 4.47559C73.9124 4.84473 73.9922 5.24121 73.9922 5.66504C73.9922 6.1071 73.8691 6.51042 73.623 6.875C73.377 7.23958 73.026 7.53125 72.5703 7.75C72.7936 7.86849 72.9964 8.00749 73.1787 8.16699C73.361 8.32194 73.516 8.49284 73.6436 8.67969C73.7712 8.86654 73.8691 9.06478 73.9375 9.27441C74.0104 9.48405 74.0469 9.69824 74.0469 9.91699C74.0469 10.3499 73.9671 10.7533 73.8076 11.127C73.6527 11.5007 73.4385 11.8265 73.165 12.1045C72.8916 12.3825 72.5703 12.6012 72.2012 12.7607C71.8366 12.9202 71.4447 13 71.0254 13H66.3018V11.8242ZM68.626 8.39258V11.8242H71.0391C71.2578 11.8242 71.4606 11.7695 71.6475 11.6602C71.8343 11.5508 71.9984 11.4095 72.1396 11.2363C72.2809 11.0586 72.3903 10.8581 72.4678 10.6348C72.5498 10.4115 72.5908 10.1836 72.5908 9.95117C72.5908 9.75065 72.5498 9.55697 72.4678 9.37012C72.3857 9.18327 72.2741 9.01693 72.1328 8.87109C71.9961 8.72526 71.832 8.60905 71.6406 8.52246C71.4538 8.43587 71.2533 8.39258 71.0391 8.39258H68.626ZM68.626 3.81934V7.20312H70.9775C71.1963 7.20312 71.3991 7.15983 71.5859 7.07324C71.7773 6.98665 71.9414 6.87044 72.0781 6.72461C72.2194 6.57878 72.3311 6.41016 72.4131 6.21875C72.4951 6.02734 72.5361 5.8291 72.5361 5.62402C72.5361 5.40072 72.4951 5.18197 72.4131 4.96777C72.3311 4.74902 72.2194 4.55534 72.0781 4.38672C71.9368 4.2181 71.7705 4.08138 71.5791 3.97656C71.3923 3.87174 71.1917 3.81934 70.9775 3.81934H68.626Z" fill="#4B8E93"/>
</svg>
