<svg width="417" height="138" viewBox="0 0 417 138" fill="none" xmlns="http://www.w3.org/2000/svg">
<path d="M269.931 38.0046L222.535 38.0107C220.457 38.0122 218.416 38.3443 216.617 38.9737C214.819 39.603 213.325 40.5074 212.286 41.5962L188.591 66.689C187.551 67.7789 187.004 69.0151 187.004 70.2735C187.004 71.5318 187.552 72.7679 188.592 73.8575L212.293 98.9442C213.332 100.033 214.826 100.937 216.626 101.566C218.425 102.194 220.465 102.526 222.543 102.527L269.939 102.521C272.017 102.519 274.058 102.187 275.857 101.558C277.656 100.929 279.15 100.024 280.188 98.9354L303.883 73.8426C304.923 72.7528 305.47 71.5165 305.47 70.2582C305.47 68.9999 304.922 67.7638 303.882 66.6742L280.181 41.5875C279.142 40.4989 277.648 39.5949 275.849 38.966C274.05 38.3372 272.009 38.0056 269.931 38.0046Z" stroke="#4B8E93" stroke-width="2" stroke-linecap="round" stroke-linejoin="round"/>
<path d="M388 20.2C403.464 20.2 416 15.9019 416 10.6C416 5.29807 403.464 1 388 1C372.536 1 360 5.29807 360 10.6C360 15.9019 372.536 20.2 388 20.2Z" stroke="#4B8E93" stroke-width="2" stroke-linecap="round" stroke-linejoin="round"/>
<path d="M416 33C416 38.312 403.556 42.6 388 42.6C372.444 42.6 360 38.312 360 33" stroke="#4B8E93" stroke-width="2" stroke-linecap="round" stroke-linejoin="round"/>
<path d="M360 10.6V55.4C360 60.712 372.444 65 388 65C403.556 65 416 60.712 416 55.4V10.6" stroke="#4B8E93" stroke-width="2" stroke-linecap="round" stroke-linejoin="round"/>
<path d="M388 92.2C403.464 92.2 416 87.9019 416 82.6C416 77.2981 403.464 73 388 73C372.536 73 360 77.2981 360 82.6C360 87.9019 372.536 92.2 388 92.2Z" stroke="#4B8E93" stroke-width="2" stroke-linecap="round" stroke-linejoin="round"/>
<path d="M416 105C416 110.312 403.556 114.6 388 114.6C372.444 114.6 360 110.312 360 105" stroke="#4B8E93" stroke-width="2" stroke-linecap="round" stroke-linejoin="round"/>
<path d="M360 82.6V127.4C360 132.712 372.444 137 388 137C403.556 137 416 132.712 416 127.4V82.6" stroke="#4B8E93" stroke-width="2" stroke-linecap="round" stroke-linejoin="round"/>
<path d="M217.112 69.4482C217.112 69.2432 217.063 69.0698 216.966 68.9282C216.873 68.7817 216.751 68.6646 216.6 68.5767C216.448 68.4839 216.28 68.418 216.094 68.3789C215.909 68.335 215.728 68.313 215.552 68.313C215.357 68.313 215.176 68.335 215.01 68.3789C214.849 68.4229 214.71 68.4863 214.593 68.5693C214.476 68.6523 214.383 68.7549 214.314 68.877C214.251 68.9941 214.219 69.126 214.219 69.2725C214.219 69.5264 214.295 69.729 214.446 69.8804C214.603 70.0269 214.861 70.1636 215.223 70.2905L216.68 70.8032C217.305 71.0132 217.762 71.2988 218.05 71.6602C218.338 72.0215 218.482 72.4536 218.482 72.9565C218.482 73.2935 218.414 73.6035 218.277 73.8867C218.145 74.165 217.955 74.4043 217.706 74.6045C217.461 74.7998 217.166 74.9512 216.819 75.0586C216.473 75.1709 216.087 75.2271 215.662 75.2271C215.071 75.2271 214.59 75.1318 214.219 74.9414C213.848 74.751 213.562 74.4995 213.362 74.187H212.601V72.9272H214.117C214.117 73.1372 214.161 73.3179 214.249 73.4692C214.341 73.6157 214.461 73.7354 214.607 73.8281C214.759 73.9209 214.927 73.9893 215.113 74.0332C215.303 74.0771 215.496 74.0991 215.691 74.0991C215.882 74.0991 216.065 74.0771 216.241 74.0332C216.417 73.9844 216.57 73.916 216.702 73.8281C216.839 73.7354 216.946 73.6255 217.024 73.4985C217.103 73.3716 217.142 73.2275 217.142 73.0664C217.142 72.8223 217.061 72.6147 216.9 72.4438C216.744 72.2729 216.475 72.1191 216.094 71.9824L214.644 71.4404C214.053 71.2305 213.614 70.9644 213.326 70.6421C213.042 70.3149 212.901 69.9072 212.901 69.4189C212.901 69.0967 212.959 68.7988 213.077 68.5254C213.199 68.252 213.372 68.0176 213.597 67.8223C213.826 67.6221 214.104 67.4658 214.432 67.3535C214.759 67.2412 215.132 67.1851 215.552 67.1851C216.094 67.1851 216.548 67.2607 216.915 67.4121C217.281 67.5635 217.61 67.8223 217.903 68.1885H218.614V69.4482H217.112ZM221.302 71.3818C221.302 71.5967 221.316 71.7944 221.346 71.9751C221.38 72.1509 221.426 72.3193 221.485 72.4805C221.666 72.9688 221.954 73.3374 222.349 73.5864C222.75 73.8306 223.201 73.9526 223.704 73.9526C224.1 73.9526 224.483 73.8989 224.854 73.7915C225.23 73.6792 225.623 73.5059 226.033 73.2715L226.583 74.2017C226.084 74.5435 225.584 74.7974 225.081 74.9634C224.578 75.1294 224.056 75.2124 223.514 75.2124C223.001 75.2124 222.525 75.127 222.085 74.9561C221.651 74.7852 221.275 74.5312 220.958 74.1943C220.645 73.8574 220.398 73.4375 220.218 72.9346C220.042 72.4316 219.954 71.8457 219.954 71.1768C219.954 70.6348 220.03 70.1245 220.181 69.646C220.333 69.1626 220.557 68.7427 220.855 68.3862C221.158 68.0249 221.531 67.7393 221.976 67.5293C222.42 67.3193 222.938 67.2144 223.528 67.2144C224.1 67.2144 224.576 67.3022 224.957 67.478C225.342 67.6489 225.655 67.8784 225.894 68.1665C226.138 68.4497 226.321 68.7744 226.443 69.1406C226.57 69.5068 226.658 69.8804 226.707 70.2612C226.731 70.4468 226.746 70.6348 226.751 70.8252C226.761 71.0156 226.766 71.2012 226.766 71.3818H221.302ZM223.433 68.3569C223.116 68.3569 222.837 68.4033 222.598 68.4961C222.364 68.584 222.164 68.7134 221.998 68.8843C221.832 69.0503 221.697 69.2554 221.595 69.4995C221.497 69.7437 221.424 70.0171 221.375 70.3198H225.308C225.289 70.0366 225.242 69.7754 225.169 69.5361C225.101 69.2969 224.993 69.0894 224.847 68.9136C224.7 68.7378 224.512 68.6011 224.283 68.5034C224.053 68.4058 223.77 68.3569 223.433 68.3569ZM234.083 69.0161H232.691V68.5474C232.53 68.5474 232.364 68.5791 232.193 68.6426C232.027 68.7012 231.871 68.7939 231.724 68.9209C231.578 69.043 231.448 69.2017 231.336 69.397C231.229 69.5874 231.15 69.8145 231.102 70.0781V73.7402H232.391V75H228.626V73.7402H229.673L229.681 68.6719H228.626V67.4121H231.05V68.4595C231.138 68.3032 231.236 68.1592 231.343 68.0273C231.456 67.8906 231.578 67.7734 231.709 67.6758C231.846 67.5732 231.995 67.4951 232.156 67.4414C232.322 67.3828 232.5 67.3535 232.691 67.3535C232.945 67.3535 233.184 67.3535 233.409 67.3535C233.633 67.3535 233.858 67.3584 234.083 67.3682V69.0161ZM235.071 67.4121H237.693V68.6719H236.983L238.858 73.9014L240.689 68.6719H240.228V67.4121H242.63V68.6719H241.978L239.495 75.1172H238.147L235.672 68.6719H235.071V67.4121ZM243.655 67.4121H246.131V73.7402H247.273V75H243.67V73.7402H244.754V68.6719H243.655V67.4121ZM244.498 64.7241C244.498 64.5972 244.522 64.4775 244.571 64.3652C244.625 64.248 244.693 64.1479 244.776 64.0649C244.864 63.9771 244.966 63.9087 245.083 63.8599C245.201 63.8062 245.325 63.7793 245.457 63.7793C245.584 63.7793 245.704 63.8062 245.816 63.8599C245.933 63.9087 246.033 63.9771 246.116 64.0649C246.204 64.1479 246.272 64.248 246.321 64.3652C246.375 64.4775 246.402 64.5972 246.402 64.7241C246.402 64.856 246.375 64.9805 246.321 65.0977C246.272 65.2148 246.204 65.3198 246.116 65.4126C246.033 65.5005 245.933 65.5713 245.816 65.625C245.704 65.6738 245.584 65.6982 245.457 65.6982C245.325 65.6982 245.201 65.6738 245.083 65.625C244.966 65.5713 244.864 65.5005 244.776 65.4126C244.693 65.3198 244.625 65.2148 244.571 65.0977C244.522 64.9805 244.498 64.856 244.498 64.7241ZM254.012 69.4336C253.807 69.0674 253.545 68.7988 253.228 68.6279C252.916 68.457 252.552 68.3716 252.137 68.3716C251.819 68.3716 251.521 68.4375 251.243 68.5693C250.965 68.7012 250.721 68.8892 250.511 69.1333C250.306 69.3774 250.142 69.6753 250.02 70.0269C249.903 70.3735 249.844 70.7617 249.844 71.1914C249.844 71.6162 249.903 71.9995 250.02 72.3413C250.142 72.6831 250.308 72.9761 250.518 73.2202C250.728 73.4595 250.97 73.645 251.243 73.7769C251.521 73.9038 251.819 73.9673 252.137 73.9673C252.605 73.9673 253.013 73.855 253.36 73.6304C253.707 73.4009 253.982 73.0664 254.188 72.627L255.315 73.1836C255.169 73.4961 254.988 73.7769 254.773 74.0259C254.559 74.2749 254.314 74.4873 254.041 74.6631C253.772 74.8389 253.475 74.9731 253.147 75.0659C252.825 75.1636 252.483 75.2124 252.122 75.2124C251.595 75.2124 251.106 75.1147 250.657 74.9194C250.213 74.7192 249.827 74.4409 249.5 74.0845C249.178 73.728 248.926 73.3032 248.746 72.8101C248.565 72.3169 248.475 71.7773 248.475 71.1914C248.475 70.6055 248.57 70.0659 248.76 69.5728C248.951 69.0796 249.212 68.6572 249.544 68.3057C249.876 67.9492 250.264 67.6709 250.708 67.4707C251.153 67.2705 251.629 67.1704 252.137 67.1704C252.615 67.1704 253.067 67.2534 253.492 67.4194C253.921 67.5854 254.297 67.8369 254.62 68.1738H255.389V69.4336H254.012ZM258.011 71.3818C258.011 71.5967 258.025 71.7944 258.055 71.9751C258.089 72.1509 258.135 72.3193 258.194 72.4805C258.375 72.9688 258.663 73.3374 259.058 73.5864C259.458 73.8306 259.91 73.9526 260.413 73.9526C260.809 73.9526 261.192 73.8989 261.563 73.7915C261.939 73.6792 262.332 73.5059 262.742 73.2715L263.292 74.2017C262.793 74.5435 262.293 74.7974 261.79 74.9634C261.287 75.1294 260.765 75.2124 260.223 75.2124C259.71 75.2124 259.234 75.127 258.794 74.9561C258.36 74.7852 257.984 74.5312 257.667 74.1943C257.354 73.8574 257.107 73.4375 256.927 72.9346C256.751 72.4316 256.663 71.8457 256.663 71.1768C256.663 70.6348 256.739 70.1245 256.89 69.646C257.042 69.1626 257.266 68.7427 257.564 68.3862C257.867 68.0249 258.24 67.7393 258.685 67.5293C259.129 67.3193 259.646 67.2144 260.237 67.2144C260.809 67.2144 261.285 67.3022 261.666 67.478C262.051 67.6489 262.364 67.8784 262.603 68.1665C262.847 68.4497 263.03 68.7744 263.152 69.1406C263.279 69.5068 263.367 69.8804 263.416 70.2612C263.44 70.4468 263.455 70.6348 263.46 70.8252C263.47 71.0156 263.475 71.2012 263.475 71.3818H258.011ZM260.142 68.3569C259.825 68.3569 259.546 68.4033 259.307 68.4961C259.073 68.584 258.873 68.7134 258.707 68.8843C258.541 69.0503 258.406 69.2554 258.304 69.4995C258.206 69.7437 258.133 70.0171 258.084 70.3198H262.017C261.998 70.0366 261.951 69.7754 261.878 69.5361C261.81 69.2969 261.702 69.0894 261.556 68.9136C261.409 68.7378 261.221 68.6011 260.992 68.5034C260.762 68.4058 260.479 68.3569 260.142 68.3569ZM275.501 73.7402H276.424L275.545 71.2207H271.275L270.418 73.7402H271.561V75H267.957V73.7402H268.924L272.381 63.8965H274.542L277.991 73.7402H279.104V75H275.501V73.7402ZM271.692 70.0049H275.12L273.392 65.0391L271.692 70.0049Z" fill="#4B8E93"/>
<path d="M342.75 90.125L359 106.062L342.75 122" stroke="#4B8E93" stroke-width="2" stroke-linecap="round" stroke-linejoin="round"/>
<path d="M307 71V93.3125C307 96.694 308.37 99.937 310.808 102.328C313.246 104.719 316.552 106.062 320 106.062H359" stroke="#4B8E93" stroke-width="2" stroke-linecap="round" stroke-linejoin="round"/>
<path d="M342.75 49.875L359 33.9375L342.75 18" stroke="#4B8E93" stroke-width="2" stroke-linecap="round" stroke-linejoin="round"/>
<path d="M307 69V46.6875C307 43.306 308.37 40.063 310.808 37.6719C313.246 35.2808 316.552 33.9375 320 33.9375H359" stroke="#4B8E93" stroke-width="2" stroke-linecap="round" stroke-linejoin="round"/>
<path d="M140.556 44H88.4444C84.333 44 81 46.5868 81 49.7778V90.2222C81 93.4132 84.333 96 88.4444 96H140.556C144.667 96 148 93.4132 148 90.2222V49.7778C148 46.5868 144.667 44 140.556 44Z" stroke="#4B8E93" stroke-width="2" stroke-linecap="round" stroke-linejoin="round"/>
<path d="M42 70H81M81 70L61.5 58M81 70L61.5 82" stroke="#4B8E93" stroke-width="2" stroke-linecap="round" stroke-linejoin="round"/>
<path d="M148 70H187M187 70L167.5 58M187 70L167.5 82" stroke="#4B8E93" stroke-width="2" stroke-linecap="round" stroke-linejoin="round"/>
<path d="M36.875 43H6.125C3.29454 43 1 45.2945 1 48.125V89.125C1 91.9555 3.29454 94.25 6.125 94.25H36.875C39.7055 94.25 42 91.9555 42 89.125V48.125C42 45.2945 39.7055 43 36.875 43Z" stroke="#4B8E93" stroke-width="2" stroke-linecap="round" stroke-linejoin="round"/>
<path d="M21.5 84H21.5256" stroke="#4B8E93" stroke-width="2" stroke-linecap="round" stroke-linejoin="round"/>
<path d="M94.6348 68.4238H96.7295V69.1919H96.7422C96.8861 69.0692 97.0363 68.9549 97.1929 68.8491C97.3537 68.7391 97.5208 68.6439 97.6943 68.5635C97.8678 68.4831 98.0477 68.4196 98.2339 68.373C98.4243 68.3265 98.6211 68.3032 98.8242 68.3032C99.2982 68.3032 99.7065 68.3921 100.049 68.5698C100.392 68.7433 100.657 69.0163 100.843 69.3887C101.004 69.2448 101.173 69.1073 101.351 68.9761C101.528 68.8407 101.712 68.7243 101.903 68.627C102.097 68.5296 102.301 68.4513 102.512 68.3921C102.724 68.3328 102.944 68.3032 103.172 68.3032C103.528 68.3032 103.847 68.3519 104.131 68.4492C104.414 68.5465 104.656 68.6947 104.854 68.8936C105.053 69.0924 105.204 69.3485 105.305 69.6616C105.411 69.9705 105.464 70.3366 105.464 70.7598V73.9082H106.378V75H103.306V73.9082H104.232V70.9058C104.232 70.4022 104.105 70.0213 103.852 69.7632C103.598 69.5008 103.232 69.3696 102.753 69.3696C102.47 69.3696 102.18 69.4373 101.884 69.5728C101.588 69.7082 101.334 69.8796 101.122 70.0869V73.9082H102.03V75H98.9639V73.9082H99.8906V70.9058C99.8906 70.4022 99.7616 70.0213 99.5034 69.7632C99.2495 69.5008 98.8835 69.3696 98.4053 69.3696C98.1302 69.3696 97.853 69.4352 97.5737 69.5664C97.2944 69.6976 97.0299 69.8605 96.7803 70.0552V73.9082H97.707V75H94.6348V73.9082H95.5488V69.5156H94.6348V68.4238ZM107.559 71.7119C107.563 71.1914 107.645 70.7174 107.806 70.29C107.971 69.8626 108.2 69.4966 108.492 69.1919C108.784 68.883 109.131 68.646 109.533 68.481C109.935 68.3159 110.377 68.2334 110.859 68.2334C111.346 68.2334 111.79 68.3159 112.192 68.481C112.599 68.646 112.946 68.8809 113.233 69.1855C113.521 69.486 113.745 69.8499 113.906 70.2773C114.067 70.7048 114.147 71.1787 114.147 71.6992C114.147 72.2113 114.067 72.6831 113.906 73.1147C113.745 73.5422 113.521 73.9103 113.233 74.2192C112.946 74.5282 112.599 74.7694 112.192 74.9429C111.79 75.1121 111.346 75.1968 110.859 75.1968C110.364 75.1968 109.916 75.1121 109.514 74.9429C109.112 74.7736 108.767 74.5366 108.479 74.2319C108.191 73.923 107.967 73.5549 107.806 73.1274C107.645 72.7 107.563 72.2282 107.559 71.7119ZM108.809 71.7119C108.809 72.0885 108.862 72.4292 108.968 72.7339C109.078 73.0386 109.226 73.2988 109.412 73.5146C109.603 73.7262 109.82 73.8913 110.066 74.0098C110.316 74.124 110.58 74.1812 110.859 74.1812C111.151 74.1812 111.422 74.124 111.672 74.0098C111.926 73.8955 112.146 73.7326 112.332 73.521C112.518 73.3052 112.664 73.0449 112.77 72.7402C112.876 72.4355 112.929 72.0928 112.929 71.7119C112.929 71.3141 112.876 70.9608 112.77 70.6519C112.664 70.3429 112.518 70.0848 112.332 69.8774C112.15 69.6701 111.932 69.5135 111.678 69.4077C111.424 69.3019 111.151 69.249 110.859 69.249C110.58 69.249 110.316 69.3019 110.066 69.4077C109.82 69.5135 109.603 69.6701 109.412 69.8774C109.226 70.0848 109.078 70.3429 108.968 70.6519C108.862 70.9608 108.809 71.3141 108.809 71.7119ZM119.308 65.123H121.384V73.9082H122.349V75H120.203V74.4604C119.992 74.6763 119.746 74.8455 119.467 74.9683C119.188 75.0868 118.87 75.146 118.515 75.146C118.07 75.146 117.656 75.0698 117.271 74.9175C116.89 74.7609 116.557 74.5345 116.274 74.2383C115.995 73.9378 115.775 73.5718 115.614 73.1401C115.457 72.7043 115.379 72.207 115.379 71.6484C115.379 71.1406 115.455 70.6794 115.607 70.2646C115.76 69.8457 115.976 69.4902 116.255 69.1982C116.534 68.902 116.871 68.6735 117.264 68.5127C117.658 68.3477 118.096 68.2651 118.578 68.2651C118.896 68.2651 119.185 68.3011 119.448 68.373C119.71 68.4408 119.962 68.5614 120.203 68.7349V66.2148H119.308V65.123ZM118.667 74.1177C119.018 74.1177 119.312 74.0669 119.549 73.9653C119.786 73.8595 120.004 73.703 120.203 73.4956V69.814C119.992 69.6362 119.748 69.5072 119.473 69.4268C119.198 69.3464 118.917 69.3062 118.629 69.3062C118.35 69.3062 118.087 69.359 117.842 69.4648C117.596 69.5664 117.381 69.7166 117.194 69.9155C117.012 70.1144 116.868 70.3577 116.763 70.6455C116.657 70.9333 116.604 71.2633 116.604 71.6357C116.604 72.042 116.655 72.3996 116.756 72.7085C116.858 73.0174 117 73.2777 117.182 73.4893C117.364 73.6966 117.582 73.8532 117.835 73.959C118.089 74.0648 118.367 74.1177 118.667 74.1177ZM124.596 71.8643C124.596 72.0505 124.608 72.2218 124.634 72.3784C124.663 72.5308 124.704 72.6768 124.754 72.8164C124.911 73.2396 125.161 73.5591 125.503 73.7749C125.85 73.9865 126.242 74.0923 126.678 74.0923C127.021 74.0923 127.353 74.0457 127.674 73.9526C128 73.8553 128.341 73.7051 128.696 73.502L129.172 74.3081C128.741 74.6043 128.307 74.8244 127.871 74.9683C127.435 75.1121 126.982 75.1841 126.513 75.1841C126.068 75.1841 125.656 75.11 125.275 74.9619C124.898 74.8138 124.572 74.5938 124.297 74.3018C124.027 74.0098 123.813 73.6458 123.656 73.21C123.504 72.7741 123.428 72.2663 123.428 71.6865C123.428 71.2168 123.493 70.7746 123.625 70.3599C123.756 69.9409 123.95 69.577 124.208 69.2681C124.471 68.9549 124.795 68.7074 125.18 68.5254C125.565 68.3434 126.013 68.2524 126.525 68.2524C127.021 68.2524 127.433 68.3286 127.763 68.481C128.097 68.6291 128.368 68.828 128.576 69.0776C128.787 69.3231 128.946 69.6045 129.052 69.9219C129.162 70.2393 129.238 70.563 129.28 70.8931C129.301 71.0539 129.314 71.2168 129.318 71.3818C129.327 71.5469 129.331 71.7077 129.331 71.8643H124.596ZM126.443 69.2427C126.168 69.2427 125.927 69.2829 125.719 69.3633C125.516 69.4395 125.343 69.5516 125.199 69.6997C125.055 69.8436 124.938 70.0213 124.85 70.2329C124.765 70.4445 124.701 70.6815 124.659 70.9438H128.068C128.051 70.6984 128.011 70.472 127.947 70.2646C127.888 70.0573 127.795 69.8774 127.668 69.7251C127.541 69.5728 127.378 69.4543 127.179 69.3696C126.98 69.285 126.735 69.2427 126.443 69.2427ZM130.893 65.123H133.025V73.9082H134.016V75H130.893V73.9082H131.845V66.2148H130.893V65.123Z" fill="#4B8E93"/>
</svg>
