<svg width="426" height="132" viewBox="0 0 426 132" fill="none" xmlns="http://www.w3.org/2000/svg">
<path d="M293.931 32.8996L246.535 32.9058C244.457 32.9073 242.416 33.2394 240.617 33.8687C238.819 34.4981 237.325 35.4025 236.286 36.4913L212.591 61.5841C211.551 62.674 211.004 63.9102 211.004 65.1685C211.004 66.4269 211.552 67.663 212.592 68.7526L236.293 93.8393C237.332 94.9278 238.826 95.8318 240.626 96.4607C242.425 97.0896 244.465 97.4212 246.543 97.4222L293.939 97.4161C296.017 97.4145 298.058 97.0824 299.857 96.4531C301.656 95.8237 303.15 94.9193 304.188 93.8305L327.883 68.7377C328.923 67.6478 329.47 66.4116 329.47 65.1533C329.47 63.8949 328.922 62.6588 327.882 61.5692L304.181 36.4826C303.142 35.394 301.648 34.49 299.849 33.8611C298.05 33.2322 296.009 32.9007 293.931 32.8996Z" stroke="#4B8E93" stroke-width="2" stroke-linecap="round" stroke-linejoin="round"/>
<path d="M397 50.1103C412.464 50.1103 425 45.8123 425 40.5103C425 35.2084 412.464 30.9103 397 30.9103C381.536 30.9103 369 35.2084 369 40.5103C369 45.8123 381.536 50.1103 397 50.1103Z" stroke="#4B8E93" stroke-width="2" stroke-linecap="round" stroke-linejoin="round"/>
<path d="M425 62.9103C425 68.2223 412.556 72.5103 397 72.5103C381.444 72.5103 369 68.2223 369 62.9103" stroke="#4B8E93" stroke-width="2" stroke-linecap="round" stroke-linejoin="round"/>
<path d="M369 40.5104V85.3104C369 90.6224 381.444 94.9104 397 94.9104C412.556 94.9104 425 90.6224 425 85.3104V40.5104" stroke="#4B8E93" stroke-width="2" stroke-linecap="round" stroke-linejoin="round"/>
<path d="M241.112 64.4482C241.112 64.2432 241.063 64.0698 240.966 63.9282C240.873 63.7817 240.751 63.6646 240.6 63.5767C240.448 63.4839 240.28 63.418 240.094 63.3789C239.909 63.335 239.728 63.313 239.552 63.313C239.357 63.313 239.176 63.335 239.01 63.3789C238.849 63.4229 238.71 63.4863 238.593 63.5693C238.476 63.6523 238.383 63.7549 238.314 63.877C238.251 63.9941 238.219 64.126 238.219 64.2725C238.219 64.5264 238.295 64.729 238.446 64.8804C238.603 65.0269 238.861 65.1636 239.223 65.2905L240.68 65.8032C241.305 66.0132 241.762 66.2988 242.05 66.6602C242.338 67.0215 242.482 67.4536 242.482 67.9565C242.482 68.2935 242.414 68.6035 242.277 68.8867C242.145 69.165 241.955 69.4043 241.706 69.6045C241.461 69.7998 241.166 69.9512 240.819 70.0586C240.473 70.1709 240.087 70.2271 239.662 70.2271C239.071 70.2271 238.59 70.1318 238.219 69.9414C237.848 69.751 237.562 69.4995 237.362 69.187H236.601V67.9272H238.117C238.117 68.1372 238.161 68.3179 238.249 68.4692C238.341 68.6157 238.461 68.7354 238.607 68.8281C238.759 68.9209 238.927 68.9893 239.113 69.0332C239.303 69.0771 239.496 69.0991 239.691 69.0991C239.882 69.0991 240.065 69.0771 240.241 69.0332C240.417 68.9844 240.57 68.916 240.702 68.8281C240.839 68.7354 240.946 68.6255 241.024 68.4985C241.103 68.3716 241.142 68.2275 241.142 68.0664C241.142 67.8223 241.061 67.6147 240.9 67.4438C240.744 67.2729 240.475 67.1191 240.094 66.9824L238.644 66.4404C238.053 66.2305 237.614 65.9644 237.326 65.6421C237.042 65.3149 236.901 64.9072 236.901 64.4189C236.901 64.0967 236.959 63.7988 237.077 63.5254C237.199 63.252 237.372 63.0176 237.597 62.8223C237.826 62.6221 238.104 62.4658 238.432 62.3535C238.759 62.2412 239.132 62.1851 239.552 62.1851C240.094 62.1851 240.548 62.2607 240.915 62.4121C241.281 62.5635 241.61 62.8223 241.903 63.1885H242.614V64.4482H241.112ZM245.302 66.3818C245.302 66.5967 245.316 66.7944 245.346 66.9751C245.38 67.1509 245.426 67.3193 245.485 67.4805C245.666 67.9688 245.954 68.3374 246.349 68.5864C246.75 68.8306 247.201 68.9526 247.704 68.9526C248.1 68.9526 248.483 68.8989 248.854 68.7915C249.23 68.6792 249.623 68.5059 250.033 68.2715L250.583 69.2017C250.084 69.5435 249.584 69.7974 249.081 69.9634C248.578 70.1294 248.056 70.2124 247.514 70.2124C247.001 70.2124 246.525 70.127 246.085 69.9561C245.651 69.7852 245.275 69.5312 244.958 69.1943C244.645 68.8574 244.398 68.4375 244.218 67.9346C244.042 67.4316 243.954 66.8457 243.954 66.1768C243.954 65.6348 244.03 65.1245 244.181 64.646C244.333 64.1626 244.557 63.7427 244.855 63.3862C245.158 63.0249 245.531 62.7393 245.976 62.5293C246.42 62.3193 246.938 62.2144 247.528 62.2144C248.1 62.2144 248.576 62.3022 248.957 62.478C249.342 62.6489 249.655 62.8784 249.894 63.1665C250.138 63.4497 250.321 63.7744 250.443 64.1406C250.57 64.5068 250.658 64.8804 250.707 65.2612C250.731 65.4468 250.746 65.6348 250.751 65.8252C250.761 66.0156 250.766 66.2012 250.766 66.3818H245.302ZM247.433 63.3569C247.116 63.3569 246.837 63.4033 246.598 63.4961C246.364 63.584 246.164 63.7134 245.998 63.8843C245.832 64.0503 245.697 64.2554 245.595 64.4995C245.497 64.7437 245.424 65.0171 245.375 65.3198H249.308C249.289 65.0366 249.242 64.7754 249.169 64.5361C249.101 64.2969 248.993 64.0894 248.847 63.9136C248.7 63.7378 248.512 63.6011 248.283 63.5034C248.053 63.4058 247.77 63.3569 247.433 63.3569ZM258.083 64.0161H256.691V63.5474C256.53 63.5474 256.364 63.5791 256.193 63.6426C256.027 63.7012 255.871 63.7939 255.724 63.9209C255.578 64.043 255.448 64.2017 255.336 64.397C255.229 64.5874 255.15 64.8145 255.102 65.0781V68.7402H256.391V70H252.626V68.7402H253.673L253.681 63.6719H252.626V62.4121H255.05V63.4595C255.138 63.3032 255.236 63.1592 255.343 63.0273C255.456 62.8906 255.578 62.7734 255.709 62.6758C255.846 62.5732 255.995 62.4951 256.156 62.4414C256.322 62.3828 256.5 62.3535 256.691 62.3535C256.945 62.3535 257.184 62.3535 257.409 62.3535C257.633 62.3535 257.858 62.3584 258.083 62.3682V64.0161ZM259.071 62.4121H261.693V63.6719H260.983L262.858 68.9014L264.689 63.6719H264.228V62.4121H266.63V63.6719H265.978L263.495 70.1172H262.147L259.672 63.6719H259.071V62.4121ZM267.655 62.4121H270.131V68.7402H271.273V70H267.67V68.7402H268.754V63.6719H267.655V62.4121ZM268.498 59.7241C268.498 59.5972 268.522 59.4775 268.571 59.3652C268.625 59.248 268.693 59.1479 268.776 59.0649C268.864 58.9771 268.966 58.9087 269.083 58.8599C269.201 58.8062 269.325 58.7793 269.457 58.7793C269.584 58.7793 269.704 58.8062 269.816 58.8599C269.933 58.9087 270.033 58.9771 270.116 59.0649C270.204 59.1479 270.272 59.248 270.321 59.3652C270.375 59.4775 270.402 59.5972 270.402 59.7241C270.402 59.856 270.375 59.9805 270.321 60.0977C270.272 60.2148 270.204 60.3198 270.116 60.4126C270.033 60.5005 269.933 60.5713 269.816 60.625C269.704 60.6738 269.584 60.6982 269.457 60.6982C269.325 60.6982 269.201 60.6738 269.083 60.625C268.966 60.5713 268.864 60.5005 268.776 60.4126C268.693 60.3198 268.625 60.2148 268.571 60.0977C268.522 59.9805 268.498 59.856 268.498 59.7241ZM278.012 64.4336C277.807 64.0674 277.545 63.7988 277.228 63.6279C276.916 63.457 276.552 63.3716 276.137 63.3716C275.819 63.3716 275.521 63.4375 275.243 63.5693C274.965 63.7012 274.721 63.8892 274.511 64.1333C274.306 64.3774 274.142 64.6753 274.02 65.0269C273.903 65.3735 273.844 65.7617 273.844 66.1914C273.844 66.6162 273.903 66.9995 274.02 67.3413C274.142 67.6831 274.308 67.9761 274.518 68.2202C274.728 68.4595 274.97 68.645 275.243 68.7769C275.521 68.9038 275.819 68.9673 276.137 68.9673C276.605 68.9673 277.013 68.855 277.36 68.6304C277.707 68.4009 277.982 68.0664 278.188 67.627L279.315 68.1836C279.169 68.4961 278.988 68.7769 278.773 69.0259C278.559 69.2749 278.314 69.4873 278.041 69.6631C277.772 69.8389 277.475 69.9731 277.147 70.0659C276.825 70.1636 276.483 70.2124 276.122 70.2124C275.595 70.2124 275.106 70.1147 274.657 69.9194C274.213 69.7192 273.827 69.4409 273.5 69.0845C273.178 68.728 272.926 68.3032 272.746 67.8101C272.565 67.3169 272.475 66.7773 272.475 66.1914C272.475 65.6055 272.57 65.0659 272.76 64.5728C272.951 64.0796 273.212 63.6572 273.544 63.3057C273.876 62.9492 274.264 62.6709 274.708 62.4707C275.153 62.2705 275.629 62.1704 276.137 62.1704C276.615 62.1704 277.067 62.2534 277.492 62.4194C277.921 62.5854 278.297 62.8369 278.62 63.1738H279.389V64.4336H278.012ZM282.011 66.3818C282.011 66.5967 282.025 66.7944 282.055 66.9751C282.089 67.1509 282.135 67.3193 282.194 67.4805C282.375 67.9688 282.663 68.3374 283.058 68.5864C283.458 68.8306 283.91 68.9526 284.413 68.9526C284.809 68.9526 285.192 68.8989 285.563 68.7915C285.939 68.6792 286.332 68.5059 286.742 68.2715L287.292 69.2017C286.793 69.5435 286.293 69.7974 285.79 69.9634C285.287 70.1294 284.765 70.2124 284.223 70.2124C283.71 70.2124 283.234 70.127 282.794 69.9561C282.36 69.7852 281.984 69.5312 281.667 69.1943C281.354 68.8574 281.107 68.4375 280.927 67.9346C280.751 67.4316 280.663 66.8457 280.663 66.1768C280.663 65.6348 280.739 65.1245 280.89 64.646C281.042 64.1626 281.266 63.7427 281.564 63.3862C281.867 63.0249 282.24 62.7393 282.685 62.5293C283.129 62.3193 283.646 62.2144 284.237 62.2144C284.809 62.2144 285.285 62.3022 285.666 62.478C286.051 62.6489 286.364 62.8784 286.603 63.1665C286.847 63.4497 287.03 63.7744 287.152 64.1406C287.279 64.5068 287.367 64.8804 287.416 65.2612C287.44 65.4468 287.455 65.6348 287.46 65.8252C287.47 66.0156 287.475 66.2012 287.475 66.3818H282.011ZM284.142 63.3569C283.825 63.3569 283.546 63.4033 283.307 63.4961C283.073 63.584 282.873 63.7134 282.707 63.8843C282.541 64.0503 282.406 64.2554 282.304 64.4995C282.206 64.7437 282.133 65.0171 282.084 65.3198H286.017C285.998 65.0366 285.951 64.7754 285.878 64.5361C285.81 64.2969 285.702 64.0894 285.556 63.9136C285.409 63.7378 285.221 63.6011 284.992 63.5034C284.762 63.4058 284.479 63.3569 284.142 63.3569ZM299.501 68.7402H300.424L299.545 66.2207H295.275L294.418 68.7402H295.561V70H291.957V68.7402H292.924L296.381 58.8965H298.542L301.991 68.7402H303.104V70H299.501V68.7402ZM295.692 65.0049H299.12L297.392 60.0391L295.692 65.0049Z" fill="#4B8E93"/>
<path d="M330 64.9103H369M369 64.9103L349.5 52.9103M369 64.9103L349.5 76.9103" stroke="#4B8E93" stroke-width="2" stroke-linecap="round" stroke-linejoin="round"/>
<path d="M209.715 40.6768L229.094 41.6666L227.318 22.3439" stroke="#4B8E93" stroke-width="2" stroke-linecap="round" stroke-linejoin="round"/>
<path d="M175.883 29.3326L188.205 16.4996C190.072 14.5547 192.754 13.5455 195.662 13.694C198.569 13.8426 201.463 15.1366 203.708 17.2915L229.094 41.6666" stroke="#4B8E93" stroke-width="2" stroke-linecap="round" stroke-linejoin="round"/>
<path d="M210.832 91.0664L230.211 90.0765L228.435 109.399" stroke="#4B8E93" stroke-width="2" stroke-linecap="round" stroke-linejoin="round"/>
<path d="M177 102.411L189.322 115.244C191.189 117.188 193.872 118.198 196.779 118.049C199.687 117.901 202.581 116.607 204.825 114.452L230.211 90.0765" stroke="#4B8E93" stroke-width="2" stroke-linecap="round" stroke-linejoin="round"/>
<path d="M42 64.9103H56" stroke="#4B8E93" stroke-width="2" stroke-linecap="round" stroke-linejoin="round"/>
<path d="M91.75 85.0353L108 100.973L91.75 116.91" stroke="#4B8E93" stroke-width="2" stroke-linecap="round" stroke-linejoin="round"/>
<path d="M56 65.9103V88.2228C56 91.6043 57.3696 94.8474 59.8076 97.2385C62.2456 99.6295 65.5522 100.973 69 100.973H108" stroke="#4B8E93" stroke-width="2" stroke-linecap="round" stroke-linejoin="round"/>
<path d="M91.75 44.7853L108 28.8478L91.75 12.9103" stroke="#4B8E93" stroke-width="2" stroke-linecap="round" stroke-linejoin="round"/>
<path d="M56 63.9103V41.5978C56 38.2163 57.3696 34.9733 59.8076 32.5822C62.2456 30.1911 65.5522 28.8478 69 28.8478H108" stroke="#4B8E93" stroke-width="2" stroke-linecap="round" stroke-linejoin="round"/>
<path d="M168.556 1.91032H116.444C112.333 1.91032 109 4.49712 109 7.6881V48.1325C109 51.3235 112.333 53.9103 116.444 53.9103H168.556C172.667 53.9103 176 51.3235 176 48.1325V7.6881C176 4.49712 172.667 1.91032 168.556 1.91032Z" stroke="#4B8E93" stroke-width="2" stroke-linecap="round" stroke-linejoin="round"/>
<path d="M36 37.9103H6C3.23858 37.9103 1 40.2049 1 43.0353V84.0353C1 86.8658 3.23858 89.1603 6 89.1603H36C38.7614 89.1603 41 86.8658 41 84.0353V43.0353C41 40.2049 38.7614 37.9103 36 37.9103Z" stroke="#4B8E93" stroke-width="2" stroke-linecap="round" stroke-linejoin="round"/>
<path d="M21 78.9103H21.0256" stroke="#4B8E93" stroke-width="2" stroke-linecap="round" stroke-linejoin="round"/>
<path d="M133.505 19.7243H132.299V19.318C132.16 19.318 132.016 19.3455 131.868 19.4006C131.724 19.4513 131.588 19.5317 131.461 19.6418C131.334 19.7476 131.222 19.8851 131.125 20.0544C131.032 20.2194 130.964 20.4162 130.922 20.6447V23.8185H132.039V24.9103H128.776V23.8185H129.684L129.69 19.4259H128.776V18.3342H130.877V19.2419C130.954 19.1065 131.038 18.9816 131.131 18.8674C131.229 18.7489 131.334 18.6473 131.449 18.5627C131.567 18.4738 131.696 18.4061 131.836 18.3595C131.98 18.3088 132.134 18.2834 132.299 18.2834C132.519 18.2834 132.727 18.2834 132.921 18.2834C133.116 18.2834 133.311 18.2876 133.505 18.2961V19.7243ZM135.987 21.7746C135.987 21.9608 136 22.1322 136.025 22.2887C136.055 22.4411 136.095 22.5871 136.146 22.7267C136.303 23.1499 136.552 23.4694 136.895 23.6852C137.242 23.8968 137.633 24.0026 138.069 24.0026C138.412 24.0026 138.744 23.9561 139.066 23.863C139.392 23.7656 139.732 23.6154 140.088 23.4123L140.564 24.2184C140.132 24.5147 139.699 24.7347 139.263 24.8786C138.827 25.0225 138.374 25.0944 137.904 25.0944C137.46 25.0944 137.047 25.0204 136.667 24.8722C136.29 24.7241 135.964 24.5041 135.689 24.2121C135.418 23.9201 135.204 23.5562 135.048 23.1203C134.896 22.6844 134.819 22.1766 134.819 21.5968C134.819 21.1271 134.885 20.6849 135.016 20.2702C135.147 19.8512 135.342 19.4873 135.6 19.1784C135.862 18.8652 136.186 18.6177 136.571 18.4357C136.956 18.2537 137.405 18.1628 137.917 18.1628C138.412 18.1628 138.825 18.2389 139.155 18.3913C139.489 18.5394 139.76 18.7383 139.967 18.988C140.179 19.2334 140.338 19.5148 140.443 19.8322C140.553 20.1496 140.63 20.4733 140.672 20.8034C140.693 20.9642 140.706 21.1271 140.71 21.2922C140.718 21.4572 140.723 21.618 140.723 21.7746H135.987ZM137.834 19.153C137.559 19.153 137.318 19.1932 137.111 19.2736C136.908 19.3498 136.734 19.4619 136.59 19.61C136.446 19.7539 136.33 19.9316 136.241 20.1432C136.157 20.3548 136.093 20.5918 136.051 20.8542H139.459C139.443 20.6087 139.402 20.3823 139.339 20.175C139.28 19.9676 139.187 19.7878 139.06 19.6354C138.933 19.4831 138.77 19.3646 138.571 19.28C138.372 19.1953 138.126 19.153 137.834 19.153ZM146.201 24.3009C145.951 24.5337 145.674 24.7241 145.369 24.8722C145.069 25.0204 144.726 25.0944 144.341 25.0944C144.019 25.0944 143.723 25.0436 143.452 24.9421C143.186 24.8405 142.955 24.703 142.76 24.5295C142.566 24.3517 142.413 24.1465 142.303 23.9137C142.197 23.681 142.145 23.4334 142.145 23.1711C142.145 22.8918 142.185 22.6442 142.265 22.4284C142.35 22.2126 142.46 22.0264 142.595 21.8698C142.735 21.709 142.896 21.5757 143.078 21.4699C143.264 21.3599 143.456 21.2731 143.655 21.2096C143.858 21.1419 144.064 21.0954 144.271 21.07C144.483 21.0404 144.684 21.0256 144.874 21.0256C145.179 21.0256 145.435 21.0361 145.642 21.0573C145.849 21.0742 146.038 21.0996 146.207 21.1335L146.213 20.5939C146.213 20.3612 146.18 20.1602 146.112 19.9909C146.044 19.8174 145.949 19.6756 145.826 19.5656C145.703 19.4513 145.555 19.3667 145.382 19.3117C145.213 19.2567 145.022 19.2292 144.811 19.2292C144.612 19.2292 144.421 19.244 144.239 19.2736C144.057 19.299 143.886 19.335 143.725 19.3815C143.569 19.4238 143.423 19.4746 143.287 19.5339C143.156 19.5889 143.044 19.6481 142.951 19.7116L142.563 18.8927C142.72 18.7912 142.891 18.6981 143.078 18.6134C143.264 18.5246 143.458 18.4505 143.662 18.3913C143.869 18.3278 144.078 18.2791 144.29 18.2453C144.506 18.2072 144.717 18.1882 144.925 18.1882C145.306 18.1882 145.648 18.2347 145.953 18.3278C146.258 18.4167 146.516 18.5563 146.728 18.7467C146.939 18.9372 147.102 19.1805 147.216 19.4767C147.331 19.7687 147.388 20.12 147.388 20.5304L147.381 23.8185H148.111V24.9103H146.201V24.3009ZM144.601 24.1042C144.758 24.1042 144.914 24.0851 145.071 24.047C145.227 24.009 145.375 23.9582 145.515 23.8947C145.655 23.827 145.784 23.7508 145.902 23.6662C146.021 23.5773 146.12 23.4863 146.201 23.3932L146.207 21.9079H144.836C144.607 21.9079 144.398 21.9333 144.208 21.9841C144.021 22.0348 143.858 22.1089 143.719 22.2062C143.583 22.3036 143.478 22.4242 143.401 22.568C143.325 22.7119 143.287 22.877 143.287 23.0632C143.287 23.2367 143.319 23.389 143.382 23.5202C143.446 23.6471 143.535 23.7551 143.649 23.8439C143.767 23.9286 143.907 23.9941 144.068 24.0407C144.229 24.083 144.406 24.1042 144.601 24.1042ZM153.323 15.0334H155.398V23.8185H156.363V24.9103H154.218V24.3708C154.006 24.5866 153.761 24.7559 153.481 24.8786C153.202 24.9971 152.885 25.0563 152.529 25.0563C152.085 25.0563 151.67 24.9801 151.285 24.8278C150.904 24.6712 150.572 24.4448 150.289 24.1486C150.009 23.8481 149.789 23.4821 149.628 23.0505C149.472 22.6146 149.394 22.1174 149.394 21.5588C149.394 21.0509 149.47 20.5897 149.622 20.175C149.774 19.756 149.99 19.4006 150.27 19.1086C150.549 18.8123 150.885 18.5838 151.279 18.423C151.672 18.258 152.11 18.1755 152.593 18.1755C152.91 18.1755 153.2 18.2114 153.462 18.2834C153.725 18.3511 153.977 18.4717 154.218 18.6452V16.1252H153.323V15.0334ZM152.682 24.028C153.033 24.028 153.327 23.9772 153.564 23.8757C153.801 23.7699 154.019 23.6133 154.218 23.4059V19.7243C154.006 19.5466 153.763 19.4175 153.488 19.3371C153.213 19.2567 152.931 19.2165 152.644 19.2165C152.364 19.2165 152.102 19.2694 151.856 19.3752C151.611 19.4767 151.395 19.627 151.209 19.8259C151.027 20.0247 150.883 20.2681 150.777 20.5558C150.672 20.8436 150.619 21.1737 150.619 21.5461C150.619 21.9523 150.669 22.3099 150.771 22.6188C150.873 22.9277 151.014 23.188 151.196 23.3996C151.378 23.6069 151.596 23.7635 151.85 23.8693C152.104 23.9751 152.381 24.028 152.682 24.028ZM122.867 34.3342H124.961V35.1022H124.974C125.118 34.9795 125.268 34.8652 125.425 34.7594C125.586 34.6494 125.753 34.5542 125.926 34.4738C126.1 34.3934 126.28 34.3299 126.466 34.2834C126.656 34.2368 126.853 34.2135 127.056 34.2135C127.53 34.2135 127.938 34.3024 128.281 34.4801C128.624 34.6537 128.889 34.9266 129.075 35.299C129.236 35.1551 129.405 35.0176 129.583 34.8864C129.76 34.751 129.944 34.6346 130.135 34.5373C130.329 34.4399 130.533 34.3617 130.744 34.3024C130.956 34.2432 131.176 34.2135 131.404 34.2135C131.76 34.2135 132.079 34.2622 132.363 34.3595C132.646 34.4569 132.888 34.605 133.086 34.8039C133.285 35.0028 133.436 35.2588 133.537 35.5719C133.643 35.8809 133.696 36.2469 133.696 36.6701V39.8185H134.61V40.9103H131.538V39.8185H132.464V36.8161C132.464 36.3125 132.337 35.9316 132.083 35.6735C131.83 35.4111 131.464 35.28 130.985 35.28C130.702 35.28 130.412 35.3477 130.116 35.4831C129.819 35.6185 129.566 35.7899 129.354 35.9972V39.8185H130.262V40.9103H127.196V39.8185H128.123V36.8161C128.123 36.3125 127.993 35.9316 127.735 35.6735C127.481 35.4111 127.115 35.28 126.637 35.28C126.362 35.28 126.085 35.3455 125.806 35.4767C125.526 35.6079 125.262 35.7708 125.012 35.9655V39.8185H125.939V40.9103H122.867V39.8185H123.781V35.4259H122.867V34.3342ZM135.791 37.6222C135.795 37.1017 135.877 36.6278 136.038 36.2004C136.203 35.773 136.432 35.4069 136.724 35.1022C137.016 34.7933 137.363 34.5563 137.765 34.3913C138.167 34.2262 138.609 34.1437 139.091 34.1437C139.578 34.1437 140.022 34.2262 140.424 34.3913C140.831 34.5563 141.178 34.7912 141.465 35.0959C141.753 35.3963 141.977 35.7603 142.138 36.1877C142.299 36.6151 142.379 37.089 142.379 37.6095C142.379 38.1216 142.299 38.5934 142.138 39.0251C141.977 39.4525 141.753 39.8206 141.465 40.1296C141.178 40.4385 140.831 40.6797 140.424 40.8532C140.022 41.0225 139.578 41.1071 139.091 41.1071C138.596 41.1071 138.148 41.0225 137.746 40.8532C137.344 40.6839 136.999 40.4469 136.711 40.1423C136.423 39.8333 136.199 39.4652 136.038 39.0378C135.877 38.6104 135.795 38.1385 135.791 37.6222ZM137.041 37.6222C137.041 37.9989 137.094 38.3395 137.2 38.6442C137.31 38.9489 137.458 39.2092 137.644 39.425C137.834 39.6366 138.052 39.8016 138.298 39.9201C138.548 40.0343 138.812 40.0915 139.091 40.0915C139.383 40.0915 139.654 40.0343 139.904 39.9201C140.158 39.8058 140.378 39.6429 140.564 39.4313C140.75 39.2155 140.896 38.9552 141.002 38.6506C141.108 38.3459 141.161 38.0031 141.161 37.6222C141.161 37.2245 141.108 36.8711 141.002 36.5622C140.896 36.2533 140.75 35.9951 140.564 35.7878C140.382 35.5804 140.164 35.4238 139.91 35.318C139.656 35.2122 139.383 35.1593 139.091 35.1593C138.812 35.1593 138.548 35.2122 138.298 35.318C138.052 35.4238 137.834 35.5804 137.644 35.7878C137.458 35.9951 137.31 36.2533 137.2 36.5622C137.094 36.8711 137.041 37.2245 137.041 37.6222ZM147.54 31.0334H149.616V39.8185H150.581V40.9103H148.435V40.3708C148.223 40.5866 147.978 40.7559 147.699 40.8786C147.419 40.9971 147.102 41.0563 146.747 41.0563C146.302 41.0563 145.888 40.9801 145.502 40.8278C145.122 40.6712 144.789 40.4448 144.506 40.1486C144.227 39.8481 144.007 39.4821 143.846 39.0505C143.689 38.6146 143.611 38.1174 143.611 37.5588C143.611 37.0509 143.687 36.5897 143.839 36.175C143.992 35.756 144.208 35.4006 144.487 35.1086C144.766 34.8123 145.103 34.5838 145.496 34.423C145.89 34.258 146.328 34.1755 146.81 34.1755C147.127 34.1755 147.417 34.2114 147.68 34.2834C147.942 34.3511 148.194 34.4717 148.435 34.6452V32.1252H147.54V31.0334ZM146.899 40.028C147.25 40.028 147.544 39.9772 147.781 39.8757C148.018 39.7699 148.236 39.6133 148.435 39.4059V35.7243C148.223 35.5466 147.98 35.4175 147.705 35.3371C147.43 35.2567 147.149 35.2165 146.861 35.2165C146.582 35.2165 146.319 35.2694 146.074 35.3752C145.828 35.4767 145.612 35.627 145.426 35.8259C145.244 36.0247 145.1 36.2681 144.995 36.5558C144.889 36.8436 144.836 37.1737 144.836 37.5461C144.836 37.9523 144.887 38.3099 144.988 38.6188C145.09 38.9277 145.232 39.188 145.414 39.3996C145.596 39.6069 145.813 39.7635 146.067 39.8693C146.321 39.9751 146.598 40.028 146.899 40.028ZM152.828 37.7746C152.828 37.9608 152.84 38.1322 152.866 38.2887C152.895 38.4411 152.936 38.5871 152.986 38.7267C153.143 39.1499 153.393 39.4694 153.735 39.6852C154.082 39.8968 154.474 40.0026 154.91 40.0026C155.252 40.0026 155.585 39.9561 155.906 39.863C156.232 39.7656 156.573 39.6154 156.928 39.4123L157.404 40.2184C156.973 40.5147 156.539 40.7347 156.103 40.8786C155.667 41.0225 155.214 41.0944 154.745 41.0944C154.3 41.0944 153.888 41.0204 153.507 40.8722C153.13 40.7241 152.804 40.5041 152.529 40.2121C152.258 39.9201 152.045 39.5562 151.888 39.1203C151.736 38.6844 151.66 38.1766 151.66 37.5968C151.66 37.1271 151.725 36.6849 151.856 36.2702C151.988 35.8512 152.182 35.4873 152.44 35.1784C152.703 34.8652 153.027 34.6177 153.412 34.4357C153.797 34.2537 154.245 34.1628 154.757 34.1628C155.252 34.1628 155.665 34.2389 155.995 34.3913C156.329 34.5394 156.6 34.7383 156.808 34.988C157.019 35.2334 157.178 35.5148 157.284 35.8322C157.394 36.1496 157.47 36.4733 157.512 36.8034C157.533 36.9642 157.546 37.1271 157.55 37.2922C157.559 37.4572 157.563 37.618 157.563 37.7746H152.828ZM154.675 35.153C154.4 35.153 154.159 35.1932 153.951 35.2736C153.748 35.3498 153.575 35.4619 153.431 35.61C153.287 35.7539 153.17 35.9316 153.082 36.1432C152.997 36.3548 152.933 36.5918 152.891 36.8542H156.3C156.283 36.6087 156.243 36.3823 156.179 36.175C156.12 35.9676 156.027 35.7878 155.9 35.6354C155.773 35.4831 155.61 35.3646 155.411 35.28C155.212 35.1953 154.967 35.153 154.675 35.153ZM159.125 31.0334H161.257V39.8185H162.248V40.9103H159.125V39.8185H160.077V32.1252H159.125V31.0334Z" fill="#4B8E93"/>
<path d="M169.556 74.9103H117.444C113.333 74.9103 110 77.4971 110 80.6881V121.133C110 124.324 113.333 126.91 117.444 126.91H169.556C173.667 126.91 177 124.324 177 121.133V80.6881C177 77.4971 173.667 74.9103 169.556 74.9103Z" stroke="#4B8E93" stroke-width="2" stroke-linecap="round" stroke-linejoin="round"/>
<path d="M127.136 91.3342H129.218V92.426H128.913L130.062 96.6218L131.636 91.3342H132.626L134.131 96.6091L135.331 92.426H134.95V91.3342H137.032V92.426H136.467L134.664 98.0119H133.572L132.081 92.7624L130.595 98.0119H129.491L127.701 92.426H127.136V91.3342ZM142.783 92.7243H141.577V92.3181C141.437 92.3181 141.293 92.3456 141.145 92.4006C141.001 92.4514 140.866 92.5318 140.739 92.6418C140.612 92.7476 140.5 92.8851 140.402 93.0544C140.309 93.2194 140.242 93.4162 140.199 93.6447V96.8185H141.316V97.9103H138.054V96.8185H138.961L138.968 92.426H138.054V91.3342H140.155V92.2419C140.231 92.1065 140.316 91.9816 140.409 91.8674C140.506 91.7489 140.612 91.6473 140.726 91.5627C140.845 91.4738 140.974 91.4061 141.113 91.3596C141.257 91.3088 141.412 91.2834 141.577 91.2834C141.797 91.2834 142.004 91.2834 142.199 91.2834C142.393 91.2834 142.588 91.2876 142.783 91.2961V92.7243ZM144.097 91.3342H146.242V96.8185H147.232V97.9103H144.109V96.8185H145.049V92.426H144.097V91.3342ZM144.827 89.0046C144.827 88.8946 144.848 88.7909 144.89 88.6935C144.937 88.592 144.996 88.5052 145.068 88.4333C145.144 88.3571 145.233 88.2979 145.334 88.2556C145.436 88.209 145.544 88.1857 145.658 88.1857C145.768 88.1857 145.872 88.209 145.969 88.2556C146.071 88.2979 146.158 88.3571 146.229 88.4333C146.306 88.5052 146.365 88.592 146.407 88.6935C146.454 88.7909 146.477 88.8946 146.477 89.0046C146.477 89.1188 146.454 89.2267 146.407 89.3283C146.365 89.4299 146.306 89.5209 146.229 89.6013C146.158 89.6774 146.071 89.7388 145.969 89.7853C145.872 89.8277 145.768 89.8488 145.658 89.8488C145.544 89.8488 145.436 89.8277 145.334 89.7853C145.233 89.7388 145.144 89.6774 145.068 89.6013C144.996 89.5209 144.937 89.4299 144.89 89.3283C144.848 89.2267 144.827 89.1188 144.827 89.0046ZM150.229 91.3342H151.771V92.2927H150.216L150.197 96.0886C150.197 96.3467 150.226 96.5562 150.286 96.717C150.345 96.8778 150.44 96.9899 150.571 97.0534C150.702 97.1127 150.851 97.1423 151.016 97.1423C151.193 97.1423 151.35 97.1275 151.485 97.0978C151.621 97.064 151.769 97.009 151.93 96.9328L152.203 97.7263C152 97.8321 151.786 97.9146 151.562 97.9738C151.337 98.0373 151.073 98.069 150.768 98.069C150.48 98.069 150.229 98.0331 150.013 97.9611C149.801 97.8934 149.621 97.777 149.473 97.612C149.329 97.447 149.221 97.2269 149.149 96.9518C149.077 96.6725 149.042 96.3255 149.042 95.9108L149.061 92.2927H148.013V91.3342H149.073V89.7599L150.229 89.2141V91.3342ZM154.278 94.7746C154.278 94.9608 154.291 95.1322 154.316 95.2888C154.346 95.4411 154.386 95.5871 154.437 95.7267C154.594 96.1499 154.843 96.4694 155.186 96.6852C155.533 96.8968 155.924 97.0026 156.36 97.0026C156.703 97.0026 157.035 96.9561 157.357 96.863C157.683 96.7656 158.023 96.6154 158.379 96.4123L158.855 97.2184C158.423 97.5147 157.99 97.7347 157.554 97.8786C157.118 98.0225 156.665 98.0944 156.195 98.0944C155.751 98.0944 155.338 98.0204 154.958 97.8723C154.581 97.7241 154.255 97.5041 153.98 97.2121C153.709 96.9201 153.495 96.5562 153.339 96.1203C153.187 95.6844 153.11 95.1766 153.11 94.5969C153.11 94.1271 153.176 93.6849 153.307 93.2702C153.438 92.8513 153.633 92.4873 153.891 92.1784C154.153 91.8653 154.477 91.6177 154.862 91.4357C155.247 91.2538 155.696 91.1628 156.208 91.1628C156.703 91.1628 157.116 91.239 157.446 91.3913C157.78 91.5394 158.051 91.7383 158.258 91.988C158.47 92.2334 158.629 92.5148 158.734 92.8322C158.844 93.1496 158.921 93.4733 158.963 93.8034C158.984 93.9642 158.997 94.1271 159.001 94.2922C159.009 94.4572 159.014 94.618 159.014 94.7746H154.278ZM156.125 92.153C155.85 92.153 155.609 92.1932 155.402 92.2736C155.199 92.3498 155.025 92.4619 154.881 92.61C154.737 92.7539 154.621 92.9317 154.532 93.1432C154.448 93.3548 154.384 93.5918 154.342 93.8542H157.75C157.734 93.6087 157.693 93.3823 157.63 93.175C157.571 92.9676 157.478 92.7878 157.351 92.6354C157.224 92.4831 157.061 92.3646 156.862 92.28C156.663 92.1953 156.417 92.153 156.125 92.153ZM123.867 107.334H125.961V108.102H125.974C126.118 107.98 126.268 107.865 126.425 107.759C126.586 107.649 126.753 107.554 126.926 107.474C127.1 107.393 127.28 107.33 127.466 107.283C127.656 107.237 127.853 107.214 128.056 107.214C128.53 107.214 128.938 107.302 129.281 107.48C129.624 107.654 129.889 107.927 130.075 108.299C130.236 108.155 130.405 108.018 130.583 107.886C130.76 107.751 130.944 107.635 131.135 107.537C131.329 107.44 131.533 107.362 131.744 107.302C131.956 107.243 132.176 107.214 132.404 107.214C132.76 107.214 133.079 107.262 133.363 107.36C133.646 107.457 133.888 107.605 134.086 107.804C134.285 108.003 134.436 108.259 134.537 108.572C134.643 108.881 134.696 109.247 134.696 109.67V112.819H135.61V113.91H132.538V112.819H133.464V109.816C133.464 109.313 133.337 108.932 133.083 108.674C132.83 108.411 132.464 108.28 131.985 108.28C131.702 108.28 131.412 108.348 131.116 108.483C130.819 108.619 130.566 108.79 130.354 108.997V112.819H131.262V113.91H128.196V112.819H129.123V109.816C129.123 109.313 128.993 108.932 128.735 108.674C128.481 108.411 128.115 108.28 127.637 108.28C127.362 108.28 127.085 108.346 126.806 108.477C126.526 108.608 126.262 108.771 126.012 108.966V112.819H126.939V113.91H123.867V112.819H124.781V108.426H123.867V107.334ZM136.791 110.622C136.795 110.102 136.877 109.628 137.038 109.2C137.203 108.773 137.432 108.407 137.724 108.102C138.016 107.793 138.363 107.556 138.765 107.391C139.167 107.226 139.609 107.144 140.091 107.144C140.578 107.144 141.022 107.226 141.424 107.391C141.831 107.556 142.178 107.791 142.465 108.096C142.753 108.396 142.977 108.76 143.138 109.188C143.299 109.615 143.379 110.089 143.379 110.61C143.379 111.122 143.299 111.593 143.138 112.025C142.977 112.452 142.753 112.821 142.465 113.13C142.178 113.438 141.831 113.68 141.424 113.853C141.022 114.022 140.578 114.107 140.091 114.107C139.596 114.107 139.148 114.022 138.746 113.853C138.344 113.684 137.999 113.447 137.711 113.142C137.423 112.833 137.199 112.465 137.038 112.038C136.877 111.61 136.795 111.139 136.791 110.622ZM138.041 110.622C138.041 110.999 138.094 111.34 138.2 111.644C138.31 111.949 138.458 112.209 138.644 112.425C138.834 112.637 139.052 112.802 139.298 112.92C139.548 113.034 139.812 113.091 140.091 113.091C140.383 113.091 140.654 113.034 140.904 112.92C141.158 112.806 141.378 112.643 141.564 112.431C141.75 112.216 141.896 111.955 142.002 111.651C142.108 111.346 142.161 111.003 142.161 110.622C142.161 110.224 142.108 109.871 142.002 109.562C141.896 109.253 141.75 108.995 141.564 108.788C141.382 108.58 141.164 108.424 140.91 108.318C140.656 108.212 140.383 108.159 140.091 108.159C139.812 108.159 139.548 108.212 139.298 108.318C139.052 108.424 138.834 108.58 138.644 108.788C138.458 108.995 138.31 109.253 138.2 109.562C138.094 109.871 138.041 110.224 138.041 110.622ZM148.54 104.033H150.616V112.819H151.581V113.91H149.435V113.371C149.223 113.587 148.978 113.756 148.699 113.879C148.419 113.997 148.102 114.056 147.747 114.056C147.302 114.056 146.888 113.98 146.502 113.828C146.122 113.671 145.789 113.445 145.506 113.149C145.227 112.848 145.007 112.482 144.846 112.05C144.689 111.615 144.611 111.117 144.611 110.559C144.611 110.051 144.687 109.59 144.839 109.175C144.992 108.756 145.208 108.401 145.487 108.109C145.766 107.812 146.103 107.584 146.496 107.423C146.89 107.258 147.328 107.175 147.81 107.175C148.127 107.175 148.417 107.211 148.68 107.283C148.942 107.351 149.194 107.472 149.435 107.645V105.125H148.54V104.033ZM147.899 113.028C148.25 113.028 148.544 112.977 148.781 112.876C149.018 112.77 149.236 112.613 149.435 112.406V108.724C149.223 108.547 148.98 108.418 148.705 108.337C148.43 108.257 148.149 108.216 147.861 108.216C147.582 108.216 147.319 108.269 147.074 108.375C146.828 108.477 146.612 108.627 146.426 108.826C146.244 109.025 146.1 109.268 145.995 109.556C145.889 109.844 145.836 110.174 145.836 110.546C145.836 110.952 145.887 111.31 145.988 111.619C146.09 111.928 146.232 112.188 146.414 112.4C146.596 112.607 146.813 112.764 147.067 112.869C147.321 112.975 147.598 113.028 147.899 113.028ZM153.828 110.775C153.828 110.961 153.84 111.132 153.866 111.289C153.895 111.441 153.936 111.587 153.986 111.727C154.143 112.15 154.393 112.469 154.735 112.685C155.082 112.897 155.474 113.003 155.91 113.003C156.252 113.003 156.585 112.956 156.906 112.863C157.232 112.766 157.573 112.615 157.928 112.412L158.404 113.218C157.973 113.515 157.539 113.735 157.103 113.879C156.667 114.022 156.214 114.094 155.745 114.094C155.3 114.094 154.888 114.02 154.507 113.872C154.13 113.724 153.804 113.504 153.529 113.212C153.258 112.92 153.045 112.556 152.888 112.12C152.736 111.684 152.66 111.177 152.66 110.597C152.66 110.127 152.725 109.685 152.856 109.27C152.988 108.851 153.182 108.487 153.44 108.178C153.703 107.865 154.027 107.618 154.412 107.436C154.797 107.254 155.245 107.163 155.757 107.163C156.252 107.163 156.665 107.239 156.995 107.391C157.329 107.539 157.6 107.738 157.808 107.988C158.019 108.233 158.178 108.515 158.284 108.832C158.394 109.15 158.47 109.473 158.512 109.803C158.533 109.964 158.546 110.127 158.55 110.292C158.559 110.457 158.563 110.618 158.563 110.775H153.828ZM155.675 108.153C155.4 108.153 155.159 108.193 154.951 108.274C154.748 108.35 154.575 108.462 154.431 108.61C154.287 108.754 154.17 108.932 154.082 109.143C153.997 109.355 153.933 109.592 153.891 109.854H157.3C157.283 109.609 157.243 109.382 157.179 109.175C157.12 108.968 157.027 108.788 156.9 108.635C156.773 108.483 156.61 108.365 156.411 108.28C156.212 108.195 155.967 108.153 155.675 108.153ZM160.125 104.033H162.257V112.819H163.248V113.91H160.125V112.819H161.077V105.125H160.125V104.033Z" fill="#4B8E93"/>
</svg>
