<svg width="404" height="69" viewBox="0 0 404 69" fill="none" xmlns="http://www.w3.org/2000/svg">
<path d="M270.931 2.9893L223.535 2.99541C221.457 2.99697 219.416 3.32907 217.617 3.9584C215.819 4.58774 214.325 5.49217 213.286 6.58098L189.591 31.6738C188.551 32.7636 188.004 33.9999 188.004 35.2582C188.004 36.5165 188.552 37.7526 189.592 38.8422L213.293 63.9289C214.332 65.0174 215.826 65.9215 217.626 66.5504C219.425 67.1792 221.465 67.5108 223.543 67.5118L270.939 67.5057C273.017 67.5042 275.058 67.1721 276.857 66.5427C278.656 65.9134 280.15 65.009 281.188 63.9202L304.883 38.8274C305.923 37.7375 306.47 36.5013 306.47 35.2429C306.47 33.9846 305.922 32.7485 304.882 31.6589L281.181 6.57222C280.142 5.48369 278.648 4.57964 276.849 3.95077C275.05 3.3219 273.009 2.99032 270.931 2.9893Z" stroke="#4B8E93" stroke-width="2" stroke-linecap="round" stroke-linejoin="round"/>
<path d="M375 20.2C390.464 20.2 403 15.9019 403 10.6C403 5.29807 390.464 1 375 1C359.536 1 347 5.29807 347 10.6C347 15.9019 359.536 20.2 375 20.2Z" stroke="#4B8E93" stroke-width="2" stroke-linecap="round" stroke-linejoin="round"/>
<path d="M403 33C403 38.312 390.556 42.6 375 42.6C359.444 42.6 347 38.312 347 33" stroke="#4B8E93" stroke-width="2" stroke-linecap="round" stroke-linejoin="round"/>
<path d="M347 10.6V55.4C347 60.712 359.444 65 375 65C390.556 65 403 60.712 403 55.4V10.6" stroke="#4B8E93" stroke-width="2" stroke-linecap="round" stroke-linejoin="round"/>
<path d="M42 35H81M81 35L61.5 23M81 35L61.5 47" stroke="#4B8E93" stroke-width="2" stroke-linecap="round" stroke-linejoin="round"/>
<path d="M148 35H187M187 35L167.5 23M187 35L167.5 47" stroke="#4B8E93" stroke-width="2" stroke-linecap="round" stroke-linejoin="round"/>
<path d="M307 35H346M346 35L326.5 23M346 35L326.5 47" stroke="#4B8E93" stroke-width="2" stroke-linecap="round" stroke-linejoin="round"/>
<path d="M36.875 8H6.125C3.29454 8 1 10.2945 1 13.125V54.125C1 56.9555 3.29454 59.25 6.125 59.25H36.875C39.7055 59.25 42 56.9555 42 54.125V13.125C42 10.2945 39.7055 8 36.875 8Z" stroke="#4B8E93" stroke-width="2" stroke-linecap="round" stroke-linejoin="round"/>
<path d="M21.5 49H21.5256" stroke="#4B8E93" stroke-width="2" stroke-linecap="round" stroke-linejoin="round"/>
<path d="M218.112 34.4482C218.112 34.2432 218.063 34.0698 217.966 33.9282C217.873 33.7817 217.751 33.6646 217.6 33.5767C217.448 33.4839 217.28 33.418 217.094 33.3789C216.909 33.335 216.728 33.313 216.552 33.313C216.357 33.313 216.176 33.335 216.01 33.3789C215.849 33.4229 215.71 33.4863 215.593 33.5693C215.476 33.6523 215.383 33.7549 215.314 33.877C215.251 33.9941 215.219 34.126 215.219 34.2725C215.219 34.5264 215.295 34.729 215.446 34.8804C215.603 35.0269 215.861 35.1636 216.223 35.2905L217.68 35.8032C218.305 36.0132 218.762 36.2988 219.05 36.6602C219.338 37.0215 219.482 37.4536 219.482 37.9565C219.482 38.2935 219.414 38.6035 219.277 38.8867C219.145 39.165 218.955 39.4043 218.706 39.6045C218.461 39.7998 218.166 39.9512 217.819 40.0586C217.473 40.1709 217.087 40.2271 216.662 40.2271C216.071 40.2271 215.59 40.1318 215.219 39.9414C214.848 39.751 214.562 39.4995 214.362 39.187H213.601V37.9272H215.117C215.117 38.1372 215.161 38.3179 215.249 38.4692C215.341 38.6157 215.461 38.7354 215.607 38.8281C215.759 38.9209 215.927 38.9893 216.113 39.0332C216.303 39.0771 216.496 39.0991 216.691 39.0991C216.882 39.0991 217.065 39.0771 217.241 39.0332C217.417 38.9844 217.57 38.916 217.702 38.8281C217.839 38.7354 217.946 38.6255 218.024 38.4985C218.103 38.3716 218.142 38.2275 218.142 38.0664C218.142 37.8223 218.061 37.6147 217.9 37.4438C217.744 37.2729 217.475 37.1191 217.094 36.9824L215.644 36.4404C215.053 36.2305 214.614 35.9644 214.326 35.6421C214.042 35.3149 213.901 34.9072 213.901 34.4189C213.901 34.0967 213.959 33.7988 214.077 33.5254C214.199 33.252 214.372 33.0176 214.597 32.8223C214.826 32.6221 215.104 32.4658 215.432 32.3535C215.759 32.2412 216.132 32.1851 216.552 32.1851C217.094 32.1851 217.548 32.2607 217.915 32.4121C218.281 32.5635 218.61 32.8223 218.903 33.1885H219.614V34.4482H218.112ZM222.302 36.3818C222.302 36.5967 222.316 36.7944 222.346 36.9751C222.38 37.1509 222.426 37.3193 222.485 37.4805C222.666 37.9688 222.954 38.3374 223.349 38.5864C223.75 38.8306 224.201 38.9526 224.704 38.9526C225.1 38.9526 225.483 38.8989 225.854 38.7915C226.23 38.6792 226.623 38.5059 227.033 38.2715L227.583 39.2017C227.084 39.5435 226.584 39.7974 226.081 39.9634C225.578 40.1294 225.056 40.2124 224.514 40.2124C224.001 40.2124 223.525 40.127 223.085 39.9561C222.651 39.7852 222.275 39.5312 221.958 39.1943C221.645 38.8574 221.398 38.4375 221.218 37.9346C221.042 37.4316 220.954 36.8457 220.954 36.1768C220.954 35.6348 221.03 35.1245 221.181 34.646C221.333 34.1626 221.557 33.7427 221.855 33.3862C222.158 33.0249 222.531 32.7393 222.976 32.5293C223.42 32.3193 223.938 32.2144 224.528 32.2144C225.1 32.2144 225.576 32.3022 225.957 32.478C226.342 32.6489 226.655 32.8784 226.894 33.1665C227.138 33.4497 227.321 33.7744 227.443 34.1406C227.57 34.5068 227.658 34.8804 227.707 35.2612C227.731 35.4468 227.746 35.6348 227.751 35.8252C227.761 36.0156 227.766 36.2012 227.766 36.3818H222.302ZM224.433 33.3569C224.116 33.3569 223.837 33.4033 223.598 33.4961C223.364 33.584 223.164 33.7134 222.998 33.8843C222.832 34.0503 222.697 34.2554 222.595 34.4995C222.497 34.7437 222.424 35.0171 222.375 35.3198H226.308C226.289 35.0366 226.242 34.7754 226.169 34.5361C226.101 34.2969 225.993 34.0894 225.847 33.9136C225.7 33.7378 225.512 33.6011 225.283 33.5034C225.053 33.4058 224.77 33.3569 224.433 33.3569ZM235.083 34.0161H233.691V33.5474C233.53 33.5474 233.364 33.5791 233.193 33.6426C233.027 33.7012 232.871 33.7939 232.724 33.9209C232.578 34.043 232.448 34.2017 232.336 34.397C232.229 34.5874 232.15 34.8145 232.102 35.0781V38.7402H233.391V40H229.626V38.7402H230.673L230.681 33.6719H229.626V32.4121H232.05V33.4595C232.138 33.3032 232.236 33.1592 232.343 33.0273C232.456 32.8906 232.578 32.7734 232.709 32.6758C232.846 32.5732 232.995 32.4951 233.156 32.4414C233.322 32.3828 233.5 32.3535 233.691 32.3535C233.945 32.3535 234.184 32.3535 234.409 32.3535C234.633 32.3535 234.858 32.3584 235.083 32.3682V34.0161ZM236.071 32.4121H238.693V33.6719H237.983L239.858 38.9014L241.689 33.6719H241.228V32.4121H243.63V33.6719H242.978L240.495 40.1172H239.147L236.672 33.6719H236.071V32.4121ZM244.655 32.4121H247.131V38.7402H248.273V40H244.67V38.7402H245.754V33.6719H244.655V32.4121ZM245.498 29.7241C245.498 29.5972 245.522 29.4775 245.571 29.3652C245.625 29.248 245.693 29.1479 245.776 29.0649C245.864 28.9771 245.966 28.9087 246.083 28.8599C246.201 28.8062 246.325 28.7793 246.457 28.7793C246.584 28.7793 246.704 28.8062 246.816 28.8599C246.933 28.9087 247.033 28.9771 247.116 29.0649C247.204 29.1479 247.272 29.248 247.321 29.3652C247.375 29.4775 247.402 29.5972 247.402 29.7241C247.402 29.856 247.375 29.9805 247.321 30.0977C247.272 30.2148 247.204 30.3198 247.116 30.4126C247.033 30.5005 246.933 30.5713 246.816 30.625C246.704 30.6738 246.584 30.6982 246.457 30.6982C246.325 30.6982 246.201 30.6738 246.083 30.625C245.966 30.5713 245.864 30.5005 245.776 30.4126C245.693 30.3198 245.625 30.2148 245.571 30.0977C245.522 29.9805 245.498 29.856 245.498 29.7241ZM255.012 34.4336C254.807 34.0674 254.545 33.7988 254.228 33.6279C253.916 33.457 253.552 33.3716 253.137 33.3716C252.819 33.3716 252.521 33.4375 252.243 33.5693C251.965 33.7012 251.721 33.8892 251.511 34.1333C251.306 34.3774 251.142 34.6753 251.02 35.0269C250.903 35.3735 250.844 35.7617 250.844 36.1914C250.844 36.6162 250.903 36.9995 251.02 37.3413C251.142 37.6831 251.308 37.9761 251.518 38.2202C251.728 38.4595 251.97 38.645 252.243 38.7769C252.521 38.9038 252.819 38.9673 253.137 38.9673C253.605 38.9673 254.013 38.855 254.36 38.6304C254.707 38.4009 254.982 38.0664 255.188 37.627L256.315 38.1836C256.169 38.4961 255.988 38.7769 255.773 39.0259C255.559 39.2749 255.314 39.4873 255.041 39.6631C254.772 39.8389 254.475 39.9731 254.147 40.0659C253.825 40.1636 253.483 40.2124 253.122 40.2124C252.595 40.2124 252.106 40.1147 251.657 39.9194C251.213 39.7192 250.827 39.4409 250.5 39.0845C250.178 38.728 249.926 38.3032 249.746 37.8101C249.565 37.3169 249.475 36.7773 249.475 36.1914C249.475 35.6055 249.57 35.0659 249.76 34.5728C249.951 34.0796 250.212 33.6572 250.544 33.3057C250.876 32.9492 251.264 32.6709 251.708 32.4707C252.153 32.2705 252.629 32.1704 253.137 32.1704C253.615 32.1704 254.067 32.2534 254.492 32.4194C254.921 32.5854 255.297 32.8369 255.62 33.1738H256.389V34.4336H255.012ZM259.011 36.3818C259.011 36.5967 259.025 36.7944 259.055 36.9751C259.089 37.1509 259.135 37.3193 259.194 37.4805C259.375 37.9688 259.663 38.3374 260.058 38.5864C260.458 38.8306 260.91 38.9526 261.413 38.9526C261.809 38.9526 262.192 38.8989 262.563 38.7915C262.939 38.6792 263.332 38.5059 263.742 38.2715L264.292 39.2017C263.793 39.5435 263.293 39.7974 262.79 39.9634C262.287 40.1294 261.765 40.2124 261.223 40.2124C260.71 40.2124 260.234 40.127 259.794 39.9561C259.36 39.7852 258.984 39.5312 258.667 39.1943C258.354 38.8574 258.107 38.4375 257.927 37.9346C257.751 37.4316 257.663 36.8457 257.663 36.1768C257.663 35.6348 257.739 35.1245 257.89 34.646C258.042 34.1626 258.266 33.7427 258.564 33.3862C258.867 33.0249 259.24 32.7393 259.685 32.5293C260.129 32.3193 260.646 32.2144 261.237 32.2144C261.809 32.2144 262.285 32.3022 262.666 32.478C263.051 32.6489 263.364 32.8784 263.603 33.1665C263.847 33.4497 264.03 33.7744 264.152 34.1406C264.279 34.5068 264.367 34.8804 264.416 35.2612C264.44 35.4468 264.455 35.6348 264.46 35.8252C264.47 36.0156 264.475 36.2012 264.475 36.3818H259.011ZM261.142 33.3569C260.825 33.3569 260.546 33.4033 260.307 33.4961C260.073 33.584 259.873 33.7134 259.707 33.8843C259.541 34.0503 259.406 34.2554 259.304 34.4995C259.206 34.7437 259.133 35.0171 259.084 35.3198H263.017C262.998 35.0366 262.951 34.7754 262.878 34.5361C262.81 34.2969 262.702 34.0894 262.556 33.9136C262.409 33.7378 262.221 33.6011 261.992 33.5034C261.762 33.4058 261.479 33.3569 261.142 33.3569ZM276.501 38.7402H277.424L276.545 36.2207H272.275L271.418 38.7402H272.561V40H268.957V38.7402H269.924L273.381 28.8965H275.542L278.991 38.7402H280.104V40H276.501V38.7402ZM272.692 35.0049H276.12L274.392 30.0391L272.692 35.0049Z" fill="#4B8E93"/>
<path d="M140.556 9H88.4444C84.333 9 81 11.5868 81 14.7778V55.2222C81 58.4132 84.333 61 88.4444 61H140.556C144.667 61 148 58.4132 148 55.2222V14.7778C148 11.5868 144.667 9 140.556 9Z" stroke="#4B8E93" stroke-width="2" stroke-linecap="round" stroke-linejoin="round"/>
<path d="M94.6348 33.4238H96.7295V34.1919H96.7422C96.8861 34.0692 97.0363 33.9549 97.1929 33.8491C97.3537 33.7391 97.5208 33.6439 97.6943 33.5635C97.8678 33.4831 98.0477 33.4196 98.2339 33.373C98.4243 33.3265 98.6211 33.3032 98.8242 33.3032C99.2982 33.3032 99.7065 33.3921 100.049 33.5698C100.392 33.7433 100.657 34.0163 100.843 34.3887C101.004 34.2448 101.173 34.1073 101.351 33.9761C101.528 33.8407 101.712 33.7243 101.903 33.627C102.097 33.5296 102.301 33.4513 102.512 33.3921C102.724 33.3328 102.944 33.3032 103.172 33.3032C103.528 33.3032 103.847 33.3519 104.131 33.4492C104.414 33.5465 104.656 33.6947 104.854 33.8936C105.053 34.0924 105.204 34.3485 105.305 34.6616C105.411 34.9705 105.464 35.3366 105.464 35.7598V38.9082H106.378V40H103.306V38.9082H104.232V35.9058C104.232 35.4022 104.105 35.0213 103.852 34.7632C103.598 34.5008 103.232 34.3696 102.753 34.3696C102.47 34.3696 102.18 34.4373 101.884 34.5728C101.588 34.7082 101.334 34.8796 101.122 35.0869V38.9082H102.03V40H98.9639V38.9082H99.8906V35.9058C99.8906 35.4022 99.7616 35.0213 99.5034 34.7632C99.2495 34.5008 98.8835 34.3696 98.4053 34.3696C98.1302 34.3696 97.853 34.4352 97.5737 34.5664C97.2944 34.6976 97.0299 34.8605 96.7803 35.0552V38.9082H97.707V40H94.6348V38.9082H95.5488V34.5156H94.6348V33.4238ZM107.559 36.7119C107.563 36.1914 107.645 35.7174 107.806 35.29C107.971 34.8626 108.2 34.4966 108.492 34.1919C108.784 33.883 109.131 33.646 109.533 33.481C109.935 33.3159 110.377 33.2334 110.859 33.2334C111.346 33.2334 111.79 33.3159 112.192 33.481C112.599 33.646 112.946 33.8809 113.233 34.1855C113.521 34.486 113.745 34.8499 113.906 35.2773C114.067 35.7048 114.147 36.1787 114.147 36.6992C114.147 37.2113 114.067 37.6831 113.906 38.1147C113.745 38.5422 113.521 38.9103 113.233 39.2192C112.946 39.5282 112.599 39.7694 112.192 39.9429C111.79 40.1121 111.346 40.1968 110.859 40.1968C110.364 40.1968 109.916 40.1121 109.514 39.9429C109.112 39.7736 108.767 39.5366 108.479 39.2319C108.191 38.923 107.967 38.5549 107.806 38.1274C107.645 37.7 107.563 37.2282 107.559 36.7119ZM108.809 36.7119C108.809 37.0885 108.862 37.4292 108.968 37.7339C109.078 38.0386 109.226 38.2988 109.412 38.5146C109.603 38.7262 109.82 38.8913 110.066 39.0098C110.316 39.124 110.58 39.1812 110.859 39.1812C111.151 39.1812 111.422 39.124 111.672 39.0098C111.926 38.8955 112.146 38.7326 112.332 38.521C112.518 38.3052 112.664 38.0449 112.77 37.7402C112.876 37.4355 112.929 37.0928 112.929 36.7119C112.929 36.3141 112.876 35.9608 112.77 35.6519C112.664 35.3429 112.518 35.0848 112.332 34.8774C112.15 34.6701 111.932 34.5135 111.678 34.4077C111.424 34.3019 111.151 34.249 110.859 34.249C110.58 34.249 110.316 34.3019 110.066 34.4077C109.82 34.5135 109.603 34.6701 109.412 34.8774C109.226 35.0848 109.078 35.3429 108.968 35.6519C108.862 35.9608 108.809 36.3141 108.809 36.7119ZM119.308 30.123H121.384V38.9082H122.349V40H120.203V39.4604C119.992 39.6763 119.746 39.8455 119.467 39.9683C119.188 40.0868 118.87 40.146 118.515 40.146C118.07 40.146 117.656 40.0698 117.271 39.9175C116.89 39.7609 116.557 39.5345 116.274 39.2383C115.995 38.9378 115.775 38.5718 115.614 38.1401C115.457 37.7043 115.379 37.207 115.379 36.6484C115.379 36.1406 115.455 35.6794 115.607 35.2646C115.76 34.8457 115.976 34.4902 116.255 34.1982C116.534 33.902 116.871 33.6735 117.264 33.5127C117.658 33.3477 118.096 33.2651 118.578 33.2651C118.896 33.2651 119.185 33.3011 119.448 33.373C119.71 33.4408 119.962 33.5614 120.203 33.7349V31.2148H119.308V30.123ZM118.667 39.1177C119.018 39.1177 119.312 39.0669 119.549 38.9653C119.786 38.8595 120.004 38.703 120.203 38.4956V34.814C119.992 34.6362 119.748 34.5072 119.473 34.4268C119.198 34.3464 118.917 34.3062 118.629 34.3062C118.35 34.3062 118.087 34.359 117.842 34.4648C117.596 34.5664 117.381 34.7166 117.194 34.9155C117.012 35.1144 116.868 35.3577 116.763 35.6455C116.657 35.9333 116.604 36.2633 116.604 36.6357C116.604 37.042 116.655 37.3996 116.756 37.7085C116.858 38.0174 117 38.2777 117.182 38.4893C117.364 38.6966 117.582 38.8532 117.835 38.959C118.089 39.0648 118.367 39.1177 118.667 39.1177ZM124.596 36.8643C124.596 37.0505 124.608 37.2218 124.634 37.3784C124.663 37.5308 124.704 37.6768 124.754 37.8164C124.911 38.2396 125.161 38.5591 125.503 38.7749C125.85 38.9865 126.242 39.0923 126.678 39.0923C127.021 39.0923 127.353 39.0457 127.674 38.9526C128 38.8553 128.341 38.7051 128.696 38.502L129.172 39.3081C128.741 39.6043 128.307 39.8244 127.871 39.9683C127.435 40.1121 126.982 40.1841 126.513 40.1841C126.068 40.1841 125.656 40.11 125.275 39.9619C124.898 39.8138 124.572 39.5938 124.297 39.3018C124.027 39.0098 123.813 38.6458 123.656 38.21C123.504 37.7741 123.428 37.2663 123.428 36.6865C123.428 36.2168 123.493 35.7746 123.625 35.3599C123.756 34.9409 123.95 34.577 124.208 34.2681C124.471 33.9549 124.795 33.7074 125.18 33.5254C125.565 33.3434 126.013 33.2524 126.525 33.2524C127.021 33.2524 127.433 33.3286 127.763 33.481C128.097 33.6291 128.368 33.828 128.576 34.0776C128.787 34.3231 128.946 34.6045 129.052 34.9219C129.162 35.2393 129.238 35.563 129.28 35.8931C129.301 36.0539 129.314 36.2168 129.318 36.3818C129.327 36.5469 129.331 36.7077 129.331 36.8643H124.596ZM126.443 34.2427C126.168 34.2427 125.927 34.2829 125.719 34.3633C125.516 34.4395 125.343 34.5516 125.199 34.6997C125.055 34.8436 124.938 35.0213 124.85 35.2329C124.765 35.4445 124.701 35.6815 124.659 35.9438H128.068C128.051 35.6984 128.011 35.472 127.947 35.2646C127.888 35.0573 127.795 34.8774 127.668 34.7251C127.541 34.5728 127.378 34.4543 127.179 34.3696C126.98 34.285 126.735 34.2427 126.443 34.2427ZM130.893 30.123H133.025V38.9082H134.016V40H130.893V38.9082H131.845V31.2148H130.893V30.123Z" fill="#4B8E93"/>
</svg>
