<svg width="463" height="362" viewBox="0 0 463 362" fill="none" xmlns="http://www.w3.org/2000/svg">
<path d="M100.931 204.005L53.5349 204.011C51.4571 204.012 49.4163 204.344 47.6174 204.974C45.8185 205.603 44.3248 206.507 43.286 207.596L19.5911 232.689C18.5513 233.779 18.004 235.015 18.0041 236.274C18.0043 237.532 18.552 238.768 19.5921 239.858L43.2934 264.944C44.3325 266.033 45.8265 266.937 47.6255 267.566C49.4245 268.195 51.4654 268.526 53.5433 268.527L100.939 268.521C103.017 268.519 105.058 268.187 106.857 267.558C108.656 266.929 110.15 266.024 111.188 264.935L134.883 239.843C135.923 238.753 136.47 237.517 136.47 236.258C136.47 235 135.922 233.764 134.882 232.674L111.181 207.588C110.142 206.499 108.648 205.595 106.849 204.966C105.05 204.337 103.009 204.006 100.931 204.005Z" stroke="#4B8E93" stroke-width="2" stroke-linecap="round" stroke-linejoin="round"/>
<path d="M230.931 204.005L183.535 204.011C181.457 204.012 179.416 204.344 177.617 204.974C175.819 205.603 174.325 206.507 173.286 207.596L149.591 232.689C148.551 233.779 148.004 235.015 148.004 236.274C148.004 237.532 148.552 238.768 149.592 239.858L173.293 264.944C174.332 266.033 175.826 266.937 177.626 267.566C179.425 268.195 181.465 268.526 183.543 268.527L230.939 268.521C233.017 268.519 235.058 268.187 236.857 267.558C238.656 266.929 240.15 266.024 241.188 264.935L264.883 239.843C265.923 238.753 266.47 237.517 266.47 236.258C266.47 235 265.922 233.764 264.882 232.674L241.181 207.588C240.142 206.499 238.648 205.595 236.849 204.966C235.05 204.337 233.009 204.006 230.931 204.005Z" stroke="#4B8E93" stroke-width="2" stroke-linecap="round" stroke-linejoin="round"/>
<path d="M416.931 204.005L369.535 204.011C367.457 204.012 365.416 204.344 363.617 204.974C361.819 205.603 360.325 206.507 359.286 207.596L335.591 232.689C334.551 233.779 334.004 235.015 334.004 236.274C334.004 237.532 334.552 238.768 335.592 239.858L359.293 264.944C360.332 266.033 361.826 266.937 363.626 267.566C365.425 268.195 367.465 268.526 369.543 268.527L416.939 268.521C419.017 268.519 421.058 268.187 422.857 267.558C424.656 266.929 426.15 266.024 427.188 264.935L450.883 239.843C451.923 238.753 452.47 237.517 452.47 236.258C452.47 235 451.922 233.764 450.882 232.674L427.181 207.588C426.142 206.499 424.648 205.595 422.849 204.966C421.05 204.337 419.009 204.006 416.931 204.005Z" stroke="#4B8E93" stroke-width="2" stroke-linecap="round" stroke-linejoin="round"/>
<path d="M77 316.2C92.464 316.2 105 311.902 105 306.6C105 301.298 92.464 297 77 297C61.536 297 49 301.298 49 306.6C49 311.902 61.536 316.2 77 316.2Z" stroke="#4B8E93" stroke-width="2" stroke-linecap="round" stroke-linejoin="round"/>
<path d="M105 329C105 334.312 92.5556 338.6 77 338.6C61.4444 338.6 49 334.312 49 329" stroke="#4B8E93" stroke-width="2" stroke-linecap="round" stroke-linejoin="round"/>
<path d="M49 306.6V351.4C49 356.712 61.4444 361 77 361C92.5556 361 105 356.712 105 351.4V306.6" stroke="#4B8E93" stroke-width="2" stroke-linecap="round" stroke-linejoin="round"/>
<path d="M207 316.2C222.464 316.2 235 311.902 235 306.6C235 301.298 222.464 297 207 297C191.536 297 179 301.298 179 306.6C179 311.902 191.536 316.2 207 316.2Z" stroke="#4B8E93" stroke-width="2" stroke-linecap="round" stroke-linejoin="round"/>
<path d="M235 329C235 334.312 222.556 338.6 207 338.6C191.444 338.6 179 334.312 179 329" stroke="#4B8E93" stroke-width="2" stroke-linecap="round" stroke-linejoin="round"/>
<path d="M179 306.6V351.4C179 356.712 191.444 361 207 361C222.556 361 235 356.712 235 351.4V306.6" stroke="#4B8E93" stroke-width="2" stroke-linecap="round" stroke-linejoin="round"/>
<path d="M393 316.2C408.464 316.2 421 311.902 421 306.6C421 301.298 408.464 297 393 297C377.536 297 365 301.298 365 306.6C365 311.902 377.536 316.2 393 316.2Z" stroke="#4B8E93" stroke-width="2" stroke-linecap="round" stroke-linejoin="round"/>
<path d="M421 329C421 334.312 408.556 338.6 393 338.6C377.444 338.6 365 334.312 365 329" stroke="#4B8E93" stroke-width="2" stroke-linecap="round" stroke-linejoin="round"/>
<path d="M365 306.6V351.4C365 356.712 377.444 361 393 361C408.556 361 421 356.712 421 351.4V306.6" stroke="#4B8E93" stroke-width="2" stroke-linecap="round" stroke-linejoin="round"/>
<path d="M207 269V297M207 297L219 283M207 297L195 283" stroke="#4B8E93" stroke-width="2" stroke-linecap="round" stroke-linejoin="round"/>
<path d="M393 269V297M393 297L405 283M393 297L381 283" stroke="#4B8E93" stroke-width="2" stroke-linecap="round" stroke-linejoin="round"/>
<path d="M77 269V297M77 297L89 283M77 297L65 283" stroke="#4B8E93" stroke-width="2" stroke-linecap="round" stroke-linejoin="round"/>
<path d="M250.875 1H220.125C217.295 1 215 3.74226 215 7.125V56.125C215 59.5077 217.295 62.25 220.125 62.25H250.875C253.705 62.25 256 59.5077 256 56.125V7.125C256 3.74226 253.705 1 250.875 1Z" stroke="#4B8E93" stroke-width="2" stroke-linecap="round" stroke-linejoin="round"/>
<path d="M235.5 50H235.526" stroke="#4B8E93" stroke-width="2" stroke-linecap="round" stroke-linejoin="round"/>
<path d="M48.1123 235.463C48.1123 235.258 48.0635 235.085 47.9658 234.943C47.873 234.797 47.751 234.68 47.5996 234.592C47.4482 234.499 47.2798 234.433 47.0942 234.394C46.9087 234.35 46.728 234.328 46.5522 234.328C46.3569 234.328 46.1763 234.35 46.0103 234.394C45.8491 234.438 45.71 234.501 45.5928 234.584C45.4756 234.667 45.3828 234.77 45.3145 234.892C45.251 235.009 45.2192 235.141 45.2192 235.288C45.2192 235.542 45.2949 235.744 45.4463 235.896C45.6025 236.042 45.8613 236.179 46.2227 236.306L47.6802 236.818C48.3052 237.028 48.7617 237.314 49.0498 237.675C49.3379 238.037 49.4819 238.469 49.4819 238.972C49.4819 239.309 49.4136 239.619 49.2769 239.902C49.145 240.18 48.9546 240.419 48.7056 240.62C48.4614 240.815 48.166 240.966 47.8193 241.074C47.4727 241.186 47.0869 241.242 46.6621 241.242C46.0713 241.242 45.5903 241.147 45.2192 240.957C44.8481 240.766 44.5625 240.515 44.3623 240.202H43.6006V238.942H45.1167C45.1167 239.152 45.1606 239.333 45.2485 239.484C45.3413 239.631 45.4609 239.75 45.6074 239.843C45.7588 239.936 45.9272 240.004 46.1128 240.048C46.3032 240.092 46.4961 240.114 46.6914 240.114C46.8818 240.114 47.0649 240.092 47.2407 240.048C47.4165 240 47.5703 239.931 47.7021 239.843C47.8389 239.75 47.9463 239.641 48.0244 239.514C48.1025 239.387 48.1416 239.243 48.1416 239.082C48.1416 238.837 48.061 238.63 47.8999 238.459C47.7437 238.288 47.4751 238.134 47.0942 237.998L45.644 237.456C45.0532 237.246 44.6138 236.979 44.3257 236.657C44.0425 236.33 43.9009 235.922 43.9009 235.434C43.9009 235.112 43.9595 234.814 44.0767 234.541C44.1987 234.267 44.3721 234.033 44.5967 233.837C44.8262 233.637 45.1045 233.481 45.4316 233.369C45.7588 233.256 46.1323 233.2 46.5522 233.2C47.0942 233.2 47.5483 233.276 47.9146 233.427C48.2808 233.579 48.6104 233.837 48.9033 234.204H49.6138V235.463H48.1123ZM52.3018 237.397C52.3018 237.612 52.3164 237.81 52.3457 237.99C52.3799 238.166 52.4263 238.334 52.4849 238.496C52.6655 238.984 52.9536 239.353 53.3491 239.602C53.7495 239.846 54.2012 239.968 54.7041 239.968C55.0996 239.968 55.4829 239.914 55.854 239.807C56.23 239.694 56.623 239.521 57.0332 239.287L57.5825 240.217C57.0845 240.559 56.584 240.812 56.0811 240.979C55.5781 241.145 55.0557 241.228 54.5137 241.228C54.001 241.228 53.5249 241.142 53.0854 240.971C52.6509 240.8 52.2749 240.546 51.9575 240.209C51.645 239.873 51.3984 239.453 51.2178 238.95C51.042 238.447 50.9541 237.861 50.9541 237.192C50.9541 236.65 51.0298 236.14 51.1812 235.661C51.3325 235.178 51.5571 234.758 51.855 234.401C52.1577 234.04 52.5312 233.754 52.9756 233.544C53.4199 233.334 53.9375 233.229 54.5283 233.229C55.0996 233.229 55.5757 233.317 55.9565 233.493C56.3423 233.664 56.6548 233.894 56.894 234.182C57.1382 234.465 57.3213 234.79 57.4434 235.156C57.5703 235.522 57.6582 235.896 57.707 236.276C57.7314 236.462 57.7461 236.65 57.751 236.84C57.7607 237.031 57.7656 237.216 57.7656 237.397H52.3018ZM54.4331 234.372C54.1157 234.372 53.8374 234.418 53.5981 234.511C53.3638 234.599 53.1636 234.729 52.9976 234.899C52.8315 235.065 52.6973 235.271 52.5947 235.515C52.4971 235.759 52.4238 236.032 52.375 236.335H56.3081C56.2886 236.052 56.2422 235.791 56.1689 235.551C56.1006 235.312 55.9932 235.104 55.8467 234.929C55.7002 234.753 55.5122 234.616 55.2827 234.519C55.0532 234.421 54.77 234.372 54.4331 234.372ZM65.0825 235.031H63.6909V234.562C63.5298 234.562 63.3638 234.594 63.1929 234.658C63.0269 234.716 62.8706 234.809 62.7241 234.936C62.5776 235.058 62.4482 235.217 62.3359 235.412C62.2285 235.603 62.1504 235.83 62.1016 236.093V239.755H63.3906V241.015H59.626V239.755H60.6733L60.6807 234.687H59.626V233.427H62.0503V234.475C62.1382 234.318 62.2358 234.174 62.3433 234.042C62.4556 233.906 62.5776 233.789 62.7095 233.691C62.8462 233.588 62.9951 233.51 63.1562 233.457C63.3223 233.398 63.5005 233.369 63.6909 233.369C63.9448 233.369 64.1841 233.369 64.4087 233.369C64.6333 233.369 64.8579 233.374 65.0825 233.383V235.031ZM66.0713 233.427H68.6934V234.687H67.9829L69.8579 239.917L71.689 234.687H71.2275V233.427H73.6299V234.687H72.978L70.4951 241.132H69.1475L66.6719 234.687H66.0713V233.427ZM74.6553 233.427H77.1309V239.755H78.2734V241.015H74.6699V239.755H75.7539V234.687H74.6553V233.427ZM75.4976 230.739C75.4976 230.612 75.522 230.493 75.5708 230.38C75.6245 230.263 75.6929 230.163 75.7759 230.08C75.8638 229.992 75.9663 229.924 76.0835 229.875C76.2007 229.821 76.3252 229.794 76.457 229.794C76.584 229.794 76.7036 229.821 76.8159 229.875C76.9331 229.924 77.0332 229.992 77.1162 230.08C77.2041 230.163 77.2725 230.263 77.3213 230.38C77.375 230.493 77.4019 230.612 77.4019 230.739C77.4019 230.871 77.375 230.996 77.3213 231.113C77.2725 231.23 77.2041 231.335 77.1162 231.428C77.0332 231.516 76.9331 231.586 76.8159 231.64C76.7036 231.689 76.584 231.713 76.457 231.713C76.3252 231.713 76.2007 231.689 76.0835 231.64C75.9663 231.586 75.8638 231.516 75.7759 231.428C75.6929 231.335 75.6245 231.23 75.5708 231.113C75.522 230.996 75.4976 230.871 75.4976 230.739ZM85.0117 235.449C84.8066 235.083 84.5454 234.814 84.228 234.643C83.9155 234.472 83.5518 234.387 83.1367 234.387C82.8193 234.387 82.5215 234.453 82.2432 234.584C81.9648 234.716 81.7207 234.904 81.5107 235.148C81.3057 235.393 81.1421 235.69 81.02 236.042C80.9028 236.389 80.8442 236.777 80.8442 237.207C80.8442 237.631 80.9028 238.015 81.02 238.356C81.1421 238.698 81.3081 238.991 81.5181 239.235C81.728 239.475 81.9697 239.66 82.2432 239.792C82.5215 239.919 82.8193 239.982 83.1367 239.982C83.6055 239.982 84.0132 239.87 84.3599 239.646C84.7065 239.416 84.9824 239.082 85.1875 238.642L86.3154 239.199C86.1689 239.511 85.9883 239.792 85.7734 240.041C85.5586 240.29 85.3145 240.502 85.041 240.678C84.7725 240.854 84.4746 240.988 84.1475 241.081C83.8252 241.179 83.4834 241.228 83.1221 241.228C82.5947 241.228 82.1064 241.13 81.6572 240.935C81.2129 240.734 80.8271 240.456 80.5 240.1C80.1777 239.743 79.9263 239.318 79.7456 238.825C79.5649 238.332 79.4746 237.792 79.4746 237.207C79.4746 236.621 79.5698 236.081 79.7603 235.588C79.9507 235.095 80.2119 234.672 80.5439 234.321C80.876 233.964 81.2642 233.686 81.7085 233.486C82.1528 233.286 82.6289 233.186 83.1367 233.186C83.6152 233.186 84.0669 233.269 84.4917 233.435C84.9214 233.601 85.2974 233.852 85.6196 234.189H86.3887V235.449H85.0117ZM89.0107 237.397C89.0107 237.612 89.0254 237.81 89.0547 237.99C89.0889 238.166 89.1353 238.334 89.1938 238.496C89.3745 238.984 89.6626 239.353 90.0581 239.602C90.4585 239.846 90.9102 239.968 91.4131 239.968C91.8086 239.968 92.1919 239.914 92.563 239.807C92.939 239.694 93.332 239.521 93.7422 239.287L94.2915 240.217C93.7935 240.559 93.293 240.812 92.79 240.979C92.2871 241.145 91.7646 241.228 91.2227 241.228C90.71 241.228 90.2339 241.142 89.7944 240.971C89.3599 240.8 88.9839 240.546 88.6665 240.209C88.354 239.873 88.1074 239.453 87.9268 238.95C87.751 238.447 87.6631 237.861 87.6631 237.192C87.6631 236.65 87.7388 236.14 87.8901 235.661C88.0415 235.178 88.2661 234.758 88.564 234.401C88.8667 234.04 89.2402 233.754 89.6846 233.544C90.1289 233.334 90.6465 233.229 91.2373 233.229C91.8086 233.229 92.2847 233.317 92.6655 233.493C93.0513 233.664 93.3638 233.894 93.603 234.182C93.8472 234.465 94.0303 234.79 94.1523 235.156C94.2793 235.522 94.3672 235.896 94.416 236.276C94.4404 236.462 94.4551 236.65 94.46 236.84C94.4697 237.031 94.4746 237.216 94.4746 237.397H89.0107ZM91.1421 234.372C90.8247 234.372 90.5464 234.418 90.3071 234.511C90.0728 234.599 89.8726 234.729 89.7065 234.899C89.5405 235.065 89.4062 235.271 89.3037 235.515C89.2061 235.759 89.1328 236.032 89.084 236.335H93.0171C92.9976 236.052 92.9512 235.791 92.8779 235.551C92.8096 235.312 92.7021 235.104 92.5557 234.929C92.4092 234.753 92.2212 234.616 91.9917 234.519C91.7622 234.421 91.479 234.372 91.1421 234.372ZM106.501 239.755H107.424L106.545 237.236H102.275L101.418 239.755H102.561V241.015H98.957V239.755H99.9238L103.381 229.912H105.542L108.991 239.755H110.104V241.015H106.501V239.755ZM102.692 236.02H106.12L104.392 231.054L102.692 236.02Z" fill="#4B8E93"/>
<path d="M18.7622 73.9082H19.562L18.8003 71.7246H15.0996L14.3569 73.9082H15.3472V75H12.2241V73.9082H13.062L16.0581 65.377H17.9307L20.9204 73.9082H21.8853V75H18.7622V73.9082ZM15.4614 70.6709H18.4321L16.9341 66.3672L15.4614 70.6709ZM22.8564 65.377H26.7476C27.1792 65.377 27.5749 65.4341 27.9346 65.5483C28.2985 65.6584 28.6117 65.8234 28.874 66.0435C29.1406 66.2593 29.3459 66.5301 29.4897 66.856C29.6379 67.1818 29.7119 67.5563 29.7119 67.9795C29.7119 68.3307 29.64 68.6629 29.4961 68.9761C29.3522 69.285 29.1491 69.5558 28.8867 69.7886C28.6243 70.0213 28.3091 70.2054 27.9409 70.3408C27.577 70.4762 27.1707 70.5439 26.7222 70.5439H25.0146V73.9082H25.9795V75H22.8564V73.9082H23.7705V66.4751H22.8564V65.377ZM25.0146 66.4751V69.5029H26.7476C26.9888 69.5029 27.2088 69.4712 27.4077 69.4077C27.6108 69.34 27.7843 69.2427 27.9282 69.1157C28.0763 68.9888 28.1906 68.8301 28.271 68.6396C28.3556 68.4492 28.3979 68.2292 28.3979 67.9795C28.3979 67.5055 28.2541 67.1374 27.9663 66.875C27.6785 66.6084 27.2194 66.4751 26.5889 66.4751H25.0146ZM30.9307 65.377H34.0029V66.4751H33.0889V73.9082H34.0029V75H30.9307V73.9082H31.8447V66.4751H30.9307V65.377ZM46.0889 75.0381V73.1084C45.9281 73.4427 45.7271 73.7347 45.4858 73.9844C45.2446 74.2298 44.9759 74.4329 44.6797 74.5938C44.3835 74.7546 44.0661 74.8752 43.7275 74.9556C43.3932 75.036 43.0526 75.0762 42.7056 75.0762C42.0793 75.0762 41.5016 74.9725 40.9727 74.7651C40.4437 74.5535 39.9634 74.2192 39.5317 73.7622C39.1043 73.3052 38.7764 72.7635 38.5479 72.1372C38.3236 71.5109 38.2114 70.8571 38.2114 70.1758C38.2114 69.4902 38.3236 68.8428 38.5479 68.2334C38.7764 67.624 39.0938 67.0929 39.5 66.6401C39.9105 66.1873 40.3971 65.8319 40.96 65.5737C41.527 65.3156 42.1406 65.1865 42.8008 65.1865C43.4102 65.1865 43.9328 65.2733 44.3687 65.4468C44.8088 65.6203 45.1833 65.8319 45.4922 66.0815C45.8053 66.327 46.055 66.5618 46.2412 66.7861H46.8569V67.916H45.4922C45.2087 67.4336 44.832 67.0527 44.3623 66.7734C43.8968 66.4941 43.3742 66.3587 42.7944 66.3672C42.3078 66.3672 41.8613 66.4709 41.4551 66.6782C41.0488 66.8856 40.6997 67.1649 40.4077 67.5161C40.12 67.8674 39.8957 68.2715 39.7349 68.7285C39.5741 69.1855 39.4937 69.668 39.4937 70.1758C39.4937 70.7386 39.5825 71.2612 39.7603 71.7437C39.938 72.2261 40.1644 72.6175 40.4395 72.918C40.7145 73.2184 41.0531 73.4681 41.4551 73.667C41.8613 73.8617 42.3099 73.959 42.8008 73.959C43.6133 73.959 44.2798 73.7622 44.8003 73.3687C45.3208 72.9709 45.6847 72.353 45.8921 71.5151H43.2007V70.4233H47.2695V75.0381H46.0889ZM52.9443 74.3906C52.6947 74.6234 52.4175 74.8138 52.1128 74.9619C51.8123 75.11 51.4696 75.1841 51.0845 75.1841C50.7629 75.1841 50.4666 75.1333 50.1958 75.0317C49.9292 74.9302 49.6986 74.7926 49.5039 74.6191C49.3092 74.4414 49.1569 74.2362 49.0469 74.0034C48.9411 73.7707 48.8882 73.5231 48.8882 73.2607C48.8882 72.9814 48.9284 72.7339 49.0088 72.5181C49.0934 72.3022 49.2035 72.116 49.3389 71.9595C49.4785 71.7987 49.6393 71.6654 49.8213 71.5596C50.0075 71.4495 50.2 71.3628 50.3989 71.2993C50.6021 71.2316 50.8073 71.1851 51.0146 71.1597C51.2262 71.13 51.4272 71.1152 51.6177 71.1152C51.9224 71.1152 52.1784 71.1258 52.3857 71.147C52.5931 71.1639 52.7814 71.1893 52.9507 71.2231L52.957 70.6836C52.957 70.4508 52.9232 70.2498 52.8555 70.0806C52.7878 69.9071 52.6925 69.7653 52.5698 69.6553C52.4471 69.541 52.299 69.4564 52.1255 69.4014C51.9562 69.3464 51.7658 69.3188 51.5542 69.3188C51.3553 69.3188 51.1649 69.3337 50.9829 69.3633C50.8009 69.3887 50.6296 69.4246 50.4688 69.4712C50.3122 69.5135 50.1662 69.5643 50.0308 69.6235C49.8996 69.6785 49.7874 69.7378 49.6943 69.8013L49.3071 68.9824C49.4637 68.8809 49.6351 68.7878 49.8213 68.7031C50.0075 68.6143 50.2021 68.5402 50.4053 68.481C50.6126 68.4175 50.8221 68.3688 51.0337 68.335C51.2495 68.2969 51.4611 68.2778 51.6685 68.2778C52.0493 68.2778 52.3921 68.3244 52.6968 68.4175C53.0015 68.5063 53.2596 68.646 53.4712 68.8364C53.6828 69.0269 53.8457 69.2702 53.96 69.5664C54.0742 69.8584 54.1313 70.2096 54.1313 70.6201L54.125 73.9082H54.855V75H52.9443V74.3906ZM51.3447 74.1938C51.5013 74.1938 51.6579 74.1748 51.8145 74.1367C51.971 74.0986 52.1191 74.0479 52.2588 73.9844C52.3984 73.9167 52.5275 73.8405 52.646 73.7559C52.7645 73.667 52.8639 73.576 52.9443 73.4829L52.9507 71.9976H51.5796C51.3511 71.9976 51.1416 72.0229 50.9512 72.0737C50.765 72.1245 50.6021 72.1986 50.4624 72.2959C50.327 72.3932 50.2212 72.5138 50.145 72.6577C50.0688 72.8016 50.0308 72.9666 50.0308 73.1528C50.0308 73.3263 50.0625 73.4787 50.126 73.6099C50.1895 73.7368 50.2783 73.8447 50.3926 73.9336C50.5111 74.0182 50.6507 74.0838 50.8115 74.1304C50.9723 74.1727 51.1501 74.1938 51.3447 74.1938ZM58.0923 68.4238H59.6348V69.3823H58.0796L58.0605 73.1782C58.0605 73.4364 58.0902 73.6458 58.1494 73.8066C58.2087 73.9674 58.3039 74.0796 58.4351 74.1431C58.5662 74.2023 58.7144 74.2319 58.8794 74.2319C59.0571 74.2319 59.2137 74.2171 59.3491 74.1875C59.4845 74.1536 59.6326 74.0986 59.7935 74.0225L60.0664 74.8159C59.8633 74.9217 59.6496 75.0042 59.4253 75.0635C59.201 75.127 58.9365 75.1587 58.6318 75.1587C58.3441 75.1587 58.0923 75.1227 57.8765 75.0508C57.6649 74.9831 57.485 74.8667 57.3369 74.7017C57.193 74.5366 57.0851 74.3166 57.0132 74.0415C56.9412 73.7622 56.9053 73.4152 56.9053 73.0005L56.9243 69.3823H55.877V68.4238H56.937V66.8496L58.0923 66.3037V68.4238ZM62.1421 71.8643C62.1421 72.0505 62.1548 72.2218 62.1802 72.3784C62.2098 72.5308 62.25 72.6768 62.3008 72.8164C62.4574 73.2396 62.707 73.5591 63.0498 73.7749C63.3968 73.9865 63.7882 74.0923 64.2241 74.0923C64.5669 74.0923 64.8991 74.0457 65.2207 73.9526C65.5465 73.8553 65.8872 73.7051 66.2427 73.502L66.7188 74.3081C66.2871 74.6043 65.8534 74.8244 65.4175 74.9683C64.9816 75.1121 64.5288 75.1841 64.0591 75.1841C63.6147 75.1841 63.2021 75.11 62.8213 74.9619C62.4447 74.8138 62.1188 74.5938 61.8438 74.3018C61.5729 74.0098 61.3592 73.6458 61.2026 73.21C61.0503 72.7741 60.9741 72.2663 60.9741 71.6865C60.9741 71.2168 61.0397 70.7746 61.1709 70.3599C61.3021 69.9409 61.4967 69.577 61.7549 69.2681C62.0173 68.9549 62.341 68.7074 62.7261 68.5254C63.1112 68.3434 63.5597 68.2524 64.0718 68.2524C64.5669 68.2524 64.9795 68.3286 65.3096 68.481C65.6439 68.6291 65.9147 68.828 66.1221 69.0776C66.3337 69.3231 66.4924 69.6045 66.5981 69.9219C66.7082 70.2393 66.7843 70.563 66.8267 70.8931C66.8478 71.0539 66.8605 71.2168 66.8647 71.3818C66.8732 71.5469 66.8774 71.7077 66.8774 71.8643H62.1421ZM63.9893 69.2427C63.7142 69.2427 63.473 69.2829 63.2656 69.3633C63.0625 69.4395 62.889 69.5516 62.7451 69.6997C62.6012 69.8436 62.4849 70.0213 62.396 70.2329C62.3114 70.4445 62.2479 70.6815 62.2056 70.9438H65.6143C65.5973 70.6984 65.5571 70.472 65.4937 70.2646C65.4344 70.0573 65.3413 69.8774 65.2144 69.7251C65.0874 69.5728 64.9245 69.4543 64.7256 69.3696C64.5267 69.285 64.2812 69.2427 63.9893 69.2427ZM67.9819 68.4238H70.064V69.5156H69.7593L70.9082 73.7114L72.4824 68.4238H73.4727L74.9771 73.6987L76.1768 69.5156H75.7959V68.4238H77.8779V69.5156H77.313L75.5103 75.1016H74.4185L72.9268 69.8521L71.4414 75.1016H70.3369L68.5469 69.5156H67.9819V68.4238ZM82.7656 74.3906C82.516 74.6234 82.2388 74.8138 81.9341 74.9619C81.6336 75.11 81.2909 75.1841 80.9058 75.1841C80.5841 75.1841 80.2879 75.1333 80.0171 75.0317C79.7505 74.9302 79.5199 74.7926 79.3252 74.6191C79.1305 74.4414 78.9782 74.2362 78.8682 74.0034C78.7624 73.7707 78.7095 73.5231 78.7095 73.2607C78.7095 72.9814 78.7497 72.7339 78.8301 72.5181C78.9147 72.3022 79.0247 72.116 79.1602 71.9595C79.2998 71.7987 79.4606 71.6654 79.6426 71.5596C79.8288 71.4495 80.0213 71.3628 80.2202 71.2993C80.4233 71.2316 80.6286 71.1851 80.8359 71.1597C81.0475 71.13 81.2485 71.1152 81.439 71.1152C81.7437 71.1152 81.9997 71.1258 82.207 71.147C82.4144 71.1639 82.6027 71.1893 82.772 71.2231L82.7783 70.6836C82.7783 70.4508 82.7445 70.2498 82.6768 70.0806C82.609 69.9071 82.5138 69.7653 82.3911 69.6553C82.2684 69.541 82.1203 69.4564 81.9468 69.4014C81.7775 69.3464 81.5871 69.3188 81.3755 69.3188C81.1766 69.3188 80.9862 69.3337 80.8042 69.3633C80.6222 69.3887 80.4508 69.4246 80.29 69.4712C80.1335 69.5135 79.9875 69.5643 79.8521 69.6235C79.7209 69.6785 79.6087 69.7378 79.5156 69.8013L79.1284 68.9824C79.285 68.8809 79.4564 68.7878 79.6426 68.7031C79.8288 68.6143 80.0234 68.5402 80.2266 68.481C80.4339 68.4175 80.6434 68.3688 80.855 68.335C81.0708 68.2969 81.2824 68.2778 81.4897 68.2778C81.8706 68.2778 82.2134 68.3244 82.5181 68.4175C82.8228 68.5063 83.0809 68.646 83.2925 68.8364C83.5041 69.0269 83.667 69.2702 83.7812 69.5664C83.8955 69.8584 83.9526 70.2096 83.9526 70.6201L83.9463 73.9082H84.6763V75H82.7656V74.3906ZM81.166 74.1938C81.3226 74.1938 81.4792 74.1748 81.6357 74.1367C81.7923 74.0986 81.9404 74.0479 82.0801 73.9844C82.2197 73.9167 82.3488 73.8405 82.4673 73.7559C82.5858 73.667 82.6852 73.576 82.7656 73.4829L82.772 71.9976H81.4009C81.1724 71.9976 80.9629 72.0229 80.7725 72.0737C80.5863 72.1245 80.4233 72.1986 80.2837 72.2959C80.1483 72.3932 80.0425 72.5138 79.9663 72.6577C79.8901 72.8016 79.8521 72.9666 79.8521 73.1528C79.8521 73.3263 79.8838 73.4787 79.9473 73.6099C80.0107 73.7368 80.0996 73.8447 80.2139 73.9336C80.3324 74.0182 80.472 74.0838 80.6328 74.1304C80.7936 74.1727 80.9714 74.1938 81.166 74.1938ZM85.5713 68.4238H88.0659V69.5156H87.2852L88.8276 73.7114L90.4399 69.5156H89.6655V68.4238H92.1602V69.5156H91.481L88.5547 76.8979H89.4561V77.9897H86.8027V76.8979H87.6025L88.3008 75.0889L86.1045 69.5156H85.5713V68.4238Z" fill="#4B8E93"/>
<path d="M270.602 35.9082H271.401L270.64 33.7246H266.939L266.196 35.9082H267.187V37H264.063V35.9082H264.901L267.897 27.377H269.77L272.76 35.9082H273.725V37H270.602V35.9082ZM267.301 32.6709H270.271L268.773 28.3672L267.301 32.6709ZM274.696 27.377H278.587C279.019 27.377 279.414 27.4341 279.774 27.5483C280.138 27.6584 280.451 27.8234 280.713 28.0435C280.98 28.2593 281.185 28.5301 281.329 28.856C281.477 29.1818 281.551 29.5563 281.551 29.9795C281.551 30.3307 281.479 30.6629 281.335 30.9761C281.192 31.285 280.988 31.5558 280.726 31.7886C280.464 32.0213 280.148 32.2054 279.78 32.3408C279.416 32.4762 279.01 32.5439 278.562 32.5439H276.854V35.9082H277.819V37H274.696V35.9082H275.61V28.4751H274.696V27.377ZM276.854 28.4751V31.5029H278.587C278.828 31.5029 279.048 31.4712 279.247 31.4077C279.45 31.34 279.624 31.2427 279.768 31.1157C279.916 30.9888 280.03 30.8301 280.11 30.6396C280.195 30.4492 280.237 30.2292 280.237 29.9795C280.237 29.5055 280.093 29.1374 279.806 28.875C279.518 28.6084 279.059 28.4751 278.428 28.4751H276.854ZM282.77 27.377H285.842V28.4751H284.928V35.9082H285.842V37H282.77V35.9082H283.684V28.4751H282.77V27.377Z" fill="#4B8E93"/>
<path d="M180.112 235.463C180.112 235.258 180.063 235.085 179.966 234.943C179.873 234.797 179.751 234.68 179.6 234.592C179.448 234.499 179.28 234.433 179.094 234.394C178.909 234.35 178.728 234.328 178.552 234.328C178.357 234.328 178.176 234.35 178.01 234.394C177.849 234.438 177.71 234.501 177.593 234.584C177.476 234.667 177.383 234.77 177.314 234.892C177.251 235.009 177.219 235.141 177.219 235.288C177.219 235.542 177.295 235.744 177.446 235.896C177.603 236.042 177.861 236.179 178.223 236.306L179.68 236.818C180.305 237.028 180.762 237.314 181.05 237.675C181.338 238.037 181.482 238.469 181.482 238.972C181.482 239.309 181.414 239.619 181.277 239.902C181.145 240.18 180.955 240.419 180.706 240.62C180.461 240.815 180.166 240.966 179.819 241.074C179.473 241.186 179.087 241.242 178.662 241.242C178.071 241.242 177.59 241.147 177.219 240.957C176.848 240.766 176.562 240.515 176.362 240.202H175.601V238.942H177.117C177.117 239.152 177.161 239.333 177.249 239.484C177.341 239.631 177.461 239.75 177.607 239.843C177.759 239.936 177.927 240.004 178.113 240.048C178.303 240.092 178.496 240.114 178.691 240.114C178.882 240.114 179.065 240.092 179.241 240.048C179.417 240 179.57 239.931 179.702 239.843C179.839 239.75 179.946 239.641 180.024 239.514C180.103 239.387 180.142 239.243 180.142 239.082C180.142 238.837 180.061 238.63 179.9 238.459C179.744 238.288 179.475 238.134 179.094 237.998L177.644 237.456C177.053 237.246 176.614 236.979 176.326 236.657C176.042 236.33 175.901 235.922 175.901 235.434C175.901 235.112 175.959 234.814 176.077 234.541C176.199 234.267 176.372 234.033 176.597 233.837C176.826 233.637 177.104 233.481 177.432 233.369C177.759 233.256 178.132 233.2 178.552 233.2C179.094 233.2 179.548 233.276 179.915 233.427C180.281 233.579 180.61 233.837 180.903 234.204H181.614V235.463H180.112ZM184.302 237.397C184.302 237.612 184.316 237.81 184.346 237.99C184.38 238.166 184.426 238.334 184.485 238.496C184.666 238.984 184.954 239.353 185.349 239.602C185.75 239.846 186.201 239.968 186.704 239.968C187.1 239.968 187.483 239.914 187.854 239.807C188.23 239.694 188.623 239.521 189.033 239.287L189.583 240.217C189.084 240.559 188.584 240.812 188.081 240.979C187.578 241.145 187.056 241.228 186.514 241.228C186.001 241.228 185.525 241.142 185.085 240.971C184.651 240.8 184.275 240.546 183.958 240.209C183.645 239.873 183.398 239.453 183.218 238.95C183.042 238.447 182.954 237.861 182.954 237.192C182.954 236.65 183.03 236.14 183.181 235.661C183.333 235.178 183.557 234.758 183.855 234.401C184.158 234.04 184.531 233.754 184.976 233.544C185.42 233.334 185.938 233.229 186.528 233.229C187.1 233.229 187.576 233.317 187.957 233.493C188.342 233.664 188.655 233.894 188.894 234.182C189.138 234.465 189.321 234.79 189.443 235.156C189.57 235.522 189.658 235.896 189.707 236.276C189.731 236.462 189.746 236.65 189.751 236.84C189.761 237.031 189.766 237.216 189.766 237.397H184.302ZM186.433 234.372C186.116 234.372 185.837 234.418 185.598 234.511C185.364 234.599 185.164 234.729 184.998 234.899C184.832 235.065 184.697 235.271 184.595 235.515C184.497 235.759 184.424 236.032 184.375 236.335H188.308C188.289 236.052 188.242 235.791 188.169 235.551C188.101 235.312 187.993 235.104 187.847 234.929C187.7 234.753 187.512 234.616 187.283 234.519C187.053 234.421 186.77 234.372 186.433 234.372ZM197.083 235.031H195.691V234.562C195.53 234.562 195.364 234.594 195.193 234.658C195.027 234.716 194.871 234.809 194.724 234.936C194.578 235.058 194.448 235.217 194.336 235.412C194.229 235.603 194.15 235.83 194.102 236.093V239.755H195.391V241.015H191.626V239.755H192.673L192.681 234.687H191.626V233.427H194.05V234.475C194.138 234.318 194.236 234.174 194.343 234.042C194.456 233.906 194.578 233.789 194.709 233.691C194.846 233.588 194.995 233.51 195.156 233.457C195.322 233.398 195.5 233.369 195.691 233.369C195.945 233.369 196.184 233.369 196.409 233.369C196.633 233.369 196.858 233.374 197.083 233.383V235.031ZM198.071 233.427H200.693V234.687H199.983L201.858 239.917L203.689 234.687H203.228V233.427H205.63V234.687H204.978L202.495 241.132H201.147L198.672 234.687H198.071V233.427ZM206.655 233.427H209.131V239.755H210.273V241.015H206.67V239.755H207.754V234.687H206.655V233.427ZM207.498 230.739C207.498 230.612 207.522 230.493 207.571 230.38C207.625 230.263 207.693 230.163 207.776 230.08C207.864 229.992 207.966 229.924 208.083 229.875C208.201 229.821 208.325 229.794 208.457 229.794C208.584 229.794 208.704 229.821 208.816 229.875C208.933 229.924 209.033 229.992 209.116 230.08C209.204 230.163 209.272 230.263 209.321 230.38C209.375 230.493 209.402 230.612 209.402 230.739C209.402 230.871 209.375 230.996 209.321 231.113C209.272 231.23 209.204 231.335 209.116 231.428C209.033 231.516 208.933 231.586 208.816 231.64C208.704 231.689 208.584 231.713 208.457 231.713C208.325 231.713 208.201 231.689 208.083 231.64C207.966 231.586 207.864 231.516 207.776 231.428C207.693 231.335 207.625 231.23 207.571 231.113C207.522 230.996 207.498 230.871 207.498 230.739ZM217.012 235.449C216.807 235.083 216.545 234.814 216.228 234.643C215.916 234.472 215.552 234.387 215.137 234.387C214.819 234.387 214.521 234.453 214.243 234.584C213.965 234.716 213.721 234.904 213.511 235.148C213.306 235.393 213.142 235.69 213.02 236.042C212.903 236.389 212.844 236.777 212.844 237.207C212.844 237.631 212.903 238.015 213.02 238.356C213.142 238.698 213.308 238.991 213.518 239.235C213.728 239.475 213.97 239.66 214.243 239.792C214.521 239.919 214.819 239.982 215.137 239.982C215.605 239.982 216.013 239.87 216.36 239.646C216.707 239.416 216.982 239.082 217.188 238.642L218.315 239.199C218.169 239.511 217.988 239.792 217.773 240.041C217.559 240.29 217.314 240.502 217.041 240.678C216.772 240.854 216.475 240.988 216.147 241.081C215.825 241.179 215.483 241.228 215.122 241.228C214.595 241.228 214.106 241.13 213.657 240.935C213.213 240.734 212.827 240.456 212.5 240.1C212.178 239.743 211.926 239.318 211.746 238.825C211.565 238.332 211.475 237.792 211.475 237.207C211.475 236.621 211.57 236.081 211.76 235.588C211.951 235.095 212.212 234.672 212.544 234.321C212.876 233.964 213.264 233.686 213.708 233.486C214.153 233.286 214.629 233.186 215.137 233.186C215.615 233.186 216.067 233.269 216.492 233.435C216.921 233.601 217.297 233.852 217.62 234.189H218.389V235.449H217.012ZM221.011 237.397C221.011 237.612 221.025 237.81 221.055 237.99C221.089 238.166 221.135 238.334 221.194 238.496C221.375 238.984 221.663 239.353 222.058 239.602C222.458 239.846 222.91 239.968 223.413 239.968C223.809 239.968 224.192 239.914 224.563 239.807C224.939 239.694 225.332 239.521 225.742 239.287L226.292 240.217C225.793 240.559 225.293 240.812 224.79 240.979C224.287 241.145 223.765 241.228 223.223 241.228C222.71 241.228 222.234 241.142 221.794 240.971C221.36 240.8 220.984 240.546 220.667 240.209C220.354 239.873 220.107 239.453 219.927 238.95C219.751 238.447 219.663 237.861 219.663 237.192C219.663 236.65 219.739 236.14 219.89 235.661C220.042 235.178 220.266 234.758 220.564 234.401C220.867 234.04 221.24 233.754 221.685 233.544C222.129 233.334 222.646 233.229 223.237 233.229C223.809 233.229 224.285 233.317 224.666 233.493C225.051 233.664 225.364 233.894 225.603 234.182C225.847 234.465 226.03 234.79 226.152 235.156C226.279 235.522 226.367 235.896 226.416 236.276C226.44 236.462 226.455 236.65 226.46 236.84C226.47 237.031 226.475 237.216 226.475 237.397H221.011ZM223.142 234.372C222.825 234.372 222.546 234.418 222.307 234.511C222.073 234.599 221.873 234.729 221.707 234.899C221.541 235.065 221.406 235.271 221.304 235.515C221.206 235.759 221.133 236.032 221.084 236.335H225.017C224.998 236.052 224.951 235.791 224.878 235.551C224.81 235.312 224.702 235.104 224.556 234.929C224.409 234.753 224.221 234.616 223.992 234.519C223.762 234.421 223.479 234.372 223.142 234.372ZM231.931 239.755H232.986V231.179H231.931V229.897L236.926 229.912C237.375 229.912 237.798 229.997 238.193 230.168C238.589 230.334 238.933 230.563 239.226 230.856C239.519 231.145 239.749 231.486 239.915 231.882C240.085 232.277 240.171 232.702 240.171 233.156C240.171 233.63 240.039 234.062 239.775 234.453C239.512 234.843 239.136 235.156 238.647 235.39C238.887 235.517 239.104 235.666 239.299 235.837C239.495 236.003 239.661 236.186 239.797 236.386C239.934 236.586 240.039 236.799 240.112 237.023C240.19 237.248 240.229 237.478 240.229 237.712C240.229 238.176 240.144 238.608 239.973 239.008C239.807 239.409 239.578 239.758 239.285 240.056C238.992 240.354 238.647 240.588 238.252 240.759C237.861 240.93 237.441 241.015 236.992 241.015H231.931V239.755ZM234.421 236.079V239.755H237.007C237.241 239.755 237.458 239.697 237.659 239.58C237.859 239.462 238.035 239.311 238.186 239.125C238.337 238.935 238.455 238.72 238.538 238.481C238.625 238.242 238.669 237.998 238.669 237.749C238.669 237.534 238.625 237.326 238.538 237.126C238.45 236.926 238.33 236.748 238.179 236.591C238.032 236.435 237.856 236.311 237.651 236.218C237.451 236.125 237.236 236.079 237.007 236.079H234.421ZM234.421 231.179V234.804H236.941C237.175 234.804 237.393 234.758 237.593 234.665C237.798 234.572 237.974 234.448 238.12 234.292C238.271 234.135 238.391 233.955 238.479 233.75C238.567 233.544 238.611 233.332 238.611 233.112C238.611 232.873 238.567 232.639 238.479 232.409C238.391 232.175 238.271 231.967 238.12 231.787C237.969 231.606 237.791 231.459 237.585 231.347C237.385 231.235 237.17 231.179 236.941 231.179H234.421Z" fill="#4B8E93"/>
<path d="M359.067 239.74H359.99L359.111 237.221H354.841L353.984 239.74H355.126V241H351.523V239.74H352.49L355.947 229.896H358.107L361.557 239.74H362.67V241H359.067V239.74ZM355.258 236.005H358.686L356.958 231.039L355.258 236.005ZM369.028 240.333C368.779 240.597 368.488 240.802 368.156 240.949C367.829 241.095 367.456 241.168 367.036 241.168C366.523 241.168 366.044 241.081 365.6 240.905C365.161 240.724 364.777 240.463 364.45 240.121C364.128 239.774 363.874 239.352 363.688 238.854C363.508 238.351 363.417 237.777 363.417 237.133C363.417 236.547 363.505 236.015 363.681 235.536C363.857 235.053 364.106 234.643 364.428 234.306C364.75 233.964 365.139 233.7 365.593 233.515C366.047 233.324 366.552 233.229 367.109 233.229C367.49 233.229 367.832 233.273 368.134 233.361C368.442 233.444 368.74 233.59 369.028 233.8V233.412H370.39V240.7C370.39 241.901 370.104 242.809 369.533 243.424C368.967 244.04 368.083 244.347 366.882 244.347C366.618 244.347 366.342 244.328 366.054 244.289C365.766 244.25 365.48 244.186 365.197 244.098C364.919 244.015 364.646 243.908 364.377 243.776C364.113 243.644 363.869 243.483 363.645 243.292L364.377 242.187C364.523 242.313 364.689 242.431 364.875 242.538C365.065 242.646 365.268 242.736 365.483 242.809C365.698 242.887 365.92 242.948 366.149 242.992C366.379 243.036 366.608 243.058 366.838 243.058C367.214 243.058 367.539 243.019 367.812 242.941C368.09 242.863 368.317 242.724 368.493 242.523C368.674 242.328 368.808 242.062 368.896 241.725C368.984 241.388 369.028 240.961 369.028 240.443V240.333ZM367.211 239.982C367.436 239.982 367.641 239.96 367.827 239.916C368.012 239.872 368.181 239.816 368.332 239.748C368.483 239.674 368.615 239.591 368.728 239.499C368.845 239.406 368.945 239.308 369.028 239.206V235.053C368.779 234.833 368.491 234.674 368.164 234.577C367.841 234.479 367.509 234.43 367.167 234.43C366.845 234.43 366.542 234.491 366.259 234.613C365.976 234.73 365.727 234.904 365.512 235.133C365.302 235.363 365.136 235.644 365.014 235.976C364.892 236.308 364.831 236.688 364.831 237.118C364.831 237.587 364.89 238 365.007 238.356C365.124 238.712 365.288 239.013 365.498 239.257C365.708 239.496 365.959 239.677 366.252 239.799C366.545 239.921 366.865 239.982 367.211 239.982ZM377.817 240.333C377.568 240.597 377.277 240.802 376.945 240.949C376.618 241.095 376.245 241.168 375.825 241.168C375.312 241.168 374.833 241.081 374.389 240.905C373.95 240.724 373.566 240.463 373.239 240.121C372.917 239.774 372.663 239.352 372.478 238.854C372.297 238.351 372.207 237.777 372.207 237.133C372.207 236.547 372.294 236.015 372.47 235.536C372.646 235.053 372.895 234.643 373.217 234.306C373.54 233.964 373.928 233.7 374.382 233.515C374.836 233.324 375.341 233.229 375.898 233.229C376.279 233.229 376.621 233.273 376.923 233.361C377.231 233.444 377.529 233.59 377.817 233.8V233.412H379.179V240.7C379.179 241.901 378.894 242.809 378.322 243.424C377.756 244.04 376.872 244.347 375.671 244.347C375.407 244.347 375.131 244.328 374.843 244.289C374.555 244.25 374.27 244.186 373.986 244.098C373.708 244.015 373.435 243.908 373.166 243.776C372.902 243.644 372.658 243.483 372.434 243.292L373.166 242.187C373.312 242.313 373.479 242.431 373.664 242.538C373.854 242.646 374.057 242.736 374.272 242.809C374.487 242.887 374.709 242.948 374.938 242.992C375.168 243.036 375.397 243.058 375.627 243.058C376.003 243.058 376.328 243.019 376.601 242.941C376.879 242.863 377.106 242.724 377.282 242.523C377.463 242.328 377.597 242.062 377.685 241.725C377.773 241.388 377.817 240.961 377.817 240.443V240.333ZM376 239.982C376.225 239.982 376.43 239.96 376.616 239.916C376.801 239.872 376.97 239.816 377.121 239.748C377.272 239.674 377.404 239.591 377.517 239.499C377.634 239.406 377.734 239.308 377.817 239.206V235.053C377.568 234.833 377.28 234.674 376.953 234.577C376.63 234.479 376.298 234.43 375.957 234.43C375.634 234.43 375.332 234.491 375.048 234.613C374.765 234.73 374.516 234.904 374.301 235.133C374.091 235.363 373.925 235.644 373.803 235.976C373.681 236.308 373.62 236.688 373.62 237.118C373.62 237.587 373.679 238 373.796 238.356C373.913 238.712 374.077 239.013 374.287 239.257C374.497 239.496 374.748 239.677 375.041 239.799C375.334 239.921 375.654 239.982 376 239.982ZM386.511 235.016H385.119V234.547C384.958 234.547 384.792 234.579 384.621 234.643C384.455 234.701 384.299 234.794 384.152 234.921C384.006 235.043 383.876 235.202 383.764 235.397C383.657 235.587 383.579 235.814 383.53 236.078V239.74H384.819V241H381.054V239.74H382.102L382.109 234.672H381.054V233.412H383.479V234.459C383.566 234.303 383.664 234.159 383.771 234.027C383.884 233.891 384.006 233.773 384.138 233.676C384.274 233.573 384.423 233.495 384.584 233.441C384.75 233.383 384.929 233.354 385.119 233.354C385.373 233.354 385.612 233.354 385.837 233.354C386.062 233.354 386.286 233.358 386.511 233.368V235.016ZM389.375 237.382C389.375 237.597 389.389 237.794 389.418 237.975C389.453 238.151 389.499 238.319 389.558 238.48C389.738 238.969 390.026 239.337 390.422 239.586C390.822 239.831 391.274 239.953 391.777 239.953C392.172 239.953 392.556 239.899 392.927 239.792C393.303 239.679 393.696 239.506 394.106 239.271L394.655 240.202C394.157 240.543 393.657 240.797 393.154 240.963C392.651 241.129 392.128 241.212 391.586 241.212C391.074 241.212 390.598 241.127 390.158 240.956C389.724 240.785 389.348 240.531 389.03 240.194C388.718 239.857 388.471 239.438 388.291 238.935C388.115 238.432 388.027 237.846 388.027 237.177C388.027 236.635 388.103 236.125 388.254 235.646C388.405 235.163 388.63 234.743 388.928 234.386C389.23 234.025 389.604 233.739 390.048 233.529C390.493 233.319 391.01 233.214 391.601 233.214C392.172 233.214 392.648 233.302 393.029 233.478C393.415 233.649 393.728 233.878 393.967 234.167C394.211 234.45 394.394 234.774 394.516 235.141C394.643 235.507 394.731 235.88 394.78 236.261C394.804 236.447 394.819 236.635 394.824 236.825C394.833 237.016 394.838 237.201 394.838 237.382H389.375ZM391.506 234.357C391.188 234.357 390.91 234.403 390.671 234.496C390.437 234.584 390.236 234.713 390.07 234.884C389.904 235.05 389.77 235.255 389.667 235.5C389.57 235.744 389.497 236.017 389.448 236.32H393.381C393.361 236.037 393.315 235.775 393.242 235.536C393.173 235.297 393.066 235.089 392.919 234.914C392.773 234.738 392.585 234.601 392.355 234.503C392.126 234.406 391.843 234.357 391.506 234.357ZM402.25 240.333C402.001 240.597 401.711 240.802 401.379 240.949C401.052 241.095 400.678 241.168 400.258 241.168C399.746 241.168 399.267 241.081 398.823 240.905C398.383 240.724 398 240.463 397.673 240.121C397.351 239.774 397.097 239.352 396.911 238.854C396.73 238.351 396.64 237.777 396.64 237.133C396.64 236.547 396.728 236.015 396.904 235.536C397.08 235.053 397.329 234.643 397.651 234.306C397.973 233.964 398.361 233.7 398.815 233.515C399.27 233.324 399.775 233.229 400.332 233.229C400.712 233.229 401.054 233.273 401.357 233.361C401.665 233.444 401.962 233.59 402.25 233.8V233.412H403.613V240.7C403.613 241.901 403.327 242.809 402.756 243.424C402.189 244.04 401.306 244.347 400.104 244.347C399.841 244.347 399.565 244.328 399.277 244.289C398.989 244.25 398.703 244.186 398.42 244.098C398.142 244.015 397.868 243.908 397.6 243.776C397.336 243.644 397.092 243.483 396.867 243.292L397.6 242.187C397.746 242.313 397.912 242.431 398.098 242.538C398.288 242.646 398.491 242.736 398.706 242.809C398.92 242.887 399.143 242.948 399.372 242.992C399.602 243.036 399.831 243.058 400.061 243.058C400.437 243.058 400.761 243.019 401.035 242.941C401.313 242.863 401.54 242.724 401.716 242.523C401.896 242.328 402.031 242.062 402.119 241.725C402.207 241.388 402.25 240.961 402.25 240.443V240.333ZM400.434 239.982C400.659 239.982 400.864 239.96 401.049 239.916C401.235 239.872 401.403 239.816 401.555 239.748C401.706 239.674 401.838 239.591 401.95 239.499C402.067 239.406 402.167 239.308 402.25 239.206V235.053C402.001 234.833 401.713 234.674 401.386 234.577C401.064 234.479 400.732 234.43 400.39 234.43C400.068 234.43 399.765 234.491 399.482 234.613C399.199 234.73 398.95 234.904 398.735 235.133C398.525 235.363 398.359 235.644 398.237 235.976C398.115 236.308 398.054 236.688 398.054 237.118C398.054 237.587 398.112 238 398.229 238.356C398.347 238.712 398.51 239.013 398.72 239.257C398.93 239.496 399.182 239.677 399.475 239.799C399.768 239.921 400.087 239.982 400.434 239.982ZM409.948 240.297C409.66 240.565 409.34 240.785 408.989 240.956C408.642 241.127 408.247 241.212 407.802 241.212C407.431 241.212 407.089 241.154 406.777 241.037C406.469 240.919 406.203 240.761 405.979 240.561C405.754 240.355 405.578 240.119 405.451 239.85C405.329 239.582 405.268 239.296 405.268 238.993C405.268 238.671 405.314 238.385 405.407 238.136C405.505 237.887 405.632 237.672 405.788 237.492C405.949 237.306 406.135 237.152 406.345 237.03C406.56 236.903 406.782 236.803 407.011 236.73C407.246 236.652 407.482 236.598 407.722 236.569C407.966 236.535 408.198 236.518 408.417 236.518C408.769 236.518 409.064 236.53 409.304 236.554C409.543 236.574 409.76 236.603 409.956 236.642L409.963 236.02C409.963 235.751 409.924 235.519 409.846 235.324C409.768 235.124 409.658 234.96 409.516 234.833C409.375 234.701 409.204 234.604 409.003 234.54C408.808 234.477 408.588 234.445 408.344 234.445C408.115 234.445 407.895 234.462 407.685 234.496C407.475 234.525 407.277 234.567 407.092 234.621C406.911 234.669 406.743 234.728 406.586 234.796C406.435 234.86 406.306 234.928 406.198 235.001L405.751 234.057C405.932 233.939 406.13 233.832 406.345 233.734C406.56 233.632 406.784 233.546 407.019 233.478C407.258 233.405 407.5 233.349 407.744 233.31C407.993 233.266 408.237 233.244 408.476 233.244C408.916 233.244 409.311 233.297 409.663 233.405C410.014 233.507 410.312 233.668 410.556 233.888C410.8 234.108 410.988 234.389 411.12 234.73C411.252 235.067 411.318 235.473 411.318 235.946L411.311 239.74H412.153V241H409.948V240.297ZM408.103 240.07C408.283 240.07 408.464 240.048 408.645 240.004C408.825 239.96 408.996 239.901 409.157 239.828C409.318 239.75 409.467 239.662 409.604 239.564C409.741 239.462 409.855 239.357 409.948 239.25L409.956 237.536H408.374C408.11 237.536 407.868 237.565 407.648 237.624C407.434 237.682 407.246 237.768 407.084 237.88C406.928 237.992 406.806 238.131 406.718 238.297C406.63 238.463 406.586 238.654 406.586 238.869C406.586 239.069 406.623 239.245 406.696 239.396C406.77 239.542 406.872 239.667 407.004 239.77C407.141 239.867 407.302 239.943 407.487 239.997C407.673 240.045 407.878 240.07 408.103 240.07ZM415.888 233.412H417.668V234.518H415.874L415.852 238.898C415.852 239.196 415.886 239.438 415.954 239.623C416.022 239.809 416.132 239.938 416.284 240.011C416.435 240.08 416.606 240.114 416.796 240.114C417.001 240.114 417.182 240.097 417.338 240.062C417.495 240.023 417.666 239.96 417.851 239.872L418.166 240.788C417.932 240.91 417.685 241.005 417.426 241.073C417.167 241.146 416.862 241.183 416.511 241.183C416.179 241.183 415.888 241.142 415.639 241.059C415.395 240.98 415.188 240.846 415.017 240.656C414.851 240.465 414.726 240.211 414.643 239.894C414.56 239.572 414.519 239.171 414.519 238.693L414.541 234.518H413.332V233.412H414.555V231.596L415.888 230.966V233.412ZM419.169 237.206C419.174 236.605 419.27 236.059 419.455 235.565C419.646 235.072 419.909 234.65 420.246 234.298C420.583 233.942 420.983 233.668 421.447 233.478C421.911 233.288 422.421 233.192 422.978 233.192C423.54 233.192 424.052 233.288 424.516 233.478C424.985 233.668 425.385 233.939 425.717 234.291C426.049 234.638 426.308 235.058 426.494 235.551C426.679 236.044 426.772 236.591 426.772 237.191C426.772 237.782 426.679 238.327 426.494 238.825C426.308 239.318 426.049 239.743 425.717 240.099C425.385 240.456 424.985 240.734 424.516 240.934C424.052 241.129 423.54 241.227 422.978 241.227C422.407 241.227 421.889 241.129 421.425 240.934C420.961 240.739 420.563 240.465 420.231 240.114C419.899 239.757 419.641 239.333 419.455 238.839C419.27 238.346 419.174 237.802 419.169 237.206ZM420.612 237.206C420.612 237.641 420.673 238.034 420.795 238.385C420.922 238.737 421.093 239.037 421.308 239.286C421.528 239.53 421.779 239.721 422.062 239.857C422.351 239.989 422.656 240.055 422.978 240.055C423.315 240.055 423.627 239.989 423.916 239.857C424.208 239.726 424.462 239.538 424.677 239.293C424.892 239.044 425.061 238.744 425.183 238.393C425.305 238.041 425.366 237.646 425.366 237.206C425.366 236.747 425.305 236.339 425.183 235.983C425.061 235.626 424.892 235.329 424.677 235.089C424.467 234.85 424.216 234.669 423.923 234.547C423.63 234.425 423.315 234.364 422.978 234.364C422.656 234.364 422.351 234.425 422.062 234.547C421.779 234.669 421.528 234.85 421.308 235.089C421.093 235.329 420.922 235.626 420.795 235.983C420.673 236.339 420.612 236.747 420.612 237.206ZM433.708 235.016H432.316V234.547C432.155 234.547 431.989 234.579 431.818 234.643C431.652 234.701 431.496 234.794 431.35 234.921C431.203 235.043 431.074 235.202 430.961 235.397C430.854 235.587 430.776 235.814 430.727 236.078V239.74H432.016V241H428.251V239.74H429.299L429.306 234.672H428.251V233.412H430.676V234.459C430.764 234.303 430.861 234.159 430.969 234.027C431.081 233.891 431.203 233.773 431.335 233.676C431.472 233.573 431.621 233.495 431.782 233.441C431.948 233.383 432.126 233.354 432.316 233.354C432.57 233.354 432.81 233.354 433.034 233.354C433.259 233.354 433.483 233.358 433.708 233.368V235.016Z" fill="#4B8E93"/>
<rect x="8" y="144" width="63" height="454" rx="7" transform="rotate(-90 8 144)" stroke="#4B8E93" stroke-width="2"/>
<path d="M64 185.184L77.125 203L90.25 185.184" stroke="#4B8E93" stroke-width="2" stroke-linecap="round" stroke-linejoin="round"/>
<path d="M77.25 201V145" stroke="#4B8E93" stroke-width="2" stroke-linecap="round"/>
<path d="M194 185.184L207.125 203L220.25 185.184" stroke="#4B8E93" stroke-width="2" stroke-linecap="round" stroke-linejoin="round"/>
<path d="M207.25 201V145" stroke="#4B8E93" stroke-width="2" stroke-linecap="round"/>
<path d="M379.75 188L392.875 204.002L406 188" stroke="#4B8E93" stroke-width="2" stroke-linecap="round" stroke-linejoin="round"/>
<path d="M393 202.204V70.2041" stroke="#4B8E93" stroke-width="2" stroke-linecap="round"/>
<path d="M363 40H373.714C384.386 40 393 48.6143 393 59.2857V70" stroke="#4B8E93" stroke-width="2" stroke-linecap="round" stroke-linejoin="round"/>
<path d="M257 40H363" stroke="#4B8E93" stroke-width="2" stroke-linecap="round"/>
<path d="M287.547 235.734C287.547 235.526 287.583 235.331 287.656 235.148C287.734 234.966 287.841 234.805 287.977 234.664C288.117 234.523 288.281 234.414 288.469 234.336C288.656 234.253 288.857 234.211 289.07 234.211C289.273 234.211 289.466 234.253 289.648 234.336C289.836 234.414 289.997 234.523 290.133 234.664C290.273 234.799 290.383 234.961 290.461 235.148C290.539 235.336 290.578 235.531 290.578 235.734C290.578 235.943 290.536 236.141 290.453 236.328C290.375 236.516 290.268 236.677 290.133 236.812C289.997 236.948 289.839 237.055 289.656 237.133C289.474 237.216 289.279 237.258 289.07 237.258C288.852 237.258 288.648 237.216 288.461 237.133C288.279 237.055 288.117 236.948 287.977 236.812C287.841 236.677 287.734 236.518 287.656 236.336C287.583 236.148 287.547 235.948 287.547 235.734ZM294.891 235.734C294.891 235.526 294.927 235.331 295 235.148C295.078 234.966 295.185 234.805 295.32 234.664C295.461 234.523 295.625 234.414 295.812 234.336C296 234.253 296.201 234.211 296.414 234.211C296.617 234.211 296.81 234.253 296.992 234.336C297.18 234.414 297.341 234.523 297.477 234.664C297.617 234.799 297.727 234.961 297.805 235.148C297.883 235.336 297.922 235.531 297.922 235.734C297.922 235.943 297.88 236.141 297.797 236.328C297.719 236.516 297.612 236.677 297.477 236.812C297.341 236.948 297.182 237.055 297 237.133C296.818 237.216 296.622 237.258 296.414 237.258C296.195 237.258 295.992 237.216 295.805 237.133C295.622 237.055 295.461 236.948 295.32 236.812C295.185 236.677 295.078 236.518 295 236.336C294.927 236.148 294.891 235.948 294.891 235.734ZM302.234 235.734C302.234 235.526 302.271 235.331 302.344 235.148C302.422 234.966 302.529 234.805 302.664 234.664C302.805 234.523 302.969 234.414 303.156 234.336C303.344 234.253 303.544 234.211 303.758 234.211C303.961 234.211 304.154 234.253 304.336 234.336C304.523 234.414 304.685 234.523 304.82 234.664C304.961 234.799 305.07 234.961 305.148 235.148C305.227 235.336 305.266 235.531 305.266 235.734C305.266 235.943 305.224 236.141 305.141 236.328C305.062 236.516 304.956 236.677 304.82 236.812C304.685 236.948 304.526 237.055 304.344 237.133C304.161 237.216 303.966 237.258 303.758 237.258C303.539 237.258 303.336 237.216 303.148 237.133C302.966 237.055 302.805 236.948 302.664 236.812C302.529 236.677 302.422 236.518 302.344 236.336C302.271 236.148 302.234 235.948 302.234 235.734Z" fill="#4B8E93"/>
</svg>
