<svg width="464" height="376" viewBox="0 0 464 376" fill="none" xmlns="http://www.w3.org/2000/svg">
<path d="M113.931 204.005L66.5349 204.011C64.4571 204.012 62.4163 204.344 60.6174 204.974C58.8185 205.603 57.3248 206.507 56.286 207.596L32.5911 232.689C31.5513 233.779 31.004 235.015 31.0041 236.274C31.0043 237.532 31.552 238.768 32.5921 239.858L56.2934 264.944C57.3325 266.033 58.8265 266.937 60.6255 267.566C62.4245 268.195 64.4654 268.526 66.5433 268.527L113.939 268.521C116.017 268.519 118.058 268.187 119.857 267.558C121.656 266.929 123.15 266.024 124.188 264.935L147.883 239.843C148.923 238.753 149.47 237.517 149.47 236.258C149.47 235 148.922 233.764 147.882 232.674L124.181 207.588C123.142 206.499 121.648 205.595 119.849 204.966C118.05 204.337 116.009 204.006 113.931 204.005Z" stroke="#4B8E93" stroke-width="2" stroke-linecap="round" stroke-linejoin="round"/>
<path d="M243.931 204.005L196.535 204.011C194.457 204.012 192.416 204.344 190.617 204.974C188.819 205.603 187.325 206.507 186.286 207.596L162.591 232.689C161.551 233.779 161.004 235.015 161.004 236.274C161.004 237.532 161.552 238.768 162.592 239.858L186.293 264.944C187.332 266.033 188.826 266.937 190.626 267.566C192.425 268.195 194.465 268.526 196.543 268.527L243.939 268.521C246.017 268.519 248.058 268.187 249.857 267.558C251.656 266.929 253.15 266.024 254.188 264.935L277.883 239.843C278.923 238.753 279.47 237.517 279.47 236.258C279.47 235 278.922 233.764 277.882 232.674L254.181 207.588C253.142 206.499 251.648 205.595 249.849 204.966C248.05 204.337 246.009 204.006 243.931 204.005Z" stroke="#4B8E93" stroke-width="2" stroke-linecap="round" stroke-linejoin="round"/>
<path d="M90 316.2C105.464 316.2 118 311.902 118 306.6C118 301.298 105.464 297 90 297C74.536 297 62 301.298 62 306.6C62 311.902 74.536 316.2 90 316.2Z" stroke="#4B8E93" stroke-width="2" stroke-linecap="round" stroke-linejoin="round"/>
<path d="M118 329C118 334.312 105.556 338.6 90 338.6C74.4444 338.6 62 334.312 62 329" stroke="#4B8E93" stroke-width="2" stroke-linecap="round" stroke-linejoin="round"/>
<path d="M62 306.6V351.4C62 356.712 74.4444 361 90 361C105.556 361 118 356.712 118 351.4V306.6" stroke="#4B8E93" stroke-width="2" stroke-linecap="round" stroke-linejoin="round"/>
<path d="M220 316.2C235.464 316.2 248 311.902 248 306.6C248 301.298 235.464 297 220 297C204.536 297 192 301.298 192 306.6C192 311.902 204.536 316.2 220 316.2Z" stroke="#4B8E93" stroke-width="2" stroke-linecap="round" stroke-linejoin="round"/>
<path d="M248 329C248 334.312 235.556 338.6 220 338.6C204.444 338.6 192 334.312 192 329" stroke="#4B8E93" stroke-width="2" stroke-linecap="round" stroke-linejoin="round"/>
<path d="M192 306.6V351.4C192 356.712 204.444 361 220 361C235.556 361 248 356.712 248 351.4V306.6" stroke="#4B8E93" stroke-width="2" stroke-linecap="round" stroke-linejoin="round"/>
<path d="M220 269V297M220 297L232 283M220 297L208 283" stroke="#4B8E93" stroke-width="2" stroke-linecap="round" stroke-linejoin="round"/>
<path d="M90 269V297M90 297L102 283M90 297L78 283" stroke="#4B8E93" stroke-width="2" stroke-linecap="round" stroke-linejoin="round"/>
<path d="M243.875 1H213.125C210.295 1 208 3.74226 208 7.125V56.125C208 59.5077 210.295 62.25 213.125 62.25H243.875C246.705 62.25 249 59.5077 249 56.125V7.125C249 3.74226 246.705 1 243.875 1Z" stroke="#4B8E93" stroke-width="2" stroke-linecap="round" stroke-linejoin="round"/>
<path d="M228.5 50H228.526" stroke="#4B8E93" stroke-width="2" stroke-linecap="round" stroke-linejoin="round"/>
<path d="M61.1123 235.463C61.1123 235.258 61.0635 235.085 60.9658 234.943C60.873 234.797 60.751 234.68 60.5996 234.592C60.4482 234.499 60.2798 234.433 60.0942 234.394C59.9087 234.35 59.728 234.328 59.5522 234.328C59.3569 234.328 59.1763 234.35 59.0103 234.394C58.8491 234.438 58.71 234.501 58.5928 234.584C58.4756 234.667 58.3828 234.77 58.3145 234.892C58.251 235.009 58.2192 235.141 58.2192 235.288C58.2192 235.542 58.2949 235.744 58.4463 235.896C58.6025 236.042 58.8613 236.179 59.2227 236.306L60.6802 236.818C61.3052 237.028 61.7617 237.314 62.0498 237.675C62.3379 238.037 62.4819 238.469 62.4819 238.972C62.4819 239.309 62.4136 239.619 62.2769 239.902C62.145 240.18 61.9546 240.419 61.7056 240.62C61.4614 240.815 61.166 240.966 60.8193 241.074C60.4727 241.186 60.0869 241.242 59.6621 241.242C59.0713 241.242 58.5903 241.147 58.2192 240.957C57.8481 240.766 57.5625 240.515 57.3623 240.202H56.6006V238.942H58.1167C58.1167 239.152 58.1606 239.333 58.2485 239.484C58.3413 239.631 58.4609 239.75 58.6074 239.843C58.7588 239.936 58.9272 240.004 59.1128 240.048C59.3032 240.092 59.4961 240.114 59.6914 240.114C59.8818 240.114 60.0649 240.092 60.2407 240.048C60.4165 240 60.5703 239.931 60.7021 239.843C60.8389 239.75 60.9463 239.641 61.0244 239.514C61.1025 239.387 61.1416 239.243 61.1416 239.082C61.1416 238.837 61.061 238.63 60.8999 238.459C60.7437 238.288 60.4751 238.134 60.0942 237.998L58.644 237.456C58.0532 237.246 57.6138 236.979 57.3257 236.657C57.0425 236.33 56.9009 235.922 56.9009 235.434C56.9009 235.112 56.9595 234.814 57.0767 234.541C57.1987 234.267 57.3721 234.033 57.5967 233.837C57.8262 233.637 58.1045 233.481 58.4316 233.369C58.7588 233.256 59.1323 233.2 59.5522 233.2C60.0942 233.2 60.5483 233.276 60.9146 233.427C61.2808 233.579 61.6104 233.837 61.9033 234.204H62.6138V235.463H61.1123ZM65.3018 237.397C65.3018 237.612 65.3164 237.81 65.3457 237.99C65.3799 238.166 65.4263 238.334 65.4849 238.496C65.6655 238.984 65.9536 239.353 66.3491 239.602C66.7495 239.846 67.2012 239.968 67.7041 239.968C68.0996 239.968 68.4829 239.914 68.854 239.807C69.23 239.694 69.623 239.521 70.0332 239.287L70.5825 240.217C70.0845 240.559 69.584 240.812 69.0811 240.979C68.5781 241.145 68.0557 241.228 67.5137 241.228C67.001 241.228 66.5249 241.142 66.0854 240.971C65.6509 240.8 65.2749 240.546 64.9575 240.209C64.645 239.873 64.3984 239.453 64.2178 238.95C64.042 238.447 63.9541 237.861 63.9541 237.192C63.9541 236.65 64.0298 236.14 64.1812 235.661C64.3325 235.178 64.5571 234.758 64.855 234.401C65.1577 234.04 65.5312 233.754 65.9756 233.544C66.4199 233.334 66.9375 233.229 67.5283 233.229C68.0996 233.229 68.5757 233.317 68.9565 233.493C69.3423 233.664 69.6548 233.894 69.894 234.182C70.1382 234.465 70.3213 234.79 70.4434 235.156C70.5703 235.522 70.6582 235.896 70.707 236.276C70.7314 236.462 70.7461 236.65 70.751 236.84C70.7607 237.031 70.7656 237.216 70.7656 237.397H65.3018ZM67.4331 234.372C67.1157 234.372 66.8374 234.418 66.5981 234.511C66.3638 234.599 66.1636 234.729 65.9976 234.899C65.8315 235.065 65.6973 235.271 65.5947 235.515C65.4971 235.759 65.4238 236.032 65.375 236.335H69.3081C69.2886 236.052 69.2422 235.791 69.1689 235.551C69.1006 235.312 68.9932 235.104 68.8467 234.929C68.7002 234.753 68.5122 234.616 68.2827 234.519C68.0532 234.421 67.77 234.372 67.4331 234.372ZM78.0825 235.031H76.6909V234.562C76.5298 234.562 76.3638 234.594 76.1929 234.658C76.0269 234.716 75.8706 234.809 75.7241 234.936C75.5776 235.058 75.4482 235.217 75.3359 235.412C75.2285 235.603 75.1504 235.83 75.1016 236.093V239.755H76.3906V241.015H72.626V239.755H73.6733L73.6807 234.687H72.626V233.427H75.0503V234.475C75.1382 234.318 75.2358 234.174 75.3433 234.042C75.4556 233.906 75.5776 233.789 75.7095 233.691C75.8462 233.588 75.9951 233.51 76.1562 233.457C76.3223 233.398 76.5005 233.369 76.6909 233.369C76.9448 233.369 77.1841 233.369 77.4087 233.369C77.6333 233.369 77.8579 233.374 78.0825 233.383V235.031ZM79.0713 233.427H81.6934V234.687H80.9829L82.8579 239.917L84.689 234.687H84.2275V233.427H86.6299V234.687H85.978L83.4951 241.132H82.1475L79.6719 234.687H79.0713V233.427ZM87.6553 233.427H90.1309V239.755H91.2734V241.015H87.6699V239.755H88.7539V234.687H87.6553V233.427ZM88.4976 230.739C88.4976 230.612 88.522 230.493 88.5708 230.38C88.6245 230.263 88.6929 230.163 88.7759 230.08C88.8638 229.992 88.9663 229.924 89.0835 229.875C89.2007 229.821 89.3252 229.794 89.457 229.794C89.584 229.794 89.7036 229.821 89.8159 229.875C89.9331 229.924 90.0332 229.992 90.1162 230.08C90.2041 230.163 90.2725 230.263 90.3213 230.38C90.375 230.493 90.4019 230.612 90.4019 230.739C90.4019 230.871 90.375 230.996 90.3213 231.113C90.2725 231.23 90.2041 231.335 90.1162 231.428C90.0332 231.516 89.9331 231.586 89.8159 231.64C89.7036 231.689 89.584 231.713 89.457 231.713C89.3252 231.713 89.2007 231.689 89.0835 231.64C88.9663 231.586 88.8638 231.516 88.7759 231.428C88.6929 231.335 88.6245 231.23 88.5708 231.113C88.522 230.996 88.4976 230.871 88.4976 230.739ZM98.0117 235.449C97.8066 235.083 97.5454 234.814 97.228 234.643C96.9155 234.472 96.5518 234.387 96.1367 234.387C95.8193 234.387 95.5215 234.453 95.2432 234.584C94.9648 234.716 94.7207 234.904 94.5107 235.148C94.3057 235.393 94.1421 235.69 94.02 236.042C93.9028 236.389 93.8442 236.777 93.8442 237.207C93.8442 237.631 93.9028 238.015 94.02 238.356C94.1421 238.698 94.3081 238.991 94.5181 239.235C94.728 239.475 94.9697 239.66 95.2432 239.792C95.5215 239.919 95.8193 239.982 96.1367 239.982C96.6055 239.982 97.0132 239.87 97.3599 239.646C97.7065 239.416 97.9824 239.082 98.1875 238.642L99.3154 239.199C99.1689 239.511 98.9883 239.792 98.7734 240.041C98.5586 240.29 98.3145 240.502 98.041 240.678C97.7725 240.854 97.4746 240.988 97.1475 241.081C96.8252 241.179 96.4834 241.228 96.1221 241.228C95.5947 241.228 95.1064 241.13 94.6572 240.935C94.2129 240.734 93.8271 240.456 93.5 240.1C93.1777 239.743 92.9263 239.318 92.7456 238.825C92.5649 238.332 92.4746 237.792 92.4746 237.207C92.4746 236.621 92.5698 236.081 92.7603 235.588C92.9507 235.095 93.2119 234.672 93.5439 234.321C93.876 233.964 94.2642 233.686 94.7085 233.486C95.1528 233.286 95.6289 233.186 96.1367 233.186C96.6152 233.186 97.0669 233.269 97.4917 233.435C97.9214 233.601 98.2974 233.852 98.6196 234.189H99.3887V235.449H98.0117ZM102.011 237.397C102.011 237.612 102.025 237.81 102.055 237.99C102.089 238.166 102.135 238.334 102.194 238.496C102.375 238.984 102.663 239.353 103.058 239.602C103.458 239.846 103.91 239.968 104.413 239.968C104.809 239.968 105.192 239.914 105.563 239.807C105.939 239.694 106.332 239.521 106.742 239.287L107.292 240.217C106.793 240.559 106.293 240.812 105.79 240.979C105.287 241.145 104.765 241.228 104.223 241.228C103.71 241.228 103.234 241.142 102.794 240.971C102.36 240.8 101.984 240.546 101.667 240.209C101.354 239.873 101.107 239.453 100.927 238.95C100.751 238.447 100.663 237.861 100.663 237.192C100.663 236.65 100.739 236.14 100.89 235.661C101.042 235.178 101.266 234.758 101.564 234.401C101.867 234.04 102.24 233.754 102.685 233.544C103.129 233.334 103.646 233.229 104.237 233.229C104.809 233.229 105.285 233.317 105.666 233.493C106.051 233.664 106.364 233.894 106.603 234.182C106.847 234.465 107.03 234.79 107.152 235.156C107.279 235.522 107.367 235.896 107.416 236.276C107.44 236.462 107.455 236.65 107.46 236.84C107.47 237.031 107.475 237.216 107.475 237.397H102.011ZM104.142 234.372C103.825 234.372 103.546 234.418 103.307 234.511C103.073 234.599 102.873 234.729 102.707 234.899C102.541 235.065 102.406 235.271 102.304 235.515C102.206 235.759 102.133 236.032 102.084 236.335H106.017C105.998 236.052 105.951 235.791 105.878 235.551C105.81 235.312 105.702 235.104 105.556 234.929C105.409 234.753 105.221 234.616 104.992 234.519C104.762 234.421 104.479 234.372 104.142 234.372ZM119.501 239.755H120.424L119.545 237.236H115.275L114.418 239.755H115.561V241.015H111.957V239.755H112.924L116.381 229.912H118.542L121.991 239.755H123.104V241.015H119.501V239.755ZM115.692 236.02H119.12L117.392 231.054L115.692 236.02Z" fill="#4B8E93"/>
<path d="M377.762 70.9082H378.562L377.8 68.7246H374.1L373.357 70.9082H374.347V72H371.224V70.9082H372.062L375.058 62.377H376.931L379.92 70.9082H380.885V72H377.762V70.9082ZM374.461 67.6709H377.432L375.934 63.3672L374.461 67.6709ZM381.856 62.377H385.748C386.179 62.377 386.575 62.4341 386.935 62.5483C387.299 62.6584 387.612 62.8234 387.874 63.0435C388.141 63.2593 388.346 63.5301 388.49 63.856C388.638 64.1818 388.712 64.5563 388.712 64.9795C388.712 65.3307 388.64 65.6629 388.496 65.9761C388.352 66.285 388.149 66.5558 387.887 66.7886C387.624 67.0213 387.309 67.2054 386.941 67.3408C386.577 67.4762 386.171 67.5439 385.722 67.5439H384.015V70.9082H384.979V72H381.856V70.9082H382.771V63.4751H381.856V62.377ZM384.015 63.4751V66.5029H385.748C385.989 66.5029 386.209 66.4712 386.408 66.4077C386.611 66.34 386.784 66.2427 386.928 66.1157C387.076 65.9888 387.191 65.8301 387.271 65.6396C387.356 65.4492 387.398 65.2292 387.398 64.9795C387.398 64.5055 387.254 64.1374 386.966 63.875C386.679 63.6084 386.219 63.4751 385.589 63.4751H384.015ZM389.931 62.377H393.003V63.4751H392.089V70.9082H393.003V72H389.931V70.9082H390.845V63.4751H389.931V62.377ZM405.089 72.0381V70.1084C404.928 70.4427 404.727 70.7347 404.486 70.9844C404.245 71.2298 403.976 71.4329 403.68 71.5938C403.383 71.7546 403.066 71.8752 402.728 71.9556C402.393 72.036 402.053 72.0762 401.706 72.0762C401.079 72.0762 400.502 71.9725 399.973 71.7651C399.444 71.5535 398.963 71.2192 398.532 70.7622C398.104 70.3052 397.776 69.7635 397.548 69.1372C397.324 68.5109 397.211 67.8571 397.211 67.1758C397.211 66.4902 397.324 65.8428 397.548 65.2334C397.776 64.624 398.094 64.0929 398.5 63.6401C398.91 63.1873 399.397 62.8319 399.96 62.5737C400.527 62.3156 401.141 62.1865 401.801 62.1865C402.41 62.1865 402.933 62.2733 403.369 62.4468C403.809 62.6203 404.183 62.8319 404.492 63.0815C404.805 63.327 405.055 63.5618 405.241 63.7861H405.857V64.916H404.492C404.209 64.4336 403.832 64.0527 403.362 63.7734C402.897 63.4941 402.374 63.3587 401.794 63.3672C401.308 63.3672 400.861 63.4709 400.455 63.6782C400.049 63.8856 399.7 64.1649 399.408 64.5161C399.12 64.8674 398.896 65.2715 398.735 65.7285C398.574 66.1855 398.494 66.668 398.494 67.1758C398.494 67.7386 398.583 68.2612 398.76 68.7437C398.938 69.2261 399.164 69.6175 399.439 69.918C399.715 70.2184 400.053 70.4681 400.455 70.667C400.861 70.8617 401.31 70.959 401.801 70.959C402.613 70.959 403.28 70.7622 403.8 70.3687C404.321 69.9709 404.685 69.353 404.892 68.5151H402.201V67.4233H406.27V72.0381H405.089ZM411.944 71.3906C411.695 71.6234 411.417 71.8138 411.113 71.9619C410.812 72.11 410.47 72.1841 410.084 72.1841C409.763 72.1841 409.467 72.1333 409.196 72.0317C408.929 71.9302 408.699 71.7926 408.504 71.6191C408.309 71.4414 408.157 71.2362 408.047 71.0034C407.941 70.7707 407.888 70.5231 407.888 70.2607C407.888 69.9814 407.928 69.7339 408.009 69.5181C408.093 69.3022 408.203 69.116 408.339 68.9595C408.479 68.7987 408.639 68.6654 408.821 68.5596C409.007 68.4495 409.2 68.3628 409.399 68.2993C409.602 68.2316 409.807 68.1851 410.015 68.1597C410.226 68.13 410.427 68.1152 410.618 68.1152C410.922 68.1152 411.178 68.1258 411.386 68.147C411.593 68.1639 411.781 68.1893 411.951 68.2231L411.957 67.6836C411.957 67.4508 411.923 67.2498 411.855 67.0806C411.788 66.9071 411.693 66.7653 411.57 66.6553C411.447 66.541 411.299 66.4564 411.125 66.4014C410.956 66.3464 410.766 66.3188 410.554 66.3188C410.355 66.3188 410.165 66.3337 409.983 66.3633C409.801 66.3887 409.63 66.4246 409.469 66.4712C409.312 66.5135 409.166 66.5643 409.031 66.6235C408.9 66.6785 408.787 66.7378 408.694 66.8013L408.307 65.9824C408.464 65.8809 408.635 65.7878 408.821 65.7031C409.007 65.6143 409.202 65.5402 409.405 65.481C409.613 65.4175 409.822 65.3688 410.034 65.335C410.25 65.2969 410.461 65.2778 410.668 65.2778C411.049 65.2778 411.392 65.3244 411.697 65.4175C412.001 65.5063 412.26 65.646 412.471 65.8364C412.683 66.0269 412.846 66.2702 412.96 66.5664C413.074 66.8584 413.131 67.2096 413.131 67.6201L413.125 70.9082H413.855V72H411.944V71.3906ZM410.345 71.1938C410.501 71.1938 410.658 71.1748 410.814 71.1367C410.971 71.0986 411.119 71.0479 411.259 70.9844C411.398 70.9167 411.528 70.8405 411.646 70.7559C411.764 70.667 411.864 70.576 411.944 70.4829L411.951 68.9976H410.58C410.351 68.9976 410.142 69.0229 409.951 69.0737C409.765 69.1245 409.602 69.1986 409.462 69.2959C409.327 69.3932 409.221 69.5138 409.145 69.6577C409.069 69.8016 409.031 69.9666 409.031 70.1528C409.031 70.3263 409.062 70.4787 409.126 70.6099C409.189 70.7368 409.278 70.8447 409.393 70.9336C409.511 71.0182 409.651 71.0838 409.812 71.1304C409.972 71.1727 410.15 71.1938 410.345 71.1938ZM417.092 65.4238H418.635V66.3823H417.08L417.061 70.1782C417.061 70.4364 417.09 70.6458 417.149 70.8066C417.209 70.9674 417.304 71.0796 417.435 71.1431C417.566 71.2023 417.714 71.2319 417.879 71.2319C418.057 71.2319 418.214 71.2171 418.349 71.1875C418.485 71.1536 418.633 71.0986 418.793 71.0225L419.066 71.8159C418.863 71.9217 418.65 72.0042 418.425 72.0635C418.201 72.127 417.937 72.1587 417.632 72.1587C417.344 72.1587 417.092 72.1227 416.876 72.0508C416.665 71.9831 416.485 71.8667 416.337 71.7017C416.193 71.5366 416.085 71.3166 416.013 71.0415C415.941 70.7622 415.905 70.4152 415.905 70.0005L415.924 66.3823H414.877V65.4238H415.937V63.8496L417.092 63.3037V65.4238ZM421.142 68.8643C421.142 69.0505 421.155 69.2218 421.18 69.3784C421.21 69.5308 421.25 69.6768 421.301 69.8164C421.457 70.2396 421.707 70.5591 422.05 70.7749C422.397 70.9865 422.788 71.0923 423.224 71.0923C423.567 71.0923 423.899 71.0457 424.221 70.9526C424.547 70.8553 424.887 70.7051 425.243 70.502L425.719 71.3081C425.287 71.6043 424.853 71.8244 424.417 71.9683C423.982 72.1121 423.529 72.1841 423.059 72.1841C422.615 72.1841 422.202 72.11 421.821 71.9619C421.445 71.8138 421.119 71.5938 420.844 71.3018C420.573 71.0098 420.359 70.6458 420.203 70.21C420.05 69.7741 419.974 69.2663 419.974 68.6865C419.974 68.2168 420.04 67.7746 420.171 67.3599C420.302 66.9409 420.497 66.577 420.755 66.2681C421.017 65.9549 421.341 65.7074 421.726 65.5254C422.111 65.3434 422.56 65.2524 423.072 65.2524C423.567 65.2524 423.979 65.3286 424.31 65.481C424.644 65.6291 424.915 65.828 425.122 66.0776C425.334 66.3231 425.492 66.6045 425.598 66.9219C425.708 67.2393 425.784 67.563 425.827 67.8931C425.848 68.0539 425.861 68.2168 425.865 68.3818C425.873 68.5469 425.877 68.7077 425.877 68.8643H421.142ZM422.989 66.2427C422.714 66.2427 422.473 66.2829 422.266 66.3633C422.062 66.4395 421.889 66.5516 421.745 66.6997C421.601 66.8436 421.485 67.0213 421.396 67.2329C421.311 67.4445 421.248 67.6815 421.206 67.9438H424.614C424.597 67.6984 424.557 67.472 424.494 67.2646C424.434 67.0573 424.341 66.8774 424.214 66.7251C424.087 66.5728 423.924 66.4543 423.726 66.3696C423.527 66.285 423.281 66.2427 422.989 66.2427ZM426.982 65.4238H429.064V66.5156H428.759L429.908 70.7114L431.482 65.4238H432.473L433.977 70.6987L435.177 66.5156H434.796V65.4238H436.878V66.5156H436.313L434.51 72.1016H433.418L431.927 66.8521L430.441 72.1016H429.337L427.547 66.5156H426.982V65.4238ZM441.766 71.3906C441.516 71.6234 441.239 71.8138 440.934 71.9619C440.634 72.11 440.291 72.1841 439.906 72.1841C439.584 72.1841 439.288 72.1333 439.017 72.0317C438.75 71.9302 438.52 71.7926 438.325 71.6191C438.131 71.4414 437.978 71.2362 437.868 71.0034C437.762 70.7707 437.709 70.5231 437.709 70.2607C437.709 69.9814 437.75 69.7339 437.83 69.5181C437.915 69.3022 438.025 69.116 438.16 68.9595C438.3 68.7987 438.461 68.6654 438.643 68.5596C438.829 68.4495 439.021 68.3628 439.22 68.2993C439.423 68.2316 439.629 68.1851 439.836 68.1597C440.048 68.13 440.249 68.1152 440.439 68.1152C440.744 68.1152 441 68.1258 441.207 68.147C441.414 68.1639 441.603 68.1893 441.772 68.2231L441.778 67.6836C441.778 67.4508 441.744 67.2498 441.677 67.0806C441.609 66.9071 441.514 66.7653 441.391 66.6553C441.268 66.541 441.12 66.4564 440.947 66.4014C440.778 66.3464 440.587 66.3188 440.375 66.3188C440.177 66.3188 439.986 66.3337 439.804 66.3633C439.622 66.3887 439.451 66.4246 439.29 66.4712C439.133 66.5135 438.987 66.5643 438.852 66.6235C438.721 66.6785 438.609 66.7378 438.516 66.8013L438.128 65.9824C438.285 65.8809 438.456 65.7878 438.643 65.7031C438.829 65.6143 439.023 65.5402 439.227 65.481C439.434 65.4175 439.643 65.3688 439.855 65.335C440.071 65.2969 440.282 65.2778 440.49 65.2778C440.871 65.2778 441.213 65.3244 441.518 65.4175C441.823 65.5063 442.081 65.646 442.292 65.8364C442.504 66.0269 442.667 66.2702 442.781 66.5664C442.896 66.8584 442.953 67.2096 442.953 67.6201L442.946 70.9082H443.676V72H441.766V71.3906ZM440.166 71.1938C440.323 71.1938 440.479 71.1748 440.636 71.1367C440.792 71.0986 440.94 71.0479 441.08 70.9844C441.22 70.9167 441.349 70.8405 441.467 70.7559C441.586 70.667 441.685 70.576 441.766 70.4829L441.772 68.9976H440.401C440.172 68.9976 439.963 69.0229 439.772 69.0737C439.586 69.1245 439.423 69.1986 439.284 69.2959C439.148 69.3932 439.042 69.5138 438.966 69.6577C438.89 69.8016 438.852 69.9666 438.852 70.1528C438.852 70.3263 438.884 70.4787 438.947 70.6099C439.011 70.7368 439.1 70.8447 439.214 70.9336C439.332 71.0182 439.472 71.0838 439.633 71.1304C439.794 71.1727 439.971 71.1938 440.166 71.1938ZM444.571 65.4238H447.066V66.5156H446.285L447.828 70.7114L449.44 66.5156H448.666V65.4238H451.16V66.5156H450.481L447.555 73.8979H448.456V74.9897H445.803V73.8979H446.603L447.301 72.0889L445.104 66.5156H444.571V65.4238Z" fill="#4B8E93"/>
<path d="M183.602 29.9082H184.401L183.64 27.7246H179.939L179.196 29.9082H180.187V31H177.063V29.9082H177.901L180.897 21.377H182.77L185.76 29.9082H186.725V31H183.602V29.9082ZM180.301 26.6709H183.271L181.773 22.3672L180.301 26.6709ZM187.696 21.377H191.587C192.019 21.377 192.414 21.4341 192.774 21.5483C193.138 21.6584 193.451 21.8234 193.713 22.0435C193.98 22.2593 194.185 22.5301 194.329 22.856C194.477 23.1818 194.551 23.5563 194.551 23.9795C194.551 24.3307 194.479 24.6629 194.335 24.9761C194.192 25.285 193.988 25.5558 193.726 25.7886C193.464 26.0213 193.148 26.2054 192.78 26.3408C192.416 26.4762 192.01 26.5439 191.562 26.5439H189.854V29.9082H190.819V31H187.696V29.9082H188.61V22.4751H187.696V21.377ZM189.854 22.4751V25.5029H191.587C191.828 25.5029 192.048 25.4712 192.247 25.4077C192.45 25.34 192.624 25.2427 192.768 25.1157C192.916 24.9888 193.03 24.8301 193.11 24.6396C193.195 24.4492 193.237 24.2292 193.237 23.9795C193.237 23.5055 193.093 23.1374 192.806 22.875C192.518 22.6084 192.059 22.4751 191.428 22.4751H189.854ZM195.77 21.377H198.842V22.4751H197.928V29.9082H198.842V31H195.77V29.9082H196.684V22.4751H195.77V21.377Z" fill="#4B8E93"/>
<path d="M193.112 235.463C193.112 235.258 193.063 235.085 192.966 234.943C192.873 234.797 192.751 234.68 192.6 234.592C192.448 234.499 192.28 234.433 192.094 234.394C191.909 234.35 191.728 234.328 191.552 234.328C191.357 234.328 191.176 234.35 191.01 234.394C190.849 234.438 190.71 234.501 190.593 234.584C190.476 234.667 190.383 234.77 190.314 234.892C190.251 235.009 190.219 235.141 190.219 235.288C190.219 235.542 190.295 235.744 190.446 235.896C190.603 236.042 190.861 236.179 191.223 236.306L192.68 236.818C193.305 237.028 193.762 237.314 194.05 237.675C194.338 238.037 194.482 238.469 194.482 238.972C194.482 239.309 194.414 239.619 194.277 239.902C194.145 240.18 193.955 240.419 193.706 240.62C193.461 240.815 193.166 240.966 192.819 241.074C192.473 241.186 192.087 241.242 191.662 241.242C191.071 241.242 190.59 241.147 190.219 240.957C189.848 240.766 189.562 240.515 189.362 240.202H188.601V238.942H190.117C190.117 239.152 190.161 239.333 190.249 239.484C190.341 239.631 190.461 239.75 190.607 239.843C190.759 239.936 190.927 240.004 191.113 240.048C191.303 240.092 191.496 240.114 191.691 240.114C191.882 240.114 192.065 240.092 192.241 240.048C192.417 240 192.57 239.931 192.702 239.843C192.839 239.75 192.946 239.641 193.024 239.514C193.103 239.387 193.142 239.243 193.142 239.082C193.142 238.837 193.061 238.63 192.9 238.459C192.744 238.288 192.475 238.134 192.094 237.998L190.644 237.456C190.053 237.246 189.614 236.979 189.326 236.657C189.042 236.33 188.901 235.922 188.901 235.434C188.901 235.112 188.959 234.814 189.077 234.541C189.199 234.267 189.372 234.033 189.597 233.837C189.826 233.637 190.104 233.481 190.432 233.369C190.759 233.256 191.132 233.2 191.552 233.2C192.094 233.2 192.548 233.276 192.915 233.427C193.281 233.579 193.61 233.837 193.903 234.204H194.614V235.463H193.112ZM197.302 237.397C197.302 237.612 197.316 237.81 197.346 237.99C197.38 238.166 197.426 238.334 197.485 238.496C197.666 238.984 197.954 239.353 198.349 239.602C198.75 239.846 199.201 239.968 199.704 239.968C200.1 239.968 200.483 239.914 200.854 239.807C201.23 239.694 201.623 239.521 202.033 239.287L202.583 240.217C202.084 240.559 201.584 240.812 201.081 240.979C200.578 241.145 200.056 241.228 199.514 241.228C199.001 241.228 198.525 241.142 198.085 240.971C197.651 240.8 197.275 240.546 196.958 240.209C196.645 239.873 196.398 239.453 196.218 238.95C196.042 238.447 195.954 237.861 195.954 237.192C195.954 236.65 196.03 236.14 196.181 235.661C196.333 235.178 196.557 234.758 196.855 234.401C197.158 234.04 197.531 233.754 197.976 233.544C198.42 233.334 198.938 233.229 199.528 233.229C200.1 233.229 200.576 233.317 200.957 233.493C201.342 233.664 201.655 233.894 201.894 234.182C202.138 234.465 202.321 234.79 202.443 235.156C202.57 235.522 202.658 235.896 202.707 236.276C202.731 236.462 202.746 236.65 202.751 236.84C202.761 237.031 202.766 237.216 202.766 237.397H197.302ZM199.433 234.372C199.116 234.372 198.837 234.418 198.598 234.511C198.364 234.599 198.164 234.729 197.998 234.899C197.832 235.065 197.697 235.271 197.595 235.515C197.497 235.759 197.424 236.032 197.375 236.335H201.308C201.289 236.052 201.242 235.791 201.169 235.551C201.101 235.312 200.993 235.104 200.847 234.929C200.7 234.753 200.512 234.616 200.283 234.519C200.053 234.421 199.77 234.372 199.433 234.372ZM210.083 235.031H208.691V234.562C208.53 234.562 208.364 234.594 208.193 234.658C208.027 234.716 207.871 234.809 207.724 234.936C207.578 235.058 207.448 235.217 207.336 235.412C207.229 235.603 207.15 235.83 207.102 236.093V239.755H208.391V241.015H204.626V239.755H205.673L205.681 234.687H204.626V233.427H207.05V234.475C207.138 234.318 207.236 234.174 207.343 234.042C207.456 233.906 207.578 233.789 207.709 233.691C207.846 233.588 207.995 233.51 208.156 233.457C208.322 233.398 208.5 233.369 208.691 233.369C208.945 233.369 209.184 233.369 209.409 233.369C209.633 233.369 209.858 233.374 210.083 233.383V235.031ZM211.071 233.427H213.693V234.687H212.983L214.858 239.917L216.689 234.687H216.228V233.427H218.63V234.687H217.978L215.495 241.132H214.147L211.672 234.687H211.071V233.427ZM219.655 233.427H222.131V239.755H223.273V241.015H219.67V239.755H220.754V234.687H219.655V233.427ZM220.498 230.739C220.498 230.612 220.522 230.493 220.571 230.38C220.625 230.263 220.693 230.163 220.776 230.08C220.864 229.992 220.966 229.924 221.083 229.875C221.201 229.821 221.325 229.794 221.457 229.794C221.584 229.794 221.704 229.821 221.816 229.875C221.933 229.924 222.033 229.992 222.116 230.08C222.204 230.163 222.272 230.263 222.321 230.38C222.375 230.493 222.402 230.612 222.402 230.739C222.402 230.871 222.375 230.996 222.321 231.113C222.272 231.23 222.204 231.335 222.116 231.428C222.033 231.516 221.933 231.586 221.816 231.64C221.704 231.689 221.584 231.713 221.457 231.713C221.325 231.713 221.201 231.689 221.083 231.64C220.966 231.586 220.864 231.516 220.776 231.428C220.693 231.335 220.625 231.23 220.571 231.113C220.522 230.996 220.498 230.871 220.498 230.739ZM230.012 235.449C229.807 235.083 229.545 234.814 229.228 234.643C228.916 234.472 228.552 234.387 228.137 234.387C227.819 234.387 227.521 234.453 227.243 234.584C226.965 234.716 226.721 234.904 226.511 235.148C226.306 235.393 226.142 235.69 226.02 236.042C225.903 236.389 225.844 236.777 225.844 237.207C225.844 237.631 225.903 238.015 226.02 238.356C226.142 238.698 226.308 238.991 226.518 239.235C226.728 239.475 226.97 239.66 227.243 239.792C227.521 239.919 227.819 239.982 228.137 239.982C228.605 239.982 229.013 239.87 229.36 239.646C229.707 239.416 229.982 239.082 230.188 238.642L231.315 239.199C231.169 239.511 230.988 239.792 230.773 240.041C230.559 240.29 230.314 240.502 230.041 240.678C229.772 240.854 229.475 240.988 229.147 241.081C228.825 241.179 228.483 241.228 228.122 241.228C227.595 241.228 227.106 241.13 226.657 240.935C226.213 240.734 225.827 240.456 225.5 240.1C225.178 239.743 224.926 239.318 224.746 238.825C224.565 238.332 224.475 237.792 224.475 237.207C224.475 236.621 224.57 236.081 224.76 235.588C224.951 235.095 225.212 234.672 225.544 234.321C225.876 233.964 226.264 233.686 226.708 233.486C227.153 233.286 227.629 233.186 228.137 233.186C228.615 233.186 229.067 233.269 229.492 233.435C229.921 233.601 230.297 233.852 230.62 234.189H231.389V235.449H230.012ZM234.011 237.397C234.011 237.612 234.025 237.81 234.055 237.99C234.089 238.166 234.135 238.334 234.194 238.496C234.375 238.984 234.663 239.353 235.058 239.602C235.458 239.846 235.91 239.968 236.413 239.968C236.809 239.968 237.192 239.914 237.563 239.807C237.939 239.694 238.332 239.521 238.742 239.287L239.292 240.217C238.793 240.559 238.293 240.812 237.79 240.979C237.287 241.145 236.765 241.228 236.223 241.228C235.71 241.228 235.234 241.142 234.794 240.971C234.36 240.8 233.984 240.546 233.667 240.209C233.354 239.873 233.107 239.453 232.927 238.95C232.751 238.447 232.663 237.861 232.663 237.192C232.663 236.65 232.739 236.14 232.89 235.661C233.042 235.178 233.266 234.758 233.564 234.401C233.867 234.04 234.24 233.754 234.685 233.544C235.129 233.334 235.646 233.229 236.237 233.229C236.809 233.229 237.285 233.317 237.666 233.493C238.051 233.664 238.364 233.894 238.603 234.182C238.847 234.465 239.03 234.79 239.152 235.156C239.279 235.522 239.367 235.896 239.416 236.276C239.44 236.462 239.455 236.65 239.46 236.84C239.47 237.031 239.475 237.216 239.475 237.397H234.011ZM236.142 234.372C235.825 234.372 235.546 234.418 235.307 234.511C235.073 234.599 234.873 234.729 234.707 234.899C234.541 235.065 234.406 235.271 234.304 235.515C234.206 235.759 234.133 236.032 234.084 236.335H238.017C237.998 236.052 237.951 235.791 237.878 235.551C237.81 235.312 237.702 235.104 237.556 234.929C237.409 234.753 237.221 234.616 236.992 234.519C236.762 234.421 236.479 234.372 236.142 234.372ZM244.931 239.755H245.986V231.179H244.931V229.897L249.926 229.912C250.375 229.912 250.798 229.997 251.193 230.168C251.589 230.334 251.933 230.563 252.226 230.856C252.519 231.145 252.749 231.486 252.915 231.882C253.085 232.277 253.171 232.702 253.171 233.156C253.171 233.63 253.039 234.062 252.775 234.453C252.512 234.843 252.136 235.156 251.647 235.39C251.887 235.517 252.104 235.666 252.299 235.837C252.495 236.003 252.661 236.186 252.797 236.386C252.934 236.586 253.039 236.799 253.112 237.023C253.19 237.248 253.229 237.478 253.229 237.712C253.229 238.176 253.144 238.608 252.973 239.008C252.807 239.409 252.578 239.758 252.285 240.056C251.992 240.354 251.647 240.588 251.252 240.759C250.861 240.93 250.441 241.015 249.992 241.015H244.931V239.755ZM247.421 236.079V239.755H250.007C250.241 239.755 250.458 239.697 250.659 239.58C250.859 239.462 251.035 239.311 251.186 239.125C251.337 238.935 251.455 238.72 251.538 238.481C251.625 238.242 251.669 237.998 251.669 237.749C251.669 237.534 251.625 237.326 251.538 237.126C251.45 236.926 251.33 236.748 251.179 236.591C251.032 236.435 250.856 236.311 250.651 236.218C250.451 236.125 250.236 236.079 250.007 236.079H247.421ZM247.421 231.179V234.804H249.941C250.175 234.804 250.393 234.758 250.593 234.665C250.798 234.572 250.974 234.448 251.12 234.292C251.271 234.135 251.391 233.955 251.479 233.75C251.567 233.544 251.611 233.332 251.611 233.112C251.611 232.873 251.567 232.639 251.479 232.409C251.391 232.175 251.271 231.967 251.12 231.787C250.969 231.606 250.791 231.459 250.585 231.347C250.385 231.235 250.17 231.179 249.941 231.179H247.421Z" fill="#4B8E93"/>
<rect x="1" y="144" width="63" height="454" rx="7" transform="rotate(-90 1 144)" stroke="#4B8E93" stroke-width="2"/>
<path d="M77 185.184L90.125 203L103.25 185.184" stroke="#4B8E93" stroke-width="2" stroke-linecap="round" stroke-linejoin="round"/>
<path d="M90.25 201V145" stroke="#4B8E93" stroke-width="2" stroke-linecap="round"/>
<path d="M207 186.184L220.125 204L233.25 186.184" stroke="#4B8E93" stroke-width="2" stroke-linecap="round" stroke-linejoin="round"/>
<path d="M220.25 202V146" stroke="#4B8E93" stroke-width="2" stroke-linecap="round"/>
<path d="M168.25 159L155.125 175.002L142 159" stroke="#4B8E93" stroke-width="2" stroke-linecap="round" stroke-linejoin="round" stroke-dasharray="4 4"/>
<path d="M155 173.204L155 65.2041" stroke="#4B8E93" stroke-width="2" stroke-linecap="round" stroke-dasharray="4 4"/>
<path d="M185 34.999H174.286C163.614 34.999 155 43.6133 155 54.2847V64.999" stroke="#4B8E93" stroke-width="2" stroke-linecap="round" stroke-linejoin="round" stroke-dasharray="4 4"/>
<path d="M208 34.999H185" stroke="#4B8E93" stroke-width="2" stroke-linecap="round" stroke-dasharray="4 4"/>
<rect x="20" y="176" width="332" height="199" rx="7" stroke="#4B8E93" stroke-width="2" stroke-dasharray="7 3"/>
<path d="M316.547 235.734C316.547 235.526 316.583 235.331 316.656 235.148C316.734 234.966 316.841 234.805 316.977 234.664C317.117 234.523 317.281 234.414 317.469 234.336C317.656 234.253 317.857 234.211 318.07 234.211C318.273 234.211 318.466 234.253 318.648 234.336C318.836 234.414 318.997 234.523 319.133 234.664C319.273 234.799 319.383 234.961 319.461 235.148C319.539 235.336 319.578 235.531 319.578 235.734C319.578 235.943 319.536 236.141 319.453 236.328C319.375 236.516 319.268 236.677 319.133 236.812C318.997 236.948 318.839 237.055 318.656 237.133C318.474 237.216 318.279 237.258 318.07 237.258C317.852 237.258 317.648 237.216 317.461 237.133C317.279 237.055 317.117 236.948 316.977 236.812C316.841 236.677 316.734 236.518 316.656 236.336C316.583 236.148 316.547 235.948 316.547 235.734ZM323.891 235.734C323.891 235.526 323.927 235.331 324 235.148C324.078 234.966 324.185 234.805 324.32 234.664C324.461 234.523 324.625 234.414 324.812 234.336C325 234.253 325.201 234.211 325.414 234.211C325.617 234.211 325.81 234.253 325.992 234.336C326.18 234.414 326.341 234.523 326.477 234.664C326.617 234.799 326.727 234.961 326.805 235.148C326.883 235.336 326.922 235.531 326.922 235.734C326.922 235.943 326.88 236.141 326.797 236.328C326.719 236.516 326.612 236.677 326.477 236.812C326.341 236.948 326.182 237.055 326 237.133C325.818 237.216 325.622 237.258 325.414 237.258C325.195 237.258 324.992 237.216 324.805 237.133C324.622 237.055 324.461 236.948 324.32 236.812C324.185 236.677 324.078 236.518 324 236.336C323.927 236.148 323.891 235.948 323.891 235.734ZM331.234 235.734C331.234 235.526 331.271 235.331 331.344 235.148C331.422 234.966 331.529 234.805 331.664 234.664C331.805 234.523 331.969 234.414 332.156 234.336C332.344 234.253 332.544 234.211 332.758 234.211C332.961 234.211 333.154 234.253 333.336 234.336C333.523 234.414 333.685 234.523 333.82 234.664C333.961 234.799 334.07 234.961 334.148 235.148C334.227 235.336 334.266 235.531 334.266 235.734C334.266 235.943 334.224 236.141 334.141 236.328C334.062 236.516 333.956 236.677 333.82 236.812C333.685 236.948 333.526 237.055 333.344 237.133C333.161 237.216 332.966 237.258 332.758 237.258C332.539 237.258 332.336 237.216 332.148 237.133C331.966 237.055 331.805 236.948 331.664 236.812C331.529 236.677 331.422 236.518 331.344 236.336C331.271 236.148 331.234 235.948 331.234 235.734Z" fill="#4B8E93"/>
</svg>
