<svg width="563" height="216" viewBox="0 0 563 216" fill="none" xmlns="http://www.w3.org/2000/svg">
<path d="M292.931 33.9892L245.535 33.9953C243.457 33.9969 241.416 34.329 239.617 34.9583C237.819 35.5877 236.325 36.4921 235.286 37.5809L211.591 62.6737C210.551 63.7636 210.004 64.9998 210.004 66.2581C210.004 67.5165 210.552 68.7526 211.592 69.8422L235.293 94.9289C236.332 96.0174 237.826 96.9214 239.626 97.5503C241.425 98.1792 243.465 98.5108 245.543 98.5118L292.939 98.5057C295.017 98.5041 297.058 98.172 298.857 97.5427C300.656 96.9133 302.15 96.0089 303.188 94.9201L326.883 69.8273C327.923 68.7374 328.47 67.5012 328.47 66.2429C328.47 64.9845 327.922 63.7484 326.882 62.6588L303.181 37.5722C302.142 36.4836 300.648 35.5796 298.849 34.9507C297.05 34.3218 295.009 33.9903 292.931 33.9892Z" stroke="#4B8E93" stroke-width="2" stroke-linecap="round" stroke-linejoin="round"/>
<path d="M292.931 123.989L245.535 123.995C243.457 123.997 241.416 124.329 239.617 124.958C237.819 125.588 236.325 126.492 235.286 127.581L211.591 152.674C210.551 153.764 210.004 155 210.004 156.258C210.004 157.516 210.552 158.753 211.592 159.842L235.293 184.929C236.332 186.017 237.826 186.921 239.626 187.55C241.425 188.179 243.465 188.511 245.543 188.512L292.939 188.506C295.017 188.504 297.058 188.172 298.857 187.543C300.656 186.913 302.15 186.009 303.188 184.92L326.883 159.827C327.923 158.737 328.47 157.501 328.47 156.243C328.47 154.985 327.922 153.748 326.882 152.659L303.181 127.572C302.142 126.484 300.648 125.58 298.849 124.951C297.05 124.322 295.009 123.99 292.931 123.989Z" stroke="#4B8E93" stroke-width="2" stroke-linecap="round" stroke-linejoin="round"/>
<path d="M397 51.2C412.464 51.2 425 46.9019 425 41.6C425 36.2981 412.464 32 397 32C381.536 32 369 36.2981 369 41.6C369 46.9019 381.536 51.2 397 51.2Z" stroke="#4B8E93" stroke-width="2" stroke-linecap="round" stroke-linejoin="round"/>
<path d="M425 64C425 69.312 412.556 73.6 397 73.6C381.444 73.6 369 69.312 369 64" stroke="#4B8E93" stroke-width="2" stroke-linecap="round" stroke-linejoin="round"/>
<path d="M369 41.6001V86.4001C369 91.7121 381.444 96.0001 397 96.0001C412.556 96.0001 425 91.7121 425 86.4001V41.6001" stroke="#4B8E93" stroke-width="2" stroke-linecap="round" stroke-linejoin="round"/>
<path d="M397 141.2C412.464 141.2 425 136.902 425 131.6C425 126.298 412.464 122 397 122C381.536 122 369 126.298 369 131.6C369 136.902 381.536 141.2 397 141.2Z" stroke="#4B8E93" stroke-width="2" stroke-linecap="round" stroke-linejoin="round"/>
<path d="M425 154C425 159.312 412.556 163.6 397 163.6C381.444 163.6 369 159.312 369 154" stroke="#4B8E93" stroke-width="2" stroke-linecap="round" stroke-linejoin="round"/>
<path d="M369 131.6V176.4C369 181.712 381.444 186 397 186C412.556 186 425 181.712 425 176.4V131.6" stroke="#4B8E93" stroke-width="2" stroke-linecap="round" stroke-linejoin="round"/>
<path d="M329 66H368M368 66L348.5 54M368 66L348.5 78" stroke="#4B8E93" stroke-width="2" stroke-linecap="round" stroke-linejoin="round"/>
<path d="M329 156H368M368 156L348.5 144M368 156L348.5 168" stroke="#4B8E93" stroke-width="2" stroke-linecap="round" stroke-linejoin="round"/>
<path d="M36.875 80H6.125C3.29454 80 1 82.7423 1 86.125V135.125C1 138.508 3.29454 141.25 6.125 141.25H36.875C39.7055 141.25 42 138.508 42 135.125V86.125C42 82.7423 39.7055 80 36.875 80Z" stroke="#4B8E93" stroke-width="2" stroke-linecap="round" stroke-linejoin="round"/>
<path d="M21.5 129H21.5256" stroke="#4B8E93" stroke-width="2" stroke-linecap="round" stroke-linejoin="round"/>
<path d="M237.928 62.8262C237.601 62.2695 237.167 61.8325 236.625 61.5151C236.087 61.1978 235.487 61.0391 234.823 61.0391C234.256 61.0391 233.739 61.1587 233.27 61.3979C232.801 61.6372 232.398 61.9595 232.062 62.3647C231.729 62.7651 231.471 63.2314 231.285 63.7637C231.1 64.291 231.007 64.8477 231.007 65.4336C231.007 66.127 231.109 66.7422 231.314 67.2793C231.52 67.8115 231.786 68.2559 232.113 68.6123C232.445 68.9639 232.838 69.2593 233.292 69.4985C233.746 69.7329 234.256 69.8501 234.823 69.8501C235.594 69.8501 236.266 69.6646 236.837 69.2935C237.408 68.9175 237.896 68.3022 238.302 67.4478L239.591 68.0557C239.405 68.583 239.09 69.0933 238.646 69.5864C238.202 70.0747 237.652 70.4702 236.998 70.7729C236.349 71.0708 235.628 71.2197 234.837 71.2197C234.081 71.2197 233.385 71.0781 232.75 70.7949C232.115 70.5068 231.549 70.0991 231.051 69.5718C230.558 69.0444 230.179 68.4194 229.916 67.6968C229.657 66.9741 229.527 66.2197 229.527 65.4336C229.527 64.6426 229.657 63.8955 229.916 63.1924C230.179 62.4893 230.545 61.8789 231.014 61.3613C231.488 60.8389 232.049 60.4287 232.699 60.1309C233.353 59.8281 234.061 59.6768 234.823 59.6768C235.501 59.6768 236.087 59.7744 236.581 59.9697C237.074 60.1602 237.491 60.3896 237.833 60.6582C238.18 60.9219 238.478 61.21 238.727 61.5225H239.503V62.8262H237.928ZM245.362 63.4121H247.809V69.7402H248.651V71H246.439V70.2969C246.097 70.5605 245.724 70.7656 245.318 70.9121C244.918 71.0586 244.488 71.1318 244.029 71.1318C243.648 71.1318 243.302 71.0781 242.989 70.9707C242.682 70.8584 242.418 70.6875 242.198 70.458C241.983 70.2236 241.817 69.9282 241.7 69.5718C241.583 69.2153 241.524 68.7905 241.524 68.2974V64.6719H240.499V63.4121H242.945V68.1362C242.945 68.7173 243.08 69.1567 243.348 69.4546C243.617 69.7524 244.002 69.9014 244.505 69.9014C244.803 69.9014 245.116 69.8477 245.443 69.7402C245.775 69.6328 246.087 69.4839 246.38 69.2935V64.6719H245.362V63.4121ZM255.06 65.4482C255.06 65.2432 255.011 65.0698 254.913 64.9282C254.82 64.7817 254.698 64.6646 254.547 64.5767C254.396 64.4839 254.227 64.418 254.042 64.3789C253.856 64.335 253.675 64.313 253.5 64.313C253.304 64.313 253.124 64.335 252.958 64.3789C252.796 64.4229 252.657 64.4863 252.54 64.5693C252.423 64.6523 252.33 64.7549 252.262 64.877C252.198 64.9941 252.167 65.126 252.167 65.2725C252.167 65.5264 252.242 65.729 252.394 65.8804C252.55 66.0269 252.809 66.1636 253.17 66.2905L254.627 66.8032C255.252 67.0132 255.709 67.2988 255.997 67.6602C256.285 68.0215 256.429 68.4536 256.429 68.9565C256.429 69.2935 256.361 69.6035 256.224 69.8867C256.092 70.165 255.902 70.4043 255.653 70.6045C255.409 70.7998 255.113 70.9512 254.767 71.0586C254.42 71.1709 254.034 71.2271 253.609 71.2271C253.019 71.2271 252.538 71.1318 252.167 70.9414C251.795 70.751 251.51 70.4995 251.31 70.187H250.548V68.9272H252.064C252.064 69.1372 252.108 69.3179 252.196 69.4692C252.289 69.6157 252.408 69.7354 252.555 69.8281C252.706 69.9209 252.875 69.9893 253.06 70.0332C253.25 70.0771 253.443 70.0991 253.639 70.0991C253.829 70.0991 254.012 70.0771 254.188 70.0332C254.364 69.9844 254.518 69.916 254.649 69.8281C254.786 69.7354 254.894 69.6255 254.972 69.4985C255.05 69.3716 255.089 69.2275 255.089 69.0664C255.089 68.8223 255.008 68.6147 254.847 68.4438C254.691 68.2729 254.422 68.1191 254.042 67.9824L252.591 67.4404C252 67.2305 251.561 66.9644 251.273 66.6421C250.99 66.3149 250.848 65.9072 250.848 65.4189C250.848 65.0967 250.907 64.7988 251.024 64.5254C251.146 64.252 251.319 64.0176 251.544 63.8223C251.773 63.6221 252.052 63.4658 252.379 63.3535C252.706 63.2412 253.08 63.1851 253.5 63.1851C254.042 63.1851 254.496 63.2607 254.862 63.4121C255.228 63.5635 255.558 63.8223 255.851 64.1885H256.561V65.4482H255.06ZM260.157 63.4121H261.937V64.5181H260.143L260.121 68.8979C260.121 69.1958 260.155 69.4375 260.223 69.623C260.292 69.8086 260.401 69.938 260.553 70.0112C260.704 70.0796 260.875 70.1138 261.065 70.1138C261.271 70.1138 261.451 70.0967 261.607 70.0625C261.764 70.0234 261.935 69.96 262.12 69.8721L262.435 70.7876C262.201 70.9097 261.954 71.0049 261.695 71.0732C261.437 71.1465 261.131 71.1831 260.78 71.1831C260.448 71.1831 260.157 71.1416 259.908 71.0586C259.664 70.9805 259.457 70.8462 259.286 70.6558C259.12 70.4653 258.995 70.2114 258.912 69.894C258.829 69.5718 258.788 69.1714 258.788 68.6929L258.81 64.5181H257.601V63.4121H258.824V61.5957L260.157 60.9658V63.4121ZM263.438 67.2061C263.443 66.6055 263.539 66.0586 263.724 65.5654C263.915 65.0723 264.178 64.6499 264.515 64.2983C264.852 63.9419 265.252 63.6685 265.716 63.478C266.18 63.2876 266.69 63.1924 267.247 63.1924C267.809 63.1924 268.321 63.2876 268.785 63.478C269.254 63.6685 269.654 63.9395 269.986 64.291C270.318 64.6377 270.577 65.0576 270.763 65.5508C270.948 66.0439 271.041 66.5908 271.041 67.1914C271.041 67.7822 270.948 68.3267 270.763 68.8247C270.577 69.3179 270.318 69.7427 269.986 70.0991C269.654 70.4556 269.254 70.7339 268.785 70.9341C268.321 71.1294 267.809 71.2271 267.247 71.2271C266.676 71.2271 266.158 71.1294 265.694 70.9341C265.23 70.7388 264.833 70.4653 264.5 70.1138C264.168 69.7573 263.91 69.3325 263.724 68.8394C263.539 68.3462 263.443 67.8018 263.438 67.2061ZM264.881 67.2061C264.881 67.6406 264.942 68.0337 265.064 68.3853C265.191 68.7368 265.362 69.0371 265.577 69.2861C265.797 69.5303 266.048 69.7207 266.332 69.8574C266.62 69.9893 266.925 70.0552 267.247 70.0552C267.584 70.0552 267.896 69.9893 268.185 69.8574C268.478 69.7256 268.731 69.5376 268.946 69.2935C269.161 69.0444 269.33 68.7441 269.452 68.3926C269.574 68.041 269.635 67.6455 269.635 67.2061C269.635 66.7471 269.574 66.3394 269.452 65.9829C269.33 65.6265 269.161 65.3286 268.946 65.0894C268.736 64.8501 268.485 64.6694 268.192 64.5474C267.899 64.4253 267.584 64.3643 267.247 64.3643C266.925 64.3643 266.62 64.4253 266.332 64.5474C266.048 64.6694 265.797 64.8501 265.577 65.0894C265.362 65.3286 265.191 65.6265 265.064 65.9829C264.942 66.3394 264.881 66.7471 264.881 67.2061ZM272.521 63.4121H274.938V64.2983H274.952C275.118 64.1567 275.292 64.0249 275.472 63.9028C275.658 63.7759 275.851 63.666 276.051 63.5732C276.251 63.4805 276.458 63.4072 276.673 63.3535C276.893 63.2998 277.12 63.2729 277.354 63.2729C277.901 63.2729 278.373 63.3755 278.768 63.5806C279.164 63.7808 279.469 64.0957 279.684 64.5254C279.869 64.3594 280.064 64.2007 280.27 64.0493C280.475 63.8931 280.687 63.7588 280.907 63.6465C281.131 63.5342 281.366 63.4438 281.61 63.3755C281.854 63.3071 282.108 63.2729 282.372 63.2729C282.782 63.2729 283.15 63.3291 283.478 63.4414C283.805 63.5537 284.083 63.7246 284.312 63.9541C284.542 64.1836 284.715 64.479 284.833 64.8403C284.955 65.1968 285.016 65.6191 285.016 66.1074V69.7402H286.07V71H282.525V69.7402H283.595V66.2759C283.595 65.6948 283.448 65.2554 283.155 64.9575C282.862 64.6548 282.44 64.5034 281.888 64.5034C281.561 64.5034 281.227 64.5815 280.885 64.7378C280.543 64.894 280.25 65.0918 280.006 65.3311V69.7402H281.053V71H277.516V69.7402H278.585V66.2759C278.585 65.6948 278.436 65.2554 278.138 64.9575C277.845 64.6548 277.423 64.5034 276.871 64.5034C276.554 64.5034 276.234 64.5791 275.912 64.7305C275.589 64.8818 275.284 65.0698 274.996 65.2944V69.7402H276.065V71H272.521V69.7402H273.575V64.6719H272.521V63.4121ZM288.824 67.3818C288.824 67.5967 288.839 67.7944 288.868 67.9751C288.902 68.1509 288.949 68.3193 289.007 68.4805C289.188 68.9688 289.476 69.3374 289.872 69.5864C290.272 69.8306 290.724 69.9526 291.227 69.9526C291.622 69.9526 292.005 69.8989 292.376 69.7915C292.752 69.6792 293.146 69.5059 293.556 69.2715L294.105 70.2017C293.607 70.5435 293.106 70.7974 292.604 70.9634C292.101 71.1294 291.578 71.2124 291.036 71.2124C290.523 71.2124 290.047 71.127 289.608 70.9561C289.173 70.7852 288.797 70.5312 288.48 70.1943C288.167 69.8574 287.921 69.4375 287.74 68.9346C287.564 68.4316 287.477 67.8457 287.477 67.1768C287.477 66.6348 287.552 66.1245 287.704 65.646C287.855 65.1626 288.08 64.7427 288.377 64.3862C288.68 64.0249 289.054 63.7393 289.498 63.5293C289.942 63.3193 290.46 63.2144 291.051 63.2144C291.622 63.2144 292.098 63.3022 292.479 63.478C292.865 63.6489 293.177 63.8784 293.417 64.1665C293.661 64.4497 293.844 64.7744 293.966 65.1406C294.093 65.5068 294.181 65.8804 294.229 66.2612C294.254 66.4468 294.269 66.6348 294.273 66.8252C294.283 67.0156 294.288 67.2012 294.288 67.3818H288.824ZM290.956 64.3569C290.638 64.3569 290.36 64.4033 290.121 64.4961C289.886 64.584 289.686 64.7134 289.52 64.8843C289.354 65.0503 289.22 65.2554 289.117 65.4995C289.02 65.7437 288.946 66.0171 288.897 66.3198H292.831C292.811 66.0366 292.765 65.7754 292.691 65.5361C292.623 65.2969 292.516 65.0894 292.369 64.9136C292.223 64.7378 292.035 64.6011 291.805 64.5034C291.576 64.4058 291.292 64.3569 290.956 64.3569ZM301.605 65.0161H300.213V64.5474C300.052 64.5474 299.886 64.5791 299.715 64.6426C299.549 64.7012 299.393 64.7939 299.247 64.9209C299.1 65.043 298.971 65.2017 298.858 65.397C298.751 65.5874 298.673 65.8145 298.624 66.0781V69.7402H299.913V71H296.148V69.7402H297.196L297.203 64.6719H296.148V63.4121H298.573V64.4595C298.661 64.3032 298.758 64.1592 298.866 64.0273C298.978 63.8906 299.1 63.7734 299.232 63.6758C299.369 63.5732 299.518 63.4951 299.679 63.4414C299.845 63.3828 300.023 63.3535 300.213 63.3535C300.467 63.3535 300.707 63.3535 300.931 63.3535C301.156 63.3535 301.38 63.3584 301.605 63.3682V65.0161ZM307.56 65.4482C307.56 65.2432 307.511 65.0698 307.413 64.9282C307.32 64.7817 307.198 64.6646 307.047 64.5767C306.896 64.4839 306.727 64.418 306.542 64.3789C306.356 64.335 306.175 64.313 306 64.313C305.804 64.313 305.624 64.335 305.458 64.3789C305.296 64.4229 305.157 64.4863 305.04 64.5693C304.923 64.6523 304.83 64.7549 304.762 64.877C304.698 64.9941 304.667 65.126 304.667 65.2725C304.667 65.5264 304.742 65.729 304.894 65.8804C305.05 66.0269 305.309 66.1636 305.67 66.2905L307.127 66.8032C307.752 67.0132 308.209 67.2988 308.497 67.6602C308.785 68.0215 308.929 68.4536 308.929 68.9565C308.929 69.2935 308.861 69.6035 308.724 69.8867C308.592 70.165 308.402 70.4043 308.153 70.6045C307.909 70.7998 307.613 70.9512 307.267 71.0586C306.92 71.1709 306.534 71.2271 306.109 71.2271C305.519 71.2271 305.038 71.1318 304.667 70.9414C304.295 70.751 304.01 70.4995 303.81 70.187H303.048V68.9272H304.564C304.564 69.1372 304.608 69.3179 304.696 69.4692C304.789 69.6157 304.908 69.7354 305.055 69.8281C305.206 69.9209 305.375 69.9893 305.56 70.0332C305.75 70.0771 305.943 70.0991 306.139 70.0991C306.329 70.0991 306.512 70.0771 306.688 70.0332C306.864 69.9844 307.018 69.916 307.149 69.8281C307.286 69.7354 307.394 69.6255 307.472 69.4985C307.55 69.3716 307.589 69.2275 307.589 69.0664C307.589 68.8223 307.508 68.6147 307.347 68.4438C307.191 68.2729 306.922 68.1191 306.542 67.9824L305.091 67.4404C304.5 67.2305 304.061 66.9644 303.773 66.6421C303.49 66.3149 303.348 65.9072 303.348 65.4189C303.348 65.0967 303.407 64.7988 303.524 64.5254C303.646 64.252 303.819 64.0176 304.044 63.8223C304.273 63.6221 304.552 63.4658 304.879 63.3535C305.206 63.2412 305.58 63.1851 306 63.1851C306.542 63.1851 306.996 63.2607 307.362 63.4121C307.728 63.5635 308.058 63.8223 308.351 64.1885H309.061V65.4482H307.56Z" fill="#4B8E93"/>
<path d="M176.617 88.7402H177.54L176.661 86.2207H172.391L171.534 88.7402H172.677V90H169.073V88.7402H170.04L173.497 78.8965H175.658L179.107 88.7402H180.221V90H176.617V88.7402ZM172.809 85.0049H176.236L174.508 80.0391L172.809 85.0049ZM181.341 78.8965H185.831C186.329 78.8965 186.786 78.9624 187.201 79.0942C187.621 79.2212 187.982 79.4116 188.285 79.6655C188.592 79.9146 188.829 80.2271 188.995 80.603C189.166 80.979 189.251 81.4111 189.251 81.8994C189.251 82.3047 189.168 82.688 189.002 83.0493C188.836 83.4058 188.602 83.7183 188.299 83.9868C187.997 84.2554 187.633 84.4678 187.208 84.624C186.788 84.7803 186.319 84.8584 185.802 84.8584H183.832V88.7402H184.945V90H181.341V88.7402H182.396V80.1636H181.341V78.8965ZM183.832 80.1636V83.6572H185.831C186.109 83.6572 186.363 83.6206 186.593 83.5474C186.827 83.4692 187.027 83.3569 187.193 83.2104C187.364 83.064 187.496 82.8809 187.589 82.6611C187.687 82.4414 187.735 82.1875 187.735 81.8994C187.735 81.3525 187.569 80.9277 187.237 80.625C186.905 80.3174 186.375 80.1636 185.648 80.1636H183.832ZM190.658 78.8965H194.203V80.1636H193.148V88.7402H194.203V90H190.658V88.7402H191.712V80.1636H190.658V78.8965Z" fill="#4B8E93"/>
<path d="M113.227 28.9082H114.026L113.265 26.7246H109.564L108.821 28.9082H109.812V30H106.688V28.9082H107.526L110.522 20.377H112.395L115.385 28.9082H116.35V30H113.227V28.9082ZM109.926 25.6709H112.896L111.398 21.3672L109.926 25.6709ZM117.321 20.377H121.212C121.644 20.377 122.039 20.4341 122.399 20.5483C122.763 20.6584 123.076 20.8234 123.338 21.0435C123.605 21.2593 123.81 21.5301 123.954 21.856C124.102 22.1818 124.176 22.5563 124.176 22.9795C124.176 23.3307 124.104 23.6629 123.96 23.9761C123.817 24.285 123.613 24.5558 123.351 24.7886C123.089 25.0213 122.773 25.2054 122.405 25.3408C122.041 25.4762 121.635 25.5439 121.187 25.5439H119.479V28.9082H120.444V30H117.321V28.9082H118.235V21.4751H117.321V20.377ZM119.479 21.4751V24.5029H121.212C121.453 24.5029 121.673 24.4712 121.872 24.4077C122.075 24.34 122.249 24.2427 122.393 24.1157C122.541 23.9888 122.655 23.8301 122.735 23.6396C122.82 23.4492 122.862 23.2292 122.862 22.9795C122.862 22.5055 122.718 22.1374 122.431 21.875C122.143 21.6084 121.684 21.4751 121.053 21.4751H119.479ZM125.395 20.377H128.467V21.4751H127.553V28.9082H128.467V30H125.395V28.9082H126.309V21.4751H125.395V20.377ZM98.792 46.0381V44.1084C98.6312 44.4427 98.4302 44.7347 98.189 44.9844C97.9478 45.2298 97.679 45.4329 97.3828 45.5938C97.0866 45.7546 96.7692 45.8752 96.4307 45.9556C96.0964 46.036 95.7557 46.0762 95.4087 46.0762C94.7824 46.0762 94.2048 45.9725 93.6758 45.7651C93.1468 45.5535 92.6665 45.2192 92.2349 44.7622C91.8075 44.3052 91.4795 43.7635 91.251 43.1372C91.0267 42.5109 90.9146 41.8571 90.9146 41.1758C90.9146 40.4902 91.0267 39.8428 91.251 39.2334C91.4795 38.624 91.7969 38.0929 92.2031 37.6401C92.6136 37.1873 93.1003 36.8319 93.6631 36.5737C94.2301 36.3156 94.8438 36.1865 95.5039 36.1865C96.1133 36.1865 96.6359 36.2733 97.0718 36.4468C97.5119 36.6203 97.8864 36.8319 98.1953 37.0815C98.5085 37.327 98.7581 37.5618 98.9443 37.7861H99.5601V38.916H98.1953C97.9118 38.4336 97.5352 38.0527 97.0654 37.7734C96.5999 37.4941 96.0773 37.3587 95.4976 37.3672C95.0109 37.3672 94.5645 37.4709 94.1582 37.6782C93.752 37.8856 93.4028 38.1649 93.1108 38.5161C92.8231 38.8674 92.5988 39.2715 92.438 39.7285C92.2772 40.1855 92.1968 40.668 92.1968 41.1758C92.1968 41.7386 92.2856 42.2612 92.4634 42.7437C92.6411 43.2261 92.8675 43.6175 93.1426 43.918C93.4176 44.2184 93.7562 44.4681 94.1582 44.667C94.5645 44.8617 95.013 44.959 95.5039 44.959C96.3164 44.959 96.9829 44.7622 97.5034 44.3687C98.0239 43.9709 98.3879 43.353 98.5952 42.5151H95.9038V41.4233H99.9727V46.0381H98.792ZM105.647 45.3906C105.398 45.6234 105.121 45.8138 104.816 45.9619C104.515 46.11 104.173 46.1841 103.788 46.1841C103.466 46.1841 103.17 46.1333 102.899 46.0317C102.632 45.9302 102.402 45.7926 102.207 45.6191C102.012 45.4414 101.86 45.2362 101.75 45.0034C101.644 44.7707 101.591 44.5231 101.591 44.2607C101.591 43.9814 101.632 43.7339 101.712 43.5181C101.797 43.3022 101.907 43.116 102.042 42.9595C102.182 42.7987 102.342 42.6654 102.524 42.5596C102.711 42.4495 102.903 42.3628 103.102 42.2993C103.305 42.2316 103.51 42.1851 103.718 42.1597C103.929 42.13 104.13 42.1152 104.321 42.1152C104.625 42.1152 104.882 42.1258 105.089 42.147C105.296 42.1639 105.485 42.1893 105.654 42.2231L105.66 41.6836C105.66 41.4508 105.626 41.2498 105.559 41.0806C105.491 40.9071 105.396 40.7653 105.273 40.6553C105.15 40.541 105.002 40.4564 104.829 40.4014C104.659 40.3464 104.469 40.3188 104.257 40.3188C104.058 40.3188 103.868 40.3337 103.686 40.3633C103.504 40.3887 103.333 40.4246 103.172 40.4712C103.015 40.5135 102.869 40.5643 102.734 40.6235C102.603 40.6785 102.491 40.7378 102.397 40.8013L102.01 39.9824C102.167 39.8809 102.338 39.7878 102.524 39.7031C102.711 39.6143 102.905 39.5402 103.108 39.481C103.316 39.4175 103.525 39.3688 103.737 39.335C103.953 39.2969 104.164 39.2778 104.372 39.2778C104.752 39.2778 105.095 39.3244 105.4 39.4175C105.705 39.5063 105.963 39.646 106.174 39.8364C106.386 40.0269 106.549 40.2702 106.663 40.5664C106.777 40.8584 106.834 41.2096 106.834 41.6201L106.828 44.9082H107.558V46H105.647V45.3906ZM104.048 45.1938C104.204 45.1938 104.361 45.1748 104.518 45.1367C104.674 45.0986 104.822 45.0479 104.962 44.9844C105.102 44.9167 105.231 44.8405 105.349 44.7559C105.468 44.667 105.567 44.576 105.647 44.4829L105.654 42.9976H104.283C104.054 42.9976 103.845 43.0229 103.654 43.0737C103.468 43.1245 103.305 43.1986 103.166 43.2959C103.03 43.3932 102.924 43.5138 102.848 43.6577C102.772 43.8016 102.734 43.9666 102.734 44.1528C102.734 44.3263 102.766 44.4787 102.829 44.6099C102.893 44.7368 102.981 44.8447 103.096 44.9336C103.214 45.0182 103.354 45.0838 103.515 45.1304C103.675 45.1727 103.853 45.1938 104.048 45.1938ZM110.795 39.4238H112.338V40.3823H110.783L110.764 44.1782C110.764 44.4364 110.793 44.6458 110.853 44.8066C110.912 44.9674 111.007 45.0796 111.138 45.1431C111.269 45.2023 111.417 45.2319 111.583 45.2319C111.76 45.2319 111.917 45.2171 112.052 45.1875C112.188 45.1536 112.336 45.0986 112.497 45.0225L112.77 45.8159C112.566 45.9217 112.353 46.0042 112.128 46.0635C111.904 46.127 111.64 46.1587 111.335 46.1587C111.047 46.1587 110.795 46.1227 110.58 46.0508C110.368 45.9831 110.188 45.8667 110.04 45.7017C109.896 45.5366 109.788 45.3166 109.716 45.0415C109.644 44.7622 109.608 44.4152 109.608 44.0005L109.627 40.3823H108.58V39.4238H109.64V37.8496L110.795 37.3037V39.4238ZM114.845 42.8643C114.845 43.0505 114.858 43.2218 114.883 43.3784C114.913 43.5308 114.953 43.6768 115.004 43.8164C115.16 44.2396 115.41 44.5591 115.753 44.7749C116.1 44.9865 116.491 45.0923 116.927 45.0923C117.27 45.0923 117.602 45.0457 117.924 44.9526C118.25 44.8553 118.59 44.7051 118.946 44.502L119.422 45.3081C118.99 45.6043 118.556 45.8244 118.121 45.9683C117.685 46.1121 117.232 46.1841 116.762 46.1841C116.318 46.1841 115.905 46.11 115.524 45.9619C115.148 45.8138 114.822 45.5938 114.547 45.3018C114.276 45.0098 114.062 44.6458 113.906 44.21C113.753 43.7741 113.677 43.2663 113.677 42.6865C113.677 42.2168 113.743 41.7746 113.874 41.3599C114.005 40.9409 114.2 40.577 114.458 40.2681C114.72 39.9549 115.044 39.7074 115.429 39.5254C115.814 39.3434 116.263 39.2524 116.775 39.2524C117.27 39.2524 117.683 39.3286 118.013 39.481C118.347 39.6291 118.618 39.828 118.825 40.0776C119.037 40.3231 119.195 40.6045 119.301 40.9219C119.411 41.2393 119.487 41.563 119.53 41.8931C119.551 42.0539 119.564 42.2168 119.568 42.3818C119.576 42.5469 119.581 42.7077 119.581 42.8643H114.845ZM116.692 40.2427C116.417 40.2427 116.176 40.2829 115.969 40.3633C115.766 40.4395 115.592 40.5516 115.448 40.6997C115.304 40.8436 115.188 41.0213 115.099 41.2329C115.014 41.4445 114.951 41.6815 114.909 41.9438H118.317C118.3 41.6984 118.26 41.472 118.197 41.2646C118.138 41.0573 118.044 40.8774 117.917 40.7251C117.791 40.5728 117.628 40.4543 117.429 40.3696C117.23 40.285 116.984 40.2427 116.692 40.2427ZM120.685 39.4238H122.767V40.5156H122.462L123.611 44.7114L125.186 39.4238H126.176L127.68 44.6987L128.88 40.5156H128.499V39.4238H130.581V40.5156H130.016L128.213 46.1016H127.122L125.63 40.8521L124.145 46.1016H123.04L121.25 40.5156H120.685V39.4238ZM135.469 45.3906C135.219 45.6234 134.942 45.8138 134.637 45.9619C134.337 46.11 133.994 46.1841 133.609 46.1841C133.287 46.1841 132.991 46.1333 132.72 46.0317C132.454 45.9302 132.223 45.7926 132.028 45.6191C131.834 45.4414 131.681 45.2362 131.571 45.0034C131.465 44.7707 131.413 44.5231 131.413 44.2607C131.413 43.9814 131.453 43.7339 131.533 43.5181C131.618 43.3022 131.728 43.116 131.863 42.9595C132.003 42.7987 132.164 42.6654 132.346 42.5596C132.532 42.4495 132.724 42.3628 132.923 42.2993C133.126 42.2316 133.332 42.1851 133.539 42.1597C133.751 42.13 133.952 42.1152 134.142 42.1152C134.447 42.1152 134.703 42.1258 134.91 42.147C135.118 42.1639 135.306 42.1893 135.475 42.2231L135.481 41.6836C135.481 41.4508 135.448 41.2498 135.38 41.0806C135.312 40.9071 135.217 40.7653 135.094 40.6553C134.972 40.541 134.823 40.4564 134.65 40.4014C134.481 40.3464 134.29 40.3188 134.079 40.3188C133.88 40.3188 133.689 40.3337 133.507 40.3633C133.325 40.3887 133.154 40.4246 132.993 40.4712C132.837 40.5135 132.691 40.5643 132.555 40.6235C132.424 40.6785 132.312 40.7378 132.219 40.8013L131.832 39.9824C131.988 39.8809 132.16 39.7878 132.346 39.7031C132.532 39.6143 132.727 39.5402 132.93 39.481C133.137 39.4175 133.347 39.3688 133.558 39.335C133.774 39.2969 133.986 39.2778 134.193 39.2778C134.574 39.2778 134.917 39.3244 135.221 39.4175C135.526 39.5063 135.784 39.646 135.996 39.8364C136.207 40.0269 136.37 40.2702 136.484 40.5664C136.599 40.8584 136.656 41.2096 136.656 41.6201L136.649 44.9082H137.379V46H135.469V45.3906ZM133.869 45.1938C134.026 45.1938 134.182 45.1748 134.339 45.1367C134.495 45.0986 134.644 45.0479 134.783 44.9844C134.923 44.9167 135.052 44.8405 135.17 44.7559C135.289 44.667 135.388 44.576 135.469 44.4829L135.475 42.9976H134.104C133.875 42.9976 133.666 43.0229 133.476 43.0737C133.289 43.1245 133.126 43.1986 132.987 43.2959C132.851 43.3932 132.746 43.5138 132.669 43.6577C132.593 43.8016 132.555 43.9666 132.555 44.1528C132.555 44.3263 132.587 44.4787 132.65 44.6099C132.714 44.7368 132.803 44.8447 132.917 44.9336C133.035 45.0182 133.175 45.0838 133.336 45.1304C133.497 45.1727 133.674 45.1938 133.869 45.1938ZM138.274 39.4238H140.769V40.5156H139.988L141.531 44.7114L143.143 40.5156H142.369V39.4238H144.863V40.5156H144.184L141.258 47.8979H142.159V48.9897H139.506V47.8979H140.306L141.004 46.0889L138.808 40.5156H138.274V39.4238Z" fill="#4B8E93"/>
<path d="M176.617 142.74H177.54L176.661 140.221H172.391L171.534 142.74H172.677V144H169.073V142.74H170.04L173.497 132.896H175.658L179.107 142.74H180.221V144H176.617V142.74ZM172.809 139.005H176.236L174.508 134.039L172.809 139.005ZM181.341 132.896H185.831C186.329 132.896 186.786 132.962 187.201 133.094C187.621 133.221 187.982 133.412 188.285 133.666C188.592 133.915 188.829 134.227 188.995 134.603C189.166 134.979 189.251 135.411 189.251 135.899C189.251 136.305 189.168 136.688 189.002 137.049C188.836 137.406 188.602 137.718 188.299 137.987C187.997 138.255 187.633 138.468 187.208 138.624C186.788 138.78 186.319 138.858 185.802 138.858H183.832V142.74H184.945V144H181.341V142.74H182.396V134.164H181.341V132.896ZM183.832 134.164V137.657H185.831C186.109 137.657 186.363 137.621 186.593 137.547C186.827 137.469 187.027 137.357 187.193 137.21C187.364 137.064 187.496 136.881 187.589 136.661C187.687 136.441 187.735 136.188 187.735 135.899C187.735 135.353 187.569 134.928 187.237 134.625C186.905 134.317 186.375 134.164 185.648 134.164H183.832ZM190.658 132.896H194.203V134.164H193.148V142.74H194.203V144H190.658V142.74H191.712V134.164H190.658V132.896Z" fill="#4B8E93"/>
<path d="M249.852 163.22C249.085 163.22 248.385 163.078 247.75 162.795C247.115 162.507 246.549 162.099 246.051 161.572C245.553 161.044 245.174 160.419 244.916 159.697C244.657 158.974 244.527 158.225 244.527 157.448C244.527 156.647 244.657 155.896 244.916 155.192C245.179 154.489 245.545 153.879 246.014 153.361C246.488 152.839 247.049 152.429 247.699 152.131C248.353 151.828 249.071 151.677 249.852 151.677C250.638 151.677 251.358 151.828 252.013 152.131C252.667 152.429 253.229 152.839 253.697 153.361C254.166 153.879 254.53 154.489 254.789 155.192C255.047 155.896 255.177 156.647 255.177 157.448C255.177 158.249 255.045 159.001 254.781 159.704C254.522 160.402 254.156 161.013 253.683 161.535C253.214 162.058 252.652 162.47 251.998 162.773C251.349 163.071 250.633 163.22 249.852 163.22ZM249.852 161.857C250.433 161.857 250.958 161.738 251.427 161.499C251.9 161.259 252.303 160.939 252.635 160.539C252.967 160.134 253.224 159.665 253.404 159.133C253.585 158.601 253.675 158.039 253.675 157.448C253.675 156.843 253.575 156.259 253.375 155.698C253.18 155.131 252.904 154.653 252.547 154.262C252.196 153.872 251.786 153.571 251.317 153.361C250.848 153.146 250.36 153.039 249.852 153.039C249.271 153.039 248.744 153.159 248.27 153.398C247.796 153.637 247.394 153.959 247.062 154.365C246.729 154.765 246.473 155.234 246.292 155.771C246.112 156.303 246.021 156.862 246.021 157.448C246.021 158.132 246.122 158.742 246.322 159.279C246.522 159.812 246.786 160.256 247.113 160.612C247.445 160.964 247.838 161.259 248.292 161.499C248.751 161.738 249.271 161.857 249.852 161.857ZM261.893 157.016H260.501V156.547C260.34 156.547 260.174 156.579 260.003 156.643C259.837 156.701 259.681 156.794 259.535 156.921C259.388 157.043 259.259 157.202 259.146 157.397C259.039 157.587 258.961 157.814 258.912 158.078V161.74H260.201V163H256.437V161.74H257.484L257.491 156.672H256.437V155.412H258.861V156.459C258.949 156.303 259.046 156.159 259.154 156.027C259.266 155.891 259.388 155.773 259.52 155.676C259.657 155.573 259.806 155.495 259.967 155.441C260.133 155.383 260.311 155.354 260.501 155.354C260.755 155.354 260.995 155.354 261.219 155.354C261.444 155.354 261.668 155.358 261.893 155.368V157.016ZM267.943 151.604H270.338V161.74H271.451V163H268.976V162.377C268.731 162.626 268.448 162.822 268.126 162.963C267.804 163.1 267.438 163.168 267.027 163.168C266.515 163.168 266.036 163.081 265.592 162.905C265.152 162.724 264.769 162.463 264.442 162.121C264.12 161.774 263.866 161.352 263.68 160.854C263.5 160.351 263.409 159.777 263.409 159.133C263.409 158.547 263.497 158.015 263.673 157.536C263.849 157.053 264.098 156.643 264.42 156.306C264.742 155.964 265.13 155.7 265.584 155.515C266.039 155.324 266.544 155.229 267.101 155.229C267.467 155.229 267.801 155.271 268.104 155.354C268.407 155.432 268.697 155.571 268.976 155.771V152.863H267.943V151.604ZM267.203 161.982C267.608 161.982 267.948 161.923 268.221 161.806C268.495 161.684 268.746 161.503 268.976 161.264V157.016C268.731 156.811 268.451 156.662 268.133 156.569C267.816 156.477 267.491 156.43 267.159 156.43C266.837 156.43 266.534 156.491 266.251 156.613C265.968 156.73 265.719 156.904 265.504 157.133C265.294 157.363 265.128 157.644 265.006 157.976C264.884 158.308 264.823 158.688 264.823 159.118C264.823 159.587 264.881 160 264.999 160.356C265.116 160.712 265.279 161.013 265.489 161.257C265.699 161.496 265.951 161.677 266.244 161.799C266.537 161.921 266.856 161.982 267.203 161.982ZM274.044 159.382C274.044 159.597 274.059 159.794 274.088 159.975C274.122 160.151 274.168 160.319 274.227 160.48C274.408 160.969 274.696 161.337 275.091 161.586C275.492 161.831 275.943 161.953 276.446 161.953C276.842 161.953 277.225 161.899 277.596 161.792C277.972 161.679 278.365 161.506 278.775 161.271L279.325 162.202C278.827 162.543 278.326 162.797 277.823 162.963C277.32 163.129 276.798 163.212 276.256 163.212C275.743 163.212 275.267 163.127 274.828 162.956C274.393 162.785 274.017 162.531 273.7 162.194C273.387 161.857 273.141 161.438 272.96 160.935C272.784 160.432 272.696 159.846 272.696 159.177C272.696 158.635 272.772 158.125 272.923 157.646C273.075 157.163 273.299 156.743 273.597 156.386C273.9 156.025 274.273 155.739 274.718 155.529C275.162 155.319 275.68 155.214 276.271 155.214C276.842 155.214 277.318 155.302 277.699 155.478C278.084 155.649 278.397 155.878 278.636 156.167C278.88 156.45 279.063 156.774 279.186 157.141C279.312 157.507 279.4 157.88 279.449 158.261C279.474 158.447 279.488 158.635 279.493 158.825C279.503 159.016 279.508 159.201 279.508 159.382H274.044ZM276.175 156.357C275.858 156.357 275.58 156.403 275.34 156.496C275.106 156.584 274.906 156.713 274.74 156.884C274.574 157.05 274.439 157.255 274.337 157.5C274.239 157.744 274.166 158.017 274.117 158.32H278.05C278.031 158.037 277.984 157.775 277.911 157.536C277.843 157.297 277.735 157.089 277.589 156.914C277.442 156.738 277.254 156.601 277.025 156.503C276.795 156.406 276.512 156.357 276.175 156.357ZM286.825 157.016H285.433V156.547C285.272 156.547 285.106 156.579 284.935 156.643C284.769 156.701 284.613 156.794 284.466 156.921C284.32 157.043 284.19 157.202 284.078 157.397C283.971 157.587 283.893 157.814 283.844 158.078V161.74H285.133V163H281.368V161.74H282.416L282.423 156.672H281.368V155.412H283.792V156.459C283.88 156.303 283.978 156.159 284.085 156.027C284.198 155.891 284.32 155.773 284.452 155.676C284.588 155.573 284.737 155.495 284.898 155.441C285.064 155.383 285.243 155.354 285.433 155.354C285.687 155.354 285.926 155.354 286.151 155.354C286.375 155.354 286.6 155.358 286.825 155.368V157.016ZM292.779 157.448C292.779 157.243 292.73 157.07 292.633 156.928C292.54 156.782 292.418 156.665 292.267 156.577C292.115 156.484 291.947 156.418 291.761 156.379C291.576 156.335 291.395 156.313 291.219 156.313C291.024 156.313 290.843 156.335 290.677 156.379C290.516 156.423 290.377 156.486 290.26 156.569C290.143 156.652 290.05 156.755 289.981 156.877C289.918 156.994 289.886 157.126 289.886 157.272C289.886 157.526 289.962 157.729 290.113 157.88C290.27 158.027 290.528 158.164 290.89 158.291L292.347 158.803C292.972 159.013 293.429 159.299 293.717 159.66C294.005 160.021 294.149 160.454 294.149 160.957C294.149 161.293 294.081 161.604 293.944 161.887C293.812 162.165 293.622 162.404 293.373 162.604C293.128 162.8 292.833 162.951 292.486 163.059C292.14 163.171 291.754 163.227 291.329 163.227C290.738 163.227 290.257 163.132 289.886 162.941C289.515 162.751 289.229 162.5 289.029 162.187H288.268V160.927H289.784C289.784 161.137 289.828 161.318 289.916 161.469C290.008 161.616 290.128 161.735 290.274 161.828C290.426 161.921 290.594 161.989 290.78 162.033C290.97 162.077 291.163 162.099 291.358 162.099C291.549 162.099 291.732 162.077 291.908 162.033C292.083 161.984 292.237 161.916 292.369 161.828C292.506 161.735 292.613 161.625 292.691 161.499C292.77 161.372 292.809 161.228 292.809 161.066C292.809 160.822 292.728 160.615 292.567 160.444C292.411 160.273 292.142 160.119 291.761 159.982L290.311 159.44C289.72 159.23 289.281 158.964 288.993 158.642C288.709 158.315 288.568 157.907 288.568 157.419C288.568 157.097 288.626 156.799 288.744 156.525C288.866 156.252 289.039 156.018 289.264 155.822C289.493 155.622 289.771 155.466 290.099 155.354C290.426 155.241 290.799 155.185 291.219 155.185C291.761 155.185 292.215 155.261 292.582 155.412C292.948 155.563 293.277 155.822 293.57 156.188H294.281V157.448H292.779Z" fill="#4B8E93"/>
<path d="M475.928 99.8262C475.601 99.2695 475.167 98.8325 474.625 98.5151C474.087 98.1978 473.487 98.0391 472.823 98.0391C472.256 98.0391 471.739 98.1587 471.27 98.3979C470.801 98.6372 470.398 98.9595 470.062 99.3647C469.729 99.7651 469.471 100.231 469.285 100.764C469.1 101.291 469.007 101.848 469.007 102.434C469.007 103.127 469.109 103.742 469.314 104.279C469.52 104.812 469.786 105.256 470.113 105.612C470.445 105.964 470.838 106.259 471.292 106.499C471.746 106.733 472.256 106.85 472.823 106.85C473.594 106.85 474.266 106.665 474.837 106.293C475.408 105.917 475.896 105.302 476.302 104.448L477.591 105.056C477.405 105.583 477.09 106.093 476.646 106.586C476.202 107.075 475.652 107.47 474.998 107.773C474.349 108.071 473.628 108.22 472.837 108.22C472.081 108.22 471.385 108.078 470.75 107.795C470.115 107.507 469.549 107.099 469.051 106.572C468.558 106.044 468.179 105.419 467.916 104.697C467.657 103.974 467.527 103.22 467.527 102.434C467.527 101.643 467.657 100.896 467.916 100.192C468.179 99.4893 468.545 98.8789 469.014 98.3613C469.488 97.8389 470.049 97.4287 470.699 97.1309C471.353 96.8281 472.061 96.6768 472.823 96.6768C473.501 96.6768 474.087 96.7744 474.581 96.9697C475.074 97.1602 475.491 97.3896 475.833 97.6582C476.18 97.9219 476.478 98.21 476.727 98.5225H477.503V99.8262H475.928ZM483.362 100.412H485.809V106.74H486.651V108H484.439V107.297C484.097 107.561 483.724 107.766 483.318 107.912C482.918 108.059 482.488 108.132 482.029 108.132C481.648 108.132 481.302 108.078 480.989 107.971C480.682 107.858 480.418 107.688 480.198 107.458C479.983 107.224 479.817 106.928 479.7 106.572C479.583 106.215 479.524 105.791 479.524 105.297V101.672H478.499V100.412H480.945V105.136C480.945 105.717 481.08 106.157 481.348 106.455C481.617 106.752 482.002 106.901 482.505 106.901C482.803 106.901 483.116 106.848 483.443 106.74C483.775 106.633 484.087 106.484 484.38 106.293V101.672H483.362V100.412ZM493.06 102.448C493.06 102.243 493.011 102.07 492.913 101.928C492.82 101.782 492.698 101.665 492.547 101.577C492.396 101.484 492.227 101.418 492.042 101.379C491.856 101.335 491.675 101.313 491.5 101.313C491.304 101.313 491.124 101.335 490.958 101.379C490.796 101.423 490.657 101.486 490.54 101.569C490.423 101.652 490.33 101.755 490.262 101.877C490.198 101.994 490.167 102.126 490.167 102.272C490.167 102.526 490.242 102.729 490.394 102.88C490.55 103.027 490.809 103.164 491.17 103.291L492.627 103.803C493.252 104.013 493.709 104.299 493.997 104.66C494.285 105.021 494.429 105.454 494.429 105.957C494.429 106.293 494.361 106.604 494.224 106.887C494.092 107.165 493.902 107.404 493.653 107.604C493.409 107.8 493.113 107.951 492.767 108.059C492.42 108.171 492.034 108.227 491.609 108.227C491.019 108.227 490.538 108.132 490.167 107.941C489.795 107.751 489.51 107.5 489.31 107.187H488.548V105.927H490.064C490.064 106.137 490.108 106.318 490.196 106.469C490.289 106.616 490.408 106.735 490.555 106.828C490.706 106.921 490.875 106.989 491.06 107.033C491.25 107.077 491.443 107.099 491.639 107.099C491.829 107.099 492.012 107.077 492.188 107.033C492.364 106.984 492.518 106.916 492.649 106.828C492.786 106.735 492.894 106.625 492.972 106.499C493.05 106.372 493.089 106.228 493.089 106.066C493.089 105.822 493.008 105.615 492.847 105.444C492.691 105.273 492.422 105.119 492.042 104.982L490.591 104.44C490 104.23 489.561 103.964 489.273 103.642C488.99 103.315 488.848 102.907 488.848 102.419C488.848 102.097 488.907 101.799 489.024 101.525C489.146 101.252 489.319 101.018 489.544 100.822C489.773 100.622 490.052 100.466 490.379 100.354C490.706 100.241 491.08 100.185 491.5 100.185C492.042 100.185 492.496 100.261 492.862 100.412C493.228 100.563 493.558 100.822 493.851 101.188H494.561V102.448H493.06ZM498.157 100.412H499.937V101.518H498.143L498.121 105.898C498.121 106.196 498.155 106.438 498.223 106.623C498.292 106.809 498.401 106.938 498.553 107.011C498.704 107.08 498.875 107.114 499.065 107.114C499.271 107.114 499.451 107.097 499.607 107.062C499.764 107.023 499.935 106.96 500.12 106.872L500.435 107.788C500.201 107.91 499.954 108.005 499.695 108.073C499.437 108.146 499.131 108.183 498.78 108.183C498.448 108.183 498.157 108.142 497.908 108.059C497.664 107.98 497.457 107.846 497.286 107.656C497.12 107.465 496.995 107.211 496.912 106.894C496.829 106.572 496.788 106.171 496.788 105.693L496.81 101.518H495.601V100.412H496.824V98.5957L498.157 97.9658V100.412ZM501.438 104.206C501.443 103.605 501.539 103.059 501.724 102.565C501.915 102.072 502.178 101.65 502.515 101.298C502.852 100.942 503.252 100.668 503.716 100.478C504.18 100.288 504.69 100.192 505.247 100.192C505.809 100.192 506.321 100.288 506.785 100.478C507.254 100.668 507.654 100.939 507.986 101.291C508.318 101.638 508.577 102.058 508.763 102.551C508.948 103.044 509.041 103.591 509.041 104.191C509.041 104.782 508.948 105.327 508.763 105.825C508.577 106.318 508.318 106.743 507.986 107.099C507.654 107.456 507.254 107.734 506.785 107.934C506.321 108.129 505.809 108.227 505.247 108.227C504.676 108.227 504.158 108.129 503.694 107.934C503.23 107.739 502.833 107.465 502.5 107.114C502.168 106.757 501.91 106.333 501.724 105.839C501.539 105.346 501.443 104.802 501.438 104.206ZM502.881 104.206C502.881 104.641 502.942 105.034 503.064 105.385C503.191 105.737 503.362 106.037 503.577 106.286C503.797 106.53 504.048 106.721 504.332 106.857C504.62 106.989 504.925 107.055 505.247 107.055C505.584 107.055 505.896 106.989 506.185 106.857C506.478 106.726 506.731 106.538 506.946 106.293C507.161 106.044 507.33 105.744 507.452 105.393C507.574 105.041 507.635 104.646 507.635 104.206C507.635 103.747 507.574 103.339 507.452 102.983C507.33 102.626 507.161 102.329 506.946 102.089C506.736 101.85 506.485 101.669 506.192 101.547C505.899 101.425 505.584 101.364 505.247 101.364C504.925 101.364 504.62 101.425 504.332 101.547C504.048 101.669 503.797 101.85 503.577 102.089C503.362 102.329 503.191 102.626 503.064 102.983C502.942 103.339 502.881 103.747 502.881 104.206ZM510.521 100.412H512.938V101.298H512.952C513.118 101.157 513.292 101.025 513.472 100.903C513.658 100.776 513.851 100.666 514.051 100.573C514.251 100.48 514.458 100.407 514.673 100.354C514.893 100.3 515.12 100.273 515.354 100.273C515.901 100.273 516.373 100.375 516.768 100.581C517.164 100.781 517.469 101.096 517.684 101.525C517.869 101.359 518.064 101.201 518.27 101.049C518.475 100.893 518.687 100.759 518.907 100.646C519.131 100.534 519.366 100.444 519.61 100.375C519.854 100.307 520.108 100.273 520.372 100.273C520.782 100.273 521.15 100.329 521.478 100.441C521.805 100.554 522.083 100.725 522.312 100.954C522.542 101.184 522.715 101.479 522.833 101.84C522.955 102.197 523.016 102.619 523.016 103.107V106.74H524.07V108H520.525V106.74H521.595V103.276C521.595 102.695 521.448 102.255 521.155 101.958C520.862 101.655 520.44 101.503 519.888 101.503C519.561 101.503 519.227 101.582 518.885 101.738C518.543 101.894 518.25 102.092 518.006 102.331V106.74H519.053V108H515.516V106.74H516.585V103.276C516.585 102.695 516.436 102.255 516.138 101.958C515.845 101.655 515.423 101.503 514.871 101.503C514.554 101.503 514.234 101.579 513.912 101.73C513.589 101.882 513.284 102.07 512.996 102.294V106.74H514.065V108H510.521V106.74H511.575V101.672H510.521V100.412ZM526.824 104.382C526.824 104.597 526.839 104.794 526.868 104.975C526.902 105.151 526.949 105.319 527.007 105.48C527.188 105.969 527.476 106.337 527.872 106.586C528.272 106.831 528.724 106.953 529.227 106.953C529.622 106.953 530.005 106.899 530.376 106.792C530.752 106.679 531.146 106.506 531.556 106.271L532.105 107.202C531.607 107.543 531.106 107.797 530.604 107.963C530.101 108.129 529.578 108.212 529.036 108.212C528.523 108.212 528.047 108.127 527.608 107.956C527.173 107.785 526.797 107.531 526.48 107.194C526.167 106.857 525.921 106.438 525.74 105.935C525.564 105.432 525.477 104.846 525.477 104.177C525.477 103.635 525.552 103.125 525.704 102.646C525.855 102.163 526.08 101.743 526.377 101.386C526.68 101.025 527.054 100.739 527.498 100.529C527.942 100.319 528.46 100.214 529.051 100.214C529.622 100.214 530.098 100.302 530.479 100.478C530.865 100.649 531.177 100.878 531.417 101.167C531.661 101.45 531.844 101.774 531.966 102.141C532.093 102.507 532.181 102.88 532.229 103.261C532.254 103.447 532.269 103.635 532.273 103.825C532.283 104.016 532.288 104.201 532.288 104.382H526.824ZM528.956 101.357C528.638 101.357 528.36 101.403 528.121 101.496C527.886 101.584 527.686 101.713 527.52 101.884C527.354 102.05 527.22 102.255 527.117 102.5C527.02 102.744 526.946 103.017 526.897 103.32H530.831C530.811 103.037 530.765 102.775 530.691 102.536C530.623 102.297 530.516 102.089 530.369 101.914C530.223 101.738 530.035 101.601 529.805 101.503C529.576 101.406 529.292 101.357 528.956 101.357ZM539.605 102.016H538.213V101.547C538.052 101.547 537.886 101.579 537.715 101.643C537.549 101.701 537.393 101.794 537.247 101.921C537.1 102.043 536.971 102.202 536.858 102.397C536.751 102.587 536.673 102.814 536.624 103.078V106.74H537.913V108H534.148V106.74H535.196L535.203 101.672H534.148V100.412H536.573V101.459C536.661 101.303 536.758 101.159 536.866 101.027C536.978 100.891 537.1 100.773 537.232 100.676C537.369 100.573 537.518 100.495 537.679 100.441C537.845 100.383 538.023 100.354 538.213 100.354C538.467 100.354 538.707 100.354 538.931 100.354C539.156 100.354 539.38 100.358 539.605 100.368V102.016ZM541.136 104.367V103.107H545.171V104.367H541.136ZM546.9 96.8965H550.445V98.1636H549.39V106.74H550.445V108H546.9V106.74H547.955V98.1636H546.9V96.8965ZM552.54 96.8965H556.67C557.178 96.8965 557.662 96.9624 558.121 97.0942C558.58 97.2261 559.007 97.4116 559.402 97.6509C559.798 97.8901 560.157 98.1782 560.479 98.5151C560.801 98.8472 561.075 99.2183 561.299 99.6284C561.529 100.039 561.705 100.48 561.827 100.954C561.949 101.423 562.01 101.911 562.01 102.419C562.01 102.937 561.949 103.432 561.827 103.906C561.705 104.379 561.529 104.824 561.299 105.239C561.075 105.654 560.801 106.032 560.479 106.374C560.157 106.711 559.798 107.001 559.402 107.246C559.007 107.485 558.58 107.67 558.121 107.802C557.662 107.934 557.178 108 556.67 108H552.54V106.74H553.594V98.1636H552.54V96.8965ZM555.03 98.1636V106.74H556.758C557.271 106.74 557.752 106.628 558.201 106.403C558.655 106.179 559.051 105.874 559.388 105.488C559.725 105.097 559.991 104.641 560.186 104.118C560.381 103.591 560.479 103.024 560.479 102.419C560.479 101.823 560.381 101.267 560.186 100.749C559.991 100.231 559.725 99.7822 559.388 99.4014C559.051 99.0156 558.655 98.7129 558.201 98.4932C557.752 98.2734 557.271 98.1636 556.758 98.1636H555.03Z" fill="#4B8E93"/>
<path d="M444 85.6941L425 72.8471L444 60" stroke="#4B8E93" stroke-width="2" stroke-linecap="round" stroke-linejoin="round"/>
<path d="M426 138H436.286C451.714 138 462 131.485 462 121.712V89.1353C462 79.3624 451.714 72.8471 436.286 72.8471H426" stroke="#4B8E93" stroke-width="2" stroke-miterlimit="10" stroke-linecap="round" stroke-linejoin="round"/>
<rect x="80" y="1" width="76" height="214" rx="7" stroke="#4B8E93" stroke-width="2"/>
<path d="M60.8164 80.75L43 93.875L60.8164 107" stroke="#4B8E93" stroke-width="2" stroke-linecap="round" stroke-linejoin="round"/>
<path d="M210.013 65V83.375C210.013 86.1598 208.511 88.8305 205.838 90.7996C203.165 92.7688 199.54 93.875 195.76 93.875H153" stroke="#4B8E93" stroke-width="2" stroke-linecap="round" stroke-linejoin="round"/>
<path d="M45.0002 94H152" stroke="#4B8E93" stroke-width="2" stroke-linecap="round"/>
<path d="M60.8164 139.25L43 126.125L60.8164 113" stroke="#4B8E93" stroke-width="2" stroke-linecap="round" stroke-linejoin="round"/>
<path d="M210.013 155V136.625C210.013 133.84 208.511 131.17 205.838 129.2C203.165 127.231 199.54 126.125 195.76 126.125H153" stroke="#4B8E93" stroke-width="2" stroke-linecap="round" stroke-linejoin="round"/>
<path d="M45.0002 126H152" stroke="#4B8E93" stroke-width="2" stroke-linecap="round"/>
</svg>
