<svg width="426" height="216" viewBox="0 0 426 216" fill="none" xmlns="http://www.w3.org/2000/svg">
<path d="M292.931 32.9892L245.535 32.9953C243.457 32.9969 241.416 33.329 239.617 33.9583C237.819 34.5877 236.325 35.4921 235.286 36.5809L211.591 61.6737C210.551 62.7636 210.004 63.9998 210.004 65.2581C210.004 66.5165 210.552 67.7526 211.592 68.8422L235.293 93.9289C236.332 95.0174 237.826 95.9214 239.626 96.5503C241.425 97.1792 243.465 97.5108 245.543 97.5118L292.939 97.5057C295.017 97.5041 297.058 97.172 298.857 96.5427C300.656 95.9133 302.15 95.0089 303.188 93.9201L326.883 68.8273C327.923 67.7374 328.47 66.5012 328.47 65.2429C328.47 63.9845 327.922 62.7484 326.882 61.6588L303.181 36.5722C302.142 35.4836 300.648 34.5796 298.849 33.9507C297.05 33.3218 295.009 32.9903 292.931 32.9892Z" stroke="#4B8E93" stroke-width="2" stroke-linecap="round" stroke-linejoin="round"/>
<path d="M292.931 123.989L245.535 123.995C243.457 123.997 241.416 124.329 239.617 124.958C237.819 125.588 236.325 126.492 235.286 127.581L211.591 152.674C210.551 153.764 210.004 155 210.004 156.258C210.004 157.516 210.552 158.753 211.592 159.842L235.293 184.929C236.332 186.017 237.826 186.921 239.626 187.55C241.425 188.179 243.465 188.511 245.543 188.512L292.939 188.506C295.017 188.504 297.058 188.172 298.857 187.543C300.656 186.913 302.15 186.009 303.188 184.92L326.883 159.827C327.923 158.737 328.47 157.501 328.47 156.243C328.47 154.985 327.922 153.748 326.882 152.659L303.181 127.572C302.142 126.484 300.648 125.58 298.849 124.951C297.05 124.322 295.009 123.99 292.931 123.989Z" stroke="#4B8E93" stroke-width="2" stroke-linecap="round" stroke-linejoin="round"/>
<path d="M397 50.2C412.464 50.2 425 45.9019 425 40.6C425 35.2981 412.464 31 397 31C381.536 31 369 35.2981 369 40.6C369 45.9019 381.536 50.2 397 50.2Z" stroke="#4B8E93" stroke-width="2" stroke-linecap="round" stroke-linejoin="round"/>
<path d="M425 63C425 68.312 412.556 72.6 397 72.6C381.444 72.6 369 68.312 369 63" stroke="#4B8E93" stroke-width="2" stroke-linecap="round" stroke-linejoin="round"/>
<path d="M369 40.6001V85.4001C369 90.7121 381.444 95.0001 397 95.0001C412.556 95.0001 425 90.7121 425 85.4001V40.6001" stroke="#4B8E93" stroke-width="2" stroke-linecap="round" stroke-linejoin="round"/>
<path d="M397 141.2C412.464 141.2 425 136.902 425 131.6C425 126.298 412.464 122 397 122C381.536 122 369 126.298 369 131.6C369 136.902 381.536 141.2 397 141.2Z" stroke="#4B8E93" stroke-width="2" stroke-linecap="round" stroke-linejoin="round"/>
<path d="M425 154C425 159.312 412.556 163.6 397 163.6C381.444 163.6 369 159.312 369 154" stroke="#4B8E93" stroke-width="2" stroke-linecap="round" stroke-linejoin="round"/>
<path d="M369 131.6V176.4C369 181.712 381.444 186 397 186C412.556 186 425 181.712 425 176.4V131.6" stroke="#4B8E93" stroke-width="2" stroke-linecap="round" stroke-linejoin="round"/>
<path d="M329 65H368M368 65L348.5 53M368 65L348.5 77" stroke="#4B8E93" stroke-width="2" stroke-linecap="round" stroke-linejoin="round"/>
<path d="M329 156H368M368 156L348.5 144M368 156L348.5 168" stroke="#4B8E93" stroke-width="2" stroke-linecap="round" stroke-linejoin="round"/>
<path d="M36.875 80H6.125C3.29454 80 1 82.7423 1 86.125V135.125C1 138.508 3.29454 141.25 6.125 141.25H36.875C39.7055 141.25 42 138.508 42 135.125V86.125C42 82.7423 39.7055 80 36.875 80Z" stroke="#4B8E93" stroke-width="2" stroke-linecap="round" stroke-linejoin="round"/>
<path d="M21.5 129H21.5256" stroke="#4B8E93" stroke-width="2" stroke-linecap="round" stroke-linejoin="round"/>
<path d="M240.112 64.4482C240.112 64.2432 240.063 64.0698 239.966 63.9282C239.873 63.7817 239.751 63.6646 239.6 63.5767C239.448 63.4839 239.28 63.418 239.094 63.3789C238.909 63.335 238.728 63.313 238.552 63.313C238.357 63.313 238.176 63.335 238.01 63.3789C237.849 63.4229 237.71 63.4863 237.593 63.5693C237.476 63.6523 237.383 63.7549 237.314 63.877C237.251 63.9941 237.219 64.126 237.219 64.2725C237.219 64.5264 237.295 64.729 237.446 64.8804C237.603 65.0269 237.861 65.1636 238.223 65.2905L239.68 65.8032C240.305 66.0132 240.762 66.2988 241.05 66.6602C241.338 67.0215 241.482 67.4536 241.482 67.9565C241.482 68.2935 241.414 68.6035 241.277 68.8867C241.145 69.165 240.955 69.4043 240.706 69.6045C240.461 69.7998 240.166 69.9512 239.819 70.0586C239.473 70.1709 239.087 70.2271 238.662 70.2271C238.071 70.2271 237.59 70.1318 237.219 69.9414C236.848 69.751 236.562 69.4995 236.362 69.187H235.601V67.9272H237.117C237.117 68.1372 237.161 68.3179 237.249 68.4692C237.341 68.6157 237.461 68.7354 237.607 68.8281C237.759 68.9209 237.927 68.9893 238.113 69.0332C238.303 69.0771 238.496 69.0991 238.691 69.0991C238.882 69.0991 239.065 69.0771 239.241 69.0332C239.417 68.9844 239.57 68.916 239.702 68.8281C239.839 68.7354 239.946 68.6255 240.024 68.4985C240.103 68.3716 240.142 68.2275 240.142 68.0664C240.142 67.8223 240.061 67.6147 239.9 67.4438C239.744 67.2729 239.475 67.1191 239.094 66.9824L237.644 66.4404C237.053 66.2305 236.614 65.9644 236.326 65.6421C236.042 65.3149 235.901 64.9072 235.901 64.4189C235.901 64.0967 235.959 63.7988 236.077 63.5254C236.199 63.252 236.372 63.0176 236.597 62.8223C236.826 62.6221 237.104 62.4658 237.432 62.3535C237.759 62.2412 238.132 62.1851 238.552 62.1851C239.094 62.1851 239.548 62.2607 239.915 62.4121C240.281 62.5635 240.61 62.8223 240.903 63.1885H241.614V64.4482H240.112ZM244.302 66.3818C244.302 66.5967 244.316 66.7944 244.346 66.9751C244.38 67.1509 244.426 67.3193 244.485 67.4805C244.666 67.9688 244.954 68.3374 245.349 68.5864C245.75 68.8306 246.201 68.9526 246.704 68.9526C247.1 68.9526 247.483 68.8989 247.854 68.7915C248.23 68.6792 248.623 68.5059 249.033 68.2715L249.583 69.2017C249.084 69.5435 248.584 69.7974 248.081 69.9634C247.578 70.1294 247.056 70.2124 246.514 70.2124C246.001 70.2124 245.525 70.127 245.085 69.9561C244.651 69.7852 244.275 69.5312 243.958 69.1943C243.645 68.8574 243.398 68.4375 243.218 67.9346C243.042 67.4316 242.954 66.8457 242.954 66.1768C242.954 65.6348 243.03 65.1245 243.181 64.646C243.333 64.1626 243.557 63.7427 243.855 63.3862C244.158 63.0249 244.531 62.7393 244.976 62.5293C245.42 62.3193 245.938 62.2144 246.528 62.2144C247.1 62.2144 247.576 62.3022 247.957 62.478C248.342 62.6489 248.655 62.8784 248.894 63.1665C249.138 63.4497 249.321 63.7744 249.443 64.1406C249.57 64.5068 249.658 64.8804 249.707 65.2612C249.731 65.4468 249.746 65.6348 249.751 65.8252C249.761 66.0156 249.766 66.2012 249.766 66.3818H244.302ZM246.433 63.3569C246.116 63.3569 245.837 63.4033 245.598 63.4961C245.364 63.584 245.164 63.7134 244.998 63.8843C244.832 64.0503 244.697 64.2554 244.595 64.4995C244.497 64.7437 244.424 65.0171 244.375 65.3198H248.308C248.289 65.0366 248.242 64.7754 248.169 64.5361C248.101 64.2969 247.993 64.0894 247.847 63.9136C247.7 63.7378 247.512 63.6011 247.283 63.5034C247.053 63.4058 246.77 63.3569 246.433 63.3569ZM257.083 64.0161H255.691V63.5474C255.53 63.5474 255.364 63.5791 255.193 63.6426C255.027 63.7012 254.871 63.7939 254.724 63.9209C254.578 64.043 254.448 64.2017 254.336 64.397C254.229 64.5874 254.15 64.8145 254.102 65.0781V68.7402H255.391V70H251.626V68.7402H252.673L252.681 63.6719H251.626V62.4121H254.05V63.4595C254.138 63.3032 254.236 63.1592 254.343 63.0273C254.456 62.8906 254.578 62.7734 254.709 62.6758C254.846 62.5732 254.995 62.4951 255.156 62.4414C255.322 62.3828 255.5 62.3535 255.691 62.3535C255.945 62.3535 256.184 62.3535 256.409 62.3535C256.633 62.3535 256.858 62.3584 257.083 62.3682V64.0161ZM258.071 62.4121H260.693V63.6719H259.983L261.858 68.9014L263.689 63.6719H263.228V62.4121H265.63V63.6719H264.978L262.495 70.1172H261.147L258.672 63.6719H258.071V62.4121ZM266.655 62.4121H269.131V68.7402H270.273V70H266.67V68.7402H267.754V63.6719H266.655V62.4121ZM267.498 59.7241C267.498 59.5972 267.522 59.4775 267.571 59.3652C267.625 59.248 267.693 59.1479 267.776 59.0649C267.864 58.9771 267.966 58.9087 268.083 58.8599C268.201 58.8062 268.325 58.7793 268.457 58.7793C268.584 58.7793 268.704 58.8062 268.816 58.8599C268.933 58.9087 269.033 58.9771 269.116 59.0649C269.204 59.1479 269.272 59.248 269.321 59.3652C269.375 59.4775 269.402 59.5972 269.402 59.7241C269.402 59.856 269.375 59.9805 269.321 60.0977C269.272 60.2148 269.204 60.3198 269.116 60.4126C269.033 60.5005 268.933 60.5713 268.816 60.625C268.704 60.6738 268.584 60.6982 268.457 60.6982C268.325 60.6982 268.201 60.6738 268.083 60.625C267.966 60.5713 267.864 60.5005 267.776 60.4126C267.693 60.3198 267.625 60.2148 267.571 60.0977C267.522 59.9805 267.498 59.856 267.498 59.7241ZM277.012 64.4336C276.807 64.0674 276.545 63.7988 276.228 63.6279C275.916 63.457 275.552 63.3716 275.137 63.3716C274.819 63.3716 274.521 63.4375 274.243 63.5693C273.965 63.7012 273.721 63.8892 273.511 64.1333C273.306 64.3774 273.142 64.6753 273.02 65.0269C272.903 65.3735 272.844 65.7617 272.844 66.1914C272.844 66.6162 272.903 66.9995 273.02 67.3413C273.142 67.6831 273.308 67.9761 273.518 68.2202C273.728 68.4595 273.97 68.645 274.243 68.7769C274.521 68.9038 274.819 68.9673 275.137 68.9673C275.605 68.9673 276.013 68.855 276.36 68.6304C276.707 68.4009 276.982 68.0664 277.188 67.627L278.315 68.1836C278.169 68.4961 277.988 68.7769 277.773 69.0259C277.559 69.2749 277.314 69.4873 277.041 69.6631C276.772 69.8389 276.475 69.9731 276.147 70.0659C275.825 70.1636 275.483 70.2124 275.122 70.2124C274.595 70.2124 274.106 70.1147 273.657 69.9194C273.213 69.7192 272.827 69.4409 272.5 69.0845C272.178 68.728 271.926 68.3032 271.746 67.8101C271.565 67.3169 271.475 66.7773 271.475 66.1914C271.475 65.6055 271.57 65.0659 271.76 64.5728C271.951 64.0796 272.212 63.6572 272.544 63.3057C272.876 62.9492 273.264 62.6709 273.708 62.4707C274.153 62.2705 274.629 62.1704 275.137 62.1704C275.615 62.1704 276.067 62.2534 276.492 62.4194C276.921 62.5854 277.297 62.8369 277.62 63.1738H278.389V64.4336H277.012ZM281.011 66.3818C281.011 66.5967 281.025 66.7944 281.055 66.9751C281.089 67.1509 281.135 67.3193 281.194 67.4805C281.375 67.9688 281.663 68.3374 282.058 68.5864C282.458 68.8306 282.91 68.9526 283.413 68.9526C283.809 68.9526 284.192 68.8989 284.563 68.7915C284.939 68.6792 285.332 68.5059 285.742 68.2715L286.292 69.2017C285.793 69.5435 285.293 69.7974 284.79 69.9634C284.287 70.1294 283.765 70.2124 283.223 70.2124C282.71 70.2124 282.234 70.127 281.794 69.9561C281.36 69.7852 280.984 69.5312 280.667 69.1943C280.354 68.8574 280.107 68.4375 279.927 67.9346C279.751 67.4316 279.663 66.8457 279.663 66.1768C279.663 65.6348 279.739 65.1245 279.89 64.646C280.042 64.1626 280.266 63.7427 280.564 63.3862C280.867 63.0249 281.24 62.7393 281.685 62.5293C282.129 62.3193 282.646 62.2144 283.237 62.2144C283.809 62.2144 284.285 62.3022 284.666 62.478C285.051 62.6489 285.364 62.8784 285.603 63.1665C285.847 63.4497 286.03 63.7744 286.152 64.1406C286.279 64.5068 286.367 64.8804 286.416 65.2612C286.44 65.4468 286.455 65.6348 286.46 65.8252C286.47 66.0156 286.475 66.2012 286.475 66.3818H281.011ZM283.142 63.3569C282.825 63.3569 282.546 63.4033 282.307 63.4961C282.073 63.584 281.873 63.7134 281.707 63.8843C281.541 64.0503 281.406 64.2554 281.304 64.4995C281.206 64.7437 281.133 65.0171 281.084 65.3198H285.017C284.998 65.0366 284.951 64.7754 284.878 64.5361C284.81 64.2969 284.702 64.0894 284.556 63.9136C284.409 63.7378 284.221 63.6011 283.992 63.5034C283.762 63.4058 283.479 63.3569 283.142 63.3569ZM298.501 68.7402H299.424L298.545 66.2207H294.275L293.418 68.7402H294.561V70H290.957V68.7402H291.924L295.381 58.8965H297.542L300.991 68.7402H302.104V70H298.501V68.7402ZM294.692 65.0049H298.12L296.392 60.0391L294.692 65.0049Z" fill="#4B8E93"/>
<path d="M176.617 88.7402H177.54L176.661 86.2207H172.391L171.534 88.7402H172.677V90H169.073V88.7402H170.04L173.497 78.8965H175.658L179.107 88.7402H180.221V90H176.617V88.7402ZM172.809 85.0049H176.236L174.508 80.0391L172.809 85.0049ZM181.341 78.8965H185.831C186.329 78.8965 186.786 78.9624 187.201 79.0942C187.621 79.2212 187.982 79.4116 188.285 79.6655C188.592 79.9146 188.829 80.2271 188.995 80.603C189.166 80.979 189.251 81.4111 189.251 81.8994C189.251 82.3047 189.168 82.688 189.002 83.0493C188.836 83.4058 188.602 83.7183 188.299 83.9868C187.997 84.2554 187.633 84.4678 187.208 84.624C186.788 84.7803 186.319 84.8584 185.802 84.8584H183.832V88.7402H184.945V90H181.341V88.7402H182.396V80.1636H181.341V78.8965ZM183.832 80.1636V83.6572H185.831C186.109 83.6572 186.363 83.6206 186.593 83.5474C186.827 83.4692 187.027 83.3569 187.193 83.2104C187.364 83.064 187.496 82.8809 187.589 82.6611C187.687 82.4414 187.735 82.1875 187.735 81.8994C187.735 81.3525 187.569 80.9277 187.237 80.625C186.905 80.3174 186.375 80.1636 185.648 80.1636H183.832ZM190.658 78.8965H194.203V80.1636H193.148V88.7402H194.203V90H190.658V88.7402H191.712V80.1636H190.658V78.8965Z" fill="#4B8E93"/>
<path d="M113.227 27.9082H114.026L113.265 25.7246H109.564L108.821 27.9082H109.812V29H106.688V27.9082H107.526L110.522 19.377H112.395L115.385 27.9082H116.35V29H113.227V27.9082ZM109.926 24.6709H112.896L111.398 20.3672L109.926 24.6709ZM117.321 19.377H121.212C121.644 19.377 122.039 19.4341 122.399 19.5483C122.763 19.6584 123.076 19.8234 123.338 20.0435C123.605 20.2593 123.81 20.5301 123.954 20.856C124.102 21.1818 124.176 21.5563 124.176 21.9795C124.176 22.3307 124.104 22.6629 123.96 22.9761C123.817 23.285 123.613 23.5558 123.351 23.7886C123.089 24.0213 122.773 24.2054 122.405 24.3408C122.041 24.4762 121.635 24.5439 121.187 24.5439H119.479V27.9082H120.444V29H117.321V27.9082H118.235V20.4751H117.321V19.377ZM119.479 20.4751V23.5029H121.212C121.453 23.5029 121.673 23.4712 121.872 23.4077C122.075 23.34 122.249 23.2427 122.393 23.1157C122.541 22.9888 122.655 22.8301 122.735 22.6396C122.82 22.4492 122.862 22.2292 122.862 21.9795C122.862 21.5055 122.718 21.1374 122.431 20.875C122.143 20.6084 121.684 20.4751 121.053 20.4751H119.479ZM125.395 19.377H128.467V20.4751H127.553V27.9082H128.467V29H125.395V27.9082H126.309V20.4751H125.395V19.377ZM98.792 45.0381V43.1084C98.6312 43.4427 98.4302 43.7347 98.189 43.9844C97.9478 44.2298 97.679 44.4329 97.3828 44.5938C97.0866 44.7546 96.7692 44.8752 96.4307 44.9556C96.0964 45.036 95.7557 45.0762 95.4087 45.0762C94.7824 45.0762 94.2048 44.9725 93.6758 44.7651C93.1468 44.5535 92.6665 44.2192 92.2349 43.7622C91.8075 43.3052 91.4795 42.7635 91.251 42.1372C91.0267 41.5109 90.9146 40.8571 90.9146 40.1758C90.9146 39.4902 91.0267 38.8428 91.251 38.2334C91.4795 37.624 91.7969 37.0929 92.2031 36.6401C92.6136 36.1873 93.1003 35.8319 93.6631 35.5737C94.2301 35.3156 94.8438 35.1865 95.5039 35.1865C96.1133 35.1865 96.6359 35.2733 97.0718 35.4468C97.5119 35.6203 97.8864 35.8319 98.1953 36.0815C98.5085 36.327 98.7581 36.5618 98.9443 36.7861H99.5601V37.916H98.1953C97.9118 37.4336 97.5352 37.0527 97.0654 36.7734C96.5999 36.4941 96.0773 36.3587 95.4976 36.3672C95.0109 36.3672 94.5645 36.4709 94.1582 36.6782C93.752 36.8856 93.4028 37.1649 93.1108 37.5161C92.8231 37.8674 92.5988 38.2715 92.438 38.7285C92.2772 39.1855 92.1968 39.668 92.1968 40.1758C92.1968 40.7386 92.2856 41.2612 92.4634 41.7437C92.6411 42.2261 92.8675 42.6175 93.1426 42.918C93.4176 43.2184 93.7562 43.4681 94.1582 43.667C94.5645 43.8617 95.013 43.959 95.5039 43.959C96.3164 43.959 96.9829 43.7622 97.5034 43.3687C98.0239 42.9709 98.3879 42.353 98.5952 41.5151H95.9038V40.4233H99.9727V45.0381H98.792ZM105.647 44.3906C105.398 44.6234 105.121 44.8138 104.816 44.9619C104.515 45.11 104.173 45.1841 103.788 45.1841C103.466 45.1841 103.17 45.1333 102.899 45.0317C102.632 44.9302 102.402 44.7926 102.207 44.6191C102.012 44.4414 101.86 44.2362 101.75 44.0034C101.644 43.7707 101.591 43.5231 101.591 43.2607C101.591 42.9814 101.632 42.7339 101.712 42.5181C101.797 42.3022 101.907 42.116 102.042 41.9595C102.182 41.7987 102.342 41.6654 102.524 41.5596C102.711 41.4495 102.903 41.3628 103.102 41.2993C103.305 41.2316 103.51 41.1851 103.718 41.1597C103.929 41.13 104.13 41.1152 104.321 41.1152C104.625 41.1152 104.882 41.1258 105.089 41.147C105.296 41.1639 105.485 41.1893 105.654 41.2231L105.66 40.6836C105.66 40.4508 105.626 40.2498 105.559 40.0806C105.491 39.9071 105.396 39.7653 105.273 39.6553C105.15 39.541 105.002 39.4564 104.829 39.4014C104.659 39.3464 104.469 39.3188 104.257 39.3188C104.058 39.3188 103.868 39.3337 103.686 39.3633C103.504 39.3887 103.333 39.4246 103.172 39.4712C103.015 39.5135 102.869 39.5643 102.734 39.6235C102.603 39.6785 102.491 39.7378 102.397 39.8013L102.01 38.9824C102.167 38.8809 102.338 38.7878 102.524 38.7031C102.711 38.6143 102.905 38.5402 103.108 38.481C103.316 38.4175 103.525 38.3688 103.737 38.335C103.953 38.2969 104.164 38.2778 104.372 38.2778C104.752 38.2778 105.095 38.3244 105.4 38.4175C105.705 38.5063 105.963 38.646 106.174 38.8364C106.386 39.0269 106.549 39.2702 106.663 39.5664C106.777 39.8584 106.834 40.2096 106.834 40.6201L106.828 43.9082H107.558V45H105.647V44.3906ZM104.048 44.1938C104.204 44.1938 104.361 44.1748 104.518 44.1367C104.674 44.0986 104.822 44.0479 104.962 43.9844C105.102 43.9167 105.231 43.8405 105.349 43.7559C105.468 43.667 105.567 43.576 105.647 43.4829L105.654 41.9976H104.283C104.054 41.9976 103.845 42.0229 103.654 42.0737C103.468 42.1245 103.305 42.1986 103.166 42.2959C103.03 42.3932 102.924 42.5138 102.848 42.6577C102.772 42.8016 102.734 42.9666 102.734 43.1528C102.734 43.3263 102.766 43.4787 102.829 43.6099C102.893 43.7368 102.981 43.8447 103.096 43.9336C103.214 44.0182 103.354 44.0838 103.515 44.1304C103.675 44.1727 103.853 44.1938 104.048 44.1938ZM110.795 38.4238H112.338V39.3823H110.783L110.764 43.1782C110.764 43.4364 110.793 43.6458 110.853 43.8066C110.912 43.9674 111.007 44.0796 111.138 44.1431C111.269 44.2023 111.417 44.2319 111.583 44.2319C111.76 44.2319 111.917 44.2171 112.052 44.1875C112.188 44.1536 112.336 44.0986 112.497 44.0225L112.77 44.8159C112.566 44.9217 112.353 45.0042 112.128 45.0635C111.904 45.127 111.64 45.1587 111.335 45.1587C111.047 45.1587 110.795 45.1227 110.58 45.0508C110.368 44.9831 110.188 44.8667 110.04 44.7017C109.896 44.5366 109.788 44.3166 109.716 44.0415C109.644 43.7622 109.608 43.4152 109.608 43.0005L109.627 39.3823H108.58V38.4238H109.64V36.8496L110.795 36.3037V38.4238ZM114.845 41.8643C114.845 42.0505 114.858 42.2218 114.883 42.3784C114.913 42.5308 114.953 42.6768 115.004 42.8164C115.16 43.2396 115.41 43.5591 115.753 43.7749C116.1 43.9865 116.491 44.0923 116.927 44.0923C117.27 44.0923 117.602 44.0457 117.924 43.9526C118.25 43.8553 118.59 43.7051 118.946 43.502L119.422 44.3081C118.99 44.6043 118.556 44.8244 118.121 44.9683C117.685 45.1121 117.232 45.1841 116.762 45.1841C116.318 45.1841 115.905 45.11 115.524 44.9619C115.148 44.8138 114.822 44.5938 114.547 44.3018C114.276 44.0098 114.062 43.6458 113.906 43.21C113.753 42.7741 113.677 42.2663 113.677 41.6865C113.677 41.2168 113.743 40.7746 113.874 40.3599C114.005 39.9409 114.2 39.577 114.458 39.2681C114.72 38.9549 115.044 38.7074 115.429 38.5254C115.814 38.3434 116.263 38.2524 116.775 38.2524C117.27 38.2524 117.683 38.3286 118.013 38.481C118.347 38.6291 118.618 38.828 118.825 39.0776C119.037 39.3231 119.195 39.6045 119.301 39.9219C119.411 40.2393 119.487 40.563 119.53 40.8931C119.551 41.0539 119.564 41.2168 119.568 41.3818C119.576 41.5469 119.581 41.7077 119.581 41.8643H114.845ZM116.692 39.2427C116.417 39.2427 116.176 39.2829 115.969 39.3633C115.766 39.4395 115.592 39.5516 115.448 39.6997C115.304 39.8436 115.188 40.0213 115.099 40.2329C115.014 40.4445 114.951 40.6815 114.909 40.9438H118.317C118.3 40.6984 118.26 40.472 118.197 40.2646C118.138 40.0573 118.044 39.8774 117.917 39.7251C117.791 39.5728 117.628 39.4543 117.429 39.3696C117.23 39.285 116.984 39.2427 116.692 39.2427ZM120.685 38.4238H122.767V39.5156H122.462L123.611 43.7114L125.186 38.4238H126.176L127.68 43.6987L128.88 39.5156H128.499V38.4238H130.581V39.5156H130.016L128.213 45.1016H127.122L125.63 39.8521L124.145 45.1016H123.04L121.25 39.5156H120.685V38.4238ZM135.469 44.3906C135.219 44.6234 134.942 44.8138 134.637 44.9619C134.337 45.11 133.994 45.1841 133.609 45.1841C133.287 45.1841 132.991 45.1333 132.72 45.0317C132.454 44.9302 132.223 44.7926 132.028 44.6191C131.834 44.4414 131.681 44.2362 131.571 44.0034C131.465 43.7707 131.413 43.5231 131.413 43.2607C131.413 42.9814 131.453 42.7339 131.533 42.5181C131.618 42.3022 131.728 42.116 131.863 41.9595C132.003 41.7987 132.164 41.6654 132.346 41.5596C132.532 41.4495 132.724 41.3628 132.923 41.2993C133.126 41.2316 133.332 41.1851 133.539 41.1597C133.751 41.13 133.952 41.1152 134.142 41.1152C134.447 41.1152 134.703 41.1258 134.91 41.147C135.118 41.1639 135.306 41.1893 135.475 41.2231L135.481 40.6836C135.481 40.4508 135.448 40.2498 135.38 40.0806C135.312 39.9071 135.217 39.7653 135.094 39.6553C134.972 39.541 134.823 39.4564 134.65 39.4014C134.481 39.3464 134.29 39.3188 134.079 39.3188C133.88 39.3188 133.689 39.3337 133.507 39.3633C133.325 39.3887 133.154 39.4246 132.993 39.4712C132.837 39.5135 132.691 39.5643 132.555 39.6235C132.424 39.6785 132.312 39.7378 132.219 39.8013L131.832 38.9824C131.988 38.8809 132.16 38.7878 132.346 38.7031C132.532 38.6143 132.727 38.5402 132.93 38.481C133.137 38.4175 133.347 38.3688 133.558 38.335C133.774 38.2969 133.986 38.2778 134.193 38.2778C134.574 38.2778 134.917 38.3244 135.221 38.4175C135.526 38.5063 135.784 38.646 135.996 38.8364C136.207 39.0269 136.37 39.2702 136.484 39.5664C136.599 39.8584 136.656 40.2096 136.656 40.6201L136.649 43.9082H137.379V45H135.469V44.3906ZM133.869 44.1938C134.026 44.1938 134.182 44.1748 134.339 44.1367C134.495 44.0986 134.644 44.0479 134.783 43.9844C134.923 43.9167 135.052 43.8405 135.17 43.7559C135.289 43.667 135.388 43.576 135.469 43.4829L135.475 41.9976H134.104C133.875 41.9976 133.666 42.0229 133.476 42.0737C133.289 42.1245 133.126 42.1986 132.987 42.2959C132.851 42.3932 132.746 42.5138 132.669 42.6577C132.593 42.8016 132.555 42.9666 132.555 43.1528C132.555 43.3263 132.587 43.4787 132.65 43.6099C132.714 43.7368 132.803 43.8447 132.917 43.9336C133.035 44.0182 133.175 44.0838 133.336 44.1304C133.497 44.1727 133.674 44.1938 133.869 44.1938ZM138.274 38.4238H140.769V39.5156H139.988L141.531 43.7114L143.143 39.5156H142.369V38.4238H144.863V39.5156H144.184L141.258 46.8979H142.159V47.9897H139.506V46.8979H140.306L141.004 45.0889L138.808 39.5156H138.274V38.4238Z" fill="#4B8E93"/>
<path d="M176.617 143.74H177.54L176.661 141.221H172.391L171.534 143.74H172.677V145H169.073V143.74H170.04L173.497 133.896H175.658L179.107 143.74H180.221V145H176.617V143.74ZM172.809 140.005H176.236L174.508 135.039L172.809 140.005ZM181.341 133.896H185.831C186.329 133.896 186.786 133.962 187.201 134.094C187.621 134.221 187.982 134.412 188.285 134.666C188.592 134.915 188.829 135.227 188.995 135.603C189.166 135.979 189.251 136.411 189.251 136.899C189.251 137.305 189.168 137.688 189.002 138.049C188.836 138.406 188.602 138.718 188.299 138.987C187.997 139.255 187.633 139.468 187.208 139.624C186.788 139.78 186.319 139.858 185.802 139.858H183.832V143.74H184.945V145H181.341V143.74H182.396V135.164H181.341V133.896ZM183.832 135.164V138.657H185.831C186.109 138.657 186.363 138.621 186.593 138.547C186.827 138.469 187.027 138.357 187.193 138.21C187.364 138.064 187.496 137.881 187.589 137.661C187.687 137.441 187.735 137.188 187.735 136.899C187.735 136.353 187.569 135.928 187.237 135.625C186.905 135.317 186.375 135.164 185.648 135.164H183.832ZM190.658 133.896H194.203V135.164H193.148V143.74H194.203V145H190.658V143.74H191.712V135.164H190.658V133.896Z" fill="#4B8E93"/>
<path d="M242.112 155.448C242.112 155.243 242.063 155.07 241.966 154.928C241.873 154.782 241.751 154.665 241.6 154.577C241.448 154.484 241.28 154.418 241.094 154.379C240.909 154.335 240.728 154.313 240.552 154.313C240.357 154.313 240.176 154.335 240.01 154.379C239.849 154.423 239.71 154.486 239.593 154.569C239.476 154.652 239.383 154.755 239.314 154.877C239.251 154.994 239.219 155.126 239.219 155.272C239.219 155.526 239.295 155.729 239.446 155.88C239.603 156.027 239.861 156.164 240.223 156.291L241.68 156.803C242.305 157.013 242.762 157.299 243.05 157.66C243.338 158.021 243.482 158.454 243.482 158.957C243.482 159.293 243.414 159.604 243.277 159.887C243.145 160.165 242.955 160.404 242.706 160.604C242.461 160.8 242.166 160.951 241.819 161.059C241.473 161.171 241.087 161.227 240.662 161.227C240.071 161.227 239.59 161.132 239.219 160.941C238.848 160.751 238.562 160.5 238.362 160.187H237.601V158.927H239.117C239.117 159.137 239.161 159.318 239.249 159.469C239.341 159.616 239.461 159.735 239.607 159.828C239.759 159.921 239.927 159.989 240.113 160.033C240.303 160.077 240.496 160.099 240.691 160.099C240.882 160.099 241.065 160.077 241.241 160.033C241.417 159.984 241.57 159.916 241.702 159.828C241.839 159.735 241.946 159.625 242.024 159.499C242.103 159.372 242.142 159.228 242.142 159.066C242.142 158.822 242.061 158.615 241.9 158.444C241.744 158.273 241.475 158.119 241.094 157.982L239.644 157.44C239.053 157.23 238.614 156.964 238.326 156.642C238.042 156.315 237.901 155.907 237.901 155.419C237.901 155.097 237.959 154.799 238.077 154.525C238.199 154.252 238.372 154.018 238.597 153.822C238.826 153.622 239.104 153.466 239.432 153.354C239.759 153.241 240.132 153.185 240.552 153.185C241.094 153.185 241.548 153.261 241.915 153.412C242.281 153.563 242.61 153.822 242.903 154.188H243.614V155.448H242.112ZM246.302 157.382C246.302 157.597 246.316 157.794 246.346 157.975C246.38 158.151 246.426 158.319 246.485 158.48C246.666 158.969 246.954 159.337 247.349 159.586C247.75 159.831 248.201 159.953 248.704 159.953C249.1 159.953 249.483 159.899 249.854 159.792C250.23 159.679 250.623 159.506 251.033 159.271L251.583 160.202C251.084 160.543 250.584 160.797 250.081 160.963C249.578 161.129 249.056 161.212 248.514 161.212C248.001 161.212 247.525 161.127 247.085 160.956C246.651 160.785 246.275 160.531 245.958 160.194C245.645 159.857 245.398 159.438 245.218 158.935C245.042 158.432 244.954 157.846 244.954 157.177C244.954 156.635 245.03 156.125 245.181 155.646C245.333 155.163 245.557 154.743 245.855 154.386C246.158 154.025 246.531 153.739 246.976 153.529C247.42 153.319 247.938 153.214 248.528 153.214C249.1 153.214 249.576 153.302 249.957 153.478C250.342 153.649 250.655 153.878 250.894 154.167C251.138 154.45 251.321 154.774 251.443 155.141C251.57 155.507 251.658 155.88 251.707 156.261C251.731 156.447 251.746 156.635 251.751 156.825C251.761 157.016 251.766 157.201 251.766 157.382H246.302ZM248.433 154.357C248.116 154.357 247.837 154.403 247.598 154.496C247.364 154.584 247.164 154.713 246.998 154.884C246.832 155.05 246.697 155.255 246.595 155.5C246.497 155.744 246.424 156.017 246.375 156.32H250.308C250.289 156.037 250.242 155.775 250.169 155.536C250.101 155.297 249.993 155.089 249.847 154.914C249.7 154.738 249.512 154.601 249.283 154.503C249.053 154.406 248.77 154.357 248.433 154.357ZM259.083 155.016H257.691V154.547C257.53 154.547 257.364 154.579 257.193 154.643C257.027 154.701 256.871 154.794 256.724 154.921C256.578 155.043 256.448 155.202 256.336 155.397C256.229 155.587 256.15 155.814 256.102 156.078V159.74H257.391V161H253.626V159.74H254.673L254.681 154.672H253.626V153.412H256.05V154.459C256.138 154.303 256.236 154.159 256.343 154.027C256.456 153.891 256.578 153.773 256.709 153.676C256.846 153.573 256.995 153.495 257.156 153.441C257.322 153.383 257.5 153.354 257.691 153.354C257.945 153.354 258.184 153.354 258.409 153.354C258.633 153.354 258.858 153.358 259.083 153.368V155.016ZM260.071 153.412H262.693V154.672H261.983L263.858 159.901L265.689 154.672H265.228V153.412H267.63V154.672H266.978L264.495 161.117H263.147L260.672 154.672H260.071V153.412ZM268.655 153.412H271.131V159.74H272.273V161H268.67V159.74H269.754V154.672H268.655V153.412ZM269.498 150.724C269.498 150.597 269.522 150.478 269.571 150.365C269.625 150.248 269.693 150.148 269.776 150.065C269.864 149.977 269.966 149.909 270.083 149.86C270.201 149.806 270.325 149.779 270.457 149.779C270.584 149.779 270.704 149.806 270.816 149.86C270.933 149.909 271.033 149.977 271.116 150.065C271.204 150.148 271.272 150.248 271.321 150.365C271.375 150.478 271.402 150.597 271.402 150.724C271.402 150.856 271.375 150.98 271.321 151.098C271.272 151.215 271.204 151.32 271.116 151.413C271.033 151.5 270.933 151.571 270.816 151.625C270.704 151.674 270.584 151.698 270.457 151.698C270.325 151.698 270.201 151.674 270.083 151.625C269.966 151.571 269.864 151.5 269.776 151.413C269.693 151.32 269.625 151.215 269.571 151.098C269.522 150.98 269.498 150.856 269.498 150.724ZM279.012 155.434C278.807 155.067 278.545 154.799 278.228 154.628C277.916 154.457 277.552 154.372 277.137 154.372C276.819 154.372 276.521 154.438 276.243 154.569C275.965 154.701 275.721 154.889 275.511 155.133C275.306 155.377 275.142 155.675 275.02 156.027C274.903 156.374 274.844 156.762 274.844 157.191C274.844 157.616 274.903 158 275.02 158.341C275.142 158.683 275.308 158.976 275.518 159.22C275.728 159.459 275.97 159.645 276.243 159.777C276.521 159.904 276.819 159.967 277.137 159.967C277.605 159.967 278.013 159.855 278.36 159.63C278.707 159.401 278.982 159.066 279.188 158.627L280.315 159.184C280.169 159.496 279.988 159.777 279.773 160.026C279.559 160.275 279.314 160.487 279.041 160.663C278.772 160.839 278.475 160.973 278.147 161.066C277.825 161.164 277.483 161.212 277.122 161.212C276.595 161.212 276.106 161.115 275.657 160.919C275.213 160.719 274.827 160.441 274.5 160.084C274.178 159.728 273.926 159.303 273.746 158.81C273.565 158.317 273.475 157.777 273.475 157.191C273.475 156.605 273.57 156.066 273.76 155.573C273.951 155.08 274.212 154.657 274.544 154.306C274.876 153.949 275.264 153.671 275.708 153.471C276.153 153.271 276.629 153.17 277.137 153.17C277.615 153.17 278.067 153.253 278.492 153.419C278.921 153.585 279.297 153.837 279.62 154.174H280.389V155.434H279.012ZM283.011 157.382C283.011 157.597 283.025 157.794 283.055 157.975C283.089 158.151 283.135 158.319 283.194 158.48C283.375 158.969 283.663 159.337 284.058 159.586C284.458 159.831 284.91 159.953 285.413 159.953C285.809 159.953 286.192 159.899 286.563 159.792C286.939 159.679 287.332 159.506 287.742 159.271L288.292 160.202C287.793 160.543 287.293 160.797 286.79 160.963C286.287 161.129 285.765 161.212 285.223 161.212C284.71 161.212 284.234 161.127 283.794 160.956C283.36 160.785 282.984 160.531 282.667 160.194C282.354 159.857 282.107 159.438 281.927 158.935C281.751 158.432 281.663 157.846 281.663 157.177C281.663 156.635 281.739 156.125 281.89 155.646C282.042 155.163 282.266 154.743 282.564 154.386C282.867 154.025 283.24 153.739 283.685 153.529C284.129 153.319 284.646 153.214 285.237 153.214C285.809 153.214 286.285 153.302 286.666 153.478C287.051 153.649 287.364 153.878 287.603 154.167C287.847 154.45 288.03 154.774 288.152 155.141C288.279 155.507 288.367 155.88 288.416 156.261C288.44 156.447 288.455 156.635 288.46 156.825C288.47 157.016 288.475 157.201 288.475 157.382H283.011ZM285.142 154.357C284.825 154.357 284.546 154.403 284.307 154.496C284.073 154.584 283.873 154.713 283.707 154.884C283.541 155.05 283.406 155.255 283.304 155.5C283.206 155.744 283.133 156.017 283.084 156.32H287.017C286.998 156.037 286.951 155.775 286.878 155.536C286.81 155.297 286.702 155.089 286.556 154.914C286.409 154.738 286.221 154.601 285.992 154.503C285.762 154.406 285.479 154.357 285.142 154.357ZM293.931 159.74H294.986V151.164H293.931V149.882L298.926 149.896C299.375 149.896 299.798 149.982 300.193 150.153C300.589 150.319 300.933 150.548 301.226 150.841C301.519 151.129 301.749 151.471 301.915 151.867C302.085 152.262 302.171 152.687 302.171 153.141C302.171 153.615 302.039 154.047 301.775 154.438C301.512 154.828 301.136 155.141 300.647 155.375C300.887 155.502 301.104 155.651 301.299 155.822C301.495 155.988 301.661 156.171 301.797 156.371C301.934 156.571 302.039 156.784 302.112 157.008C302.19 157.233 302.229 157.462 302.229 157.697C302.229 158.161 302.144 158.593 301.973 158.993C301.807 159.394 301.578 159.743 301.285 160.041C300.992 160.338 300.647 160.573 300.252 160.744C299.861 160.915 299.441 161 298.992 161H293.931V159.74ZM296.421 156.063V159.74H299.007C299.241 159.74 299.458 159.682 299.659 159.564C299.859 159.447 300.035 159.296 300.186 159.11C300.337 158.92 300.455 158.705 300.538 158.466C300.625 158.227 300.669 157.982 300.669 157.733C300.669 157.519 300.625 157.311 300.538 157.111C300.45 156.911 300.33 156.732 300.179 156.576C300.032 156.42 299.856 156.295 299.651 156.203C299.451 156.11 299.236 156.063 299.007 156.063H296.421ZM296.421 151.164V154.789H298.941C299.175 154.789 299.393 154.743 299.593 154.65C299.798 154.557 299.974 154.433 300.12 154.276C300.271 154.12 300.391 153.939 300.479 153.734C300.567 153.529 300.611 153.317 300.611 153.097C300.611 152.858 300.567 152.624 300.479 152.394C300.391 152.16 300.271 151.952 300.12 151.771C299.969 151.591 299.791 151.444 299.585 151.332C299.385 151.22 299.17 151.164 298.941 151.164H296.421Z" fill="#4B8E93"/>
<rect x="80" y="1" width="76" height="214" rx="7" stroke="#4B8E93" stroke-width="2"/>
<path d="M60.8165 81.75L43.0001 94.875L60.8165 108" stroke="#4B8E93" stroke-width="2" stroke-linecap="round" stroke-linejoin="round"/>
<path d="M210.013 66V84.375C210.013 87.1598 208.511 89.8305 205.838 91.7996C203.165 93.7688 199.54 94.875 195.76 94.875H153" stroke="#4B8E93" stroke-width="2" stroke-linecap="round" stroke-linejoin="round"/>
<path d="M45.0004 95H152" stroke="#4B8E93" stroke-width="2" stroke-linecap="round"/>
<path d="M60.8164 140.25L43 127.125L60.8164 114" stroke="#4B8E93" stroke-width="2" stroke-linecap="round" stroke-linejoin="round"/>
<path d="M210.013 156V137.625C210.013 134.84 208.511 132.17 205.838 130.2C203.165 128.231 199.54 127.125 195.76 127.125H153" stroke="#4B8E93" stroke-width="2" stroke-linecap="round" stroke-linejoin="round"/>
<path d="M45.0002 127H152" stroke="#4B8E93" stroke-width="2" stroke-linecap="round"/>
</svg>
