<svg width="493" height="216" viewBox="0 0 493 216" fill="none" xmlns="http://www.w3.org/2000/svg">
<path d="M359.931 30.9892L312.535 30.9953C310.457 30.9969 308.416 31.329 306.617 31.9583C304.819 32.5877 303.325 33.4921 302.286 34.5809L278.591 59.6737C277.551 60.7636 277.004 61.9998 277.004 63.2581C277.004 64.5165 277.552 65.7526 278.592 66.8422L302.293 91.9289C303.332 93.0174 304.826 93.9214 306.626 94.5503C308.425 95.1792 310.465 95.5108 312.543 95.5118L359.939 95.5057C362.017 95.5041 364.058 95.172 365.857 94.5427C367.656 93.9133 369.15 93.0089 370.188 91.9201L393.883 66.8273C394.923 65.7374 395.47 64.5012 395.47 63.2429C395.47 61.9845 394.922 60.7484 393.882 59.6588L370.181 34.5722C369.142 33.4836 367.648 32.5796 365.849 31.9507C364.05 31.3218 362.009 30.9903 359.931 30.9892Z" stroke="#4B8E93" stroke-width="2" stroke-linecap="round" stroke-linejoin="round"/>
<path d="M359.931 121.989L312.535 121.995C310.457 121.997 308.416 122.329 306.617 122.958C304.819 123.588 303.325 124.492 302.286 125.581L278.591 150.674C277.551 151.764 277.004 153 277.004 154.258C277.004 155.516 277.552 156.753 278.592 157.842L302.293 182.929C303.332 184.017 304.826 184.921 306.626 185.55C308.425 186.179 310.465 186.511 312.543 186.512L359.939 186.506C362.017 186.504 364.058 186.172 365.857 185.543C367.656 184.913 369.15 184.009 370.188 182.92L393.883 157.827C394.923 156.737 395.47 155.501 395.47 154.243C395.47 152.985 394.922 151.748 393.882 150.659L370.181 125.572C369.142 124.484 367.648 123.58 365.849 122.951C364.05 122.322 362.009 121.99 359.931 121.989Z" stroke="#4B8E93" stroke-width="2" stroke-linecap="round" stroke-linejoin="round"/>
<path d="M464 48.2C479.464 48.2 492 43.9019 492 38.6C492 33.2981 479.464 29 464 29C448.536 29 436 33.2981 436 38.6C436 43.9019 448.536 48.2 464 48.2Z" stroke="#4B8E93" stroke-width="2" stroke-linecap="round" stroke-linejoin="round"/>
<path d="M492 61C492 66.312 479.556 70.6 464 70.6C448.444 70.6 436 66.312 436 61" stroke="#4B8E93" stroke-width="2" stroke-linecap="round" stroke-linejoin="round"/>
<path d="M436 38.6001V83.4001C436 88.7121 448.444 93.0001 464 93.0001C479.556 93.0001 492 88.7121 492 83.4001V38.6001" stroke="#4B8E93" stroke-width="2" stroke-linecap="round" stroke-linejoin="round"/>
<path d="M464 139.2C479.464 139.2 492 134.902 492 129.6C492 124.298 479.464 120 464 120C448.536 120 436 124.298 436 129.6C436 134.902 448.536 139.2 464 139.2Z" stroke="#4B8E93" stroke-width="2" stroke-linecap="round" stroke-linejoin="round"/>
<path d="M492 152C492 157.312 479.556 161.6 464 161.6C448.444 161.6 436 157.312 436 152" stroke="#4B8E93" stroke-width="2" stroke-linecap="round" stroke-linejoin="round"/>
<path d="M436 129.6V174.4C436 179.712 448.444 184 464 184C479.556 184 492 179.712 492 174.4V129.6" stroke="#4B8E93" stroke-width="2" stroke-linecap="round" stroke-linejoin="round"/>
<path d="M396 63H435M435 63L415.5 51M435 63L415.5 75" stroke="#4B8E93" stroke-width="2" stroke-linecap="round" stroke-linejoin="round"/>
<path d="M396 154H435M435 154L415.5 142M435 154L415.5 166" stroke="#4B8E93" stroke-width="2" stroke-linecap="round" stroke-linejoin="round"/>
<path d="M36.875 77H6.125C3.29454 77 1 79.7423 1 83.125V132.125C1 135.508 3.29454 138.25 6.125 138.25H36.875C39.7055 138.25 42 135.508 42 132.125V83.125C42 79.7423 39.7055 77 36.875 77Z" stroke="#4B8E93" stroke-width="2" stroke-linecap="round" stroke-linejoin="round"/>
<path d="M21.5 126H21.5256" stroke="#4B8E93" stroke-width="2" stroke-linecap="round" stroke-linejoin="round"/>
<path d="M307.112 62.4482C307.112 62.2432 307.063 62.0698 306.966 61.9282C306.873 61.7817 306.751 61.6646 306.6 61.5767C306.448 61.4839 306.28 61.418 306.094 61.3789C305.909 61.335 305.728 61.313 305.552 61.313C305.357 61.313 305.176 61.335 305.01 61.3789C304.849 61.4229 304.71 61.4863 304.593 61.5693C304.476 61.6523 304.383 61.7549 304.314 61.877C304.251 61.9941 304.219 62.126 304.219 62.2725C304.219 62.5264 304.295 62.729 304.446 62.8804C304.603 63.0269 304.861 63.1636 305.223 63.2905L306.68 63.8032C307.305 64.0132 307.762 64.2988 308.05 64.6602C308.338 65.0215 308.482 65.4536 308.482 65.9565C308.482 66.2935 308.414 66.6035 308.277 66.8867C308.145 67.165 307.955 67.4043 307.706 67.6045C307.461 67.7998 307.166 67.9512 306.819 68.0586C306.473 68.1709 306.087 68.2271 305.662 68.2271C305.071 68.2271 304.59 68.1318 304.219 67.9414C303.848 67.751 303.562 67.4995 303.362 67.187H302.601V65.9272H304.117C304.117 66.1372 304.161 66.3179 304.249 66.4692C304.341 66.6157 304.461 66.7354 304.607 66.8281C304.759 66.9209 304.927 66.9893 305.113 67.0332C305.303 67.0771 305.496 67.0991 305.691 67.0991C305.882 67.0991 306.065 67.0771 306.241 67.0332C306.417 66.9844 306.57 66.916 306.702 66.8281C306.839 66.7354 306.946 66.6255 307.024 66.4985C307.103 66.3716 307.142 66.2275 307.142 66.0664C307.142 65.8223 307.061 65.6147 306.9 65.4438C306.744 65.2729 306.475 65.1191 306.094 64.9824L304.644 64.4404C304.053 64.2305 303.614 63.9644 303.326 63.6421C303.042 63.3149 302.901 62.9072 302.901 62.4189C302.901 62.0967 302.959 61.7988 303.077 61.5254C303.199 61.252 303.372 61.0176 303.597 60.8223C303.826 60.6221 304.104 60.4658 304.432 60.3535C304.759 60.2412 305.132 60.1851 305.552 60.1851C306.094 60.1851 306.548 60.2607 306.915 60.4121C307.281 60.5635 307.61 60.8223 307.903 61.1885H308.614V62.4482H307.112ZM311.302 64.3818C311.302 64.5967 311.316 64.7944 311.346 64.9751C311.38 65.1509 311.426 65.3193 311.485 65.4805C311.666 65.9688 311.954 66.3374 312.349 66.5864C312.75 66.8306 313.201 66.9526 313.704 66.9526C314.1 66.9526 314.483 66.8989 314.854 66.7915C315.23 66.6792 315.623 66.5059 316.033 66.2715L316.583 67.2017C316.084 67.5435 315.584 67.7974 315.081 67.9634C314.578 68.1294 314.056 68.2124 313.514 68.2124C313.001 68.2124 312.525 68.127 312.085 67.9561C311.651 67.7852 311.275 67.5312 310.958 67.1943C310.645 66.8574 310.398 66.4375 310.218 65.9346C310.042 65.4316 309.954 64.8457 309.954 64.1768C309.954 63.6348 310.03 63.1245 310.181 62.646C310.333 62.1626 310.557 61.7427 310.855 61.3862C311.158 61.0249 311.531 60.7393 311.976 60.5293C312.42 60.3193 312.938 60.2144 313.528 60.2144C314.1 60.2144 314.576 60.3022 314.957 60.478C315.342 60.6489 315.655 60.8784 315.894 61.1665C316.138 61.4497 316.321 61.7744 316.443 62.1406C316.57 62.5068 316.658 62.8804 316.707 63.2612C316.731 63.4468 316.746 63.6348 316.751 63.8252C316.761 64.0156 316.766 64.2012 316.766 64.3818H311.302ZM313.433 61.3569C313.116 61.3569 312.837 61.4033 312.598 61.4961C312.364 61.584 312.164 61.7134 311.998 61.8843C311.832 62.0503 311.697 62.2554 311.595 62.4995C311.497 62.7437 311.424 63.0171 311.375 63.3198H315.308C315.289 63.0366 315.242 62.7754 315.169 62.5361C315.101 62.2969 314.993 62.0894 314.847 61.9136C314.7 61.7378 314.512 61.6011 314.283 61.5034C314.053 61.4058 313.77 61.3569 313.433 61.3569ZM324.083 62.0161H322.691V61.5474C322.53 61.5474 322.364 61.5791 322.193 61.6426C322.027 61.7012 321.871 61.7939 321.724 61.9209C321.578 62.043 321.448 62.2017 321.336 62.397C321.229 62.5874 321.15 62.8145 321.102 63.0781V66.7402H322.391V68H318.626V66.7402H319.673L319.681 61.6719H318.626V60.4121H321.05V61.4595C321.138 61.3032 321.236 61.1592 321.343 61.0273C321.456 60.8906 321.578 60.7734 321.709 60.6758C321.846 60.5732 321.995 60.4951 322.156 60.4414C322.322 60.3828 322.5 60.3535 322.691 60.3535C322.945 60.3535 323.184 60.3535 323.409 60.3535C323.633 60.3535 323.858 60.3584 324.083 60.3682V62.0161ZM325.071 60.4121H327.693V61.6719H326.983L328.858 66.9014L330.689 61.6719H330.228V60.4121H332.63V61.6719H331.978L329.495 68.1172H328.147L325.672 61.6719H325.071V60.4121ZM333.655 60.4121H336.131V66.7402H337.273V68H333.67V66.7402H334.754V61.6719H333.655V60.4121ZM334.498 57.7241C334.498 57.5972 334.522 57.4775 334.571 57.3652C334.625 57.248 334.693 57.1479 334.776 57.0649C334.864 56.9771 334.966 56.9087 335.083 56.8599C335.201 56.8062 335.325 56.7793 335.457 56.7793C335.584 56.7793 335.704 56.8062 335.816 56.8599C335.933 56.9087 336.033 56.9771 336.116 57.0649C336.204 57.1479 336.272 57.248 336.321 57.3652C336.375 57.4775 336.402 57.5972 336.402 57.7241C336.402 57.856 336.375 57.9805 336.321 58.0977C336.272 58.2148 336.204 58.3198 336.116 58.4126C336.033 58.5005 335.933 58.5713 335.816 58.625C335.704 58.6738 335.584 58.6982 335.457 58.6982C335.325 58.6982 335.201 58.6738 335.083 58.625C334.966 58.5713 334.864 58.5005 334.776 58.4126C334.693 58.3198 334.625 58.2148 334.571 58.0977C334.522 57.9805 334.498 57.856 334.498 57.7241ZM344.012 62.4336C343.807 62.0674 343.545 61.7988 343.228 61.6279C342.916 61.457 342.552 61.3716 342.137 61.3716C341.819 61.3716 341.521 61.4375 341.243 61.5693C340.965 61.7012 340.721 61.8892 340.511 62.1333C340.306 62.3774 340.142 62.6753 340.02 63.0269C339.903 63.3735 339.844 63.7617 339.844 64.1914C339.844 64.6162 339.903 64.9995 340.02 65.3413C340.142 65.6831 340.308 65.9761 340.518 66.2202C340.728 66.4595 340.97 66.645 341.243 66.7769C341.521 66.9038 341.819 66.9673 342.137 66.9673C342.605 66.9673 343.013 66.855 343.36 66.6304C343.707 66.4009 343.982 66.0664 344.188 65.627L345.315 66.1836C345.169 66.4961 344.988 66.7769 344.773 67.0259C344.559 67.2749 344.314 67.4873 344.041 67.6631C343.772 67.8389 343.475 67.9731 343.147 68.0659C342.825 68.1636 342.483 68.2124 342.122 68.2124C341.595 68.2124 341.106 68.1147 340.657 67.9194C340.213 67.7192 339.827 67.4409 339.5 67.0845C339.178 66.728 338.926 66.3032 338.746 65.8101C338.565 65.3169 338.475 64.7773 338.475 64.1914C338.475 63.6055 338.57 63.0659 338.76 62.5728C338.951 62.0796 339.212 61.6572 339.544 61.3057C339.876 60.9492 340.264 60.6709 340.708 60.4707C341.153 60.2705 341.629 60.1704 342.137 60.1704C342.615 60.1704 343.067 60.2534 343.492 60.4194C343.921 60.5854 344.297 60.8369 344.62 61.1738H345.389V62.4336H344.012ZM348.011 64.3818C348.011 64.5967 348.025 64.7944 348.055 64.9751C348.089 65.1509 348.135 65.3193 348.194 65.4805C348.375 65.9688 348.663 66.3374 349.058 66.5864C349.458 66.8306 349.91 66.9526 350.413 66.9526C350.809 66.9526 351.192 66.8989 351.563 66.7915C351.939 66.6792 352.332 66.5059 352.742 66.2715L353.292 67.2017C352.793 67.5435 352.293 67.7974 351.79 67.9634C351.287 68.1294 350.765 68.2124 350.223 68.2124C349.71 68.2124 349.234 68.127 348.794 67.9561C348.36 67.7852 347.984 67.5312 347.667 67.1943C347.354 66.8574 347.107 66.4375 346.927 65.9346C346.751 65.4316 346.663 64.8457 346.663 64.1768C346.663 63.6348 346.739 63.1245 346.89 62.646C347.042 62.1626 347.266 61.7427 347.564 61.3862C347.867 61.0249 348.24 60.7393 348.685 60.5293C349.129 60.3193 349.646 60.2144 350.237 60.2144C350.809 60.2144 351.285 60.3022 351.666 60.478C352.051 60.6489 352.364 60.8784 352.603 61.1665C352.847 61.4497 353.03 61.7744 353.152 62.1406C353.279 62.5068 353.367 62.8804 353.416 63.2612C353.44 63.4468 353.455 63.6348 353.46 63.8252C353.47 64.0156 353.475 64.2012 353.475 64.3818H348.011ZM350.142 61.3569C349.825 61.3569 349.546 61.4033 349.307 61.4961C349.073 61.584 348.873 61.7134 348.707 61.8843C348.541 62.0503 348.406 62.2554 348.304 62.4995C348.206 62.7437 348.133 63.0171 348.084 63.3198H352.017C351.998 63.0366 351.951 62.7754 351.878 62.5361C351.81 62.2969 351.702 62.0894 351.556 61.9136C351.409 61.7378 351.221 61.6011 350.992 61.5034C350.762 61.4058 350.479 61.3569 350.142 61.3569ZM365.501 66.7402H366.424L365.545 64.2207H361.275L360.418 66.7402H361.561V68H357.957V66.7402H358.924L362.381 56.8965H364.542L367.991 66.7402H369.104V68H365.501V66.7402ZM361.692 63.0049H365.12L363.392 58.0391L361.692 63.0049Z" fill="#4B8E93"/>
<path d="M119.227 28.9082H120.026L119.265 26.7246H115.564L114.821 28.9082H115.812V30H112.688V28.9082H113.526L116.522 20.377H118.395L121.385 28.9082H122.35V30H119.227V28.9082ZM115.926 25.6709H118.896L117.398 21.3672L115.926 25.6709ZM123.321 20.377H127.212C127.644 20.377 128.039 20.4341 128.399 20.5483C128.763 20.6584 129.076 20.8234 129.338 21.0435C129.605 21.2593 129.81 21.5301 129.954 21.856C130.102 22.1818 130.176 22.5563 130.176 22.9795C130.176 23.3307 130.104 23.6629 129.96 23.9761C129.817 24.285 129.613 24.5558 129.351 24.7886C129.089 25.0213 128.773 25.2054 128.405 25.3408C128.041 25.4762 127.635 25.5439 127.187 25.5439H125.479V28.9082H126.444V30H123.321V28.9082H124.235V21.4751H123.321V20.377ZM125.479 21.4751V24.5029H127.212C127.453 24.5029 127.673 24.4712 127.872 24.4077C128.075 24.34 128.249 24.2427 128.393 24.1157C128.541 23.9888 128.655 23.8301 128.735 23.6396C128.82 23.4492 128.862 23.2292 128.862 22.9795C128.862 22.5055 128.718 22.1374 128.431 21.875C128.143 21.6084 127.684 21.4751 127.053 21.4751H125.479ZM131.395 20.377H134.467V21.4751H133.553V28.9082H134.467V30H131.395V28.9082H132.309V21.4751H131.395V20.377ZM104.792 46.0381V44.1084C104.631 44.4427 104.43 44.7347 104.189 44.9844C103.948 45.2298 103.679 45.4329 103.383 45.5938C103.087 45.7546 102.769 45.8752 102.431 45.9556C102.096 46.036 101.756 46.0762 101.409 46.0762C100.782 46.0762 100.205 45.9725 99.6758 45.7651C99.1468 45.5535 98.6665 45.2192 98.2349 44.7622C97.8075 44.3052 97.4795 43.7635 97.251 43.1372C97.0267 42.5109 96.9146 41.8571 96.9146 41.1758C96.9146 40.4902 97.0267 39.8428 97.251 39.2334C97.4795 38.624 97.7969 38.0929 98.2031 37.6401C98.6136 37.1873 99.1003 36.8319 99.6631 36.5737C100.23 36.3156 100.844 36.1865 101.504 36.1865C102.113 36.1865 102.636 36.2733 103.072 36.4468C103.512 36.6203 103.886 36.8319 104.195 37.0815C104.508 37.327 104.758 37.5618 104.944 37.7861H105.56V38.916H104.195C103.912 38.4336 103.535 38.0527 103.065 37.7734C102.6 37.4941 102.077 37.3587 101.498 37.3672C101.011 37.3672 100.564 37.4709 100.158 37.6782C99.752 37.8856 99.4028 38.1649 99.1108 38.5161C98.8231 38.8674 98.5988 39.2715 98.438 39.7285C98.2772 40.1855 98.1968 40.668 98.1968 41.1758C98.1968 41.7386 98.2856 42.2612 98.4634 42.7437C98.6411 43.2261 98.8675 43.6175 99.1426 43.918C99.4176 44.2184 99.7562 44.4681 100.158 44.667C100.564 44.8617 101.013 44.959 101.504 44.959C102.316 44.959 102.983 44.7622 103.503 44.3687C104.024 43.9709 104.388 43.353 104.595 42.5151H101.904V41.4233H105.973V46.0381H104.792ZM111.647 45.3906C111.398 45.6234 111.121 45.8138 110.816 45.9619C110.515 46.11 110.173 46.1841 109.788 46.1841C109.466 46.1841 109.17 46.1333 108.899 46.0317C108.632 45.9302 108.402 45.7926 108.207 45.6191C108.012 45.4414 107.86 45.2362 107.75 45.0034C107.644 44.7707 107.591 44.5231 107.591 44.2607C107.591 43.9814 107.632 43.7339 107.712 43.5181C107.797 43.3022 107.907 43.116 108.042 42.9595C108.182 42.7987 108.342 42.6654 108.524 42.5596C108.711 42.4495 108.903 42.3628 109.102 42.2993C109.305 42.2316 109.51 42.1851 109.718 42.1597C109.929 42.13 110.13 42.1152 110.321 42.1152C110.625 42.1152 110.882 42.1258 111.089 42.147C111.296 42.1639 111.485 42.1893 111.654 42.2231L111.66 41.6836C111.66 41.4508 111.626 41.2498 111.559 41.0806C111.491 40.9071 111.396 40.7653 111.273 40.6553C111.15 40.541 111.002 40.4564 110.829 40.4014C110.659 40.3464 110.469 40.3188 110.257 40.3188C110.058 40.3188 109.868 40.3337 109.686 40.3633C109.504 40.3887 109.333 40.4246 109.172 40.4712C109.015 40.5135 108.869 40.5643 108.734 40.6235C108.603 40.6785 108.491 40.7378 108.397 40.8013L108.01 39.9824C108.167 39.8809 108.338 39.7878 108.524 39.7031C108.711 39.6143 108.905 39.5402 109.108 39.481C109.316 39.4175 109.525 39.3688 109.737 39.335C109.953 39.2969 110.164 39.2778 110.372 39.2778C110.752 39.2778 111.095 39.3244 111.4 39.4175C111.705 39.5063 111.963 39.646 112.174 39.8364C112.386 40.0269 112.549 40.2702 112.663 40.5664C112.777 40.8584 112.834 41.2096 112.834 41.6201L112.828 44.9082H113.558V46H111.647V45.3906ZM110.048 45.1938C110.204 45.1938 110.361 45.1748 110.518 45.1367C110.674 45.0986 110.822 45.0479 110.962 44.9844C111.102 44.9167 111.231 44.8405 111.349 44.7559C111.468 44.667 111.567 44.576 111.647 44.4829L111.654 42.9976H110.283C110.054 42.9976 109.845 43.0229 109.654 43.0737C109.468 43.1245 109.305 43.1986 109.166 43.2959C109.03 43.3932 108.924 43.5138 108.848 43.6577C108.772 43.8016 108.734 43.9666 108.734 44.1528C108.734 44.3263 108.766 44.4787 108.829 44.6099C108.893 44.7368 108.981 44.8447 109.096 44.9336C109.214 45.0182 109.354 45.0838 109.515 45.1304C109.675 45.1727 109.853 45.1938 110.048 45.1938ZM116.795 39.4238H118.338V40.3823H116.783L116.764 44.1782C116.764 44.4364 116.793 44.6458 116.853 44.8066C116.912 44.9674 117.007 45.0796 117.138 45.1431C117.269 45.2023 117.417 45.2319 117.583 45.2319C117.76 45.2319 117.917 45.2171 118.052 45.1875C118.188 45.1536 118.336 45.0986 118.497 45.0225L118.77 45.8159C118.566 45.9217 118.353 46.0042 118.128 46.0635C117.904 46.127 117.64 46.1587 117.335 46.1587C117.047 46.1587 116.795 46.1227 116.58 46.0508C116.368 45.9831 116.188 45.8667 116.04 45.7017C115.896 45.5366 115.788 45.3166 115.716 45.0415C115.644 44.7622 115.608 44.4152 115.608 44.0005L115.627 40.3823H114.58V39.4238H115.64V37.8496L116.795 37.3037V39.4238ZM120.845 42.8643C120.845 43.0505 120.858 43.2218 120.883 43.3784C120.913 43.5308 120.953 43.6768 121.004 43.8164C121.16 44.2396 121.41 44.5591 121.753 44.7749C122.1 44.9865 122.491 45.0923 122.927 45.0923C123.27 45.0923 123.602 45.0457 123.924 44.9526C124.25 44.8553 124.59 44.7051 124.946 44.502L125.422 45.3081C124.99 45.6043 124.556 45.8244 124.121 45.9683C123.685 46.1121 123.232 46.1841 122.762 46.1841C122.318 46.1841 121.905 46.11 121.524 45.9619C121.148 45.8138 120.822 45.5938 120.547 45.3018C120.276 45.0098 120.062 44.6458 119.906 44.21C119.753 43.7741 119.677 43.2663 119.677 42.6865C119.677 42.2168 119.743 41.7746 119.874 41.3599C120.005 40.9409 120.2 40.577 120.458 40.2681C120.72 39.9549 121.044 39.7074 121.429 39.5254C121.814 39.3434 122.263 39.2524 122.775 39.2524C123.27 39.2524 123.683 39.3286 124.013 39.481C124.347 39.6291 124.618 39.828 124.825 40.0776C125.037 40.3231 125.195 40.6045 125.301 40.9219C125.411 41.2393 125.487 41.563 125.53 41.8931C125.551 42.0539 125.564 42.2168 125.568 42.3818C125.576 42.5469 125.581 42.7077 125.581 42.8643H120.845ZM122.692 40.2427C122.417 40.2427 122.176 40.2829 121.969 40.3633C121.766 40.4395 121.592 40.5516 121.448 40.6997C121.304 40.8436 121.188 41.0213 121.099 41.2329C121.014 41.4445 120.951 41.6815 120.909 41.9438H124.317C124.3 41.6984 124.26 41.472 124.197 41.2646C124.138 41.0573 124.044 40.8774 123.917 40.7251C123.791 40.5728 123.628 40.4543 123.429 40.3696C123.23 40.285 122.984 40.2427 122.692 40.2427ZM126.685 39.4238H128.767V40.5156H128.462L129.611 44.7114L131.186 39.4238H132.176L133.68 44.6987L134.88 40.5156H134.499V39.4238H136.581V40.5156H136.016L134.213 46.1016H133.122L131.63 40.8521L130.145 46.1016H129.04L127.25 40.5156H126.685V39.4238ZM141.469 45.3906C141.219 45.6234 140.942 45.8138 140.637 45.9619C140.337 46.11 139.994 46.1841 139.609 46.1841C139.287 46.1841 138.991 46.1333 138.72 46.0317C138.454 45.9302 138.223 45.7926 138.028 45.6191C137.834 45.4414 137.681 45.2362 137.571 45.0034C137.465 44.7707 137.413 44.5231 137.413 44.2607C137.413 43.9814 137.453 43.7339 137.533 43.5181C137.618 43.3022 137.728 43.116 137.863 42.9595C138.003 42.7987 138.164 42.6654 138.346 42.5596C138.532 42.4495 138.724 42.3628 138.923 42.2993C139.126 42.2316 139.332 42.1851 139.539 42.1597C139.751 42.13 139.952 42.1152 140.142 42.1152C140.447 42.1152 140.703 42.1258 140.91 42.147C141.118 42.1639 141.306 42.1893 141.475 42.2231L141.481 41.6836C141.481 41.4508 141.448 41.2498 141.38 41.0806C141.312 40.9071 141.217 40.7653 141.094 40.6553C140.972 40.541 140.823 40.4564 140.65 40.4014C140.481 40.3464 140.29 40.3188 140.079 40.3188C139.88 40.3188 139.689 40.3337 139.507 40.3633C139.325 40.3887 139.154 40.4246 138.993 40.4712C138.837 40.5135 138.691 40.5643 138.555 40.6235C138.424 40.6785 138.312 40.7378 138.219 40.8013L137.832 39.9824C137.988 39.8809 138.16 39.7878 138.346 39.7031C138.532 39.6143 138.727 39.5402 138.93 39.481C139.137 39.4175 139.347 39.3688 139.558 39.335C139.774 39.2969 139.986 39.2778 140.193 39.2778C140.574 39.2778 140.917 39.3244 141.221 39.4175C141.526 39.5063 141.784 39.646 141.996 39.8364C142.207 40.0269 142.37 40.2702 142.484 40.5664C142.599 40.8584 142.656 41.2096 142.656 41.6201L142.649 44.9082H143.379V46H141.469V45.3906ZM139.869 45.1938C140.026 45.1938 140.182 45.1748 140.339 45.1367C140.495 45.0986 140.644 45.0479 140.783 44.9844C140.923 44.9167 141.052 44.8405 141.17 44.7559C141.289 44.667 141.388 44.576 141.469 44.4829L141.475 42.9976H140.104C139.875 42.9976 139.666 43.0229 139.476 43.0737C139.289 43.1245 139.126 43.1986 138.987 43.2959C138.851 43.3932 138.746 43.5138 138.669 43.6577C138.593 43.8016 138.555 43.9666 138.555 44.1528C138.555 44.3263 138.587 44.4787 138.65 44.6099C138.714 44.7368 138.803 44.8447 138.917 44.9336C139.035 45.0182 139.175 45.0838 139.336 45.1304C139.497 45.1727 139.674 45.1938 139.869 45.1938ZM144.274 39.4238H146.769V40.5156H145.988L147.531 44.7114L149.143 40.5156H148.369V39.4238H150.863V40.5156H150.184L147.258 47.8979H148.159V48.9897H145.506V47.8979H146.306L147.004 46.0889L144.808 40.5156H144.274V39.4238Z" fill="#4B8E93"/>
<path d="M100.172 104.547C100.008 104.254 99.7988 104.039 99.5449 103.902C99.2949 103.766 99.0039 103.697 98.6719 103.697C98.418 103.697 98.1797 103.75 97.957 103.855C97.7344 103.961 97.5391 104.111 97.3711 104.307C97.207 104.502 97.0762 104.74 96.9785 105.021C96.8848 105.299 96.8379 105.609 96.8379 105.953C96.8379 106.293 96.8848 106.6 96.9785 106.873C97.0762 107.146 97.209 107.381 97.377 107.576C97.5449 107.768 97.7383 107.916 97.957 108.021C98.1797 108.123 98.418 108.174 98.6719 108.174C99.0469 108.174 99.373 108.084 99.6504 107.904C99.9277 107.721 100.148 107.453 100.312 107.102L101.215 107.547C101.098 107.797 100.953 108.021 100.781 108.221C100.609 108.42 100.414 108.59 100.195 108.73C99.9805 108.871 99.7422 108.979 99.4805 109.053C99.2227 109.131 98.9492 109.17 98.6602 109.17C98.2383 109.17 97.8477 109.092 97.4883 108.936C97.1328 108.775 96.8242 108.553 96.5625 108.268C96.3047 107.982 96.1035 107.643 95.959 107.248C95.8145 106.854 95.7422 106.422 95.7422 105.953C95.7422 105.484 95.8184 105.053 95.9707 104.658C96.123 104.264 96.332 103.926 96.5977 103.645C96.8633 103.359 97.1738 103.137 97.5293 102.977C97.8848 102.816 98.2656 102.736 98.6719 102.736C99.0547 102.736 99.416 102.803 99.7559 102.936C100.1 103.068 100.4 103.27 100.658 103.539H101.273V104.547H100.172ZM102.258 105.965C102.262 105.484 102.338 105.047 102.486 104.652C102.639 104.258 102.85 103.92 103.119 103.639C103.389 103.354 103.709 103.135 104.08 102.982C104.451 102.83 104.859 102.754 105.305 102.754C105.754 102.754 106.164 102.83 106.535 102.982C106.91 103.135 107.23 103.352 107.496 103.633C107.762 103.91 107.969 104.246 108.117 104.641C108.266 105.035 108.34 105.473 108.34 105.953C108.34 106.426 108.266 106.861 108.117 107.26C107.969 107.654 107.762 107.994 107.496 108.279C107.23 108.564 106.91 108.787 106.535 108.947C106.164 109.104 105.754 109.182 105.305 109.182C104.848 109.182 104.434 109.104 104.062 108.947C103.691 108.791 103.373 108.572 103.107 108.291C102.842 108.006 102.635 107.666 102.486 107.271C102.338 106.877 102.262 106.441 102.258 105.965ZM103.412 105.965C103.412 106.312 103.461 106.627 103.559 106.908C103.66 107.189 103.797 107.43 103.969 107.629C104.145 107.824 104.346 107.977 104.572 108.086C104.803 108.191 105.047 108.244 105.305 108.244C105.574 108.244 105.824 108.191 106.055 108.086C106.289 107.98 106.492 107.83 106.664 107.635C106.836 107.436 106.971 107.195 107.068 106.914C107.166 106.633 107.215 106.316 107.215 105.965C107.215 105.598 107.166 105.271 107.068 104.986C106.971 104.701 106.836 104.463 106.664 104.271C106.496 104.08 106.295 103.936 106.061 103.838C105.826 103.74 105.574 103.691 105.305 103.691C105.047 103.691 104.803 103.74 104.572 103.838C104.346 103.936 104.145 104.08 103.969 104.271C103.797 104.463 103.66 104.701 103.559 104.986C103.461 105.271 103.412 105.598 103.412 105.965ZM109.523 102.93H111.457V103.639H111.469C111.602 103.525 111.74 103.42 111.885 103.322C112.033 103.221 112.188 103.133 112.348 103.059C112.508 102.984 112.674 102.926 112.846 102.883C113.021 102.84 113.203 102.818 113.391 102.818C113.828 102.818 114.205 102.9 114.521 103.064C114.838 103.225 115.082 103.477 115.254 103.82C115.402 103.688 115.559 103.561 115.723 103.439C115.887 103.314 116.057 103.207 116.232 103.117C116.412 103.027 116.6 102.955 116.795 102.9C116.99 102.846 117.193 102.818 117.404 102.818C117.732 102.818 118.027 102.863 118.289 102.953C118.551 103.043 118.773 103.18 118.957 103.363C119.141 103.547 119.279 103.783 119.373 104.072C119.471 104.357 119.52 104.695 119.52 105.086V107.992H120.363V109H117.527V107.992H118.383V105.221C118.383 104.756 118.266 104.404 118.031 104.166C117.797 103.924 117.459 103.803 117.018 103.803C116.756 103.803 116.488 103.865 116.215 103.99C115.941 104.115 115.707 104.273 115.512 104.465V107.992H116.35V109H113.52V107.992H114.375V105.221C114.375 104.756 114.256 104.404 114.018 104.166C113.783 103.924 113.445 103.803 113.004 103.803C112.75 103.803 112.494 103.863 112.236 103.984C111.979 104.105 111.734 104.256 111.504 104.436V107.992H112.359V109H109.523V107.992H110.367V103.938H109.523V102.93ZM121.295 102.93H123.229V103.434C123.486 103.234 123.768 103.076 124.072 102.959C124.377 102.842 124.691 102.783 125.016 102.783C125.414 102.783 125.779 102.857 126.111 103.006C126.443 103.154 126.729 103.363 126.967 103.633C127.209 103.902 127.396 104.227 127.529 104.605C127.662 104.98 127.729 105.396 127.729 105.854C127.729 106.342 127.654 106.787 127.506 107.189C127.357 107.592 127.15 107.938 126.885 108.227C126.623 108.512 126.311 108.734 125.947 108.895C125.584 109.055 125.186 109.135 124.752 109.135C124.443 109.135 124.168 109.102 123.926 109.035C123.688 108.973 123.459 108.891 123.24 108.789V110.752H124.189V111.76H121.307V110.752H122.139V103.938H121.295V102.93ZM124.729 103.744C124.447 103.744 124.176 103.801 123.914 103.914C123.656 104.027 123.432 104.184 123.24 104.383V107.67C123.369 107.803 123.553 107.922 123.791 108.027C124.033 108.133 124.334 108.186 124.693 108.186C124.943 108.186 125.184 108.137 125.414 108.039C125.645 107.941 125.848 107.797 126.023 107.605C126.199 107.41 126.34 107.17 126.445 106.885C126.551 106.6 126.604 106.27 126.604 105.895C126.604 105.551 126.553 105.246 126.451 104.98C126.354 104.715 126.219 104.49 126.047 104.307C125.879 104.123 125.682 103.984 125.455 103.891C125.229 103.793 124.986 103.744 124.729 103.744ZM128.777 105.965C128.781 105.484 128.857 105.047 129.006 104.652C129.158 104.258 129.369 103.92 129.639 103.639C129.908 103.354 130.229 103.135 130.6 102.982C130.971 102.83 131.379 102.754 131.824 102.754C132.273 102.754 132.684 102.83 133.055 102.982C133.43 103.135 133.75 103.352 134.016 103.633C134.281 103.91 134.488 104.246 134.637 104.641C134.785 105.035 134.859 105.473 134.859 105.953C134.859 106.426 134.785 106.861 134.637 107.26C134.488 107.654 134.281 107.994 134.016 108.279C133.75 108.564 133.43 108.787 133.055 108.947C132.684 109.104 132.273 109.182 131.824 109.182C131.367 109.182 130.953 109.104 130.582 108.947C130.211 108.791 129.893 108.572 129.627 108.291C129.361 108.006 129.154 107.666 129.006 107.271C128.857 106.877 128.781 106.441 128.777 105.965ZM129.932 105.965C129.932 106.312 129.98 106.627 130.078 106.908C130.18 107.189 130.316 107.43 130.488 107.629C130.664 107.824 130.865 107.977 131.092 108.086C131.322 108.191 131.566 108.244 131.824 108.244C132.094 108.244 132.344 108.191 132.574 108.086C132.809 107.98 133.012 107.83 133.184 107.635C133.355 107.436 133.49 107.195 133.588 106.914C133.686 106.633 133.734 106.316 133.734 105.965C133.734 105.598 133.686 105.271 133.588 104.986C133.49 104.701 133.355 104.463 133.184 104.271C133.016 104.08 132.814 103.936 132.58 103.838C132.346 103.74 132.094 103.691 131.824 103.691C131.566 103.691 131.322 103.74 131.092 103.838C130.865 103.936 130.664 104.08 130.488 104.271C130.316 104.463 130.18 104.701 130.078 104.986C129.98 105.271 129.932 105.598 129.932 105.965ZM139.547 104.559C139.547 104.395 139.508 104.256 139.43 104.143C139.355 104.025 139.258 103.932 139.137 103.861C139.016 103.787 138.881 103.734 138.732 103.703C138.584 103.668 138.439 103.65 138.299 103.65C138.143 103.65 137.998 103.668 137.865 103.703C137.736 103.738 137.625 103.789 137.531 103.855C137.438 103.922 137.363 104.004 137.309 104.102C137.258 104.195 137.232 104.301 137.232 104.418C137.232 104.621 137.293 104.783 137.414 104.904C137.539 105.021 137.746 105.131 138.035 105.232L139.201 105.643C139.701 105.811 140.066 106.039 140.297 106.328C140.527 106.617 140.643 106.963 140.643 107.365C140.643 107.635 140.588 107.883 140.479 108.109C140.373 108.332 140.221 108.523 140.021 108.684C139.826 108.84 139.59 108.961 139.312 109.047C139.035 109.137 138.727 109.182 138.387 109.182C137.914 109.182 137.529 109.105 137.232 108.953C136.936 108.801 136.707 108.6 136.547 108.35H135.938V107.342H137.15C137.15 107.51 137.186 107.654 137.256 107.775C137.33 107.893 137.426 107.988 137.543 108.062C137.664 108.137 137.799 108.191 137.947 108.227C138.1 108.262 138.254 108.279 138.41 108.279C138.562 108.279 138.709 108.262 138.85 108.227C138.99 108.188 139.113 108.133 139.219 108.062C139.328 107.988 139.414 107.9 139.477 107.799C139.539 107.697 139.57 107.582 139.57 107.453C139.57 107.258 139.506 107.092 139.377 106.955C139.252 106.818 139.037 106.695 138.732 106.586L137.572 106.152C137.1 105.984 136.748 105.771 136.518 105.514C136.291 105.252 136.178 104.926 136.178 104.535C136.178 104.277 136.225 104.039 136.318 103.82C136.416 103.602 136.555 103.414 136.734 103.258C136.918 103.098 137.141 102.973 137.402 102.883C137.664 102.793 137.963 102.748 138.299 102.748C138.732 102.748 139.096 102.809 139.389 102.93C139.682 103.051 139.945 103.258 140.18 103.551H140.748V104.559H139.547ZM142.898 106.105C142.898 106.277 142.91 106.436 142.934 106.58C142.961 106.721 142.998 106.855 143.045 106.984C143.189 107.375 143.42 107.67 143.736 107.869C144.057 108.064 144.418 108.162 144.82 108.162C145.137 108.162 145.443 108.119 145.74 108.033C146.041 107.943 146.355 107.805 146.684 107.617L147.123 108.361C146.725 108.635 146.324 108.838 145.922 108.971C145.52 109.104 145.102 109.17 144.668 109.17C144.258 109.17 143.877 109.102 143.525 108.965C143.178 108.828 142.877 108.625 142.623 108.355C142.373 108.086 142.176 107.75 142.031 107.348C141.891 106.945 141.82 106.477 141.82 105.941C141.82 105.508 141.881 105.1 142.002 104.717C142.123 104.33 142.303 103.994 142.541 103.709C142.783 103.42 143.082 103.191 143.438 103.023C143.793 102.855 144.207 102.771 144.68 102.771C145.137 102.771 145.518 102.842 145.822 102.982C146.131 103.119 146.381 103.303 146.572 103.533C146.768 103.76 146.914 104.02 147.012 104.312C147.113 104.605 147.184 104.904 147.223 105.209C147.242 105.357 147.254 105.508 147.258 105.66C147.266 105.812 147.27 105.961 147.27 106.105H142.898ZM144.604 103.686C144.35 103.686 144.127 103.723 143.936 103.797C143.748 103.867 143.588 103.971 143.455 104.107C143.322 104.24 143.215 104.404 143.133 104.6C143.055 104.795 142.996 105.014 142.957 105.256H146.104C146.088 105.029 146.051 104.82 145.992 104.629C145.938 104.438 145.852 104.271 145.734 104.131C145.617 103.99 145.467 103.881 145.283 103.803C145.1 103.725 144.873 103.686 144.604 103.686ZM153.123 104.213H152.01V103.838C151.881 103.838 151.748 103.863 151.611 103.914C151.479 103.961 151.354 104.035 151.236 104.137C151.119 104.234 151.016 104.361 150.926 104.518C150.84 104.67 150.777 104.852 150.738 105.062V107.992H151.77V109H148.758V107.992H149.596L149.602 103.938H148.758V102.93H150.697V103.768C150.768 103.643 150.846 103.527 150.932 103.422C151.021 103.312 151.119 103.219 151.225 103.141C151.334 103.059 151.453 102.996 151.582 102.953C151.715 102.906 151.857 102.883 152.01 102.883C152.213 102.883 152.404 102.883 152.584 102.883C152.764 102.883 152.943 102.887 153.123 102.895V104.213Z" fill="#4B8E93"/>
<path d="M221.617 83.7402H222.54L221.661 81.2207H217.391L216.534 83.7402H217.677V85H214.073V83.7402H215.04L218.497 73.8965H220.658L224.107 83.7402H225.221V85H221.617V83.7402ZM217.809 80.0049H221.236L219.508 75.0391L217.809 80.0049ZM226.341 73.8965H230.831C231.329 73.8965 231.786 73.9624 232.201 74.0942C232.621 74.2212 232.982 74.4116 233.285 74.6655C233.592 74.9146 233.829 75.2271 233.995 75.603C234.166 75.979 234.251 76.4111 234.251 76.8994C234.251 77.3047 234.168 77.688 234.002 78.0493C233.836 78.4058 233.602 78.7183 233.299 78.9868C232.997 79.2554 232.633 79.4678 232.208 79.624C231.788 79.7803 231.319 79.8584 230.802 79.8584H228.832V83.7402H229.945V85H226.341V83.7402H227.396V75.1636H226.341V73.8965ZM228.832 75.1636V78.6572H230.831C231.109 78.6572 231.363 78.6206 231.593 78.5474C231.827 78.4692 232.027 78.3569 232.193 78.2104C232.364 78.064 232.496 77.8809 232.589 77.6611C232.687 77.4414 232.735 77.1875 232.735 76.8994C232.735 76.3525 232.569 75.9277 232.237 75.625C231.905 75.3174 231.375 75.1636 230.648 75.1636H228.832ZM235.658 73.8965H239.203V75.1636H238.148V83.7402H239.203V85H235.658V83.7402H236.712V75.1636H235.658V73.8965Z" fill="#4B8E93"/>
<path d="M221.617 143.74H222.54L221.661 141.221H217.391L216.534 143.74H217.677V145H214.073V143.74H215.04L218.497 133.896H220.658L224.107 143.74H225.221V145H221.617V143.74ZM217.809 140.005H221.236L219.508 135.039L217.809 140.005ZM226.341 133.896H230.831C231.329 133.896 231.786 133.962 232.201 134.094C232.621 134.221 232.982 134.412 233.285 134.666C233.592 134.915 233.829 135.227 233.995 135.603C234.166 135.979 234.251 136.411 234.251 136.899C234.251 137.305 234.168 137.688 234.002 138.049C233.836 138.406 233.602 138.718 233.299 138.987C232.997 139.255 232.633 139.468 232.208 139.624C231.788 139.78 231.319 139.858 230.802 139.858H228.832V143.74H229.945V145H226.341V143.74H227.396V135.164H226.341V133.896ZM228.832 135.164V138.657H230.831C231.109 138.657 231.363 138.621 231.593 138.547C231.827 138.469 232.027 138.357 232.193 138.21C232.364 138.064 232.496 137.881 232.589 137.661C232.687 137.441 232.735 137.188 232.735 136.899C232.735 136.353 232.569 135.928 232.237 135.625C231.905 135.317 231.375 135.164 230.648 135.164H228.832ZM235.658 133.896H239.203V135.164H238.148V143.74H239.203V145H235.658V143.74H236.712V135.164H235.658V133.896Z" fill="#4B8E93"/>
<path d="M309.112 153.448C309.112 153.243 309.063 153.07 308.966 152.928C308.873 152.782 308.751 152.665 308.6 152.577C308.448 152.484 308.28 152.418 308.094 152.379C307.909 152.335 307.728 152.313 307.552 152.313C307.357 152.313 307.176 152.335 307.01 152.379C306.849 152.423 306.71 152.486 306.593 152.569C306.476 152.652 306.383 152.755 306.314 152.877C306.251 152.994 306.219 153.126 306.219 153.272C306.219 153.526 306.295 153.729 306.446 153.88C306.603 154.027 306.861 154.164 307.223 154.291L308.68 154.803C309.305 155.013 309.762 155.299 310.05 155.66C310.338 156.021 310.482 156.454 310.482 156.957C310.482 157.293 310.414 157.604 310.277 157.887C310.145 158.165 309.955 158.404 309.706 158.604C309.461 158.8 309.166 158.951 308.819 159.059C308.473 159.171 308.087 159.227 307.662 159.227C307.071 159.227 306.59 159.132 306.219 158.941C305.848 158.751 305.562 158.5 305.362 158.187H304.601V156.927H306.117C306.117 157.137 306.161 157.318 306.249 157.469C306.341 157.616 306.461 157.735 306.607 157.828C306.759 157.921 306.927 157.989 307.113 158.033C307.303 158.077 307.496 158.099 307.691 158.099C307.882 158.099 308.065 158.077 308.241 158.033C308.417 157.984 308.57 157.916 308.702 157.828C308.839 157.735 308.946 157.625 309.024 157.499C309.103 157.372 309.142 157.228 309.142 157.066C309.142 156.822 309.061 156.615 308.9 156.444C308.744 156.273 308.475 156.119 308.094 155.982L306.644 155.44C306.053 155.23 305.614 154.964 305.326 154.642C305.042 154.315 304.901 153.907 304.901 153.419C304.901 153.097 304.959 152.799 305.077 152.525C305.199 152.252 305.372 152.018 305.597 151.822C305.826 151.622 306.104 151.466 306.432 151.354C306.759 151.241 307.132 151.185 307.552 151.185C308.094 151.185 308.548 151.261 308.915 151.412C309.281 151.563 309.61 151.822 309.903 152.188H310.614V153.448H309.112ZM313.302 155.382C313.302 155.597 313.316 155.794 313.346 155.975C313.38 156.151 313.426 156.319 313.485 156.48C313.666 156.969 313.954 157.337 314.349 157.586C314.75 157.831 315.201 157.953 315.704 157.953C316.1 157.953 316.483 157.899 316.854 157.792C317.23 157.679 317.623 157.506 318.033 157.271L318.583 158.202C318.084 158.543 317.584 158.797 317.081 158.963C316.578 159.129 316.056 159.212 315.514 159.212C315.001 159.212 314.525 159.127 314.085 158.956C313.651 158.785 313.275 158.531 312.958 158.194C312.645 157.857 312.398 157.438 312.218 156.935C312.042 156.432 311.954 155.846 311.954 155.177C311.954 154.635 312.03 154.125 312.181 153.646C312.333 153.163 312.557 152.743 312.855 152.386C313.158 152.025 313.531 151.739 313.976 151.529C314.42 151.319 314.938 151.214 315.528 151.214C316.1 151.214 316.576 151.302 316.957 151.478C317.342 151.649 317.655 151.878 317.894 152.167C318.138 152.45 318.321 152.774 318.443 153.141C318.57 153.507 318.658 153.88 318.707 154.261C318.731 154.447 318.746 154.635 318.751 154.825C318.761 155.016 318.766 155.201 318.766 155.382H313.302ZM315.433 152.357C315.116 152.357 314.837 152.403 314.598 152.496C314.364 152.584 314.164 152.713 313.998 152.884C313.832 153.05 313.697 153.255 313.595 153.5C313.497 153.744 313.424 154.017 313.375 154.32H317.308C317.289 154.037 317.242 153.775 317.169 153.536C317.101 153.297 316.993 153.089 316.847 152.914C316.7 152.738 316.512 152.601 316.283 152.503C316.053 152.406 315.77 152.357 315.433 152.357ZM326.083 153.016H324.691V152.547C324.53 152.547 324.364 152.579 324.193 152.643C324.027 152.701 323.871 152.794 323.724 152.921C323.578 153.043 323.448 153.202 323.336 153.397C323.229 153.587 323.15 153.814 323.102 154.078V157.74H324.391V159H320.626V157.74H321.673L321.681 152.672H320.626V151.412H323.05V152.459C323.138 152.303 323.236 152.159 323.343 152.027C323.456 151.891 323.578 151.773 323.709 151.676C323.846 151.573 323.995 151.495 324.156 151.441C324.322 151.383 324.5 151.354 324.691 151.354C324.945 151.354 325.184 151.354 325.409 151.354C325.633 151.354 325.858 151.358 326.083 151.368V153.016ZM327.071 151.412H329.693V152.672H328.983L330.858 157.901L332.689 152.672H332.228V151.412H334.63V152.672H333.978L331.495 159.117H330.147L327.672 152.672H327.071V151.412ZM335.655 151.412H338.131V157.74H339.273V159H335.67V157.74H336.754V152.672H335.655V151.412ZM336.498 148.724C336.498 148.597 336.522 148.478 336.571 148.365C336.625 148.248 336.693 148.148 336.776 148.065C336.864 147.977 336.966 147.909 337.083 147.86C337.201 147.806 337.325 147.779 337.457 147.779C337.584 147.779 337.704 147.806 337.816 147.86C337.933 147.909 338.033 147.977 338.116 148.065C338.204 148.148 338.272 148.248 338.321 148.365C338.375 148.478 338.402 148.597 338.402 148.724C338.402 148.856 338.375 148.98 338.321 149.098C338.272 149.215 338.204 149.32 338.116 149.413C338.033 149.5 337.933 149.571 337.816 149.625C337.704 149.674 337.584 149.698 337.457 149.698C337.325 149.698 337.201 149.674 337.083 149.625C336.966 149.571 336.864 149.5 336.776 149.413C336.693 149.32 336.625 149.215 336.571 149.098C336.522 148.98 336.498 148.856 336.498 148.724ZM346.012 153.434C345.807 153.067 345.545 152.799 345.228 152.628C344.916 152.457 344.552 152.372 344.137 152.372C343.819 152.372 343.521 152.438 343.243 152.569C342.965 152.701 342.721 152.889 342.511 153.133C342.306 153.377 342.142 153.675 342.02 154.027C341.903 154.374 341.844 154.762 341.844 155.191C341.844 155.616 341.903 156 342.02 156.341C342.142 156.683 342.308 156.976 342.518 157.22C342.728 157.459 342.97 157.645 343.243 157.777C343.521 157.904 343.819 157.967 344.137 157.967C344.605 157.967 345.013 157.855 345.36 157.63C345.707 157.401 345.982 157.066 346.188 156.627L347.315 157.184C347.169 157.496 346.988 157.777 346.773 158.026C346.559 158.275 346.314 158.487 346.041 158.663C345.772 158.839 345.475 158.973 345.147 159.066C344.825 159.164 344.483 159.212 344.122 159.212C343.595 159.212 343.106 159.115 342.657 158.919C342.213 158.719 341.827 158.441 341.5 158.084C341.178 157.728 340.926 157.303 340.746 156.81C340.565 156.317 340.475 155.777 340.475 155.191C340.475 154.605 340.57 154.066 340.76 153.573C340.951 153.08 341.212 152.657 341.544 152.306C341.876 151.949 342.264 151.671 342.708 151.471C343.153 151.271 343.629 151.17 344.137 151.17C344.615 151.17 345.067 151.253 345.492 151.419C345.921 151.585 346.297 151.837 346.62 152.174H347.389V153.434H346.012ZM350.011 155.382C350.011 155.597 350.025 155.794 350.055 155.975C350.089 156.151 350.135 156.319 350.194 156.48C350.375 156.969 350.663 157.337 351.058 157.586C351.458 157.831 351.91 157.953 352.413 157.953C352.809 157.953 353.192 157.899 353.563 157.792C353.939 157.679 354.332 157.506 354.742 157.271L355.292 158.202C354.793 158.543 354.293 158.797 353.79 158.963C353.287 159.129 352.765 159.212 352.223 159.212C351.71 159.212 351.234 159.127 350.794 158.956C350.36 158.785 349.984 158.531 349.667 158.194C349.354 157.857 349.107 157.438 348.927 156.935C348.751 156.432 348.663 155.846 348.663 155.177C348.663 154.635 348.739 154.125 348.89 153.646C349.042 153.163 349.266 152.743 349.564 152.386C349.867 152.025 350.24 151.739 350.685 151.529C351.129 151.319 351.646 151.214 352.237 151.214C352.809 151.214 353.285 151.302 353.666 151.478C354.051 151.649 354.364 151.878 354.603 152.167C354.847 152.45 355.03 152.774 355.152 153.141C355.279 153.507 355.367 153.88 355.416 154.261C355.44 154.447 355.455 154.635 355.46 154.825C355.47 155.016 355.475 155.201 355.475 155.382H350.011ZM352.142 152.357C351.825 152.357 351.546 152.403 351.307 152.496C351.073 152.584 350.873 152.713 350.707 152.884C350.541 153.05 350.406 153.255 350.304 153.5C350.206 153.744 350.133 154.017 350.084 154.32H354.017C353.998 154.037 353.951 153.775 353.878 153.536C353.81 153.297 353.702 153.089 353.556 152.914C353.409 152.738 353.221 152.601 352.992 152.503C352.762 152.406 352.479 152.357 352.142 152.357ZM360.931 157.74H361.986V149.164H360.931V147.882L365.926 147.896C366.375 147.896 366.798 147.982 367.193 148.153C367.589 148.319 367.933 148.548 368.226 148.841C368.519 149.129 368.749 149.471 368.915 149.867C369.085 150.262 369.171 150.687 369.171 151.141C369.171 151.615 369.039 152.047 368.775 152.438C368.512 152.828 368.136 153.141 367.647 153.375C367.887 153.502 368.104 153.651 368.299 153.822C368.495 153.988 368.661 154.171 368.797 154.371C368.934 154.571 369.039 154.784 369.112 155.008C369.19 155.233 369.229 155.462 369.229 155.697C369.229 156.161 369.144 156.593 368.973 156.993C368.807 157.394 368.578 157.743 368.285 158.041C367.992 158.338 367.647 158.573 367.252 158.744C366.861 158.915 366.441 159 365.992 159H360.931V157.74ZM363.421 154.063V157.74H366.007C366.241 157.74 366.458 157.682 366.659 157.564C366.859 157.447 367.035 157.296 367.186 157.11C367.337 156.92 367.455 156.705 367.538 156.466C367.625 156.227 367.669 155.982 367.669 155.733C367.669 155.519 367.625 155.311 367.538 155.111C367.45 154.911 367.33 154.732 367.179 154.576C367.032 154.42 366.856 154.295 366.651 154.203C366.451 154.11 366.236 154.063 366.007 154.063H363.421ZM363.421 149.164V152.789H365.941C366.175 152.789 366.393 152.743 366.593 152.65C366.798 152.557 366.974 152.433 367.12 152.276C367.271 152.12 367.391 151.939 367.479 151.734C367.567 151.529 367.611 151.317 367.611 151.097C367.611 150.858 367.567 150.624 367.479 150.394C367.391 150.16 367.271 149.952 367.12 149.771C366.969 149.591 366.791 149.444 366.585 149.332C366.385 149.22 366.17 149.164 365.941 149.164H363.421Z" fill="#4B8E93"/>
<rect x="84" y="1" width="81" height="214" rx="7" stroke="#4B8E93" stroke-width="2"/>
<rect x="88" y="83" width="72" height="45" rx="7" stroke="#4B8E93" stroke-width="2" stroke-dasharray="7 3"/>
<path d="M59.8164 95L42 108.125L59.8164 121.25" stroke="#4B8E93" stroke-width="2" stroke-linecap="round" stroke-linejoin="round"/>
<path d="M43.9999 108.25H82.9999" stroke="#4B8E93" stroke-width="2" stroke-linecap="round"/>
<path d="M184.816 78.75L167 91.875L184.816 105" stroke="#4B8E93" stroke-width="2" stroke-linecap="round" stroke-linejoin="round"/>
<path d="M277.015 63V81.375C277.015 84.1598 275.513 86.8305 272.84 88.7996C270.167 90.7688 266.542 91.875 262.762 91.875H220.002" stroke="#4B8E93" stroke-width="2" stroke-linecap="round" stroke-linejoin="round"/>
<path d="M169 92H219" stroke="#4B8E93" stroke-width="2" stroke-linecap="round"/>
<path d="M184.816 139.25L167 126.125L184.816 113" stroke="#4B8E93" stroke-width="2" stroke-linecap="round" stroke-linejoin="round"/>
<path d="M277.015 155V136.625C277.015 133.84 275.513 131.17 272.84 129.2C270.167 127.231 266.542 126.125 262.762 126.125H220.002" stroke="#4B8E93" stroke-width="2" stroke-linecap="round" stroke-linejoin="round"/>
<path d="M169 126H219" stroke="#4B8E93" stroke-width="2" stroke-linecap="round"/>
</svg>
