<svg width="571" height="216" viewBox="0 0 571 216" fill="none" xmlns="http://www.w3.org/2000/svg">
<path d="M437.931 30.9892L390.535 30.9953C388.457 30.9969 386.416 31.329 384.617 31.9583C382.819 32.5877 381.325 33.4921 380.286 34.5809L356.591 59.6737C355.551 60.7636 355.004 61.9998 355.004 63.2581C355.004 64.5165 355.552 65.7526 356.592 66.8422L380.293 91.9289C381.332 93.0174 382.826 93.9214 384.626 94.5503C386.425 95.1792 388.465 95.5108 390.543 95.5118L437.939 95.5057C440.017 95.5041 442.058 95.172 443.857 94.5427C445.656 93.9133 447.15 93.0089 448.188 91.9201L471.883 66.8273C472.923 65.7374 473.47 64.5012 473.47 63.2429C473.47 61.9845 472.922 60.7484 471.882 59.6588L448.181 34.5722C447.142 33.4836 445.648 32.5796 443.849 31.9507C442.05 31.3218 440.009 30.9903 437.931 30.9892Z" stroke="#4B8E93" stroke-width="2" stroke-linecap="round" stroke-linejoin="round"/>
<path d="M294.931 76.0046L247.535 76.0107C245.457 76.0123 243.416 76.3444 241.617 76.9737C239.819 77.6031 238.325 78.5075 237.286 79.5963L213.591 104.689C212.551 105.779 212.004 107.015 212.004 108.274C212.004 109.532 212.552 110.768 213.592 111.858L237.293 136.944C238.332 138.033 239.826 138.937 241.626 139.566C243.425 140.195 245.465 140.526 247.543 140.527L294.939 140.521C297.017 140.519 299.058 140.187 300.857 139.558C302.656 138.929 304.15 138.024 305.188 136.935L328.883 111.843C329.923 110.753 330.47 109.517 330.47 108.258C330.47 107 329.922 105.764 328.882 104.674L305.181 79.5875C304.142 78.499 302.648 77.595 300.849 76.9661C299.05 76.3372 297.009 76.0056 294.931 76.0046Z" stroke="#4B8E93" stroke-width="2" stroke-linecap="round" stroke-linejoin="round"/>
<path d="M437.931 121.989L390.535 121.995C388.457 121.997 386.416 122.329 384.617 122.958C382.819 123.588 381.325 124.492 380.286 125.581L356.591 150.674C355.551 151.764 355.004 153 355.004 154.258C355.004 155.516 355.552 156.753 356.592 157.842L380.293 182.929C381.332 184.017 382.826 184.921 384.626 185.55C386.425 186.179 388.465 186.511 390.543 186.512L437.939 186.506C440.017 186.504 442.058 186.172 443.857 185.543C445.656 184.913 447.15 184.009 448.188 182.92L471.883 157.827C472.923 156.737 473.47 155.501 473.47 154.243C473.47 152.985 472.922 151.748 471.882 150.659L448.181 125.572C447.142 124.484 445.648 123.58 443.849 122.951C442.05 122.322 440.009 121.99 437.931 121.989Z" stroke="#4B8E93" stroke-width="2" stroke-linecap="round" stroke-linejoin="round"/>
<path d="M542 48.2C557.464 48.2 570 43.9019 570 38.6C570 33.2981 557.464 29 542 29C526.536 29 514 33.2981 514 38.6C514 43.9019 526.536 48.2 542 48.2Z" stroke="#4B8E93" stroke-width="2" stroke-linecap="round" stroke-linejoin="round"/>
<path d="M570 61C570 66.312 557.556 70.6 542 70.6C526.444 70.6 514 66.312 514 61" stroke="#4B8E93" stroke-width="2" stroke-linecap="round" stroke-linejoin="round"/>
<path d="M514 38.6001V83.4001C514 88.7121 526.444 93.0001 542 93.0001C557.556 93.0001 570 88.7121 570 83.4001V38.6001" stroke="#4B8E93" stroke-width="2" stroke-linecap="round" stroke-linejoin="round"/>
<path d="M542 139.2C557.464 139.2 570 134.902 570 129.6C570 124.298 557.464 120 542 120C526.536 120 514 124.298 514 129.6C514 134.902 526.536 139.2 542 139.2Z" stroke="#4B8E93" stroke-width="2" stroke-linecap="round" stroke-linejoin="round"/>
<path d="M570 152C570 157.312 557.556 161.6 542 161.6C526.444 161.6 514 157.312 514 152" stroke="#4B8E93" stroke-width="2" stroke-linecap="round" stroke-linejoin="round"/>
<path d="M514 129.6V174.4C514 179.712 526.444 184 542 184C557.556 184 570 179.712 570 174.4V129.6" stroke="#4B8E93" stroke-width="2" stroke-linecap="round" stroke-linejoin="round"/>
<path d="M474 63H513M513 63L493.5 51M513 63L493.5 75" stroke="#4B8E93" stroke-width="2" stroke-linecap="round" stroke-linejoin="round"/>
<path d="M474 154H513M513 154L493.5 142M513 154L493.5 166" stroke="#4B8E93" stroke-width="2" stroke-linecap="round" stroke-linejoin="round"/>
<path d="M36.875 77H6.125C3.29454 77 1 79.7423 1 83.125V132.125C1 135.508 3.29454 138.25 6.125 138.25H36.875C39.7055 138.25 42 135.508 42 132.125V83.125C42 79.7423 39.7055 77 36.875 77Z" stroke="#4B8E93" stroke-width="2" stroke-linecap="round" stroke-linejoin="round"/>
<path d="M21.5 126H21.5256" stroke="#4B8E93" stroke-width="2" stroke-linecap="round" stroke-linejoin="round"/>
<path d="M385.112 62.4482C385.112 62.2432 385.063 62.0698 384.966 61.9282C384.873 61.7817 384.751 61.6646 384.6 61.5767C384.448 61.4839 384.28 61.418 384.094 61.3789C383.909 61.335 383.728 61.313 383.552 61.313C383.357 61.313 383.176 61.335 383.01 61.3789C382.849 61.4229 382.71 61.4863 382.593 61.5693C382.476 61.6523 382.383 61.7549 382.314 61.877C382.251 61.9941 382.219 62.126 382.219 62.2725C382.219 62.5264 382.295 62.729 382.446 62.8804C382.603 63.0269 382.861 63.1636 383.223 63.2905L384.68 63.8032C385.305 64.0132 385.762 64.2988 386.05 64.6602C386.338 65.0215 386.482 65.4536 386.482 65.9565C386.482 66.2935 386.414 66.6035 386.277 66.8867C386.145 67.165 385.955 67.4043 385.706 67.6045C385.461 67.7998 385.166 67.9512 384.819 68.0586C384.473 68.1709 384.087 68.2271 383.662 68.2271C383.071 68.2271 382.59 68.1318 382.219 67.9414C381.848 67.751 381.562 67.4995 381.362 67.187H380.601V65.9272H382.117C382.117 66.1372 382.161 66.3179 382.249 66.4692C382.341 66.6157 382.461 66.7354 382.607 66.8281C382.759 66.9209 382.927 66.9893 383.113 67.0332C383.303 67.0771 383.496 67.0991 383.691 67.0991C383.882 67.0991 384.065 67.0771 384.241 67.0332C384.417 66.9844 384.57 66.916 384.702 66.8281C384.839 66.7354 384.946 66.6255 385.024 66.4985C385.103 66.3716 385.142 66.2275 385.142 66.0664C385.142 65.8223 385.061 65.6147 384.9 65.4438C384.744 65.2729 384.475 65.1191 384.094 64.9824L382.644 64.4404C382.053 64.2305 381.614 63.9644 381.326 63.6421C381.042 63.3149 380.901 62.9072 380.901 62.4189C380.901 62.0967 380.959 61.7988 381.077 61.5254C381.199 61.252 381.372 61.0176 381.597 60.8223C381.826 60.6221 382.104 60.4658 382.432 60.3535C382.759 60.2412 383.132 60.1851 383.552 60.1851C384.094 60.1851 384.548 60.2607 384.915 60.4121C385.281 60.5635 385.61 60.8223 385.903 61.1885H386.614V62.4482H385.112ZM389.302 64.3818C389.302 64.5967 389.316 64.7944 389.346 64.9751C389.38 65.1509 389.426 65.3193 389.485 65.4805C389.666 65.9688 389.954 66.3374 390.349 66.5864C390.75 66.8306 391.201 66.9526 391.704 66.9526C392.1 66.9526 392.483 66.8989 392.854 66.7915C393.23 66.6792 393.623 66.5059 394.033 66.2715L394.583 67.2017C394.084 67.5435 393.584 67.7974 393.081 67.9634C392.578 68.1294 392.056 68.2124 391.514 68.2124C391.001 68.2124 390.525 68.127 390.085 67.9561C389.651 67.7852 389.275 67.5312 388.958 67.1943C388.645 66.8574 388.398 66.4375 388.218 65.9346C388.042 65.4316 387.954 64.8457 387.954 64.1768C387.954 63.6348 388.03 63.1245 388.181 62.646C388.333 62.1626 388.557 61.7427 388.855 61.3862C389.158 61.0249 389.531 60.7393 389.976 60.5293C390.42 60.3193 390.938 60.2144 391.528 60.2144C392.1 60.2144 392.576 60.3022 392.957 60.478C393.342 60.6489 393.655 60.8784 393.894 61.1665C394.138 61.4497 394.321 61.7744 394.443 62.1406C394.57 62.5068 394.658 62.8804 394.707 63.2612C394.731 63.4468 394.746 63.6348 394.751 63.8252C394.761 64.0156 394.766 64.2012 394.766 64.3818H389.302ZM391.433 61.3569C391.116 61.3569 390.837 61.4033 390.598 61.4961C390.364 61.584 390.164 61.7134 389.998 61.8843C389.832 62.0503 389.697 62.2554 389.595 62.4995C389.497 62.7437 389.424 63.0171 389.375 63.3198H393.308C393.289 63.0366 393.242 62.7754 393.169 62.5361C393.101 62.2969 392.993 62.0894 392.847 61.9136C392.7 61.7378 392.512 61.6011 392.283 61.5034C392.053 61.4058 391.77 61.3569 391.433 61.3569ZM402.083 62.0161H400.691V61.5474C400.53 61.5474 400.364 61.5791 400.193 61.6426C400.027 61.7012 399.871 61.7939 399.724 61.9209C399.578 62.043 399.448 62.2017 399.336 62.397C399.229 62.5874 399.15 62.8145 399.102 63.0781V66.7402H400.391V68H396.626V66.7402H397.673L397.681 61.6719H396.626V60.4121H399.05V61.4595C399.138 61.3032 399.236 61.1592 399.343 61.0273C399.456 60.8906 399.578 60.7734 399.709 60.6758C399.846 60.5732 399.995 60.4951 400.156 60.4414C400.322 60.3828 400.5 60.3535 400.691 60.3535C400.945 60.3535 401.184 60.3535 401.409 60.3535C401.633 60.3535 401.858 60.3584 402.083 60.3682V62.0161ZM403.071 60.4121H405.693V61.6719H404.983L406.858 66.9014L408.689 61.6719H408.228V60.4121H410.63V61.6719H409.978L407.495 68.1172H406.147L403.672 61.6719H403.071V60.4121ZM411.655 60.4121H414.131V66.7402H415.273V68H411.67V66.7402H412.754V61.6719H411.655V60.4121ZM412.498 57.7241C412.498 57.5972 412.522 57.4775 412.571 57.3652C412.625 57.248 412.693 57.1479 412.776 57.0649C412.864 56.9771 412.966 56.9087 413.083 56.8599C413.201 56.8062 413.325 56.7793 413.457 56.7793C413.584 56.7793 413.704 56.8062 413.816 56.8599C413.933 56.9087 414.033 56.9771 414.116 57.0649C414.204 57.1479 414.272 57.248 414.321 57.3652C414.375 57.4775 414.402 57.5972 414.402 57.7241C414.402 57.856 414.375 57.9805 414.321 58.0977C414.272 58.2148 414.204 58.3198 414.116 58.4126C414.033 58.5005 413.933 58.5713 413.816 58.625C413.704 58.6738 413.584 58.6982 413.457 58.6982C413.325 58.6982 413.201 58.6738 413.083 58.625C412.966 58.5713 412.864 58.5005 412.776 58.4126C412.693 58.3198 412.625 58.2148 412.571 58.0977C412.522 57.9805 412.498 57.856 412.498 57.7241ZM422.012 62.4336C421.807 62.0674 421.545 61.7988 421.228 61.6279C420.916 61.457 420.552 61.3716 420.137 61.3716C419.819 61.3716 419.521 61.4375 419.243 61.5693C418.965 61.7012 418.721 61.8892 418.511 62.1333C418.306 62.3774 418.142 62.6753 418.02 63.0269C417.903 63.3735 417.844 63.7617 417.844 64.1914C417.844 64.6162 417.903 64.9995 418.02 65.3413C418.142 65.6831 418.308 65.9761 418.518 66.2202C418.728 66.4595 418.97 66.645 419.243 66.7769C419.521 66.9038 419.819 66.9673 420.137 66.9673C420.605 66.9673 421.013 66.855 421.36 66.6304C421.707 66.4009 421.982 66.0664 422.188 65.627L423.315 66.1836C423.169 66.4961 422.988 66.7769 422.773 67.0259C422.559 67.2749 422.314 67.4873 422.041 67.6631C421.772 67.8389 421.475 67.9731 421.147 68.0659C420.825 68.1636 420.483 68.2124 420.122 68.2124C419.595 68.2124 419.106 68.1147 418.657 67.9194C418.213 67.7192 417.827 67.4409 417.5 67.0845C417.178 66.728 416.926 66.3032 416.746 65.8101C416.565 65.3169 416.475 64.7773 416.475 64.1914C416.475 63.6055 416.57 63.0659 416.76 62.5728C416.951 62.0796 417.212 61.6572 417.544 61.3057C417.876 60.9492 418.264 60.6709 418.708 60.4707C419.153 60.2705 419.629 60.1704 420.137 60.1704C420.615 60.1704 421.067 60.2534 421.492 60.4194C421.921 60.5854 422.297 60.8369 422.62 61.1738H423.389V62.4336H422.012ZM426.011 64.3818C426.011 64.5967 426.025 64.7944 426.055 64.9751C426.089 65.1509 426.135 65.3193 426.194 65.4805C426.375 65.9688 426.663 66.3374 427.058 66.5864C427.458 66.8306 427.91 66.9526 428.413 66.9526C428.809 66.9526 429.192 66.8989 429.563 66.7915C429.939 66.6792 430.332 66.5059 430.742 66.2715L431.292 67.2017C430.793 67.5435 430.293 67.7974 429.79 67.9634C429.287 68.1294 428.765 68.2124 428.223 68.2124C427.71 68.2124 427.234 68.127 426.794 67.9561C426.36 67.7852 425.984 67.5312 425.667 67.1943C425.354 66.8574 425.107 66.4375 424.927 65.9346C424.751 65.4316 424.663 64.8457 424.663 64.1768C424.663 63.6348 424.739 63.1245 424.89 62.646C425.042 62.1626 425.266 61.7427 425.564 61.3862C425.867 61.0249 426.24 60.7393 426.685 60.5293C427.129 60.3193 427.646 60.2144 428.237 60.2144C428.809 60.2144 429.285 60.3022 429.666 60.478C430.051 60.6489 430.364 60.8784 430.603 61.1665C430.847 61.4497 431.03 61.7744 431.152 62.1406C431.279 62.5068 431.367 62.8804 431.416 63.2612C431.44 63.4468 431.455 63.6348 431.46 63.8252C431.47 64.0156 431.475 64.2012 431.475 64.3818H426.011ZM428.142 61.3569C427.825 61.3569 427.546 61.4033 427.307 61.4961C427.073 61.584 426.873 61.7134 426.707 61.8843C426.541 62.0503 426.406 62.2554 426.304 62.4995C426.206 62.7437 426.133 63.0171 426.084 63.3198H430.017C429.998 63.0366 429.951 62.7754 429.878 62.5361C429.81 62.2969 429.702 62.0894 429.556 61.9136C429.409 61.7378 429.221 61.6011 428.992 61.5034C428.762 61.4058 428.479 61.3569 428.142 61.3569ZM443.501 66.7402H444.424L443.545 64.2207H439.275L438.418 66.7402H439.561V68H435.957V66.7402H436.924L440.381 56.8965H442.542L445.991 66.7402H447.104V68H443.501V66.7402ZM439.692 63.0049H443.12L441.392 58.0391L439.692 63.0049Z" fill="#4B8E93"/>
<path d="M240.211 108.434C240.006 108.067 239.745 107.799 239.427 107.628C239.115 107.457 238.751 107.372 238.336 107.372C238.019 107.372 237.721 107.438 237.442 107.569C237.164 107.701 236.92 107.889 236.71 108.133C236.505 108.377 236.341 108.675 236.219 109.027C236.102 109.374 236.043 109.762 236.043 110.191C236.043 110.616 236.102 111 236.219 111.341C236.341 111.683 236.507 111.976 236.717 112.22C236.927 112.459 237.169 112.645 237.442 112.777C237.721 112.904 238.019 112.967 238.336 112.967C238.805 112.967 239.212 112.855 239.559 112.63C239.906 112.401 240.182 112.066 240.387 111.627L241.515 112.184C241.368 112.496 241.188 112.777 240.973 113.026C240.758 113.275 240.514 113.487 240.24 113.663C239.972 113.839 239.674 113.973 239.347 114.066C239.024 114.164 238.683 114.212 238.321 114.212C237.794 114.212 237.306 114.115 236.856 113.919C236.412 113.719 236.026 113.441 235.699 113.084C235.377 112.728 235.125 112.303 234.945 111.81C234.764 111.317 234.674 110.777 234.674 110.191C234.674 109.605 234.769 109.066 234.959 108.573C235.15 108.08 235.411 107.657 235.743 107.306C236.075 106.949 236.463 106.671 236.908 106.471C237.352 106.271 237.828 106.17 238.336 106.17C238.814 106.17 239.266 106.253 239.691 106.419C240.121 106.585 240.497 106.837 240.819 107.174H241.588V108.434H240.211ZM242.818 110.206C242.823 109.605 242.918 109.059 243.104 108.565C243.294 108.072 243.558 107.65 243.895 107.298C244.232 106.942 244.632 106.668 245.096 106.478C245.56 106.288 246.07 106.192 246.627 106.192C247.188 106.192 247.701 106.288 248.165 106.478C248.634 106.668 249.034 106.939 249.366 107.291C249.698 107.638 249.957 108.058 250.143 108.551C250.328 109.044 250.421 109.591 250.421 110.191C250.421 110.782 250.328 111.327 250.143 111.825C249.957 112.318 249.698 112.743 249.366 113.099C249.034 113.456 248.634 113.734 248.165 113.934C247.701 114.129 247.188 114.227 246.627 114.227C246.056 114.227 245.538 114.129 245.074 113.934C244.61 113.739 244.212 113.465 243.88 113.114C243.548 112.757 243.29 112.333 243.104 111.839C242.918 111.346 242.823 110.802 242.818 110.206ZM244.261 110.206C244.261 110.641 244.322 111.034 244.444 111.385C244.571 111.737 244.742 112.037 244.957 112.286C245.177 112.53 245.428 112.721 245.711 112.857C246 112.989 246.305 113.055 246.627 113.055C246.964 113.055 247.276 112.989 247.564 112.857C247.857 112.726 248.111 112.538 248.326 112.293C248.541 112.044 248.709 111.744 248.832 111.393C248.954 111.041 249.015 110.646 249.015 110.206C249.015 109.747 248.954 109.339 248.832 108.983C248.709 108.626 248.541 108.329 248.326 108.089C248.116 107.85 247.865 107.669 247.572 107.547C247.279 107.425 246.964 107.364 246.627 107.364C246.305 107.364 246 107.425 245.711 107.547C245.428 107.669 245.177 107.85 244.957 108.089C244.742 108.329 244.571 108.626 244.444 108.983C244.322 109.339 244.261 109.747 244.261 110.206ZM251.9 106.412H254.317V107.298H254.332C254.498 107.157 254.671 107.025 254.852 106.903C255.038 106.776 255.23 106.666 255.431 106.573C255.631 106.48 255.838 106.407 256.053 106.354C256.273 106.3 256.5 106.273 256.734 106.273C257.281 106.273 257.752 106.375 258.148 106.581C258.543 106.781 258.849 107.096 259.063 107.525C259.249 107.359 259.444 107.201 259.649 107.049C259.854 106.893 260.067 106.759 260.287 106.646C260.511 106.534 260.746 106.444 260.99 106.375C261.234 106.307 261.488 106.273 261.751 106.273C262.162 106.273 262.53 106.329 262.857 106.441C263.185 106.554 263.463 106.725 263.692 106.954C263.922 107.184 264.095 107.479 264.212 107.84C264.334 108.197 264.396 108.619 264.396 109.107V112.74H265.45V114H261.905V112.74H262.975V109.276C262.975 108.695 262.828 108.255 262.535 107.958C262.242 107.655 261.82 107.503 261.268 107.503C260.941 107.503 260.606 107.582 260.265 107.738C259.923 107.894 259.63 108.092 259.386 108.331V112.74H260.433V114H256.896V112.74H257.965V109.276C257.965 108.695 257.816 108.255 257.518 107.958C257.225 107.655 256.803 107.503 256.251 107.503C255.934 107.503 255.614 107.579 255.292 107.73C254.969 107.882 254.664 108.07 254.376 108.294V112.74H255.445V114H251.9V112.74H252.955V107.672H251.9V106.412ZM266.615 106.412H269.032V107.042C269.354 106.793 269.706 106.595 270.086 106.449C270.467 106.302 270.86 106.229 271.266 106.229C271.764 106.229 272.22 106.322 272.635 106.507C273.05 106.693 273.407 106.954 273.705 107.291C274.007 107.628 274.242 108.033 274.408 108.507C274.574 108.976 274.657 109.496 274.657 110.067C274.657 110.677 274.564 111.234 274.378 111.737C274.193 112.24 273.934 112.672 273.602 113.033C273.275 113.39 272.884 113.668 272.43 113.868C271.976 114.068 271.478 114.168 270.936 114.168C270.55 114.168 270.206 114.127 269.903 114.044C269.605 113.966 269.32 113.863 269.046 113.736V116.19H270.233V117.45H266.629V116.19H267.669V107.672H266.615V106.412ZM270.907 107.43C270.555 107.43 270.216 107.501 269.889 107.643C269.566 107.784 269.286 107.979 269.046 108.229V112.337C269.208 112.503 269.437 112.652 269.735 112.784C270.038 112.916 270.414 112.982 270.863 112.982C271.175 112.982 271.476 112.921 271.764 112.799C272.052 112.677 272.306 112.496 272.525 112.257C272.745 112.013 272.921 111.712 273.053 111.356C273.185 111 273.25 110.587 273.25 110.118C273.25 109.688 273.187 109.308 273.06 108.976C272.938 108.644 272.77 108.363 272.555 108.133C272.345 107.904 272.098 107.73 271.815 107.613C271.532 107.491 271.229 107.43 270.907 107.43ZM275.968 110.206C275.973 109.605 276.068 109.059 276.253 108.565C276.444 108.072 276.708 107.65 277.044 107.298C277.381 106.942 277.782 106.668 278.246 106.478C278.709 106.288 279.22 106.192 279.776 106.192C280.338 106.192 280.851 106.288 281.314 106.478C281.783 106.668 282.184 106.939 282.516 107.291C282.848 107.638 283.106 108.058 283.292 108.551C283.478 109.044 283.57 109.591 283.57 110.191C283.57 110.782 283.478 111.327 283.292 111.825C283.106 112.318 282.848 112.743 282.516 113.099C282.184 113.456 281.783 113.734 281.314 113.934C280.851 114.129 280.338 114.227 279.776 114.227C279.205 114.227 278.688 114.129 278.224 113.934C277.76 113.739 277.362 113.465 277.03 113.114C276.698 112.757 276.439 112.333 276.253 111.839C276.068 111.346 275.973 110.802 275.968 110.206ZM277.411 110.206C277.411 110.641 277.472 111.034 277.594 111.385C277.721 111.737 277.892 112.037 278.106 112.286C278.326 112.53 278.578 112.721 278.861 112.857C279.149 112.989 279.454 113.055 279.776 113.055C280.113 113.055 280.426 112.989 280.714 112.857C281.007 112.726 281.261 112.538 281.476 112.293C281.69 112.044 281.859 111.744 281.981 111.393C282.103 111.041 282.164 110.646 282.164 110.206C282.164 109.747 282.103 109.339 281.981 108.983C281.859 108.626 281.69 108.329 281.476 108.089C281.266 107.85 281.014 107.669 280.721 107.547C280.428 107.425 280.113 107.364 279.776 107.364C279.454 107.364 279.149 107.425 278.861 107.547C278.578 107.669 278.326 107.85 278.106 108.089C277.892 108.329 277.721 108.626 277.594 108.983C277.472 109.339 277.411 109.747 277.411 110.206ZM289.43 108.448C289.43 108.243 289.381 108.07 289.283 107.928C289.19 107.782 289.068 107.665 288.917 107.577C288.766 107.484 288.597 107.418 288.412 107.379C288.226 107.335 288.045 107.313 287.87 107.313C287.674 107.313 287.494 107.335 287.328 107.379C287.167 107.423 287.027 107.486 286.91 107.569C286.793 107.652 286.7 107.755 286.632 107.877C286.568 107.994 286.537 108.126 286.537 108.272C286.537 108.526 286.612 108.729 286.764 108.88C286.92 109.027 287.179 109.164 287.54 109.291L288.998 109.803C289.623 110.013 290.079 110.299 290.367 110.66C290.655 111.021 290.799 111.454 290.799 111.957C290.799 112.293 290.731 112.604 290.594 112.887C290.462 113.165 290.272 113.404 290.023 113.604C289.779 113.8 289.483 113.951 289.137 114.059C288.79 114.171 288.404 114.227 287.979 114.227C287.389 114.227 286.908 114.132 286.537 113.941C286.166 113.751 285.88 113.5 285.68 113.187H284.918V111.927H286.434C286.434 112.137 286.478 112.318 286.566 112.469C286.659 112.616 286.778 112.735 286.925 112.828C287.076 112.921 287.245 112.989 287.43 113.033C287.621 113.077 287.813 113.099 288.009 113.099C288.199 113.099 288.382 113.077 288.558 113.033C288.734 112.984 288.888 112.916 289.02 112.828C289.156 112.735 289.264 112.625 289.342 112.499C289.42 112.372 289.459 112.228 289.459 112.066C289.459 111.822 289.378 111.615 289.217 111.444C289.061 111.273 288.792 111.119 288.412 110.982L286.961 110.44C286.371 110.23 285.931 109.964 285.643 109.642C285.36 109.315 285.218 108.907 285.218 108.419C285.218 108.097 285.277 107.799 285.394 107.525C285.516 107.252 285.689 107.018 285.914 106.822C286.144 106.622 286.422 106.466 286.749 106.354C287.076 106.241 287.45 106.185 287.87 106.185C288.412 106.185 288.866 106.261 289.232 106.412C289.598 106.563 289.928 106.822 290.221 107.188H290.931V108.448H289.43ZM293.619 110.382C293.619 110.597 293.634 110.794 293.663 110.975C293.697 111.151 293.744 111.319 293.802 111.48C293.983 111.969 294.271 112.337 294.667 112.586C295.067 112.831 295.519 112.953 296.021 112.953C296.417 112.953 296.8 112.899 297.171 112.792C297.547 112.679 297.94 112.506 298.351 112.271L298.9 113.202C298.402 113.543 297.901 113.797 297.398 113.963C296.896 114.129 296.373 114.212 295.831 114.212C295.318 114.212 294.842 114.127 294.403 113.956C293.968 113.785 293.592 113.531 293.275 113.194C292.962 112.857 292.716 112.438 292.535 111.935C292.359 111.432 292.271 110.846 292.271 110.177C292.271 109.635 292.347 109.125 292.499 108.646C292.65 108.163 292.875 107.743 293.172 107.386C293.475 107.025 293.849 106.739 294.293 106.529C294.737 106.319 295.255 106.214 295.846 106.214C296.417 106.214 296.893 106.302 297.274 106.478C297.66 106.649 297.972 106.878 298.211 107.167C298.456 107.45 298.639 107.774 298.761 108.141C298.888 108.507 298.976 108.88 299.024 109.261C299.049 109.447 299.063 109.635 299.068 109.825C299.078 110.016 299.083 110.201 299.083 110.382H293.619ZM295.75 107.357C295.433 107.357 295.155 107.403 294.916 107.496C294.681 107.584 294.481 107.713 294.315 107.884C294.149 108.05 294.015 108.255 293.912 108.5C293.814 108.744 293.741 109.017 293.692 109.32H297.625C297.606 109.037 297.56 108.775 297.486 108.536C297.418 108.297 297.311 108.089 297.164 107.914C297.018 107.738 296.83 107.601 296.6 107.503C296.371 107.406 296.087 107.357 295.75 107.357ZM306.4 108.016H305.008V107.547C304.847 107.547 304.681 107.579 304.51 107.643C304.344 107.701 304.188 107.794 304.042 107.921C303.895 108.043 303.766 108.202 303.653 108.397C303.546 108.587 303.468 108.814 303.419 109.078V112.74H304.708V114H300.943V112.74H301.991L301.998 107.672H300.943V106.412H303.368V107.459C303.456 107.303 303.553 107.159 303.661 107.027C303.773 106.891 303.895 106.773 304.027 106.676C304.164 106.573 304.312 106.495 304.474 106.441C304.64 106.383 304.818 106.354 305.008 106.354C305.262 106.354 305.501 106.354 305.726 106.354C305.951 106.354 306.175 106.358 306.4 106.368V108.016Z" fill="#4B8E93"/>
<path d="M179.617 99.7402H180.54L179.661 97.2207H175.391L174.534 99.7402H175.677V101H172.073V99.7402H173.04L176.497 89.8965H178.658L182.107 99.7402H183.221V101H179.617V99.7402ZM175.809 96.0049H179.236L177.508 91.0391L175.809 96.0049ZM184.341 89.8965H188.831C189.329 89.8965 189.786 89.9624 190.201 90.0942C190.621 90.2212 190.982 90.4116 191.285 90.6655C191.592 90.9146 191.829 91.2271 191.995 91.603C192.166 91.979 192.251 92.4111 192.251 92.8994C192.251 93.3047 192.168 93.688 192.002 94.0493C191.836 94.4058 191.602 94.7183 191.299 94.9868C190.997 95.2554 190.633 95.4678 190.208 95.624C189.788 95.7803 189.319 95.8584 188.802 95.8584H186.832V99.7402H187.945V101H184.341V99.7402H185.396V91.1636H184.341V89.8965ZM186.832 91.1636V94.6572H188.831C189.109 94.6572 189.363 94.6206 189.593 94.5474C189.827 94.4692 190.027 94.3569 190.193 94.2104C190.364 94.064 190.496 93.8809 190.589 93.6611C190.687 93.4414 190.735 93.1875 190.735 92.8994C190.735 92.3525 190.569 91.9277 190.237 91.625C189.905 91.3174 189.375 91.1636 188.648 91.1636H186.832ZM193.658 89.8965H197.203V91.1636H196.148V99.7402H197.203V101H193.658V99.7402H194.712V91.1636H193.658V89.8965Z" fill="#4B8E93"/>
<path d="M120.227 29.9082H121.026L120.265 27.7246H116.564L115.821 29.9082H116.812V31H113.688V29.9082H114.526L117.522 21.377H119.395L122.385 29.9082H123.35V31H120.227V29.9082ZM116.926 26.6709H119.896L118.398 22.3672L116.926 26.6709ZM124.321 21.377H128.212C128.644 21.377 129.039 21.4341 129.399 21.5483C129.763 21.6584 130.076 21.8234 130.338 22.0435C130.605 22.2593 130.81 22.5301 130.954 22.856C131.102 23.1818 131.176 23.5563 131.176 23.9795C131.176 24.3307 131.104 24.6629 130.96 24.9761C130.817 25.285 130.613 25.5558 130.351 25.7886C130.089 26.0213 129.773 26.2054 129.405 26.3408C129.041 26.4762 128.635 26.5439 128.187 26.5439H126.479V29.9082H127.444V31H124.321V29.9082H125.235V22.4751H124.321V21.377ZM126.479 22.4751V25.5029H128.212C128.453 25.5029 128.673 25.4712 128.872 25.4077C129.075 25.34 129.249 25.2427 129.393 25.1157C129.541 24.9888 129.655 24.8301 129.735 24.6396C129.82 24.4492 129.862 24.2292 129.862 23.9795C129.862 23.5055 129.718 23.1374 129.431 22.875C129.143 22.6084 128.684 22.4751 128.053 22.4751H126.479ZM132.395 21.377H135.467V22.4751H134.553V29.9082H135.467V31H132.395V29.9082H133.309V22.4751H132.395V21.377ZM105.792 47.0381V45.1084C105.631 45.4427 105.43 45.7347 105.189 45.9844C104.948 46.2298 104.679 46.4329 104.383 46.5938C104.087 46.7546 103.769 46.8752 103.431 46.9556C103.096 47.036 102.756 47.0762 102.409 47.0762C101.782 47.0762 101.205 46.9725 100.676 46.7651C100.147 46.5535 99.6665 46.2192 99.2349 45.7622C98.8075 45.3052 98.4795 44.7635 98.251 44.1372C98.0267 43.5109 97.9146 42.8571 97.9146 42.1758C97.9146 41.4902 98.0267 40.8428 98.251 40.2334C98.4795 39.624 98.7969 39.0929 99.2031 38.6401C99.6136 38.1873 100.1 37.8319 100.663 37.5737C101.23 37.3156 101.844 37.1865 102.504 37.1865C103.113 37.1865 103.636 37.2733 104.072 37.4468C104.512 37.6203 104.886 37.8319 105.195 38.0815C105.508 38.327 105.758 38.5618 105.944 38.7861H106.56V39.916H105.195C104.912 39.4336 104.535 39.0527 104.065 38.7734C103.6 38.4941 103.077 38.3587 102.498 38.3672C102.011 38.3672 101.564 38.4709 101.158 38.6782C100.752 38.8856 100.403 39.1649 100.111 39.5161C99.8231 39.8674 99.5988 40.2715 99.438 40.7285C99.2772 41.1855 99.1968 41.668 99.1968 42.1758C99.1968 42.7386 99.2856 43.2612 99.4634 43.7437C99.6411 44.2261 99.8675 44.6175 100.143 44.918C100.418 45.2184 100.756 45.4681 101.158 45.667C101.564 45.8617 102.013 45.959 102.504 45.959C103.316 45.959 103.983 45.7622 104.503 45.3687C105.024 44.9709 105.388 44.353 105.595 43.5151H102.904V42.4233H106.973V47.0381H105.792ZM112.647 46.3906C112.398 46.6234 112.121 46.8138 111.816 46.9619C111.515 47.11 111.173 47.1841 110.788 47.1841C110.466 47.1841 110.17 47.1333 109.899 47.0317C109.632 46.9302 109.402 46.7926 109.207 46.6191C109.012 46.4414 108.86 46.2362 108.75 46.0034C108.644 45.7707 108.591 45.5231 108.591 45.2607C108.591 44.9814 108.632 44.7339 108.712 44.5181C108.797 44.3022 108.907 44.116 109.042 43.9595C109.182 43.7987 109.342 43.6654 109.524 43.5596C109.711 43.4495 109.903 43.3628 110.102 43.2993C110.305 43.2316 110.51 43.1851 110.718 43.1597C110.929 43.13 111.13 43.1152 111.321 43.1152C111.625 43.1152 111.882 43.1258 112.089 43.147C112.296 43.1639 112.485 43.1893 112.654 43.2231L112.66 42.6836C112.66 42.4508 112.626 42.2498 112.559 42.0806C112.491 41.9071 112.396 41.7653 112.273 41.6553C112.15 41.541 112.002 41.4564 111.829 41.4014C111.659 41.3464 111.469 41.3188 111.257 41.3188C111.058 41.3188 110.868 41.3337 110.686 41.3633C110.504 41.3887 110.333 41.4246 110.172 41.4712C110.015 41.5135 109.869 41.5643 109.734 41.6235C109.603 41.6785 109.491 41.7378 109.397 41.8013L109.01 40.9824C109.167 40.8809 109.338 40.7878 109.524 40.7031C109.711 40.6143 109.905 40.5402 110.108 40.481C110.316 40.4175 110.525 40.3688 110.737 40.335C110.953 40.2969 111.164 40.2778 111.372 40.2778C111.752 40.2778 112.095 40.3244 112.4 40.4175C112.705 40.5063 112.963 40.646 113.174 40.8364C113.386 41.0269 113.549 41.2702 113.663 41.5664C113.777 41.8584 113.834 42.2096 113.834 42.6201L113.828 45.9082H114.558V47H112.647V46.3906ZM111.048 46.1938C111.204 46.1938 111.361 46.1748 111.518 46.1367C111.674 46.0986 111.822 46.0479 111.962 45.9844C112.102 45.9167 112.231 45.8405 112.349 45.7559C112.468 45.667 112.567 45.576 112.647 45.4829L112.654 43.9976H111.283C111.054 43.9976 110.845 44.0229 110.654 44.0737C110.468 44.1245 110.305 44.1986 110.166 44.2959C110.03 44.3932 109.924 44.5138 109.848 44.6577C109.772 44.8016 109.734 44.9666 109.734 45.1528C109.734 45.3263 109.766 45.4787 109.829 45.6099C109.893 45.7368 109.981 45.8447 110.096 45.9336C110.214 46.0182 110.354 46.0838 110.515 46.1304C110.675 46.1727 110.853 46.1938 111.048 46.1938ZM117.795 40.4238H119.338V41.3823H117.783L117.764 45.1782C117.764 45.4364 117.793 45.6458 117.853 45.8066C117.912 45.9674 118.007 46.0796 118.138 46.1431C118.269 46.2023 118.417 46.2319 118.583 46.2319C118.76 46.2319 118.917 46.2171 119.052 46.1875C119.188 46.1536 119.336 46.0986 119.497 46.0225L119.77 46.8159C119.566 46.9217 119.353 47.0042 119.128 47.0635C118.904 47.127 118.64 47.1587 118.335 47.1587C118.047 47.1587 117.795 47.1227 117.58 47.0508C117.368 46.9831 117.188 46.8667 117.04 46.7017C116.896 46.5366 116.788 46.3166 116.716 46.0415C116.644 45.7622 116.608 45.4152 116.608 45.0005L116.627 41.3823H115.58V40.4238H116.64V38.8496L117.795 38.3037V40.4238ZM121.845 43.8643C121.845 44.0505 121.858 44.2218 121.883 44.3784C121.913 44.5308 121.953 44.6768 122.004 44.8164C122.16 45.2396 122.41 45.5591 122.753 45.7749C123.1 45.9865 123.491 46.0923 123.927 46.0923C124.27 46.0923 124.602 46.0457 124.924 45.9526C125.25 45.8553 125.59 45.7051 125.946 45.502L126.422 46.3081C125.99 46.6043 125.556 46.8244 125.121 46.9683C124.685 47.1121 124.232 47.1841 123.762 47.1841C123.318 47.1841 122.905 47.11 122.524 46.9619C122.148 46.8138 121.822 46.5938 121.547 46.3018C121.276 46.0098 121.062 45.6458 120.906 45.21C120.753 44.7741 120.677 44.2663 120.677 43.6865C120.677 43.2168 120.743 42.7746 120.874 42.3599C121.005 41.9409 121.2 41.577 121.458 41.2681C121.72 40.9549 122.044 40.7074 122.429 40.5254C122.814 40.3434 123.263 40.2524 123.775 40.2524C124.27 40.2524 124.683 40.3286 125.013 40.481C125.347 40.6291 125.618 40.828 125.825 41.0776C126.037 41.3231 126.195 41.6045 126.301 41.9219C126.411 42.2393 126.487 42.563 126.53 42.8931C126.551 43.0539 126.564 43.2168 126.568 43.3818C126.576 43.5469 126.581 43.7077 126.581 43.8643H121.845ZM123.692 41.2427C123.417 41.2427 123.176 41.2829 122.969 41.3633C122.766 41.4395 122.592 41.5516 122.448 41.6997C122.304 41.8436 122.188 42.0213 122.099 42.2329C122.014 42.4445 121.951 42.6815 121.909 42.9438H125.317C125.3 42.6984 125.26 42.472 125.197 42.2646C125.138 42.0573 125.044 41.8774 124.917 41.7251C124.791 41.5728 124.628 41.4543 124.429 41.3696C124.23 41.285 123.984 41.2427 123.692 41.2427ZM127.685 40.4238H129.767V41.5156H129.462L130.611 45.7114L132.186 40.4238H133.176L134.68 45.6987L135.88 41.5156H135.499V40.4238H137.581V41.5156H137.016L135.213 47.1016H134.122L132.63 41.8521L131.145 47.1016H130.04L128.25 41.5156H127.685V40.4238ZM142.469 46.3906C142.219 46.6234 141.942 46.8138 141.637 46.9619C141.337 47.11 140.994 47.1841 140.609 47.1841C140.287 47.1841 139.991 47.1333 139.72 47.0317C139.454 46.9302 139.223 46.7926 139.028 46.6191C138.834 46.4414 138.681 46.2362 138.571 46.0034C138.465 45.7707 138.413 45.5231 138.413 45.2607C138.413 44.9814 138.453 44.7339 138.533 44.5181C138.618 44.3022 138.728 44.116 138.863 43.9595C139.003 43.7987 139.164 43.6654 139.346 43.5596C139.532 43.4495 139.724 43.3628 139.923 43.2993C140.126 43.2316 140.332 43.1851 140.539 43.1597C140.751 43.13 140.952 43.1152 141.142 43.1152C141.447 43.1152 141.703 43.1258 141.91 43.147C142.118 43.1639 142.306 43.1893 142.475 43.2231L142.481 42.6836C142.481 42.4508 142.448 42.2498 142.38 42.0806C142.312 41.9071 142.217 41.7653 142.094 41.6553C141.972 41.541 141.823 41.4564 141.65 41.4014C141.481 41.3464 141.29 41.3188 141.079 41.3188C140.88 41.3188 140.689 41.3337 140.507 41.3633C140.325 41.3887 140.154 41.4246 139.993 41.4712C139.837 41.5135 139.691 41.5643 139.555 41.6235C139.424 41.6785 139.312 41.7378 139.219 41.8013L138.832 40.9824C138.988 40.8809 139.16 40.7878 139.346 40.7031C139.532 40.6143 139.727 40.5402 139.93 40.481C140.137 40.4175 140.347 40.3688 140.558 40.335C140.774 40.2969 140.986 40.2778 141.193 40.2778C141.574 40.2778 141.917 40.3244 142.221 40.4175C142.526 40.5063 142.784 40.646 142.996 40.8364C143.207 41.0269 143.37 41.2702 143.484 41.5664C143.599 41.8584 143.656 42.2096 143.656 42.6201L143.649 45.9082H144.379V47H142.469V46.3906ZM140.869 46.1938C141.026 46.1938 141.182 46.1748 141.339 46.1367C141.495 46.0986 141.644 46.0479 141.783 45.9844C141.923 45.9167 142.052 45.8405 142.17 45.7559C142.289 45.667 142.388 45.576 142.469 45.4829L142.475 43.9976H141.104C140.875 43.9976 140.666 44.0229 140.476 44.0737C140.289 44.1245 140.126 44.1986 139.987 44.2959C139.851 44.3932 139.746 44.5138 139.669 44.6577C139.593 44.8016 139.555 44.9666 139.555 45.1528C139.555 45.3263 139.587 45.4787 139.65 45.6099C139.714 45.7368 139.803 45.8447 139.917 45.9336C140.035 46.0182 140.175 46.0838 140.336 46.1304C140.497 46.1727 140.674 46.1938 140.869 46.1938ZM145.274 40.4238H147.769V41.5156H146.988L148.531 45.7114L150.143 41.5156H149.369V40.4238H151.863V41.5156H151.184L148.258 48.8979H149.159V49.9897H146.506V48.8979H147.306L148.004 47.0889L145.808 41.5156H145.274V40.4238Z" fill="#4B8E93"/>
<path d="M327.617 41.7402H328.54L327.661 39.2207H323.391L322.534 41.7402H323.677V43H320.073V41.7402H321.04L324.497 31.8965H326.658L330.107 41.7402H331.221V43H327.617V41.7402ZM323.809 38.0049H327.236L325.508 33.0391L323.809 38.0049ZM332.341 31.8965H336.831C337.329 31.8965 337.786 31.9624 338.201 32.0942C338.621 32.2212 338.982 32.4116 339.285 32.6655C339.592 32.9146 339.829 33.2271 339.995 33.603C340.166 33.979 340.251 34.4111 340.251 34.8994C340.251 35.3047 340.168 35.688 340.002 36.0493C339.836 36.4058 339.602 36.7183 339.299 36.9868C338.997 37.2554 338.633 37.4678 338.208 37.624C337.788 37.7803 337.319 37.8584 336.802 37.8584H334.832V41.7402H335.945V43H332.341V41.7402H333.396V33.1636H332.341V31.8965ZM334.832 33.1636V36.6572H336.831C337.109 36.6572 337.363 36.6206 337.593 36.5474C337.827 36.4692 338.027 36.3569 338.193 36.2104C338.364 36.064 338.496 35.8809 338.589 35.6611C338.687 35.4414 338.735 35.1875 338.735 34.8994C338.735 34.3525 338.569 33.9277 338.237 33.625C337.905 33.3174 337.375 33.1636 336.648 33.1636H334.832ZM341.658 31.8965H345.203V33.1636H344.148V41.7402H345.203V43H341.658V41.7402H342.712V33.1636H341.658V31.8965Z" fill="#4B8E93"/>
<path d="M327.617 187.74H328.54L327.661 185.221H323.391L322.534 187.74H323.677V189H320.073V187.74H321.04L324.497 177.896H326.658L330.107 187.74H331.221V189H327.617V187.74ZM323.809 184.005H327.236L325.508 179.039L323.809 184.005ZM332.341 177.896H336.831C337.329 177.896 337.786 177.962 338.201 178.094C338.621 178.221 338.982 178.412 339.285 178.666C339.592 178.915 339.829 179.227 339.995 179.603C340.166 179.979 340.251 180.411 340.251 180.899C340.251 181.305 340.168 181.688 340.002 182.049C339.836 182.406 339.602 182.718 339.299 182.987C338.997 183.255 338.633 183.468 338.208 183.624C337.788 183.78 337.319 183.858 336.802 183.858H334.832V187.74H335.945V189H332.341V187.74H333.396V179.164H332.341V177.896ZM334.832 179.164V182.657H336.831C337.109 182.657 337.363 182.621 337.593 182.547C337.827 182.469 338.027 182.357 338.193 182.21C338.364 182.064 338.496 181.881 338.589 181.661C338.687 181.441 338.735 181.188 338.735 180.899C338.735 180.353 338.569 179.928 338.237 179.625C337.905 179.317 337.375 179.164 336.648 179.164H334.832ZM341.658 177.896H345.203V179.164H344.148V187.74H345.203V189H341.658V187.74H342.712V179.164H341.658V177.896Z" fill="#4B8E93"/>
<path d="M387.112 153.448C387.112 153.243 387.063 153.07 386.966 152.928C386.873 152.782 386.751 152.665 386.6 152.577C386.448 152.484 386.28 152.418 386.094 152.379C385.909 152.335 385.728 152.313 385.552 152.313C385.357 152.313 385.176 152.335 385.01 152.379C384.849 152.423 384.71 152.486 384.593 152.569C384.476 152.652 384.383 152.755 384.314 152.877C384.251 152.994 384.219 153.126 384.219 153.272C384.219 153.526 384.295 153.729 384.446 153.88C384.603 154.027 384.861 154.164 385.223 154.291L386.68 154.803C387.305 155.013 387.762 155.299 388.05 155.66C388.338 156.021 388.482 156.454 388.482 156.957C388.482 157.293 388.414 157.604 388.277 157.887C388.145 158.165 387.955 158.404 387.706 158.604C387.461 158.8 387.166 158.951 386.819 159.059C386.473 159.171 386.087 159.227 385.662 159.227C385.071 159.227 384.59 159.132 384.219 158.941C383.848 158.751 383.562 158.5 383.362 158.187H382.601V156.927H384.117C384.117 157.137 384.161 157.318 384.249 157.469C384.341 157.616 384.461 157.735 384.607 157.828C384.759 157.921 384.927 157.989 385.113 158.033C385.303 158.077 385.496 158.099 385.691 158.099C385.882 158.099 386.065 158.077 386.241 158.033C386.417 157.984 386.57 157.916 386.702 157.828C386.839 157.735 386.946 157.625 387.024 157.499C387.103 157.372 387.142 157.228 387.142 157.066C387.142 156.822 387.061 156.615 386.9 156.444C386.744 156.273 386.475 156.119 386.094 155.982L384.644 155.44C384.053 155.23 383.614 154.964 383.326 154.642C383.042 154.315 382.901 153.907 382.901 153.419C382.901 153.097 382.959 152.799 383.077 152.525C383.199 152.252 383.372 152.018 383.597 151.822C383.826 151.622 384.104 151.466 384.432 151.354C384.759 151.241 385.132 151.185 385.552 151.185C386.094 151.185 386.548 151.261 386.915 151.412C387.281 151.563 387.61 151.822 387.903 152.188H388.614V153.448H387.112ZM391.302 155.382C391.302 155.597 391.316 155.794 391.346 155.975C391.38 156.151 391.426 156.319 391.485 156.48C391.666 156.969 391.954 157.337 392.349 157.586C392.75 157.831 393.201 157.953 393.704 157.953C394.1 157.953 394.483 157.899 394.854 157.792C395.23 157.679 395.623 157.506 396.033 157.271L396.583 158.202C396.084 158.543 395.584 158.797 395.081 158.963C394.578 159.129 394.056 159.212 393.514 159.212C393.001 159.212 392.525 159.127 392.085 158.956C391.651 158.785 391.275 158.531 390.958 158.194C390.645 157.857 390.398 157.438 390.218 156.935C390.042 156.432 389.954 155.846 389.954 155.177C389.954 154.635 390.03 154.125 390.181 153.646C390.333 153.163 390.557 152.743 390.855 152.386C391.158 152.025 391.531 151.739 391.976 151.529C392.42 151.319 392.938 151.214 393.528 151.214C394.1 151.214 394.576 151.302 394.957 151.478C395.342 151.649 395.655 151.878 395.894 152.167C396.138 152.45 396.321 152.774 396.443 153.141C396.57 153.507 396.658 153.88 396.707 154.261C396.731 154.447 396.746 154.635 396.751 154.825C396.761 155.016 396.766 155.201 396.766 155.382H391.302ZM393.433 152.357C393.116 152.357 392.837 152.403 392.598 152.496C392.364 152.584 392.164 152.713 391.998 152.884C391.832 153.05 391.697 153.255 391.595 153.5C391.497 153.744 391.424 154.017 391.375 154.32H395.308C395.289 154.037 395.242 153.775 395.169 153.536C395.101 153.297 394.993 153.089 394.847 152.914C394.7 152.738 394.512 152.601 394.283 152.503C394.053 152.406 393.77 152.357 393.433 152.357ZM404.083 153.016H402.691V152.547C402.53 152.547 402.364 152.579 402.193 152.643C402.027 152.701 401.871 152.794 401.724 152.921C401.578 153.043 401.448 153.202 401.336 153.397C401.229 153.587 401.15 153.814 401.102 154.078V157.74H402.391V159H398.626V157.74H399.673L399.681 152.672H398.626V151.412H401.05V152.459C401.138 152.303 401.236 152.159 401.343 152.027C401.456 151.891 401.578 151.773 401.709 151.676C401.846 151.573 401.995 151.495 402.156 151.441C402.322 151.383 402.5 151.354 402.691 151.354C402.945 151.354 403.184 151.354 403.409 151.354C403.633 151.354 403.858 151.358 404.083 151.368V153.016ZM405.071 151.412H407.693V152.672H406.983L408.858 157.901L410.689 152.672H410.228V151.412H412.63V152.672H411.978L409.495 159.117H408.147L405.672 152.672H405.071V151.412ZM413.655 151.412H416.131V157.74H417.273V159H413.67V157.74H414.754V152.672H413.655V151.412ZM414.498 148.724C414.498 148.597 414.522 148.478 414.571 148.365C414.625 148.248 414.693 148.148 414.776 148.065C414.864 147.977 414.966 147.909 415.083 147.86C415.201 147.806 415.325 147.779 415.457 147.779C415.584 147.779 415.704 147.806 415.816 147.86C415.933 147.909 416.033 147.977 416.116 148.065C416.204 148.148 416.272 148.248 416.321 148.365C416.375 148.478 416.402 148.597 416.402 148.724C416.402 148.856 416.375 148.98 416.321 149.098C416.272 149.215 416.204 149.32 416.116 149.413C416.033 149.5 415.933 149.571 415.816 149.625C415.704 149.674 415.584 149.698 415.457 149.698C415.325 149.698 415.201 149.674 415.083 149.625C414.966 149.571 414.864 149.5 414.776 149.413C414.693 149.32 414.625 149.215 414.571 149.098C414.522 148.98 414.498 148.856 414.498 148.724ZM424.012 153.434C423.807 153.067 423.545 152.799 423.228 152.628C422.916 152.457 422.552 152.372 422.137 152.372C421.819 152.372 421.521 152.438 421.243 152.569C420.965 152.701 420.721 152.889 420.511 153.133C420.306 153.377 420.142 153.675 420.02 154.027C419.903 154.374 419.844 154.762 419.844 155.191C419.844 155.616 419.903 156 420.02 156.341C420.142 156.683 420.308 156.976 420.518 157.22C420.728 157.459 420.97 157.645 421.243 157.777C421.521 157.904 421.819 157.967 422.137 157.967C422.605 157.967 423.013 157.855 423.36 157.63C423.707 157.401 423.982 157.066 424.188 156.627L425.315 157.184C425.169 157.496 424.988 157.777 424.773 158.026C424.559 158.275 424.314 158.487 424.041 158.663C423.772 158.839 423.475 158.973 423.147 159.066C422.825 159.164 422.483 159.212 422.122 159.212C421.595 159.212 421.106 159.115 420.657 158.919C420.213 158.719 419.827 158.441 419.5 158.084C419.178 157.728 418.926 157.303 418.746 156.81C418.565 156.317 418.475 155.777 418.475 155.191C418.475 154.605 418.57 154.066 418.76 153.573C418.951 153.08 419.212 152.657 419.544 152.306C419.876 151.949 420.264 151.671 420.708 151.471C421.153 151.271 421.629 151.17 422.137 151.17C422.615 151.17 423.067 151.253 423.492 151.419C423.921 151.585 424.297 151.837 424.62 152.174H425.389V153.434H424.012ZM428.011 155.382C428.011 155.597 428.025 155.794 428.055 155.975C428.089 156.151 428.135 156.319 428.194 156.48C428.375 156.969 428.663 157.337 429.058 157.586C429.458 157.831 429.91 157.953 430.413 157.953C430.809 157.953 431.192 157.899 431.563 157.792C431.939 157.679 432.332 157.506 432.742 157.271L433.292 158.202C432.793 158.543 432.293 158.797 431.79 158.963C431.287 159.129 430.765 159.212 430.223 159.212C429.71 159.212 429.234 159.127 428.794 158.956C428.36 158.785 427.984 158.531 427.667 158.194C427.354 157.857 427.107 157.438 426.927 156.935C426.751 156.432 426.663 155.846 426.663 155.177C426.663 154.635 426.739 154.125 426.89 153.646C427.042 153.163 427.266 152.743 427.564 152.386C427.867 152.025 428.24 151.739 428.685 151.529C429.129 151.319 429.646 151.214 430.237 151.214C430.809 151.214 431.285 151.302 431.666 151.478C432.051 151.649 432.364 151.878 432.603 152.167C432.847 152.45 433.03 152.774 433.152 153.141C433.279 153.507 433.367 153.88 433.416 154.261C433.44 154.447 433.455 154.635 433.46 154.825C433.47 155.016 433.475 155.201 433.475 155.382H428.011ZM430.142 152.357C429.825 152.357 429.546 152.403 429.307 152.496C429.073 152.584 428.873 152.713 428.707 152.884C428.541 153.05 428.406 153.255 428.304 153.5C428.206 153.744 428.133 154.017 428.084 154.32H432.017C431.998 154.037 431.951 153.775 431.878 153.536C431.81 153.297 431.702 153.089 431.556 152.914C431.409 152.738 431.221 152.601 430.992 152.503C430.762 152.406 430.479 152.357 430.142 152.357ZM438.931 157.74H439.986V149.164H438.931V147.882L443.926 147.896C444.375 147.896 444.798 147.982 445.193 148.153C445.589 148.319 445.933 148.548 446.226 148.841C446.519 149.129 446.749 149.471 446.915 149.867C447.085 150.262 447.171 150.687 447.171 151.141C447.171 151.615 447.039 152.047 446.775 152.438C446.512 152.828 446.136 153.141 445.647 153.375C445.887 153.502 446.104 153.651 446.299 153.822C446.495 153.988 446.661 154.171 446.797 154.371C446.934 154.571 447.039 154.784 447.112 155.008C447.19 155.233 447.229 155.462 447.229 155.697C447.229 156.161 447.144 156.593 446.973 156.993C446.807 157.394 446.578 157.743 446.285 158.041C445.992 158.338 445.647 158.573 445.252 158.744C444.861 158.915 444.441 159 443.992 159H438.931V157.74ZM441.421 154.063V157.74H444.007C444.241 157.74 444.458 157.682 444.659 157.564C444.859 157.447 445.035 157.296 445.186 157.11C445.337 156.92 445.455 156.705 445.538 156.466C445.625 156.227 445.669 155.982 445.669 155.733C445.669 155.519 445.625 155.311 445.538 155.111C445.45 154.911 445.33 154.732 445.179 154.576C445.032 154.42 444.856 154.295 444.651 154.203C444.451 154.11 444.236 154.063 444.007 154.063H441.421ZM441.421 149.164V152.789H443.941C444.175 152.789 444.393 152.743 444.593 152.65C444.798 152.557 444.974 152.433 445.12 152.276C445.271 152.12 445.391 151.939 445.479 151.734C445.567 151.529 445.611 151.317 445.611 151.097C445.611 150.858 445.567 150.624 445.479 150.394C445.391 150.16 445.271 149.952 445.12 149.771C444.969 149.591 444.791 149.444 444.585 149.332C444.385 149.22 444.17 149.164 443.941 149.164H441.421Z" fill="#4B8E93"/>
<path d="M321.18 76.6769L301.801 77.6668L303.578 58.344" stroke="#4B8E93" stroke-width="2" stroke-linecap="round" stroke-linejoin="round"/>
<path d="M355.013 65.3327L342.691 52.4997C340.823 50.5548 338.141 49.5456 335.234 49.6941C332.326 49.8426 329.432 51.1367 327.188 53.2915L301.801 77.6667" stroke="#4B8E93" stroke-width="2" stroke-linecap="round" stroke-linejoin="round"/>
<path d="M320.18 142.156L300.801 141.166L302.578 160.489" stroke="#4B8E93" stroke-width="2" stroke-linecap="round" stroke-linejoin="round"/>
<path d="M354.013 153.5L341.691 166.333C339.823 168.278 337.141 169.287 334.234 169.139C331.326 168.99 328.432 167.696 326.188 165.541L300.801 141.166" stroke="#4B8E93" stroke-width="2" stroke-linecap="round" stroke-linejoin="round"/>
<rect x="87" y="1" width="76" height="214" rx="7" stroke="#4B8E93" stroke-width="2"/>
<path d="M59.8164 95L42 108.125L59.8164 121.25" stroke="#4B8E93" stroke-width="2" stroke-linecap="round" stroke-linejoin="round"/>
<path d="M45.0002 108.25L210 108.25" stroke="#4B8E93" stroke-width="2" stroke-linecap="round"/>
</svg>
